<svg width="228" height="234" viewBox="0 0 228 234" fill="none" xmlns="http://www.w3.org/2000/svg">
<g clip-path="url(#clip0_931_497)">
<path d="M183.064 94.3591L179.197 81.3318L144.049 78.1797L141.742 95.7651C141.742 95.7651 177.763 103.373 183.062 94.3591H183.064Z" fill="white"/>
<path d="M167.754 99.0702C156.21 99.0702 142.596 96.2391 141.683 96.0468C141.536 96.0162 141.438 95.8774 141.457 95.7284L143.764 78.1429C143.784 77.9901 143.925 77.8818 144.074 77.8946L179.222 81.0467C179.339 81.0568 179.438 81.1383 179.471 81.2504L183.338 94.2778C183.361 94.3542 183.351 94.4357 183.31 94.5045C181.266 97.9813 174.908 99.0689 167.754 99.0689V99.0702ZM142.061 95.5373C145.305 96.1945 177.638 102.499 182.752 94.3185L178.977 81.5994L144.298 78.4893L142.061 95.5373Z" fill="black"/>
<path d="M115.518 46.1624L120.527 49.9296C119.921 52.3443 119.52 54.7768 119.331 57.2055L113.4 59.1872C110.465 60.1679 108.602 63.0512 108.913 66.1294C109.223 69.2077 111.626 71.6605 114.698 72.0337L120.923 72.7915C121.602 75.1552 122.475 77.4578 123.534 79.6777L119.377 84.372C117.325 86.6887 117.153 90.1171 118.962 92.6273C120.77 95.1375 124.077 96.0609 126.925 94.8484L132.679 92.3993C134.432 94.0932 136.345 95.6469 138.399 97.053L137.147 103.194C136.53 106.225 138.095 109.282 140.916 110.552C143.737 111.821 147.063 110.967 148.922 108.495L152.69 103.486C155.105 104.092 157.537 104.493 159.966 104.682L161.948 110.613C162.929 113.547 165.812 115.41 168.891 115.099C171.969 114.789 174.422 112.387 174.796 109.315L175.553 103.091C177.917 102.412 180.221 101.538 182.44 100.479L187.135 104.636C189.452 106.686 192.88 106.859 195.391 105.051C197.901 103.243 198.824 99.9363 197.612 97.0886L195.163 91.3346C196.857 89.5835 198.411 87.6693 199.817 85.615L205.958 86.867C208.991 87.4846 212.046 85.9194 213.316 83.0985C214.586 80.2775 213.731 76.9522 211.259 75.0928L206.25 71.3256C206.856 68.9109 207.257 66.4784 207.446 64.0497L213.377 62.068C216.312 61.0874 218.175 58.204 217.864 55.1258C217.554 52.0476 215.152 49.5947 212.079 49.2215L205.855 48.4638C205.176 46.1 204.302 43.7974 203.243 41.5776L207.4 36.8832C209.451 34.5666 209.624 31.1381 207.815 28.6279C206.007 26.1177 202.7 25.1944 199.852 26.4068L194.098 28.8559C192.345 27.1633 190.432 25.6083 188.378 24.2023L189.63 18.0611C190.248 15.03 188.682 11.9747 185.861 10.7037C183.04 9.43396 179.714 10.2885 177.855 12.7605L174.087 17.7695C171.672 17.1633 169.24 16.7621 166.811 16.5736L164.829 10.6426C163.848 7.70828 160.965 5.84505 157.886 6.1558C154.808 6.46655 152.355 8.8685 151.982 11.9403L151.224 18.1656C148.86 18.8444 146.557 19.7168 144.337 20.7764L139.642 16.6194C137.326 14.569 133.897 14.3958 131.386 16.2043C128.876 18.0127 127.953 21.3189 129.165 24.1666L131.614 29.9206C129.92 31.673 128.367 33.5859 126.96 35.6402L120.819 34.3883C117.788 33.7706 114.731 35.3358 113.461 38.1568C112.191 40.9777 113.046 44.303 115.518 46.1624ZM131.356 46.2108C139.319 28.5197 160.118 20.6325 177.81 28.5961C195.503 36.5584 203.391 57.3558 195.426 75.047C187.463 92.7381 166.664 100.624 148.972 92.6617C131.279 84.6993 123.393 63.902 131.356 46.2108Z" fill="white"/>
<path d="M168.208 115.423C165.256 115.423 162.631 113.561 161.677 110.705L159.755 104.954C157.451 104.764 155.115 104.381 152.806 103.812L149.152 108.669C147.198 111.267 143.763 112.15 140.798 110.815C137.833 109.48 136.216 106.324 136.866 103.139L138.08 97.184C136.124 95.8327 134.287 94.3389 132.617 92.7392L127.037 95.1145C124.047 96.388 120.631 95.4341 118.73 92.7966C116.83 90.159 117.008 86.6172 119.163 84.1834L123.195 79.6304C122.195 77.5137 121.357 75.3028 120.701 73.0537L114.664 72.3188C111.436 71.9253 108.955 69.3922 108.628 66.1586C108.302 62.9237 110.226 59.9448 113.31 58.9158L119.062 56.994C119.25 54.6901 119.635 52.3531 120.204 50.0441L115.346 46.3915C112.748 44.4379 111.865 41.0031 113.199 38.0382C114.534 35.0733 117.689 33.4572 120.875 34.1067L126.831 35.3204C128.181 33.3642 129.675 31.5277 131.276 29.858L128.901 24.2785C127.627 21.2882 128.581 17.8712 131.219 15.9711C133.855 14.0709 137.398 14.2492 139.832 16.4041L144.386 20.4349C146.504 19.4352 148.714 18.5972 150.962 17.9413L151.697 11.9045C152.09 8.67732 154.624 6.19641 157.857 5.8691C161.091 5.5418 164.07 7.46743 165.101 10.5507L167.023 16.3022C169.329 16.4919 171.666 16.8766 173.973 17.4446L177.626 12.5872C179.58 9.9891 183.016 9.10652 185.979 10.4412C188.944 11.7759 190.56 14.9318 189.91 18.117L188.697 24.0722C190.652 25.4222 192.487 26.9161 194.159 28.517L199.739 26.1418C202.73 24.8695 206.147 25.8221 208.047 28.4597C209.948 31.0972 209.769 34.639 207.614 37.0728L203.583 41.6258C204.583 43.7438 205.421 45.9547 206.077 48.2013L212.113 48.9361C215.339 49.3296 217.821 51.8628 218.149 55.0964C218.475 58.3312 216.55 61.3088 213.467 62.3392L207.715 64.261C207.525 66.5661 207.142 68.9019 206.572 71.2108L211.43 74.8634C214.028 76.8171 214.911 80.2519 213.578 83.2168C212.243 86.1804 209.087 87.7978 205.901 87.1483L199.946 85.9346C198.594 87.892 197.099 89.7285 195.5 91.3969L197.876 96.9764C199.15 99.9668 198.196 103.384 195.558 105.283C192.92 107.183 189.377 107.004 186.944 104.85L182.391 100.819C180.274 101.819 178.063 102.657 175.815 103.312L175.08 109.349C174.686 112.576 172.153 115.057 168.919 115.385C168.68 115.409 168.443 115.42 168.207 115.42L168.208 115.423ZM152.69 103.2C152.713 103.2 152.736 103.203 152.76 103.209C155.161 103.812 157.594 104.212 159.989 104.396C160.104 104.405 160.203 104.482 160.239 104.591L162.221 110.522C163.166 113.349 165.894 115.115 168.863 114.815C171.829 114.516 174.153 112.24 174.513 109.282L175.271 103.058C175.285 102.943 175.365 102.849 175.476 102.817C177.818 102.145 180.121 101.272 182.318 100.223C182.421 100.173 182.546 100.191 182.631 100.267L187.326 104.424C189.558 106.401 192.807 106.563 195.224 104.822C197.643 103.079 198.517 99.9476 197.35 97.2044L194.901 91.4504C194.856 91.3447 194.878 91.2212 194.958 91.1384C196.628 89.4114 198.183 87.4998 199.581 85.4557C199.646 85.3602 199.762 85.3131 199.876 85.3373L206.018 86.5892C208.939 87.1852 211.833 85.7015 213.057 82.9837C214.281 80.2659 213.471 77.1164 211.089 75.3245L206.08 71.5572C205.987 71.4885 205.946 71.37 205.974 71.258C206.576 68.8586 206.975 66.426 207.161 64.0292C207.17 63.9146 207.246 63.8165 207.356 63.7796L213.287 61.7979C216.115 60.8529 217.88 58.1224 217.581 55.1562C217.281 52.1901 215.005 49.8671 212.047 49.5067L205.822 48.7489C205.708 48.7349 205.613 48.6547 205.582 48.5438C204.909 46.203 204.037 43.9017 202.987 41.7022C202.937 41.5978 202.955 41.4743 203.032 41.3889L207.189 36.6933C209.164 34.462 209.327 31.2144 207.586 28.7959C205.844 26.3774 202.711 25.5037 199.969 26.6703L194.214 29.1194C194.108 29.164 193.985 29.1423 193.902 29.0621C192.172 27.3911 190.261 25.8348 188.22 24.439C188.125 24.3741 188.078 24.2582 188.102 24.1448L189.354 18.0037C189.949 15.0834 188.466 12.1886 185.748 10.9659C183.029 9.74203 179.88 10.552 178.088 12.9336L174.321 17.9425C174.252 18.0342 174.135 18.0763 174.021 18.0482C171.623 17.4458 169.19 17.0472 166.792 16.86C166.677 16.8511 166.578 16.7747 166.542 16.6651L164.561 10.7341C163.616 7.90681 160.884 6.14292 157.918 6.44093C154.953 6.74022 152.63 9.01609 152.27 11.9746L151.512 18.1998C151.498 18.3144 151.418 18.4087 151.307 18.4405C148.966 19.1129 146.663 19.9853 144.465 21.0348C144.362 21.0844 144.237 21.0666 144.151 20.9902L139.457 16.8333C137.225 14.858 133.976 14.6937 131.559 16.4359C129.14 18.1781 128.265 21.3099 129.433 24.0531L131.882 29.8071C131.927 29.9128 131.905 30.0363 131.825 30.1191C130.154 31.8474 128.599 33.759 127.202 35.8018C127.137 35.8973 127.022 35.9444 126.907 35.9202L120.766 34.6683C117.845 34.0723 114.951 35.556 113.727 38.2738C112.503 40.9916 113.313 44.1411 115.695 45.933L120.705 49.7003C120.798 49.769 120.838 49.8875 120.81 49.9995C120.208 52.4002 119.808 54.8327 119.623 57.2283C119.614 57.3429 119.538 57.4423 119.428 57.4779L113.497 59.4596C110.669 60.4046 108.904 63.1351 109.203 66.1013C109.503 69.0674 111.779 71.3904 114.737 71.7508L120.963 72.5086C121.078 72.5226 121.172 72.6028 121.204 72.7136C121.876 75.0557 122.749 77.3584 123.798 79.5553C123.848 79.6597 123.83 79.7832 123.754 79.8686L119.596 84.5629C117.621 86.7942 117.457 90.0418 119.199 92.4603C120.941 94.8788 124.073 95.7525 126.817 94.5859L132.571 92.1368C132.677 92.0923 132.801 92.1139 132.883 92.1942C134.612 93.8638 136.523 95.4201 138.566 96.8172C138.662 96.8822 138.709 96.9981 138.685 97.1114L137.433 103.253C136.838 106.173 138.321 109.068 141.039 110.29C143.757 111.514 146.906 110.704 148.698 108.323L152.466 103.314C152.521 103.241 152.606 103.199 152.695 103.199L152.69 103.2ZM163.338 96.0416C158.484 96.0416 153.559 95.0406 148.854 92.9226C131.045 84.9081 123.079 63.8993 131.094 46.0922C134.977 37.4663 141.986 30.868 150.833 27.5134C159.679 24.1588 169.301 24.4505 177.928 28.3323C195.736 36.3469 203.703 57.3557 195.688 75.1627C189.789 88.2652 176.854 96.0391 163.339 96.0403L163.338 96.0416ZM163.404 25.7686C159.233 25.7686 155.053 26.5277 151.034 28.0509C142.331 31.3507 135.436 37.8421 131.616 46.3278C123.731 63.8471 131.568 84.5145 149.088 92.3992C166.61 100.284 187.278 92.4476 195.163 74.9284C203.048 57.4092 195.211 36.7417 177.691 28.857C173.122 26.8002 168.268 25.7686 163.404 25.7686Z" fill="black"/>
<path d="M117.931 69.9118C117.931 69.9118 113.999 70.057 109.138 70.0379C108.116 70.0341 105.374 66.7521 103.612 67.3087C102.347 67.7086 104.739 69.8609 104.411 69.8596C101.295 69.8469 98.6065 69.8354 97.6322 69.8303C96.8693 69.8265 96.6133 70.6072 96.9291 71.3026C97.3813 72.296 98.3671 73.8013 99.9974 74.326C102.912 75.2646 108.536 74.8418 110.276 74.5043C114.078 73.7657 117.094 73.7096 117.094 73.7096L117.932 69.9118H117.931Z" fill="white"/>
<path d="M105.028 75.1869C103.183 75.1869 101.273 75.0379 99.9088 74.5986C98.0085 73.986 97.0087 72.1724 96.6674 71.421C96.4457 70.9332 96.4585 70.3958 96.7017 70.0201C96.903 69.7106 97.243 69.5399 97.6328 69.5425C98.5562 69.5476 101.018 69.559 103.925 69.5705C103.912 69.5539 103.899 69.5387 103.888 69.5221C103.429 68.9324 102.801 68.1237 102.987 67.5277C103.038 67.3634 103.173 67.1444 103.526 67.0336C104.741 66.6502 106.267 67.8041 107.492 68.7312C108.123 69.2075 108.836 69.7488 109.139 69.7501C113.938 69.7679 117.88 69.6253 117.92 69.624C118.009 69.6202 118.093 69.6584 118.15 69.7271C118.208 69.7946 118.229 69.8863 118.21 69.9729L117.372 73.7707C117.344 73.9006 117.229 73.9936 117.097 73.9962C117.066 73.9962 114.059 74.0611 110.329 74.7845C109.373 74.9704 107.249 75.1857 105.026 75.1857L105.028 75.1869ZM97.6251 70.1169C97.4252 70.1169 97.2762 70.1895 97.1832 70.3321C97.0469 70.5422 97.0495 70.8759 97.1896 71.1828C97.5003 71.8655 98.4034 73.5097 100.085 74.0522C102.952 74.9755 108.568 74.5425 110.22 74.2216C113.412 73.6014 116.086 73.4587 116.86 73.4294L117.569 70.2111C116.478 70.2455 113.099 70.341 109.135 70.3245C108.641 70.3219 107.98 69.8227 107.145 69.1897C106.024 68.3415 104.629 67.287 103.697 67.5812C103.555 67.6258 103.539 67.6805 103.532 67.6996C103.436 68.0091 104.069 68.8229 104.339 69.1706C104.672 69.6011 104.798 69.7615 104.694 69.9729C104.642 70.0799 104.532 70.1462 104.409 70.1462H104.407C101.292 70.1334 98.6021 70.122 97.629 70.1169H97.6239H97.6251Z" fill="black"/>
<path d="M144.559 36.1832C149.614 35.2777 160.467 34.5836 168.06 35.2179C170.385 35.4115 172.59 36.3246 174.375 37.83C179.604 42.2467 191.485 52.746 192.324 65.7007C192.373 66.4394 192.043 67.1539 191.462 67.6149L191.361 67.052C188.502 69.3279 184.854 69.7596 182.095 67.364L179.636 65.5556C179.636 65.5556 183.861 80.6932 183.573 83.1257C183.285 85.5582 175.879 89.6973 166.615 86.302C159.195 83.5816 149.164 83.3066 143.247 84.8374C143.151 84.8629 142.896 87.5335 142.802 87.5603C142.378 87.6774 141.911 87.5934 141.472 87.4253C140.403 87.0152 139.699 85.9861 139.674 84.8412L139.289 67.6251L126.734 65.2028C126.734 65.2028 132.796 38.2884 144.561 36.182L144.559 36.1832Z" fill="black" stroke="black" stroke-width="3" stroke-miterlimit="10"/>
<path d="M198.915 40.8598C198.773 41.5679 195.474 59.4794 193.977 63.0861C192.446 66.7744 191.038 71.3669 184.369 68.8274C174.409 65.0347 192.03 41.2381 193.067 39.6423C193.103 39.5888 198.918 40.8433 198.915 40.8611V40.8598Z" fill="black"/>
<path d="M109.833 74.7258L109.797 70.5001C109.789 69.6404 110.495 68.9451 111.355 68.9667C114.781 69.0546 122.865 68.7744 125.986 64.4634C128.61 60.8401 129.405 56.4896 129.405 56.4896C129.405 56.4896 142.637 54.499 144.918 65.2275C148.155 80.4416 117.867 77.1341 111.147 76.2197C110.398 76.1178 109.839 75.481 109.833 74.7258Z" fill="black" stroke="black" stroke-width="3" stroke-miterlimit="10"/>
<path d="M194.23 40.1732L193.828 34.7491C193.828 34.7491 193.575 30.5985 194.389 29.8242C194.987 29.2536 195.836 30.5973 196.172 32.486C196.228 32.7993 196.671 32.8005 196.725 32.4885C196.934 31.257 196.976 30.3629 196.907 29.0995C196.834 27.7381 196.576 25.34 197.854 25.2877C199.133 25.2343 202.093 28.5621 201.39 32.5878C200.687 36.6136 197.755 40.9399 197.755 40.9399L194.231 40.1745L194.23 40.1732Z" fill="white"/>
<path d="M197.754 41.2268C197.734 41.2268 197.714 41.2243 197.693 41.2205L194.169 40.4551C194.044 40.4283 193.952 40.3226 193.943 40.1965L193.542 34.7724C193.498 34.0528 193.324 30.4435 194.191 29.6183C194.397 29.4209 194.653 29.3585 194.91 29.4438C195.651 29.687 196.22 31.1223 196.454 32.4379C196.641 31.2586 196.688 30.3888 196.621 29.1165L196.6 28.7713C196.526 27.5627 196.435 26.0586 197.061 25.3645C197.266 25.1378 197.529 25.0156 197.843 25.0028C198.4 24.9787 199.167 25.446 199.872 26.2509C201.048 27.592 202.138 29.9749 201.673 32.6392C200.968 36.6789 198.113 40.925 197.992 41.1033C197.939 41.1835 197.849 41.2294 197.756 41.2294L197.754 41.2268ZM194.5 39.9393L197.623 40.6181C198.152 39.8017 200.499 36.0256 201.108 32.5386C201.538 30.0729 200.528 27.8684 199.441 26.6266C198.787 25.8816 198.169 25.5607 197.866 25.5747C197.708 25.581 197.587 25.6358 197.487 25.7479C197.022 26.2624 197.112 27.7499 197.172 28.7357L197.193 29.0846C197.263 30.4041 197.214 31.307 197.007 32.5373C196.959 32.8136 196.732 33.0085 196.453 33.0098H196.45C196.169 33.0098 195.939 32.8162 195.89 32.5373C195.609 30.9657 195.034 30.0869 194.732 29.9876C194.694 29.9749 194.654 29.9685 194.587 30.0322C194.064 30.5289 194.021 33.1792 194.115 34.7316L194.501 39.938L194.5 39.9393Z" fill="black"/>
<path d="M148.922 24.9726C148.101 24.5994 147.676 25.2209 146.45 25.0528C145.15 24.8745 143.718 23.9104 143.181 22.5018C142.533 20.8003 143.467 19.1778 144.056 18.1551C144.642 17.1376 145.388 16.0054 146.682 15.5163C148.37 14.8782 149.075 15.8576 151.007 15.2565C152.578 14.7674 152.463 14.0109 153.862 13.6136C155.027 13.2825 158.386 13.471 159.139 15.2565C159.615 16.39 158.587 17.079 159.099 18.7575C159.407 19.7649 159.891 19.8885 160.244 20.6666C161.12 22.5973 160.022 25.9889 157.932 27.1249C155.096 28.6672 150.34 25.6157 148.922 24.9726Z" fill="black"/>
<path d="M151.531 28.212L150.871 33.6285C150.745 34.6601 150.003 35.5096 148.996 35.7719L146.211 36.4979L146.603 36.7971C151.447 40.4854 158.154 40.4905 163.004 36.8124L164.447 35.7184L160.987 34.9454C159.992 34.7238 159.228 33.9265 159.047 32.9242L157.609 24.9453L151.531 28.2146V28.212Z" fill="white"/>
<path d="M154.813 39.8423C151.855 39.8423 148.896 38.9024 146.429 37.0239L146.037 36.7246C145.949 36.6584 145.908 36.5476 145.93 36.4406C145.951 36.3324 146.033 36.247 146.138 36.219L148.924 35.4931C149.822 35.2588 150.474 34.5137 150.586 33.5929L151.246 28.1764C151.257 28.0835 151.312 28.0032 151.395 27.9587L157.473 24.6894C157.553 24.6461 157.65 24.6436 157.734 24.6843C157.817 24.7238 157.875 24.8015 157.892 24.8919L159.33 32.8708C159.49 33.7623 160.165 34.4653 161.049 34.6627L164.51 35.4358C164.619 35.46 164.703 35.5453 164.728 35.6548C164.75 35.7644 164.71 35.8764 164.621 35.9439L163.178 37.0379C160.714 38.9063 157.763 39.8411 154.813 39.8411V39.8423ZM146.854 36.6253C151.572 40.1633 158.127 40.1493 162.831 36.582L163.781 35.8612L160.924 35.2231C159.815 34.9747 158.967 34.0922 158.766 32.9727L157.398 25.3822L151.799 28.3929L151.157 33.6617C151.015 34.8181 150.196 35.7542 149.07 36.0484L146.856 36.6253H146.854Z" fill="black"/>
<path d="M156.919 26.0435C156.919 26.0435 159.056 25.2374 158.253 23.4709C157.45 21.7045 156.143 23.0086 156.143 23.0086C156.143 23.0086 154.928 18.6568 152.375 20.3736C149.823 22.0904 147.404 22.7144 147.404 22.7144C147.404 22.7144 148.304 27.0942 149.917 30.0094C150.89 31.767 152.125 32.9921 153.579 32.4012C157.559 30.7838 156.917 26.0448 156.917 26.0448L156.919 26.0435Z" fill="white"/>
<path d="M152.831 32.8405C151.722 32.8405 150.661 31.9388 149.669 30.1456C148.051 27.2266 147.162 22.9499 147.125 22.7691C147.094 22.6201 147.186 22.4723 147.334 22.4341C147.358 22.4278 149.739 21.7999 152.216 20.1341C152.887 19.6819 153.543 19.5699 154.163 19.7991C155.336 20.2309 156.023 21.791 156.29 22.5347C156.555 22.3679 156.946 22.1998 157.369 22.2775C157.844 22.3641 158.229 22.7258 158.514 23.3524C158.762 23.9 158.788 24.4234 158.587 24.9087C158.29 25.627 157.575 26.0498 157.223 26.223C157.29 27.1986 157.328 31.1874 153.689 32.666C153.4 32.7832 153.115 32.8417 152.832 32.8417L152.831 32.8405ZM147.743 22.9143C147.963 23.8936 148.818 27.4291 150.169 29.868C151.252 31.8216 152.361 32.5832 153.472 32.1324C157.195 30.6206 156.657 26.265 156.633 26.0804C156.615 25.9479 156.691 25.8218 156.815 25.7734C156.824 25.7696 157.76 25.4066 158.056 24.6858C158.194 24.3496 158.173 23.9904 157.991 23.588C157.788 23.1422 157.544 22.8913 157.265 22.8404C156.809 22.7589 156.349 23.2059 156.344 23.2097C156.271 23.2823 156.167 23.3103 156.069 23.2836C155.971 23.2581 155.893 23.1817 155.865 23.0837C155.859 23.0607 155.21 20.795 153.962 20.3353C153.518 20.1723 153.051 20.2614 152.534 20.6091C150.433 22.0228 148.446 22.7003 147.741 22.913L147.743 22.9143Z" fill="black"/>
<path d="M139.289 67.9137C139.279 67.9137 139.268 67.9137 139.258 67.9124C139.1 67.8959 138.987 67.7545 139.004 67.5966C140.016 58.0244 141.446 49.9347 141.462 49.8545C141.49 49.6991 141.639 49.5947 141.794 49.6227C141.951 49.6507 142.054 49.7997 142.026 49.9551C142.012 50.0353 140.584 58.1072 139.574 67.6577C139.559 67.8055 139.434 67.915 139.289 67.915V67.9137Z" fill="white"/>
<path d="M36.1197 186.622L38.6517 187.97C38.5486 189.104 38.5409 190.232 38.6275 191.343L36.0866 192.66C34.8295 193.312 34.1913 194.748 34.5505 196.117C34.9097 197.486 36.1693 198.424 37.5844 198.376L40.4527 198.277C40.9265 199.297 41.4856 200.276 42.1212 201.205L40.575 203.622C39.812 204.814 39.9776 206.377 40.9736 207.383C41.9696 208.389 43.5299 208.572 44.7309 207.822L47.1585 206.307C48.0705 206.947 49.0461 207.515 50.0739 208.004L49.944 210.868C49.8804 212.282 50.8038 213.553 52.1691 213.926C53.5345 214.301 54.9776 213.678 55.6424 212.429L56.99 209.897C58.1248 209.999 59.252 210.008 60.3639 209.921L61.6809 212.462C62.333 213.719 63.7684 214.357 65.1376 213.998C66.5068 213.638 67.4455 212.379 67.3971 210.964L67.2977 208.097C68.3179 207.623 69.2974 207.064 70.2259 206.429L72.6433 207.975C73.8354 208.738 75.3982 208.572 76.4044 207.576C77.4106 206.58 77.594 205.02 76.8438 203.819L75.3282 201.392C75.9688 200.48 76.5369 199.504 77.026 198.477L79.8904 198.607C81.3042 198.67 82.5753 197.747 82.9485 196.382C83.323 195.016 82.7001 193.573 81.4507 192.909L78.9186 191.561C79.0218 190.426 79.0294 189.299 78.9428 188.187L81.4838 186.871C82.7409 186.219 83.379 184.783 83.0198 183.414C82.6607 182.045 81.401 181.106 79.986 181.155L77.1189 181.254C76.6451 180.234 76.086 179.255 75.4505 178.326L76.9967 175.909C77.7596 174.717 77.594 173.154 76.598 172.148C75.602 171.142 74.0418 170.959 72.8407 171.709L70.4131 173.224C69.5012 172.584 68.5255 172.016 67.4977 171.527L67.6276 168.661C67.6913 167.247 66.7679 165.976 65.4025 165.603C64.0371 165.229 62.5941 165.852 61.9292 167.101L60.5817 169.633C59.4468 169.53 58.3184 169.522 57.2077 169.609L55.8908 167.068C55.2387 165.811 53.8032 165.173 52.434 165.532C51.0649 165.891 50.1262 167.151 50.1746 168.566L50.2739 171.434C49.2537 171.907 48.2743 172.467 47.3458 173.102L44.9283 171.556C43.7362 170.793 42.1734 170.959 41.1672 171.955C40.161 172.951 39.9776 174.511 40.7278 175.712L42.2435 178.139C41.6028 179.051 41.0347 180.026 40.5457 181.054L37.6812 180.924C36.2674 180.861 34.9963 181.784 34.6231 183.149C34.2487 184.514 34.8715 185.957 36.121 186.622H36.1197ZM43.2815 185.521C45.6263 176.958 54.4681 171.919 63.0297 174.262C71.5925 176.607 76.6324 185.448 74.2876 194.009C71.9428 202.571 63.101 207.611 54.5394 205.266C45.9766 202.921 40.9367 194.08 43.2815 185.519V185.521Z" fill="white"/>
<path d="M64.3587 214.386C63.1449 214.386 62.0101 213.719 61.4267 212.595L60.1964 210.222C59.1991 210.291 58.1776 210.283 57.1536 210.2L55.8952 212.565C55.1616 213.943 53.5988 214.617 52.0933 214.204C50.5879 213.792 49.5855 212.415 49.6568 210.856L49.7791 208.18C48.8569 207.731 47.9743 207.218 47.1502 206.65L44.8831 208.064C43.5585 208.891 41.8683 208.694 40.7704 207.583C39.6725 206.474 39.4942 204.78 40.3348 203.466L41.7792 201.208C41.215 200.368 40.7106 199.482 40.275 198.569L37.5965 198.662C36.0337 198.715 34.6709 197.699 34.2748 196.19C33.8786 194.681 34.5702 193.124 35.956 192.406L38.3288 191.176C38.26 190.178 38.2677 189.157 38.3505 188.133L35.9866 186.875C34.6085 186.141 33.9347 184.579 34.3461 183.073C34.7587 181.568 36.1318 180.566 37.6945 180.637L40.3705 180.758C40.8201 179.836 41.3347 178.953 41.9015 178.129L40.4864 175.862C39.6598 174.539 39.8572 172.848 40.9679 171.75C42.0772 170.652 43.7712 170.474 45.0856 171.314L47.3438 172.759C48.1832 172.194 49.0696 171.689 49.9829 171.255L49.8899 168.576C49.8364 167.016 50.8528 165.651 52.3633 165.255C53.8726 164.86 55.429 165.55 56.1474 166.936L57.3778 169.309C58.3763 169.24 59.3978 169.247 60.4205 169.33L61.6789 166.965C62.4126 165.587 63.9753 164.913 65.4808 165.325C66.9863 165.737 67.9874 167.114 67.9173 168.673L67.7963 171.349C68.7185 171.798 69.6011 172.312 70.4252 172.88L72.6923 171.465C74.0169 170.638 75.7071 170.836 76.805 171.946C77.9029 173.055 78.0825 174.749 77.2406 176.064L75.7962 178.322C76.3605 179.162 76.8661 180.047 77.3004 180.96L79.9789 180.867C81.5392 180.814 82.9046 181.83 83.3007 183.341C83.6968 184.85 83.0052 186.406 81.6194 187.124L79.2466 188.355C79.3154 189.353 79.3077 190.375 79.2249 191.397L81.5901 192.656C82.9682 193.389 83.642 194.952 83.2293 196.457C82.8167 197.963 81.4437 198.962 79.8809 198.894L77.2049 198.773C76.7553 199.695 76.2407 200.578 75.674 201.401L77.089 203.668C77.9156 204.991 77.7182 206.683 76.6075 207.78C75.4982 208.878 73.8055 209.058 72.4898 208.216L70.2316 206.772C69.3922 207.336 68.5058 207.842 67.5926 208.276L67.6855 210.954C67.739 212.514 66.7226 213.88 65.2133 214.276C64.9293 214.35 64.6427 214.386 64.3613 214.386H64.3587ZM60.3645 209.636C60.4715 209.636 60.5696 209.696 60.6192 209.791L61.9362 212.332C62.531 213.478 63.8161 214.049 65.0656 213.723C66.3138 213.396 67.1544 212.266 67.1098 210.977L67.0105 208.11C67.0067 207.996 67.0716 207.889 67.1761 207.84C68.1797 207.374 69.1502 206.82 70.0622 206.195C70.1564 206.13 70.2813 206.127 70.3793 206.19L72.7967 207.736C73.8845 208.431 75.2842 208.284 76.2025 207.376C77.1196 206.467 77.2839 205.069 76.5999 203.975L75.0842 201.548C75.0231 201.45 75.0269 201.325 75.0932 201.231C75.7211 200.338 76.284 199.371 76.7668 198.356C76.8164 198.252 76.9221 198.188 77.0393 198.193L79.9051 198.323C81.1889 198.382 82.3327 197.554 82.674 196.308C83.0154 195.064 82.4575 193.77 81.3176 193.164L78.7855 191.816C78.6836 191.762 78.6238 191.652 78.634 191.537C78.7346 190.418 78.7435 189.3 78.6582 188.212C78.6492 188.097 78.7104 187.988 78.8123 187.934L81.3532 186.618C82.4995 186.024 83.0701 184.737 82.7441 183.488C82.4167 182.24 81.2794 181.396 79.9981 181.443L77.131 181.542C77.0139 181.545 76.9094 181.481 76.861 181.377C76.3949 180.375 75.8408 179.404 75.2154 178.491C75.1505 178.395 75.1479 178.272 75.2103 178.174L76.7566 175.757C77.452 174.669 77.3042 173.269 76.3961 172.352C75.488 171.435 74.0895 171.271 72.9954 171.955L70.5678 173.471C70.4698 173.532 70.3449 173.528 70.2507 173.462C69.3578 172.834 68.3911 172.271 67.3773 171.788C67.2729 171.738 67.2092 171.632 67.2143 171.516L67.3442 168.65C67.4028 167.361 66.5736 166.223 65.3292 165.881C64.0849 165.54 62.7908 166.098 62.1846 167.238L60.837 169.77C60.7823 169.871 60.6727 169.931 60.5581 169.92C59.4398 169.819 58.3215 169.81 57.2326 169.896C57.1179 169.905 57.0084 169.843 56.9562 169.742L55.6392 167.201C55.0457 166.055 53.7593 165.484 52.5098 165.81C51.2616 166.137 50.421 167.267 50.4656 168.556L50.5649 171.424C50.5687 171.539 50.5038 171.646 50.3993 171.694C49.397 172.16 48.4252 172.714 47.5132 173.339C47.4177 173.404 47.2929 173.407 47.1961 173.344L44.7787 171.798C43.691 171.103 42.2912 171.251 41.3729 172.159C40.4558 173.067 40.2915 174.465 40.9755 175.559L42.4912 177.987C42.5523 178.085 42.5485 178.209 42.4822 178.304C41.8543 179.197 41.2914 180.163 40.8087 181.178C40.759 181.283 40.6507 181.346 40.5361 181.341L37.6716 181.211C36.3788 181.153 35.244 181.981 34.9027 183.226C34.5613 184.47 35.1192 185.764 36.2591 186.371L38.7912 187.718C38.8931 187.773 38.9529 187.882 38.9427 187.997C38.8421 189.116 38.8332 190.235 38.9185 191.322C38.9274 191.437 38.8663 191.546 38.7644 191.6L36.2235 192.917C35.0772 193.51 34.5066 194.798 34.8326 196.046C35.16 197.294 36.2884 198.137 37.5786 198.091L40.4457 197.992C40.5641 197.988 40.6673 198.053 40.7157 198.157C41.1818 199.161 41.7359 200.133 42.3612 201.043C42.4262 201.139 42.4288 201.264 42.3663 201.36L40.8201 203.778C40.1247 204.865 40.2724 206.265 41.1806 207.183C42.0887 208.1 43.4872 208.264 44.5812 207.581L47.0089 206.065C47.1069 206.004 47.2317 206.008 47.326 206.074C48.2188 206.702 49.1855 207.265 50.2007 207.747C50.3051 207.797 50.3688 207.904 50.3637 208.02L50.2338 210.885C50.1752 212.174 51.0031 213.313 52.2487 213.654C53.4931 213.996 54.7859 213.438 55.3934 212.298L56.7409 209.766C56.7957 209.664 56.9052 209.604 57.0199 209.616C58.1394 209.716 59.2577 209.725 60.3454 209.64C60.353 209.64 60.3607 209.64 60.3683 209.64L60.3645 209.636ZM58.7813 206.127C57.3548 206.127 55.9054 205.939 54.4649 205.545C50.2503 204.392 46.7363 201.665 44.5723 197.868C42.4084 194.072 41.8518 189.66 43.0057 185.446C44.1597 181.232 46.8866 177.718 50.6834 175.554C54.4802 173.39 58.8921 172.834 63.1067 173.988C71.8084 176.37 76.9489 185.387 74.5659 194.087C72.5777 201.346 65.9699 206.129 58.7813 206.129V206.127ZM58.761 173.972C56.0544 173.972 53.3823 174.675 50.9674 176.051C47.3043 178.139 44.673 181.53 43.5598 185.596C42.4466 189.663 42.9828 193.92 45.0716 197.583C47.1604 201.246 50.5509 203.877 54.6177 204.99C56.0073 205.371 57.4071 205.552 58.7826 205.552C65.7203 205.552 72.0962 200.939 74.0144 193.933C76.3133 185.538 71.3524 176.837 62.9564 174.538C61.5707 174.158 60.162 173.97 58.7622 173.97L58.761 173.972Z" fill="black"/>
<path d="M72.6117 189.824C72.6117 182.105 66.3593 175.847 58.6447 175.847C50.9302 175.847 44.6777 182.105 44.6777 189.824C44.6777 197.543 50.9302 203.802 58.6447 203.802C66.3593 203.802 72.6117 197.543 72.6117 189.824Z" fill="white"/>
<path d="M68.4788 199.987C65.9633 202.361 62.5741 203.819 58.8409 203.819C55.1078 203.819 51.7199 202.361 49.2031 199.987C52.1134 199.085 55.3829 198.578 58.8409 198.578C62.2989 198.578 65.5684 199.085 68.4788 199.987Z" fill="black"/>
<path d="M54.3393 181.658C54.9723 181.251 55.7098 181.034 56.4625 181.034H60.8949C61.8845 181.034 62.8372 181.409 63.5632 182.082L63.8065 182.308C64.9579 183.378 65.3603 185.031 64.8267 186.511L63.3696 190.555L54.0247 190.497L52.7052 186.078C52.2059 184.405 52.8721 182.604 54.3393 181.66V181.658Z" fill="black"/>
<path d="M56.6489 183.422C56.6693 183.413 56.71 183.396 56.71 183.396L63.4171 187.751V190.378C63.4171 191.881 62.7141 193.219 61.6213 194.086V198.089C61.6213 199.672 60.3387 200.954 58.7555 200.954C57.1724 200.954 55.8898 199.672 55.8898 198.089V194.189C54.718 193.328 53.9551 191.945 53.9551 190.378V187.592C53.9551 185.736 55.0606 184.138 56.6489 183.422Z" fill="white"/>
<path d="M58.6882 195.396C55.9218 195.396 53.6699 193.145 53.6699 190.378V187.591C53.6699 184.912 55.8504 182.731 58.529 182.731H63.4186C63.5765 182.731 63.7051 182.86 63.7051 183.018V190.377C63.7051 192.339 62.5512 194.132 60.7642 194.946C60.619 195.011 60.4496 194.949 60.3847 194.804C60.3185 194.66 60.3821 194.489 60.5273 194.424C62.1105 193.703 63.132 192.115 63.132 190.377V183.305H58.529C56.165 183.305 54.2431 185.228 54.2431 187.59V190.377C54.2431 192.827 56.2364 194.82 58.6869 194.82C58.8448 194.82 58.9735 194.949 58.9735 195.107C58.9735 195.265 58.8448 195.393 58.6869 195.393L58.6882 195.396Z" fill="black"/>
<path d="M58.8417 204.094C55.05 204.094 51.4787 202.63 48.7772 199.964C45.8274 197.054 44.2812 193.012 44.5372 188.873C44.5474 188.715 44.6798 188.593 44.8416 188.604C44.9995 188.614 45.1205 188.749 45.1103 188.908C44.8658 192.882 46.3496 196.764 49.181 199.557C51.7754 202.115 55.2029 203.521 58.843 203.521C58.8748 203.521 58.9067 203.521 58.9398 203.521C62.6156 203.496 66.0621 202.041 68.6426 199.424C71.2243 196.807 72.6317 193.342 72.6075 189.666C72.582 185.991 71.1275 182.544 68.5101 179.963C63.3645 174.886 55.1061 174.669 49.7095 179.467C49.5911 179.573 49.4102 179.562 49.3045 179.443C49.1988 179.325 49.2103 179.144 49.3287 179.038C54.9494 174.039 63.5517 174.266 68.9126 179.554C71.6382 182.242 73.1539 185.833 73.1806 189.661C73.2061 193.489 71.7401 197.1 69.0501 199.825C66.3614 202.551 62.771 204.066 58.9423 204.093C58.9092 204.093 58.8748 204.093 58.8417 204.093V204.094Z" fill="black"/>
<path d="M58.7558 201.24C57.0173 201.24 55.6035 199.827 55.6035 198.088V194.288C55.6035 194.13 55.7322 194.001 55.8901 194.001C56.048 194.001 56.1767 194.13 56.1767 194.288V198.088C56.1767 199.51 57.3332 200.667 58.7558 200.667C60.1785 200.667 61.335 199.511 61.335 198.088V194.085C61.335 193.927 61.4636 193.799 61.6216 193.799C61.7795 193.799 61.9082 193.927 61.9082 194.085V198.088C61.9082 199.827 60.4944 201.24 58.7558 201.24Z" fill="black"/>
<path d="M194.682 175.094C194.866 178.048 193.012 180.692 190.172 181.523L184.192 183.272C184.082 183.304 184.002 183.399 183.988 183.514C183.708 185.917 183.224 188.314 182.55 190.638C182.518 190.749 182.555 190.867 182.644 190.94L187.478 194.87C189.774 196.737 190.458 199.893 189.141 202.545C187.826 205.196 184.897 206.558 182.022 205.857L175.986 204.386C175.875 204.358 175.756 204.402 175.688 204.493C174.264 206.409 172.641 208.243 170.864 209.943C170.781 210.023 170.753 210.144 170.795 210.252L173.014 216.07C174.069 218.835 173.084 221.911 170.618 223.549C168.153 225.186 164.935 224.901 162.796 222.857L158.293 218.556C158.209 218.476 158.086 218.454 157.981 218.5C155.724 219.478 153.406 220.263 151.088 220.832C150.976 220.859 150.891 220.95 150.873 221.065L149.888 227.199C149.418 230.12 147.028 232.292 144.074 232.476C141.114 232.662 138.475 230.808 137.645 227.967L135.896 221.988C135.863 221.878 135.768 221.797 135.654 221.785C133.249 221.503 130.852 221.019 128.529 220.347C128.502 220.339 128.475 220.335 128.449 220.335C128.363 220.335 128.282 220.372 128.226 220.441L124.297 225.273C122.428 227.569 119.272 228.254 116.62 226.938C113.97 225.621 112.607 222.693 113.309 219.817L114.78 213.782C114.806 213.669 114.764 213.552 114.671 213.484C112.756 212.061 110.923 210.438 109.221 208.662C109.142 208.578 109.02 208.551 108.912 208.592L103.095 210.81C100.329 211.866 97.2541 210.88 95.6161 208.415C93.9782 205.949 94.2622 202.732 96.3077 200.592L100.609 196.092C100.689 196.008 100.711 195.884 100.665 195.778C99.6868 193.523 98.9022 191.204 98.3329 188.886C98.3048 188.774 98.2131 188.69 98.0998 188.671L91.9658 187.686C89.0428 187.217 86.8724 184.827 86.6865 181.872C86.5018 178.918 88.3563 176.275 91.1965 175.443L97.1751 173.695C97.2859 173.663 97.3662 173.567 97.3802 173.453C97.6604 171.051 98.1444 168.654 98.8181 166.328C98.85 166.218 98.813 166.099 98.7239 166.027L93.8903 162.096C91.5939 160.228 90.9099 157.072 92.2269 154.422C93.5426 151.77 96.4708 150.409 99.3467 151.109L105.383 152.58C105.495 152.607 105.612 152.565 105.681 152.472C107.106 150.555 108.729 148.721 110.503 147.024C110.587 146.943 110.614 146.821 110.573 146.714L108.354 140.896C107.299 138.132 108.284 135.056 110.75 133.418C113.216 131.78 116.433 132.066 118.574 134.11L123.075 138.41C123.159 138.491 123.281 138.512 123.387 138.466C125.64 137.49 127.961 136.705 130.28 136.135C130.392 136.108 130.478 136.016 130.495 135.902L131.48 129.768C131.95 126.845 134.341 124.675 137.294 124.49C140.253 124.304 142.893 126.159 143.724 129L145.472 134.978C145.504 135.089 145.6 135.169 145.714 135.183C148.118 135.463 150.515 135.946 152.839 136.62C152.95 136.652 153.069 136.615 153.141 136.526L157.073 131.694C158.94 129.396 162.096 128.712 164.748 130.029C167.399 131.346 168.761 134.274 168.06 137.15L166.59 143.185C166.562 143.297 166.604 143.414 166.697 143.483C168.614 144.907 170.446 146.529 172.147 148.305C172.227 148.389 172.348 148.416 172.456 148.375L178.273 146.155C181.038 145.101 184.114 146.085 185.752 148.552C187.39 151.018 187.106 154.233 185.061 156.374L180.759 160.875C180.679 160.959 180.657 161.081 180.703 161.188C181.681 163.442 182.466 165.762 183.035 168.081C183.063 168.193 183.155 168.277 183.268 168.295L189.402 169.279C192.325 169.749 194.496 172.14 194.682 175.094ZM175.858 178.43C175.858 171.746 173.961 164.991 169.992 159.018C164.793 151.191 156.856 145.856 147.644 143.996C138.43 142.138 129.046 143.977 121.218 149.177C113.389 154.376 108.053 162.313 106.195 171.525C105.723 173.868 105.488 176.223 105.488 178.56C105.49 185.41 107.498 192.112 111.375 197.949C118.142 208.136 129.336 213.654 140.738 213.654C147.421 213.654 154.178 211.757 160.15 207.789C170.338 201.024 175.858 189.83 175.858 178.43Z" fill="#F3F3F3"/>
<path d="M185.992 148.393L186.232 148.235C188.019 150.925 187.708 154.435 185.477 156.77L181.307 161.135C182.236 163.304 182.989 165.53 183.548 167.759L189.494 168.714C192.684 169.226 195.052 171.834 195.255 175.057C195.457 178.282 193.433 181.167 190.333 182.074L184.537 183.769C184.256 186.078 183.793 188.379 183.155 190.615L187.841 194.426C190.346 196.464 191.093 199.907 189.657 202.8C188.22 205.693 185.024 207.179 181.886 206.414L176.035 204.989C174.657 206.825 173.099 208.585 171.399 210.226L173.551 215.865C174.703 218.883 173.626 222.239 170.936 224.026C168.245 225.813 164.735 225.503 162.4 223.271L158.034 219.101C155.865 220.031 153.638 220.785 151.41 221.343L150.456 227.289C149.943 230.478 147.334 232.847 144.111 233.049C143.963 233.058 143.815 233.063 143.667 233.063C140.625 233.063 137.96 231.086 137.094 228.127L135.399 222.331C133.09 222.052 130.788 221.587 128.553 220.949L124.742 225.635C122.704 228.141 119.259 228.887 116.366 227.451C113.474 226.014 111.987 222.82 112.752 219.682L114.178 213.83C112.342 212.453 110.58 210.894 108.94 209.195L103.3 211.346C100.282 212.498 96.9264 211.423 95.1394 208.732C93.3512 206.042 93.662 202.532 95.8934 200.196L100.063 195.832C99.1336 193.662 98.3796 191.436 97.8217 189.208L91.875 188.253C88.6857 187.741 86.318 185.131 86.1155 181.908C85.913 178.685 87.9368 175.8 91.0369 174.893L96.8334 173.198C97.1136 170.89 97.5772 168.589 98.2153 166.351L93.5295 162.541C91.0229 160.503 90.2766 157.059 91.7132 154.167C93.1499 151.274 96.3456 149.787 99.4839 150.551L105.335 151.978C106.714 150.14 108.272 148.379 109.97 146.741L107.819 141.102C106.667 138.083 107.742 134.727 110.434 132.94C113.124 131.154 116.635 131.463 118.97 133.696L123.335 137.865C125.504 136.936 127.73 136.182 129.96 135.624L130.914 129.678C131.426 126.489 134.036 124.12 137.26 123.917C140.478 123.715 143.368 125.738 144.275 128.838L145.971 134.636C148.279 134.915 150.581 135.379 152.817 136.017L156.628 131.331C158.666 128.826 162.111 128.079 165.002 129.515C167.896 130.952 169.384 134.147 168.618 137.285L167.192 143.137C169.03 144.515 170.79 146.072 172.43 147.771L178.07 145.62C181.089 144.469 184.445 145.544 186.231 148.234L185.992 148.393ZM185.753 148.552C184.115 146.085 181.039 145.101 178.274 146.155L172.457 148.375C172.349 148.416 172.228 148.389 172.148 148.305C170.447 146.529 168.615 144.907 166.698 143.483C166.605 143.414 166.563 143.297 166.591 143.185L168.061 137.15C168.762 134.274 167.4 131.346 164.749 130.029C162.097 128.712 158.941 129.396 157.074 131.694L153.142 136.526C153.069 136.615 152.951 136.652 152.84 136.62C150.516 135.946 148.119 135.463 145.715 135.183C145.601 135.169 145.505 135.089 145.473 134.978L143.725 129C142.894 126.159 140.254 124.304 137.295 124.49C134.342 124.675 131.951 126.845 131.481 129.768L130.496 135.902C130.479 136.016 130.393 136.108 130.281 136.135C127.962 136.705 125.641 137.49 123.388 138.466C123.282 138.512 123.16 138.491 123.076 138.41L118.575 134.11C116.434 132.066 113.217 131.78 110.751 133.418C108.285 135.056 107.3 138.132 108.355 140.896L110.574 146.714C110.614 146.821 110.588 146.943 110.504 147.024C108.729 148.721 107.107 150.555 105.682 152.472C105.613 152.565 105.496 152.607 105.383 152.58L99.3476 151.109C96.4717 150.409 93.5435 151.77 92.2278 154.422C90.9108 157.072 91.5948 160.228 93.8912 162.096L98.7248 166.027C98.8139 166.099 98.8509 166.218 98.819 166.328C98.1453 168.654 97.6613 171.051 97.3811 173.453C97.367 173.567 97.2868 173.663 97.176 173.695L91.1974 175.443C88.3571 176.275 86.5027 178.918 86.6874 181.872C86.8733 184.827 89.0436 187.217 91.9667 187.686L98.1007 188.671C98.214 188.69 98.3057 188.774 98.3338 188.886C98.9031 191.204 99.6877 193.523 100.666 195.778C100.712 195.884 100.69 196.008 100.61 196.092L96.3086 200.592C94.2631 202.732 93.9791 205.949 95.617 208.415C97.255 210.88 100.33 211.866 103.096 210.81L108.913 208.592C109.021 208.551 109.143 208.578 109.222 208.662C110.924 210.438 112.757 212.061 114.672 213.484C114.765 213.552 114.807 213.669 114.781 213.782L113.31 219.817C112.608 222.693 113.971 225.621 116.621 226.938C119.273 228.254 122.429 227.569 124.297 225.273L128.227 220.441C128.283 220.372 128.364 220.335 128.45 220.335C128.476 220.335 128.503 220.339 128.53 220.347C130.853 221.019 133.25 221.503 135.655 221.785C135.769 221.797 135.864 221.878 135.897 221.988L137.645 227.967C138.476 230.808 141.115 232.662 144.075 232.476C147.029 232.292 149.419 230.12 149.889 227.199L150.874 221.065C150.892 220.95 150.977 220.859 151.089 220.832C153.407 220.263 155.725 219.478 157.982 218.5C158.086 218.454 158.21 218.476 158.294 218.556L162.796 222.857C164.936 224.901 168.154 225.186 170.619 223.549C173.085 221.911 174.07 218.835 173.015 216.07L170.796 210.252C170.754 210.144 170.782 210.023 170.865 209.943C172.642 208.243 174.265 206.409 175.689 204.493C175.757 204.402 175.876 204.358 175.987 204.386L182.022 205.857C184.898 206.558 187.827 205.196 189.142 202.545C190.459 199.893 189.775 196.737 187.479 194.87L182.645 190.94C182.556 190.867 182.519 190.749 182.551 190.638C183.225 188.314 183.709 185.917 183.989 183.514C184.003 183.399 184.083 183.304 184.193 183.272L190.173 181.523C193.013 180.692 194.867 178.048 194.683 175.094C194.497 172.14 192.326 169.749 189.403 169.279L183.269 168.295C183.156 168.277 183.064 168.193 183.036 168.081C182.467 165.762 181.682 163.442 180.704 161.188C180.658 161.081 180.68 160.959 180.76 160.875L185.061 156.374C187.107 154.233 187.391 151.018 185.753 148.552Z" fill="black"/>
<path d="M169.992 159.018C173.961 164.991 175.858 171.746 175.858 178.429C175.858 189.829 170.338 201.024 160.15 207.789C154.178 211.756 147.421 213.654 140.738 213.654C129.336 213.654 118.142 208.135 111.375 197.948C107.498 192.111 105.49 185.41 105.488 178.559C105.488 176.222 105.723 173.867 106.195 171.524C108.053 162.312 113.389 154.375 121.218 149.177C129.046 143.977 138.43 142.138 147.644 143.996C156.856 145.855 164.793 151.19 169.992 159.018ZM175.284 178.431C175.284 171.855 173.418 165.211 169.514 159.335C164.399 151.635 156.592 146.388 147.529 144.559C138.469 142.73 129.236 144.54 121.535 149.654C113.835 154.769 108.586 162.576 106.757 171.637C106.292 173.943 106.063 176.259 106.063 178.558C106.063 185.296 108.039 191.888 111.854 197.631C122.413 213.526 143.936 217.869 159.833 207.311C169.854 200.656 175.284 189.643 175.284 178.431Z" fill="black"/>
<mask id="mask0_931_497" style="mask-type:luminance" maskUnits="userSpaceOnUse" x="84" y="75" width="145" height="139">
<path d="M196.396 77.8635L110.195 101.605L84.8613 143.987L107.255 168.474C104.389 178.061 105.646 188.804 111.616 197.79C122.279 213.844 143.939 218.215 159.994 207.551C169.681 201.117 175.112 190.681 175.555 179.888L208.825 173.706L228.002 133.116L223.093 75.0361L196.397 77.8622L196.396 77.8635Z" fill="white"/>
</mask>
<g mask="url(#mask0_931_497)">
<path d="M140.536 136.526C140.536 136.526 131.169 132.262 128.027 131.589C124.885 130.915 119.514 125.667 127.081 118.867C129.533 116.664 128.947 112.995 134.273 110.576C139.6 108.158 145.112 109.445 146.857 112.731C148.602 116.017 146.297 120.124 143.961 121.342C141.625 122.559 140.537 136.526 140.537 136.526H140.536Z" fill="black"/>
<path d="M136.352 143.584L133.807 151.382C133.807 151.382 151.278 150.329 150.609 147.74C150.419 147.006 149.974 146.473 149.43 146.087C146.745 144.176 147.838 136.252 147.838 136.252L152.485 132.316C153.337 131.594 153.504 130.344 152.872 129.425L150.607 126.126C150.224 125.57 150.112 124.87 150.303 124.222L150.705 122.857L146.378 119.97L142.604 115.548C136.581 117.094 134.751 119.484 136.166 124.029C137.073 126.942 135.571 127.514 135.571 127.514C135.571 127.514 132.535 125.843 132.321 129.086C132.107 132.328 137.581 132.724 137.581 132.724C138.643 133.839 139.007 135.446 138.53 136.909L136.352 143.584Z" fill="white"/>
<path d="M133.808 151.669C133.72 151.669 133.636 151.628 133.581 151.557C133.523 151.482 133.506 151.382 133.535 151.292L136.08 143.494L138.258 136.819C138.692 135.488 138.382 134.035 137.447 133C136.615 132.921 131.821 132.321 132.036 129.066C132.104 128.04 132.449 127.351 133.062 127.015C133.972 126.517 135.161 126.996 135.568 127.19C135.846 127.002 136.571 126.284 135.894 124.111C135.24 122.009 135.278 120.348 136.013 119.032C136.941 117.368 139.013 116.172 142.535 115.268C142.642 115.241 142.754 115.275 142.824 115.359L146.571 119.752L150.865 122.617C150.969 122.687 151.016 122.816 150.981 122.937L150.58 124.302C150.413 124.87 150.51 125.475 150.845 125.962L153.11 129.26C153.829 130.306 153.64 131.713 152.672 132.533L148.11 136.399C147.994 137.342 147.248 144.18 149.598 145.852C150.266 146.327 150.699 146.939 150.888 147.667C150.955 147.93 150.898 148.195 150.722 148.437C149.084 150.687 135.382 151.575 133.825 151.669C133.818 151.669 133.813 151.669 133.807 151.669H133.808ZM133.993 127.369C133.762 127.369 133.534 127.411 133.334 127.521C132.905 127.756 132.66 128.289 132.607 129.105C132.413 132.025 137.549 132.435 137.601 132.439C137.672 132.444 137.739 132.476 137.788 132.527C138.924 133.719 139.313 135.433 138.802 136.999L134.212 151.069C138.647 150.779 149.047 149.762 150.259 148.099C150.355 147.967 150.349 147.875 150.333 147.811C150.18 147.216 149.821 146.715 149.265 146.32C146.471 144.332 147.51 136.543 147.556 136.213C147.565 136.143 147.601 136.079 147.654 136.033L152.302 132.097C153.044 131.467 153.188 130.389 152.638 129.586L150.372 126.288C149.939 125.657 149.814 124.875 150.029 124.142L150.372 122.979L146.221 120.209C146.199 120.195 146.179 120.177 146.163 120.157L142.506 115.871C139.252 116.727 137.346 117.824 136.515 119.315C135.852 120.502 135.829 121.973 136.443 123.945C137.42 127.079 135.748 127.756 135.676 127.784C135.597 127.814 135.51 127.809 135.436 127.768C135.427 127.763 134.701 127.372 133.995 127.372L133.993 127.369Z" fill="black"/>
<path d="M134.744 123.56L140.641 127.726C143.141 129.492 146.553 129.193 148.707 127.018L150.547 125.158L157.122 131.336C157.914 132.262 157.749 133.667 156.763 134.384L151.634 138.812C150.116 139.916 148.105 140.073 146.432 139.218L137.904 134.853C137.904 134.853 139.584 131.805 135.572 127.514C131.56 123.224 134.743 123.56 134.743 123.56H134.744Z" fill="black"/>
<path d="M208.865 117.551L197.788 123.1C197.788 123.1 199.056 142.793 187.407 147.3C181.803 149.469 176.906 149.119 173.331 148.171C167.919 146.737 162.245 146.619 156.803 147.933L134.938 153.211C122.854 156.127 113.664 165.957 111.579 178.21C109.35 191.312 106.934 208.605 106.628 223.382C106.572 226.106 109.215 228.072 111.803 227.218L168.29 208.561L170.438 173.337C177.501 173.928 187.812 173.103 200.808 167.442C228.283 155.471 208.864 117.551 208.864 117.551H208.865Z" fill="white"/>
<path d="M110.554 227.708C109.67 227.708 108.804 227.426 108.062 226.878C106.94 226.049 106.313 224.773 106.343 223.376C106.656 208.234 109.211 190.431 111.297 178.162C113.404 165.784 122.657 155.88 134.873 152.932L156.738 147.654C162.134 146.352 167.899 146.434 173.406 147.894C178.004 149.113 182.68 148.822 187.306 147.033C198.622 142.654 197.516 123.313 197.503 123.118C197.495 123.003 197.558 122.895 197.661 122.843L208.738 117.294C208.879 117.224 209.05 117.28 209.121 117.42C209.228 117.629 219.742 138.464 214.17 154.048C211.954 160.245 207.497 164.84 200.924 167.703C187.641 173.489 177.206 174.145 170.707 173.645L168.577 208.578C168.569 208.695 168.491 208.796 168.38 208.833L111.893 227.489C111.451 227.636 110.999 227.707 110.554 227.707V227.708ZM164.539 147.308C161.946 147.308 159.369 147.609 156.872 148.212L135.007 153.49C123.015 156.385 113.93 166.107 111.863 178.258C109.779 190.509 107.229 208.281 106.916 223.388C106.89 224.597 107.433 225.701 108.402 226.417C109.366 227.129 110.574 227.323 111.714 226.946L168.016 208.35L170.153 173.319C170.158 173.242 170.194 173.17 170.251 173.119C170.31 173.069 170.386 173.044 170.463 173.051C176.873 173.587 187.321 173.004 200.695 167.178C207.118 164.38 211.47 159.897 213.63 153.855C218.787 139.43 209.913 120.358 208.737 117.936L198.085 123.271C198.128 124.235 198.256 128.709 197.248 133.566C195.737 140.845 192.37 145.687 187.512 147.565C182.772 149.399 177.975 149.696 173.259 148.445C170.392 147.685 167.454 147.305 164.539 147.305V147.308Z" fill="black"/>
<path d="M196.704 100.328C196.815 99.5767 197.797 97.1174 198.351 96.3214L203.741 86.52C203.741 86.52 205.904 89.6709 205.356 92.1314C207.77 91.422 209.794 91.2042 209.794 91.2042C209.794 91.2042 212.313 86.8996 213.02 86.0667C213.727 85.235 214.599 83.9971 215.795 83.6201C216.994 83.2419 218.478 83.7628 218.478 83.7628L214.505 94.6798L203.209 102.204L210.128 120.815L197.787 123.101L196.703 100.329L196.704 100.328Z" fill="white"/>
<path d="M197.788 123.387C197.725 123.387 197.661 123.365 197.61 123.324C197.545 123.274 197.506 123.196 197.502 123.113L196.418 100.342C196.418 100.323 196.418 100.305 196.421 100.287C196.535 99.5113 197.525 97.0176 198.107 96.1707L203.489 86.3821C203.538 86.2942 203.627 86.2381 203.726 86.2343C203.822 86.2305 203.921 86.2764 203.977 86.3591C204.063 86.4839 205.956 89.2782 205.709 91.7336C207.568 91.2216 209.144 90.9987 209.618 90.9376C210.044 90.2142 212.146 86.6546 212.801 85.8828C212.899 85.7682 212.999 85.6459 213.103 85.5186C213.769 84.7073 214.598 83.6987 215.708 83.3484C216.983 82.946 218.507 83.472 218.571 83.4949C218.643 83.5203 218.702 83.5738 218.735 83.6426C218.768 83.7114 218.772 83.7916 218.745 83.8629L214.773 94.78C214.752 94.8373 214.713 94.887 214.662 94.9201L203.554 102.318L210.395 120.716C210.424 120.795 210.418 120.884 210.376 120.958C210.334 121.032 210.263 121.083 210.179 121.098L197.838 123.384C197.822 123.388 197.804 123.389 197.786 123.389L197.788 123.387ZM196.992 100.343L198.058 122.758L209.74 120.594L202.94 102.303C202.895 102.178 202.94 102.038 203.05 101.964L214.268 94.4921L218.105 83.9508C217.64 83.8298 216.679 83.6413 215.882 83.8922C214.934 84.1915 214.165 85.1276 213.547 85.8803C213.44 86.0102 213.339 86.135 213.239 86.2509C212.557 87.0558 210.067 91.3044 210.041 91.3477C209.995 91.4267 209.915 91.4776 209.825 91.4878C209.804 91.4903 207.796 91.7107 205.437 92.4048C205.339 92.4328 205.234 92.4086 205.16 92.3385C205.087 92.2698 205.055 92.1653 205.076 92.0673C205.48 90.255 204.297 87.9919 203.758 87.0838L198.604 96.4585C198.598 96.4675 198.593 96.4764 198.587 96.484C198.057 97.2431 197.116 99.5979 196.992 100.342V100.343Z" fill="black"/>
<path d="M90.957 213.925C90.957 213.925 93.2496 168.783 122.648 159.68L130.531 183.545C130.531 183.545 102.485 216.873 99.795 227.26C97.1037 237.649 90.957 213.925 90.957 213.925Z" fill="white"/>
<path d="M90.9589 214.211C90.9589 214.211 90.9487 214.211 90.9436 214.211C90.7857 214.203 90.6634 214.068 90.6723 213.91C90.6787 213.797 91.2964 202.442 95.5084 190.124C97.9857 182.88 101.203 176.721 105.071 171.819C109.917 165.677 115.803 161.501 122.566 159.406C122.719 159.358 122.878 159.444 122.925 159.594C122.972 159.746 122.887 159.906 122.737 159.953C107.669 164.62 99.9115 179.029 96.0574 190.296C91.8683 202.54 91.2531 213.826 91.2467 213.939C91.2391 214.091 91.1117 214.211 90.9602 214.211H90.9589Z" fill="black"/>
<path d="M99.7965 227.547C99.7659 227.547 99.7341 227.542 99.7035 227.532C99.5532 227.481 99.4743 227.317 99.5252 227.168C103.426 215.819 125.806 188.827 126.031 188.555C126.132 188.434 126.313 188.417 126.435 188.519C126.557 188.62 126.574 188.801 126.472 188.922C126.247 189.192 103.935 216.104 100.068 227.353C100.027 227.472 99.915 227.547 99.7965 227.547Z" fill="black"/>
<path d="M155.857 149.331L155.326 145.949C155.149 144.82 153.96 143.569 152.98 144.157C144.794 149.071 131.482 144.744 129.231 145.743C122.88 148.559 112.27 164.636 114.669 163.381C124.778 158.088 141.82 161.822 149.536 159.026C155.46 156.88 155.856 149.332 155.856 149.332L155.857 149.331Z" fill="black"/>
<path d="M146.124 185.015C145.985 185.015 145.864 184.914 145.841 184.774L141.164 155.916C141.138 155.76 141.245 155.613 141.401 155.588C141.559 155.562 141.704 155.669 141.729 155.825L146.406 184.682C146.432 184.839 146.325 184.986 146.169 185.011C146.154 185.014 146.139 185.015 146.124 185.015Z" fill="black"/>
<path d="M153.114 178.695C152.987 178.695 152.872 178.611 152.837 178.484L146.592 155.426C146.55 155.273 146.641 155.115 146.794 155.074C146.946 155.034 147.104 155.123 147.145 155.276L153.39 178.334C153.432 178.486 153.341 178.644 153.189 178.685C153.163 178.691 153.138 178.695 153.114 178.695Z" fill="black"/>
<path d="M145.976 184.18C145.485 184.282 145.142 184.629 145.21 184.957L145.813 187.868C145.881 188.195 146.334 188.377 146.825 188.275C147.316 188.174 147.659 187.826 147.591 187.499L146.988 184.587C146.92 184.26 146.467 184.078 145.976 184.18Z" fill="black"/>
<path d="M152.982 177.709C152.499 177.844 152.181 178.215 152.271 178.537L153.075 181.4C153.165 181.721 153.629 181.873 154.113 181.736C154.596 181.601 154.914 181.231 154.824 180.908L154.02 178.045C153.93 177.725 153.465 177.573 152.982 177.709Z" fill="black"/>
</g>
<path d="M140.738 213.653C136.519 213.653 132.327 212.897 128.377 211.429C121.906 209.022 116.086 204.702 111.858 198.656C111.695 198.423 111.533 198.186 111.375 197.948C111.373 197.944 111.37 197.94 111.368 197.936C107.496 192.102 105.49 185.406 105.488 178.56C105.488 176.223 105.721 173.868 106.195 171.525C108.053 162.313 113.389 154.376 121.218 149.178C121.223 149.175 121.227 149.171 121.232 149.169C121.236 149.166 121.24 149.164 121.244 149.161C121.244 149.161 121.244 149.161 121.245 149.161C121.249 149.159 121.254 149.156 121.258 149.154C125.82 146.133 130.865 144.257 136.256 143.577C136.414 143.556 136.557 143.668 136.577 143.825C136.598 143.982 136.485 144.126 136.329 144.146C136.287 144.151 136.245 144.156 136.203 144.162C136.203 144.162 136.201 144.162 136.2 144.162C130.93 144.846 125.996 146.696 121.536 149.658C114.302 154.463 109.232 161.643 107.129 170.01C107.129 170.016 107.126 170.024 107.124 170.03C104.748 179.47 106.472 189.531 111.854 197.635C122.413 213.531 143.938 217.873 159.833 207.315C159.837 207.312 159.841 207.31 159.843 207.309C159.843 207.309 159.844 207.309 159.846 207.307C159.848 207.306 159.851 207.303 159.853 207.302C159.853 207.302 159.855 207.302 159.856 207.301C159.857 207.301 159.861 207.298 159.862 207.297C170.36 200.31 176.242 187.975 175.17 175.478C175.17 175.478 175.17 175.476 175.17 175.474C175.12 174.887 175.055 174.3 174.973 173.712L174.949 173.537C174.949 173.537 174.949 173.537 174.949 173.535C174.942 173.488 174.936 173.443 174.928 173.397C174.926 173.383 174.926 173.369 174.926 173.355C174.926 173.215 175.028 173.093 175.17 173.071C175.327 173.048 175.474 173.157 175.497 173.313C175.513 173.423 175.528 173.532 175.544 173.642V173.651H175.545C175.56 173.761 175.576 173.872 175.59 173.983C175.781 175.476 175.876 176.975 175.876 178.47C175.876 182.477 175.191 186.463 173.845 190.259C173.554 191.077 173.233 191.886 172.883 192.684C172.748 192.99 172.609 193.293 172.466 193.595C172.465 193.599 172.463 193.602 172.461 193.606C172.461 193.609 172.459 193.611 172.458 193.614C172.458 193.614 172.458 193.615 172.458 193.616C171.679 195.253 170.78 196.819 169.768 198.304C169.765 198.31 169.761 198.315 169.757 198.321C167.23 202.027 164.045 205.183 160.288 207.702C160.285 207.703 160.283 207.705 160.281 207.707C160.279 207.707 160.279 207.71 160.276 207.711C160.235 207.738 160.195 207.766 160.155 207.793C154.183 211.76 147.426 213.657 140.742 213.657L140.738 213.653Z" fill="black"/>
<path d="M47.0785 131.854L44.293 146.233C44.293 146.233 70.0592 153.658 81.5986 141.217L78.2183 131.855H47.0772L47.0785 131.854Z" fill="black"/>
<path d="M4.30621 96.6129L10.4007 99.8567C10.1536 102.587 10.1332 105.302 10.3421 107.977L4.22724 111.147C1.20102 112.715 -0.333749 116.17 0.529796 119.466C1.39334 122.762 4.42721 125.02 7.83299 124.903L14.735 124.665C15.8775 127.12 17.2199 129.477 18.7521 131.711L15.0305 137.529C13.1938 140.399 13.5925 144.159 15.9883 146.583C18.3853 149.005 22.1401 149.444 25.0313 147.64L30.8736 143.992C33.0694 145.536 35.4167 146.9 37.8915 148.079L37.5782 154.974C37.424 158.378 39.6479 161.435 42.9352 162.335C46.2225 163.236 49.6945 161.738 51.2955 158.73L54.5396 152.636C57.2703 152.883 59.9857 152.903 62.6604 152.694L65.8306 158.809C67.3985 161.834 70.8539 163.37 74.1502 162.506C77.4464 161.643 79.7046 158.61 79.5874 155.203L79.3493 148.302C81.8049 147.16 84.1624 145.816 86.3965 144.285L92.2146 148.007C95.0854 149.843 98.8453 149.444 101.268 147.047C103.69 144.651 104.13 140.896 102.325 138.005L98.6771 132.163C100.221 129.968 101.585 127.62 102.764 125.146L109.66 125.459C113.064 125.613 116.121 123.39 117.022 120.103C117.922 116.816 116.424 113.344 113.416 111.743L107.321 108.499C107.569 105.769 107.589 103.053 107.38 100.378L113.495 97.2076C116.521 95.6399 118.056 92.1847 117.192 88.8887C116.329 85.5927 113.296 83.3347 109.889 83.4518L102.987 83.69C101.845 81.2345 100.501 78.8772 98.9701 76.6433L102.692 70.8257C104.528 67.955 104.13 64.1955 101.733 61.7731C99.3356 59.3508 95.5808 58.9114 92.6896 60.7161L86.8473 64.3636C84.6515 62.82 82.3042 61.456 79.8294 60.2767L80.1428 53.3803C80.2969 49.9761 78.0731 46.9195 74.7857 46.0191C71.4984 45.1187 68.0264 46.6164 66.4254 49.6246L63.1814 55.7186C60.4506 55.4715 57.7352 55.4511 55.0592 55.66L51.8891 49.5456C50.3212 46.5196 46.8657 44.9849 43.5695 45.8497C40.2732 46.7132 38.015 49.7468 38.1322 53.1523L38.3704 60.0538C35.9135 61.1949 33.5572 62.5385 31.3232 64.0707L25.5051 60.3493C22.6342 58.5128 18.8744 58.9114 16.4519 61.3083C14.0294 63.7051 13.59 67.4596 15.3947 70.3506L19.0425 76.1925C17.4988 78.3881 16.1347 80.7353 14.9553 83.2098L8.0597 82.8966C4.6552 82.7412 1.5984 84.9661 0.697919 88.2532C-0.202562 91.5403 1.29527 95.012 4.30366 96.6129H4.30621ZM21.5453 93.9613C27.1889 73.3524 48.4705 61.2204 69.081 66.8636C89.6914 72.5068 101.824 93.7868 96.1807 114.396C90.5371 135.005 69.2555 147.135 48.645 141.493C28.0346 135.85 15.9029 114.57 21.5453 93.9613Z" fill="#B9FF66"/>
<path d="M72.2784 163.037C69.5043 163.037 66.9112 161.513 65.5789 158.943L62.4966 152.997C59.9455 153.186 57.3268 153.167 54.7069 152.94L51.552 158.866C49.8759 162.015 46.302 163.556 42.8631 162.613C39.4229 161.671 37.1329 158.525 37.2946 154.963L37.599 148.256C35.2287 147.116 32.9654 145.8 30.8664 144.336L25.1846 147.883C22.1597 149.772 18.2941 149.32 15.7862 146.784C13.2784 144.248 12.8683 140.379 14.7902 137.375L18.4087 131.716C16.9517 129.574 15.6576 127.304 14.5559 124.958L7.8424 125.189C4.27614 125.313 1.15693 122.989 0.252631 119.539C-0.651671 116.088 0.927674 112.533 4.09528 110.891L10.042 107.809C9.85224 105.257 9.87135 102.638 10.0981 100.02L4.1717 96.8665C1.0232 95.1905 -0.517936 91.6181 0.424576 88.1782C1.36709 84.7383 4.51177 82.4484 8.07548 82.6102L14.7813 82.9146C15.92 80.5457 17.2382 78.2826 18.7017 76.1825L15.1545 70.5011C13.2657 67.4751 13.7178 63.6111 16.2537 61.1034C18.7895 58.5958 22.6589 58.1857 25.6635 60.1075L31.3224 63.7257C33.4647 62.2687 35.7369 60.9735 38.0817 59.8731L37.8499 53.1602C37.7264 49.5954 40.0508 46.4752 43.5012 45.571C46.9503 44.6667 50.5076 46.246 52.1481 49.4133L55.2304 55.3596C57.7841 55.1699 60.4027 55.189 63.0201 55.4157L66.1737 49.4897C67.8498 46.3415 71.4225 44.8005 74.8626 45.7429C78.3028 46.6853 80.5929 49.8311 80.4311 53.3932L80.1267 60.0998C82.4944 61.2384 84.7577 62.5553 86.858 64.0199L92.5398 60.473C95.5661 58.5843 99.4304 59.0364 101.938 61.5721C104.446 64.1078 104.856 67.9769 102.934 70.9812L99.3157 76.6397C100.773 78.7818 102.068 81.0539 103.169 83.3972L109.881 83.1655C113.45 83.0445 116.566 85.3662 117.471 88.8163C118.375 92.2664 116.794 95.8222 113.628 97.4638L107.681 100.546C107.871 103.097 107.852 105.715 107.625 108.335L113.551 111.488C116.7 113.164 118.241 116.737 117.3 120.177C116.357 123.617 113.209 125.906 109.648 125.745L102.942 125.44C101.802 127.81 100.484 130.074 99.0215 132.172L102.569 137.854C104.458 140.879 104.005 144.744 101.469 147.251C98.9336 149.759 95.0642 150.169 92.0597 148.247L86.4008 144.629C84.2597 146.085 81.9875 147.38 79.6427 148.482L79.8745 155.193C79.9968 158.758 77.6736 161.878 74.2233 162.783C73.5737 162.953 72.919 163.035 72.2758 163.035L72.2784 163.037ZM62.6635 152.409C62.7705 152.409 62.8685 152.468 62.9182 152.565L66.0884 158.679C67.6053 161.606 70.8926 163.067 74.0806 162.23C77.2699 161.394 79.4173 158.51 79.3039 155.215L79.0657 148.314C79.0619 148.199 79.1269 148.092 79.2313 148.044C81.6666 146.911 84.0228 145.568 86.2365 144.05C86.3307 143.985 86.4568 143.982 86.5536 144.045L92.3717 147.766C95.1496 149.541 98.726 149.163 101.07 146.845C103.413 144.527 103.831 140.955 102.086 138.158L98.4382 132.316C98.377 132.218 98.3809 132.093 98.4471 131.999C99.9704 129.833 101.337 127.486 102.51 125.023C102.56 124.918 102.665 124.853 102.783 124.86L109.678 125.173C112.967 125.322 115.88 123.206 116.751 120.028C117.621 116.848 116.197 113.545 113.287 111.997L107.193 108.753C107.091 108.698 107.032 108.588 107.042 108.474C107.288 105.757 107.307 103.041 107.1 100.401C107.091 100.286 107.153 100.177 107.254 100.123L113.369 96.9531C116.296 95.4363 117.757 92.1492 116.92 88.9615C116.085 85.7725 113.192 83.6265 109.905 83.7386L103.003 83.9767C102.883 83.9793 102.781 83.9156 102.733 83.8112C101.602 81.3774 100.258 79.0213 98.7388 76.8065C98.6738 76.711 98.6713 76.5862 98.7337 76.4894L102.455 70.6717C104.231 67.8954 103.853 64.3179 101.534 61.9745C99.2151 59.6312 95.6438 59.2134 92.8468 60.9582L87.0032 64.6057C86.9051 64.6669 86.7803 64.663 86.6861 64.5968C84.517 63.0724 82.1697 61.7058 79.7102 60.5341C79.6058 60.4845 79.5421 60.3775 79.5472 60.2616L79.8605 53.3652C80.0095 50.0718 77.894 47.1642 74.7149 46.2944C71.5346 45.4232 68.2319 46.8484 66.6832 49.7585L63.4404 55.8525C63.3857 55.9544 63.2761 56.0142 63.1615 56.0028C60.4473 55.757 57.7306 55.7379 55.0877 55.9442C54.9731 55.9531 54.8636 55.8932 54.8113 55.7901L51.6412 49.6757C50.1243 46.749 46.8369 45.2882 43.6489 46.125C40.4597 46.9604 38.3123 49.8451 38.4256 53.1398L38.6638 60.0413C38.6676 60.1559 38.6027 60.2629 38.4982 60.3113C36.0643 61.4422 33.7067 62.7858 31.4931 64.3039C31.3976 64.3689 31.2727 64.3714 31.1759 64.309L25.3578 60.5876C22.58 58.8123 19.0035 59.1905 16.66 61.5084C14.3164 63.8263 13.8987 67.3987 15.6436 70.1954L19.2914 76.0373C19.3525 76.1354 19.3487 76.2602 19.2825 76.3544C17.7592 78.522 16.3912 80.8692 15.2195 83.331C15.1698 83.4355 15.0615 83.4991 14.9469 83.494L8.05128 83.1807C4.75758 83.033 1.84981 85.1471 0.97862 88.326C0.107433 91.5048 1.53266 94.8072 4.44299 96.3571L10.5375 99.6009C10.6394 99.6556 10.6992 99.7652 10.689 99.8798C10.4432 102.595 10.4241 105.312 10.6305 107.953C10.6394 108.068 10.5782 108.177 10.4763 108.231L4.36147 111.4C1.43459 112.917 -0.0263013 116.204 0.810497 119.392C1.64602 122.581 4.53979 124.73 7.82584 124.615L14.7278 124.377C14.8476 124.373 14.9495 124.438 14.9978 124.542C16.1301 126.978 17.4739 129.334 18.9921 131.547C19.057 131.643 19.0596 131.767 18.9972 131.864L15.2755 137.682C13.4987 140.458 13.8783 144.036 16.1964 146.379C18.5144 148.722 22.0871 149.14 24.884 147.394L30.7263 143.747C30.8244 143.685 30.9492 143.689 31.0435 143.756C33.21 145.279 35.5574 146.645 38.0206 147.818C38.1251 147.868 38.1887 147.975 38.1836 148.091L37.8703 154.987C37.7213 158.281 39.8369 161.188 43.0159 162.058C46.1963 162.929 49.4976 161.504 51.0477 158.595L54.2917 152.501C54.3465 152.399 54.4547 152.339 54.5706 152.351C57.2873 152.597 60.0041 152.616 62.6431 152.408C62.6507 152.408 62.6584 152.408 62.666 152.408L62.6635 152.409ZM58.9253 143.171C55.4698 143.171 51.9927 142.707 48.5704 141.77C38.5288 139.02 30.1583 132.525 25.0025 123.482C19.8467 114.438 18.5208 103.927 21.2706 93.8864C24.0205 83.8455 30.5162 75.4756 39.5605 70.3202C48.6048 65.1636 59.1163 63.839 69.1579 66.5887C79.1995 69.3383 87.57 75.8335 92.7258 84.8771C97.8829 93.9207 99.2075 104.432 96.4576 114.474C93.7078 124.514 87.2121 132.884 78.1678 138.04C72.2058 141.438 65.6069 143.172 58.9253 143.172V143.171ZM58.803 65.7609C52.2194 65.7609 45.7174 67.47 39.8432 70.8182C30.9314 75.8985 24.5312 84.1448 21.8221 94.0379C19.1131 103.931 20.4186 114.288 25.4992 123.198C30.5799 132.109 38.8268 138.508 48.7207 141.217C58.6145 143.926 68.9719 142.621 77.8825 137.54C86.7943 132.46 93.1945 124.214 95.9036 114.321C98.6127 104.428 97.3072 94.071 92.2265 85.1611C87.1459 76.25 78.8989 69.8503 69.0051 67.1414C65.6324 66.2181 62.2062 65.7609 58.803 65.7609Z" fill="#B9FF66"/>
<path d="M9.41237 68.2635C9.41237 68.2635 8.81502 60.6998 8.53991 58.6595C8.22787 56.3391 11.5929 58.7678 12.2017 65.9036L9.41365 68.2635H9.41237Z" fill="white"/>
<path d="M9.41331 68.55C9.37638 68.55 9.33817 68.5424 9.30251 68.5284C9.20316 68.4876 9.13566 68.3934 9.12674 68.2864C9.12037 68.2112 8.52557 60.7074 8.25555 58.6977C8.1855 58.1781 8.27466 57.8202 8.52175 57.6368C8.63128 57.5553 8.86691 57.4432 9.22863 57.605C10.3316 58.1004 12.0715 60.9952 12.4867 65.8793C12.4943 65.9723 12.4574 66.0627 12.386 66.1226L9.598 68.4825C9.54578 68.5271 9.47954 68.55 9.41331 68.55ZM8.8771 58.0953C8.8771 58.0953 8.86691 58.0953 8.86436 58.0966C8.84399 58.1118 8.77393 58.2468 8.82488 58.6213C9.05414 60.3215 9.51011 65.8946 9.65404 67.684L11.9021 65.7813C11.4919 61.2983 9.97245 58.7474 9.10127 58.1883C8.98027 58.1106 8.90512 58.0953 8.87583 58.0953H8.8771Z" fill="black"/>
<path d="M5.33012 103.317C5.33012 103.317 9.84654 78.5425 9.90385 77.7185C9.94588 77.1225 9.8631 76.5264 9.6644 75.9623C9.08361 74.313 7.88127 70.7865 7.86981 69.802C7.85835 68.7908 8.72826 68.019 9.11418 67.7261C9.34344 67.5529 9.56251 67.3669 9.78031 67.1784L11.808 65.426C12.3124 65.0121 12.5582 64.3282 13.2523 64.4314C14.5769 64.6275 14.9654 66.8983 14.9654 66.8983C14.9654 66.8983 16.248 65.8858 16.9472 66.3685C17.6465 66.8524 18.8233 70.3815 17.1625 74.0061C15.5016 77.6306 15.0151 75.9673 14.8852 79.7282C14.8342 81.231 15.0826 95.4784 15.0826 95.4784C15.0826 96.659 16.3397 97.4168 17.3841 96.8641L26.3647 92.1111L29.3565 107.318L13.3351 110.973C8.6926 112.032 4.47804 108.003 5.32885 103.317H5.33012Z" fill="white"/>
<path d="M11.8529 111.427C10.0915 111.427 8.37965 110.755 7.07542 109.507C5.38908 107.894 4.63125 105.561 5.04774 103.266C6.60926 94.7028 9.57307 78.3374 9.61765 77.6994C9.65714 77.1428 9.58199 76.5913 9.39349 76.059C8.72226 74.1537 7.5938 70.8081 7.58233 69.807C7.5696 68.6634 8.52739 67.8114 8.94133 67.4993C9.17059 67.3261 9.38967 67.1389 9.59345 66.9632L11.6211 65.2107C11.7612 65.0961 11.8822 64.9547 11.9994 64.8185C12.3076 64.4606 12.6579 64.0543 13.296 64.1486C14.4334 64.3167 14.9556 65.7023 15.1517 66.4232C15.6395 66.1188 16.5005 65.7112 17.1132 66.1341C18.0098 66.753 19.0823 70.5126 17.4265 74.127C16.7655 75.5699 16.2866 76.1914 15.9376 76.6448C15.4383 77.2944 15.2511 77.5363 15.1759 79.7396C15.125 81.2182 15.3708 95.3319 15.3733 95.4745C15.3733 95.933 15.6051 96.3431 15.9936 96.5762C16.3821 96.8092 16.8533 96.8233 17.2533 96.6106L26.2339 91.8576C26.3141 91.8156 26.4096 91.813 26.4912 91.8525C26.5727 91.892 26.6313 91.9671 26.6491 92.0563L29.6409 107.263C29.6715 107.414 29.5747 107.563 29.4231 107.598L13.4017 111.253C12.8871 111.37 12.3688 111.427 11.8542 111.427H11.8529ZM5.61198 103.368C5.22988 105.473 5.9253 107.613 7.47153 109.092C9.01776 110.57 11.1868 111.169 13.2731 110.692L29.0232 107.098L26.16 92.5441L17.5207 97.1162C16.9412 97.4231 16.2585 97.404 15.6969 97.0665C15.1352 96.7277 14.7989 96.1343 14.7989 95.4784C14.7887 94.9014 14.5506 81.2119 14.6015 79.7192C14.6792 77.4408 14.8753 77.0829 15.4816 76.2946C15.814 75.8629 16.27 75.2706 16.903 73.8876C18.5741 70.2413 17.2864 66.9517 16.7858 66.6053C16.3885 66.3302 15.5084 66.8358 15.1441 67.1236C15.0651 67.186 14.9581 67.2026 14.8639 67.1669C14.7696 67.1313 14.7008 67.0472 14.6843 66.9479C14.5849 66.3735 14.1264 64.8503 13.2119 64.7153C12.8999 64.6695 12.7305 64.8465 12.4337 65.1916C12.3 65.347 12.1624 65.5062 11.9905 65.6488L9.96918 67.3974C9.75903 67.5796 9.53104 67.7732 9.28905 67.9565C8.94516 68.2164 8.14784 68.9181 8.15803 69.8007C8.16567 70.4617 8.83053 72.7312 9.93607 75.8692C10.15 76.4754 10.2354 77.1046 10.1908 77.7401C10.1322 78.5692 5.79793 102.354 5.61325 103.369L5.61198 103.368Z" fill="black"/>
<path d="M12.008 73.6336C11.7405 73.6336 11.5061 73.5751 11.3164 73.477C10.798 73.2121 10.5432 72.6441 10.6515 71.9946C10.8884 70.5682 11.836 69.7964 11.8768 69.7645C12.0003 69.6652 12.1812 69.6856 12.2805 69.8091C12.3799 69.9326 12.3595 70.1135 12.2359 70.2128C12.2283 70.2192 11.4183 70.8878 11.2183 72.0901C11.1508 72.4963 11.282 72.816 11.58 72.9676C11.9914 73.179 12.8091 73.086 13.758 72.1308C15.3144 70.5656 14.6661 66.843 14.6597 66.8048C14.6317 66.6494 14.7349 66.5004 14.8915 66.4724C15.0482 66.4443 15.1959 66.5475 15.2252 66.7042C15.2545 66.8684 15.9309 70.7605 14.1668 72.5358C13.3631 73.3445 12.6053 73.6349 12.0118 73.6349L12.008 73.6336Z" fill="black"/>
<path d="M108.822 146.221C106.694 145.011 105.846 144.039 105.057 142.037C105.057 142.037 100.667 128.12 97.2346 119.387C95.8616 115.892 92.7857 109.346 89.6588 102.888L78.5537 109.086C78.4353 109.152 78.3245 109.226 78.2188 109.305C83.6675 118.418 93.6747 135.12 94.7407 136.663C94.7407 136.663 100.189 144.718 99.9246 148.898C99.7564 151.539 100.786 156.415 104.687 159.146C105.502 159.717 106.567 158.841 106.159 157.933C106.153 157.919 106.146 157.903 106.139 157.889C105.531 156.604 104.45 154.983 104.45 154.983C104.45 154.983 106.582 155.003 108.811 156.761C111.04 158.518 115.774 161.668 116.755 160.61C118.436 158.795 117.435 151.116 108.821 146.222L108.822 146.221Z" fill="white"/>
<path d="M116.15 161.1C113.883 161.1 108.878 157.178 108.634 156.986C107.19 155.847 105.779 155.464 105.02 155.335C105.39 155.921 105.993 156.91 106.399 157.768L106.421 157.816C106.66 158.351 106.521 158.939 106.065 159.315C105.608 159.692 105.003 159.719 104.523 159.381C100.319 156.437 99.4895 151.225 99.6385 148.879C99.8945 144.845 94.5579 136.903 94.5031 136.822C93.4447 135.29 83.691 119.015 77.9722 109.451C77.8971 109.325 77.9289 109.163 78.0461 109.075C78.1696 108.982 78.2894 108.903 78.4142 108.834L89.5193 102.636C89.588 102.598 89.6696 102.589 89.7447 102.613C89.8198 102.637 89.8823 102.691 89.9167 102.762C93.7708 110.722 96.3232 116.28 97.5013 119.282C100.897 127.924 105.286 141.811 105.331 141.95C106.099 143.901 106.915 144.808 108.964 145.97C116.041 149.991 117.379 155.4 117.621 156.961C117.881 158.642 117.637 160.078 116.967 160.801C116.776 161.007 116.494 161.098 116.152 161.098L116.15 161.1ZM104.45 154.696H104.453C104.543 154.696 106.709 154.738 108.989 156.535C112.036 158.937 115.888 161.122 116.545 160.413C117.089 159.826 117.284 158.537 117.055 157.05C116.823 155.553 115.534 150.364 108.68 146.471C106.521 145.245 105.613 144.233 104.791 142.142C104.74 141.984 100.357 128.115 96.9677 119.492C95.8073 116.538 93.3059 111.086 89.532 103.286L78.6931 109.336C78.6625 109.353 78.6333 109.371 78.6027 109.39C84.3354 118.977 93.9338 134.992 94.9769 136.5C95.2036 136.835 100.479 144.687 100.21 148.917C100.069 151.151 100.856 156.114 104.852 158.912C105.171 159.137 105.5 159.04 105.7 158.873C105.9 158.707 106.057 158.406 105.897 158.05L105.881 158.016C105.287 156.763 104.221 155.158 104.211 155.143C104.152 155.055 104.147 154.94 104.197 154.847C104.247 154.754 104.343 154.697 104.449 154.697L104.45 154.696Z" fill="black"/>
<path d="M21.9296 91.3003L24.2961 88.6436C28.3056 84.1912 33.3531 80.8022 38.9903 78.7785L42.8432 77.3955C43.1425 77.2872 65.0572 75.0368 72.5017 77.4986C77.1506 79.0358 83.226 82.6311 91.4946 99.376C92.1047 100.613 91.6131 102.177 90.4107 102.848L78.288 109.614C77.2334 110.203 77.2601 111.528 77.4181 112.727L81.02 132.225C81.2263 133.342 80.7487 134.482 79.7935 135.097C76.7863 137.034 68.0121 140.045 48.8026 136.956C44.3041 136.233 40.6932 132.847 39.6692 128.403L36.1488 113.137C35.9297 111.845 34.1619 111.213 32.7927 110.915C32.0234 110.748 31.235 110.732 30.4504 110.786C28.7972 110.899 27.2293 109.879 26.7007 108.244L21.3386 94.5593C20.903 93.4488 21.1323 92.1867 21.9309 91.3003H21.9296Z" fill="white"/>
<path d="M63.7177 138.564C59.6636 138.564 54.7282 138.199 48.7547 137.239C44.1211 136.494 40.444 133.05 39.3869 128.467L35.8665 113.2C35.6627 112.003 33.8133 111.43 32.7281 111.195C32.0671 111.051 31.3488 111.012 30.4661 111.072C28.6499 111.196 26.9852 110.07 26.4235 108.333L21.0677 94.6636C20.5901 93.4435 20.8372 92.0808 21.7135 91.1078L24.0787 88.4524C28.106 83.9797 33.2274 80.541 38.8901 78.5084L42.7417 77.1253C42.8831 77.0744 65.0003 74.717 72.5875 77.2259C77.4847 78.8446 83.5894 82.7277 91.7472 99.2485C92.4261 100.623 91.8873 102.35 90.5449 103.097L78.4221 109.864C77.5217 110.367 77.5497 111.574 77.6962 112.688L81.2968 132.172C81.5261 133.416 80.9962 134.659 79.9442 135.336C78.5024 136.265 73.893 138.562 63.7151 138.562L63.7177 138.564ZM31.2227 110.471C31.8187 110.471 32.3486 110.525 32.8517 110.634C34.3495 110.96 36.1861 111.65 36.4294 113.088L39.9473 128.338C40.9522 132.692 44.4446 135.964 48.8476 136.672C69.616 140.012 77.6643 136.126 79.6372 134.855C80.4931 134.303 80.9236 133.292 80.7364 132.277L77.1345 112.779C76.9612 111.458 76.9472 110.033 78.147 109.363L90.2698 102.597C91.3486 101.994 91.7816 100.606 91.2365 99.5019C83.1729 83.1709 77.1943 79.3515 72.4104 77.7697C65.2384 75.3983 43.7288 77.4959 42.9149 77.6717L39.0863 79.0471C33.5127 81.0479 28.4728 84.4318 24.5092 88.8332L22.144 91.4886C21.4142 92.2999 21.2078 93.4346 21.6052 94.4509L26.9674 108.135C27.4539 109.638 28.8753 110.602 30.4305 110.495C30.7094 110.476 30.973 110.467 31.2239 110.467L31.2227 110.471Z" fill="black"/>
<path d="M62.37 108.883C62.3088 108.883 62.2477 108.864 62.1955 108.825C57.1136 104.935 55.5966 100.66 55.5355 100.479C55.4833 100.33 55.5635 100.166 55.7125 100.115C55.8616 100.062 56.0259 100.143 56.0768 100.292C56.0921 100.334 57.6077 104.591 62.5432 108.369C62.6693 108.465 62.6935 108.645 62.5967 108.771C62.5407 108.845 62.4553 108.883 62.3687 108.883H62.37Z" fill="black"/>
<path d="M44.2921 108.271C44.2055 108.271 44.1189 108.231 44.0629 108.156C40.21 103.044 39.8967 98.519 39.8852 98.328C39.8763 98.1701 39.996 98.0338 40.154 98.0249C40.3145 98.016 40.4482 98.1357 40.4584 98.2936C40.4609 98.3382 40.7806 102.847 44.5226 107.811C44.6182 107.937 44.5927 108.117 44.4666 108.212C44.4144 108.252 44.3545 108.269 44.2947 108.269L44.2921 108.271Z" fill="black"/>
<path d="M62.4641 87.6519C50.2445 93.1601 42.8802 82.294 42.8802 82.294C42.6764 82.0686 42.451 81.8724 42.209 81.7043L42.3134 81.6674C42.4535 81.6177 42.5924 81.5668 42.7299 81.5133C48.1863 79.4043 51.6558 74.0005 51.522 68.1472L51.4456 64.785L60.5816 64.6895C60.5816 64.6895 60.8223 76.9909 65.0394 77.0826L67.3702 77.3551C69.1139 81.3414 66.564 85.8027 62.4654 87.6506L62.4641 87.6519Z" fill="white"/>
<path d="M55.7117 89.486C47.7246 89.486 42.9394 82.8761 42.6554 82.4737C42.4733 82.275 42.2682 82.0967 42.0453 81.9413C41.9574 81.8802 41.9103 81.7745 41.9243 81.6675C41.9383 81.5605 42.0122 81.4714 42.1128 81.4357L42.2173 81.3988C42.3548 81.3504 42.4911 81.2995 42.6261 81.2472C47.908 79.2057 51.3673 73.9446 51.2348 68.1562L51.1584 64.794C51.1571 64.7176 51.1851 64.6437 51.2386 64.5877C51.2921 64.5329 51.3647 64.5011 51.4424 64.4998L60.5784 64.4043C60.7338 64.4043 60.865 64.5278 60.8675 64.6858C60.9338 68.0301 61.8126 76.7274 65.0439 76.7974L67.4014 77.0725C67.5033 77.0839 67.5899 77.1489 67.6307 77.2419C69.5514 81.6319 66.571 86.1148 62.5806 87.9144C60.0893 89.0377 57.7904 89.486 55.7105 89.486H55.7117ZM42.7891 81.7987C42.8961 81.8942 42.9967 81.9961 43.0935 82.1018C43.1025 82.112 43.1114 82.1222 43.1177 82.1336C43.1356 82.1604 44.9747 84.8349 48.2557 86.8051C52.6358 89.435 57.3764 89.6324 62.345 87.3922C66.0348 85.7289 68.8139 81.6395 67.1696 77.6239L65.0044 77.3705C60.9108 77.2826 60.367 66.8954 60.302 64.9825L51.7379 65.0716L51.808 68.1435C51.9455 74.1738 48.3385 79.6553 42.8324 81.7834C42.8172 81.7898 42.8031 81.7949 42.7879 81.8012L42.7891 81.7987Z" fill="black"/>
<path d="M51.4859 65.2647L51.021 59.0917C50.7943 56.0797 53.1391 53.4944 56.1564 53.4294L64.0888 53.2588C64.0888 53.2588 64.704 57.1292 66.775 58.9542L65.849 60.6939L64.9345 63.8931C64.7346 64.5897 64.1627 65.1208 63.4507 65.2545L58.6681 65.2584L51.4872 65.2647H51.4859Z" fill="white"/>
<path d="M51.4852 65.5509C51.3362 65.5509 51.2114 65.4363 51.1999 65.286L50.735 59.113C50.6191 57.5758 51.126 56.1023 52.1602 54.9612C53.1945 53.8213 54.6108 53.1756 56.1494 53.1425L64.0817 52.9719C64.2218 52.9668 64.3479 53.0725 64.3709 53.2138C64.3772 53.252 64.995 57.0053 66.964 58.7399C67.0634 58.8277 67.0901 58.9729 67.0277 59.0901L66.1158 60.803L65.2089 63.9729C64.9771 64.7842 64.3237 65.3828 63.5022 65.5382C63.4844 65.542 63.4666 65.5433 63.45 65.5433L58.6674 65.5471C58.5095 65.5471 58.3808 65.4184 58.3808 65.2605C58.3808 65.1026 58.5095 64.974 58.6674 64.974L63.422 64.9702C64.0168 64.8492 64.488 64.4085 64.6574 63.8163L65.5719 60.6171C65.577 60.598 65.5847 60.5789 65.5949 60.5611L66.4164 59.0175C64.6982 57.3606 64.0181 54.4275 63.8487 53.5539L56.1608 53.7194C54.7814 53.7487 53.5116 54.3282 52.5844 55.3496C51.6559 56.3723 51.2024 57.6942 51.3056 59.0723L51.7705 65.2452C51.782 65.4032 51.6635 65.5407 51.5056 65.5522C51.4979 65.5522 51.4903 65.5522 51.4839 65.5522L51.4852 65.5509Z" fill="black"/>
<path d="M57.2147 80.1519C56.9561 80.1519 56.6721 80.1201 56.3651 80.0424C56.211 80.0029 56.118 79.8475 56.1575 79.6934C56.197 79.5393 56.3524 79.4464 56.5065 79.4859C57.8298 79.8208 58.58 79.1305 58.5877 79.1229C58.7036 79.0146 58.8844 79.0197 58.9927 79.1343C59.101 79.249 59.0959 79.4311 58.9812 79.5393C58.9494 79.5699 58.3177 80.1507 57.2147 80.1507V80.1519Z" fill="black"/>
<path d="M65.6669 52.7887L61.6791 54.9041C59.3381 56.1459 57.7307 58.4332 57.3639 61.0593C56.8506 64.731 56.4112 71.0912 52.9137 76.458C50.2059 80.6124 45.6347 83.1799 40.6878 83.4919C37.4272 83.6983 33.5705 84.9323 31.5098 87.0159C31.5098 87.0159 24.9504 78.4333 31.5403 70.8989C38.1303 63.3657 46.7963 63.856 48.5043 55.8593C50.1384 48.2064 59.4705 42.5352 66.0541 50.9051C66.5381 51.5203 66.3598 52.4207 65.6694 52.7862L65.6669 52.7887Z" fill="black"/>
<path d="M117.931 69.9118C117.931 69.9118 113.999 70.057 109.138 70.0379C108.116 70.0341 105.374 66.7521 103.612 67.3087C102.347 67.7086 104.739 69.8609 104.411 69.8596C101.295 69.8469 98.6065 69.8354 97.6322 69.8303C96.8693 69.8265 96.6133 70.6072 96.9291 71.3026C97.3813 72.296 98.3671 73.8013 99.9974 74.326C102.912 75.2646 108.536 74.8418 110.276 74.5043C114.078 73.7657 117.094 73.7096 117.094 73.7096L117.932 69.9118H117.931Z" fill="white"/>
<path d="M105.028 75.1869C103.183 75.1869 101.273 75.0379 99.9088 74.5986C98.0085 73.986 97.0087 72.1724 96.6674 71.421C96.4457 70.9332 96.4585 70.3958 96.7017 70.0201C96.903 69.7106 97.243 69.5399 97.6328 69.5425C98.5562 69.5476 101.018 69.559 103.925 69.5705C103.912 69.5539 103.899 69.5387 103.888 69.5221C103.429 68.9324 102.801 68.1237 102.987 67.5277C103.038 67.3634 103.173 67.1444 103.526 67.0336C104.741 66.6502 106.267 67.8041 107.492 68.7312C108.123 69.2075 108.836 69.7488 109.139 69.7501C113.938 69.7679 117.88 69.6253 117.92 69.624C118.009 69.6202 118.093 69.6584 118.15 69.7271C118.208 69.7946 118.229 69.8863 118.21 69.9729L117.372 73.7707C117.344 73.9006 117.229 73.9936 117.097 73.9962C117.066 73.9962 114.059 74.0611 110.329 74.7845C109.373 74.9704 107.249 75.1857 105.026 75.1857L105.028 75.1869ZM97.6251 70.1169C97.4252 70.1169 97.2762 70.1895 97.1832 70.3321C97.0469 70.5422 97.0495 70.8759 97.1896 71.1828C97.5003 71.8655 98.4034 73.5097 100.085 74.0522C102.952 74.9755 108.568 74.5425 110.22 74.2216C113.412 73.6014 116.086 73.4587 116.86 73.4294L117.569 70.2111C116.478 70.2455 113.099 70.341 109.135 70.3245C108.641 70.3219 107.98 69.8227 107.145 69.1897C106.024 68.3415 104.629 67.287 103.697 67.5812C103.555 67.6258 103.539 67.6805 103.532 67.6996C103.436 68.0091 104.069 68.8229 104.339 69.1706C104.672 69.6011 104.798 69.7615 104.694 69.9729C104.642 70.0799 104.532 70.1462 104.409 70.1462H104.407C101.292 70.1334 98.6021 70.122 97.629 70.1169H97.6239H97.6251Z" fill="black"/>
<path d="M111.355 68.9667C114.759 69.0533 122.763 68.7756 125.925 64.541C127.61 66.6526 129.172 68.8699 130.888 70.9547C131.378 71.5507 131.991 71.645 132.523 71.4438C133.263 73.0383 133.869 74.6888 134.398 76.3687C125.904 77.9746 114.884 76.7291 111.148 76.2209C110.399 76.119 109.84 75.4822 109.833 74.727L109.797 70.5013C109.789 69.6417 110.495 68.9463 111.355 68.9679V68.9667Z" fill="black"/>
<path d="M66.2388 21.4777L68.7709 22.8252C68.6677 23.9599 68.6601 25.087 68.7467 26.1988L66.2057 27.5157C64.9486 28.1678 64.3105 29.6031 64.6697 30.9722C65.0288 32.3413 66.2885 33.2799 67.7035 33.2315L70.5718 33.1322C71.0456 34.1523 71.6048 35.1317 72.2403 36.0601L70.6941 38.4773C69.9312 39.6694 70.0967 41.2321 71.0928 42.2382C72.0888 43.2443 73.649 43.4277 74.8501 42.6776L77.2777 41.162C78.1896 41.8026 79.1652 42.3706 80.1931 42.8597L80.0632 45.7239C79.9995 47.1389 80.9229 48.4086 82.2883 48.7818C83.6536 49.1562 85.0967 48.5334 85.7616 47.2841L87.1091 44.7522C88.2439 44.8541 89.3711 44.863 90.483 44.7764L91.8 47.3172C92.4521 48.5742 93.8875 49.2122 95.2567 48.8531C96.6259 48.4939 97.5646 47.2344 97.5162 45.8194L97.4169 42.9526C98.4371 42.4789 99.4165 41.9198 100.345 41.2843L102.762 42.8304C103.955 43.5933 105.517 43.4277 106.524 42.4318C107.53 41.4358 107.713 39.8757 106.963 38.6747L105.447 36.2473C106.088 35.3354 106.656 34.3599 107.145 33.3321L110.01 33.462C111.423 33.5257 112.694 32.6024 113.068 31.2371C113.442 29.8718 112.819 28.4289 111.57 27.7641L109.038 26.4166C109.141 25.2819 109.149 24.1548 109.062 23.0429L111.603 21.7261C112.86 21.074 113.498 19.6387 113.139 18.2696C112.78 16.9005 111.52 15.9619 110.105 16.0103L107.238 16.1096C106.764 15.0895 106.205 14.1101 105.57 13.1817L107.116 10.7645C107.879 9.5724 107.713 8.00974 106.717 7.00362C105.721 5.9975 104.161 5.8141 102.96 6.56424L100.532 8.07978C99.6203 7.43918 98.6447 6.87117 97.6168 6.38212L97.7467 3.51659C97.8104 2.10292 96.887 0.831903 95.5216 0.458747C94.1563 0.0843177 92.7132 0.707093 92.0484 1.95646L90.7008 4.48832C89.566 4.38516 88.4375 4.37752 87.3269 4.46412L86.0099 1.92335C85.3578 0.666339 83.9224 0.0282806 82.5532 0.387427C81.184 0.746573 80.2453 2.00613 80.295 3.42107L80.3943 6.28914C79.3741 6.76291 78.3947 7.32201 77.4662 7.95752L75.0488 6.41141C73.8566 5.64854 72.2938 5.8141 71.2876 6.81003C70.2814 7.80597 70.098 9.36609 70.8482 10.5671L72.3639 12.9945C71.7232 13.9064 71.1552 14.8819 70.6661 15.9097L67.8016 15.7798C66.3878 15.7161 65.1167 16.6394 64.7435 18.0047C64.3691 19.37 64.9919 20.8129 66.2414 21.4777H66.2388ZM73.4019 20.3761C75.7467 11.8139 84.5885 6.77437 93.1501 9.11774C101.713 11.4624 106.753 20.3035 104.408 28.8644C102.063 37.4266 93.2214 42.4661 84.6598 40.1215C76.097 37.7769 71.0571 28.9357 73.4019 20.3748V20.3761Z" fill="white"/>
<path d="M94.4779 49.2415C93.2641 49.2415 92.1292 48.5741 91.5459 47.4495L90.3155 45.0769C89.3182 45.1457 88.2968 45.138 87.274 45.0552L86.0156 47.4202C85.282 48.7982 83.7179 49.472 82.2137 49.0593C80.7083 48.6467 79.7059 47.27 79.7772 45.7111L79.8982 43.0354C78.9761 42.5858 78.0922 42.0713 77.2694 41.5045L75.0022 42.9195C73.6789 43.746 71.9875 43.5486 70.8896 42.438C69.7917 41.3288 69.6134 39.6349 70.454 38.3206L71.8983 36.0626C71.3341 35.2233 70.8284 34.3369 70.3941 33.4237L67.7156 33.5167C66.1528 33.5715 64.79 32.5539 64.3939 31.0447C63.9978 29.5355 64.6894 27.9792 66.0751 27.2609L68.448 26.0307C68.3792 25.0322 68.3868 24.0108 68.4696 22.9881L66.1044 21.7298C64.7263 20.9962 64.0526 19.4336 64.4652 17.9282C64.8779 16.4229 66.2522 15.4218 67.8137 15.4919L70.4897 15.6129C70.9393 14.6908 71.4525 13.8082 72.0206 12.9842L70.6056 10.7173C69.7789 9.39275 69.9764 7.70272 71.087 6.60491C72.1964 5.50709 73.8903 5.32879 75.2048 6.16935L77.463 7.61357C78.3023 7.04938 79.1888 6.54378 80.102 6.10949L80.009 3.43117C79.9555 1.87105 80.9719 0.505785 82.4812 0.109705C83.9905 -0.286375 85.5469 0.405173 86.2653 1.79082L87.4956 4.16347C88.4942 4.0947 89.5157 4.10234 90.5384 4.18513L91.7968 1.82138C92.5304 0.44338 94.0932 -0.230338 95.5987 0.181025C97.1041 0.593661 98.1065 1.97039 98.0352 3.52924L97.9142 6.20501C98.8363 6.65458 99.719 7.16782 100.543 7.73584L102.81 6.3209C104.135 5.49435 105.825 5.69176 106.923 6.80231C108.021 7.91159 108.2 9.60544 107.358 10.9198L105.914 13.1778C106.478 14.0171 106.984 14.9035 107.418 15.8166L110.097 15.7237C111.662 15.6702 113.022 16.6865 113.419 18.1957C113.815 19.7048 113.123 21.2611 111.737 21.9794L109.364 23.2097C109.433 24.2082 109.426 25.2296 109.343 26.2523L111.707 27.5105C113.085 28.2441 113.759 29.8068 113.347 31.3121C112.935 32.8175 111.555 33.8198 109.999 33.7485L107.323 33.6275C106.873 34.5496 106.359 35.4334 105.792 36.2561L107.207 38.5231C108.033 39.8463 107.836 41.5376 106.727 42.6354C105.617 43.7333 103.923 43.9128 102.609 43.071L100.351 41.6268C99.5114 42.191 98.6249 42.6966 97.7117 43.1309L97.8047 45.8092C97.8582 47.3693 96.8418 48.7346 95.3312 49.1306C95.0472 49.2045 94.7606 49.2415 94.4791 49.2415H94.4779ZM90.4836 44.491C90.5906 44.491 90.6887 44.5496 90.7384 44.6464L92.0553 47.1872C92.6489 48.3334 93.9365 48.9052 95.1847 48.5779C96.4329 48.2506 97.2735 47.121 97.2302 45.8321L97.1309 42.9653C97.1271 42.8507 97.192 42.7437 97.2965 42.6953C98.3001 42.2292 99.2706 41.6752 100.183 41.0499C100.277 40.9849 100.403 40.9824 100.5 41.0448L102.917 42.5909C104.005 43.2862 105.405 43.1385 106.323 42.2305C107.24 41.3224 107.404 39.924 106.72 38.83L105.205 36.4026C105.144 36.3045 105.147 36.1797 105.214 36.0855C105.841 35.1927 106.404 34.2261 106.887 33.211C106.937 33.1066 107.045 33.0429 107.16 33.048L110.024 33.1779C111.311 33.2365 112.452 32.4087 112.793 31.1631C113.134 29.9189 112.577 28.6249 111.437 28.0187L108.905 26.6713C108.803 26.6165 108.743 26.507 108.753 26.3923C108.854 25.2729 108.863 24.1547 108.777 23.0671C108.768 22.9524 108.83 22.8429 108.931 22.7894L111.472 21.4726C112.619 20.8791 113.191 19.5915 112.862 18.3434C112.535 17.0953 111.41 16.2547 110.116 16.298L107.249 16.3974C107.132 16.4012 107.027 16.3362 106.979 16.2318C106.513 15.2282 105.959 14.2578 105.333 13.3459C105.268 13.2504 105.266 13.1269 105.328 13.0288L106.874 10.6116C107.57 9.52393 107.421 8.12427 106.514 7.2073C105.606 6.29034 104.207 6.12604 103.113 6.80995L100.686 8.3255C100.588 8.38663 100.463 8.38281 100.369 8.31658C99.4757 7.68871 98.509 7.1258 97.4952 6.64311C97.3907 6.59344 97.327 6.48646 97.3321 6.37057L97.462 3.50504C97.5206 2.21619 96.6928 1.07762 95.4471 0.736301C94.2027 0.394984 92.9087 0.952808 92.3024 2.09265L90.9549 4.62451C90.9001 4.72639 90.7893 4.78498 90.676 4.77479C89.5577 4.67418 88.4394 4.66526 87.3504 4.75059C87.2358 4.75951 87.1263 4.69965 87.0728 4.59649L85.7558 2.05572C85.1623 0.909506 83.8746 0.337674 82.6264 0.664981C81.3782 0.992288 80.5376 2.12194 80.5822 3.4108L80.6815 6.27887C80.6853 6.39349 80.6204 6.50047 80.5159 6.54887C79.5136 7.015 78.5418 7.569 77.6298 8.19432C77.5343 8.25927 77.4095 8.26182 77.3127 8.19942L74.8953 6.6533C73.8076 5.95793 72.4078 6.10567 71.4895 7.01372C70.5724 7.92178 70.4081 9.32016 71.0921 10.4142L72.6078 12.8416C72.6689 12.9396 72.6651 13.0644 72.5988 13.1587C71.9709 14.0515 71.408 15.0181 70.9252 16.0331C70.8756 16.1376 70.7673 16.2012 70.6527 16.1962L67.7869 16.0663C66.4942 16.0077 65.3593 16.8355 65.018 18.081C64.6766 19.3253 65.2345 20.6193 66.3744 21.2255L68.9065 22.5729C69.0084 22.6277 69.0682 22.7372 69.0581 22.8518C68.9574 23.9713 68.9485 25.0895 69.0339 26.1771C69.0428 26.2917 68.9816 26.4013 68.8797 26.4548L66.3388 27.7716C65.1925 28.3651 64.6206 29.6527 64.9479 30.9008C65.2753 32.1489 66.4037 32.9894 67.694 32.9461L70.561 32.8468C70.6794 32.843 70.7826 32.9079 70.831 33.0124C71.2972 34.0159 71.8512 34.9864 72.4766 35.8983C72.5415 35.9938 72.5441 36.1186 72.4817 36.2154L70.9354 38.6326C70.24 39.7202 70.3878 41.1199 71.2959 42.0381C72.204 42.9564 73.6025 43.1194 74.6966 42.4355L77.1242 40.9199C77.2222 40.8588 77.3471 40.8626 77.4413 40.9289C78.3342 41.5567 79.3009 42.1197 80.316 42.6023C80.4204 42.652 80.4841 42.759 80.479 42.8749L80.3491 45.7391C80.2905 47.028 81.1184 48.1666 82.364 48.5079C83.6084 48.8492 84.9024 48.2914 85.5087 47.1515L86.8562 44.6197C86.911 44.5178 87.0218 44.4579 87.1352 44.4694C88.2547 44.57 89.3743 44.5789 90.4607 44.4936C90.4684 44.4936 90.476 44.4936 90.4836 44.4936V44.491ZM88.931 40.9874C87.4803 40.9874 86.0207 40.7926 84.584 40.3991C75.8824 38.0162 70.7418 29.0006 73.1249 20.2996C75.5066 11.5986 84.5242 6.45845 93.2258 8.84129C97.4404 9.99515 100.954 12.7219 103.118 16.5184C105.282 20.3149 105.839 24.7265 104.685 28.9408C103.531 33.155 100.804 36.6688 97.0073 38.8326C94.5046 40.259 91.7344 40.9874 88.9298 40.9874H88.931ZM73.6789 20.4524C71.3799 28.8478 76.3409 37.5488 84.7369 39.8476C88.8037 40.9607 93.0615 40.4245 96.7246 38.3359C100.388 36.2472 103.019 32.8583 104.132 28.7905C105.245 24.724 104.709 20.4664 102.62 16.8036C100.532 13.1409 97.1411 10.5097 93.0743 9.39657C84.6783 7.09778 75.9766 12.0583 73.6776 20.4537L73.6789 20.4524Z" fill="black"/>
<mask id="mask1_931_497" style="mask-type:luminance" maskUnits="userSpaceOnUse" x="74" y="10" width="30" height="29">
<path d="M74.5137 24.5864C74.5137 16.6482 80.9495 10.2129 88.8882 10.2129C96.827 10.2129 103.263 16.6482 103.263 24.5864C103.263 32.5245 96.827 38.9599 88.8882 38.9599C80.9495 38.9599 74.5137 32.5245 74.5137 24.5864Z" fill="white"/>
</mask>
<g mask="url(#mask1_931_497)">
<path d="M100.328 34.7687C97.4202 37.54 93.4935 39.2542 89.1593 39.2771C84.825 39.3 80.8792 37.6266 77.9434 34.8859C81.3186 33.8211 85.1115 33.2124 89.1274 33.192C93.142 33.1704 96.9426 33.7396 100.328 34.7687Z" fill="black"/>
<path d="M79.6096 23.7207C81.0285 18.6098 83.9541 11.9083 89.441 12.7323C94.7051 13.5232 97.1811 19.2976 98.3198 23.7716C99.0114 26.4945 96.9353 29.1372 94.1256 29.1525L83.8229 29.2059C80.9495 29.2212 78.8416 26.4894 79.6109 23.7194L79.6096 23.7207Z" fill="black"/>
<path d="M84.1508 17.785C84.1534 17.7723 84.1585 17.7481 84.1585 17.7481L93.5123 17.6768C93.5123 17.6768 93.5161 17.692 93.5186 17.6984C93.6422 18.1645 93.7084 18.6561 93.711 19.1643L93.725 21.9025C93.7352 23.7351 92.8754 25.3513 91.5687 26.2963L91.6056 33.4435C91.6132 34.8661 90.4657 36.0251 89.0443 36.0327C87.6216 36.0404 86.4638 34.8929 86.4562 33.4716L86.4192 26.4287C85.0182 25.5168 84.0757 23.8561 84.0655 21.9534L84.049 18.865C84.0464 18.4944 84.0821 18.1327 84.1496 17.785H84.1508Z" fill="white"/>
<path d="M89.0304 36.3205C88.2713 36.3205 87.558 36.0263 87.018 35.4927C86.4742 34.9552 86.1736 34.2382 86.1697 33.4741L86.1328 26.5115C86.1328 26.3535 86.2602 26.2236 86.4181 26.2236H86.4194C86.5773 26.2236 86.706 26.351 86.706 26.5089L86.7429 33.4715C86.7467 34.0828 86.9874 34.6559 87.4218 35.0864C87.8535 35.513 88.4241 35.7487 89.0304 35.7487C89.0342 35.7487 89.038 35.7487 89.0431 35.7487C89.6545 35.7448 90.2276 35.5041 90.6581 35.0698C91.0886 34.6356 91.323 34.0599 91.3204 33.4486L91.2848 26.5127C91.2848 26.3548 91.4122 26.2249 91.5701 26.2249H91.5714C91.7293 26.2249 91.8579 26.3523 91.8579 26.5102L91.8936 33.446C91.8974 34.2102 91.6032 34.931 91.0657 35.4736C90.5282 36.0174 89.8112 36.3179 89.047 36.323C89.0419 36.323 89.0368 36.323 89.0317 36.323L89.0304 36.3205Z" fill="black"/>
<path d="M88.8852 24.0966C88.2866 24.0966 87.73 23.8572 87.3173 23.4216C87.2078 23.307 87.2129 23.1249 87.3275 23.0166C87.4422 22.9084 87.6243 22.9122 87.7326 23.0268C88.0357 23.3465 88.4445 23.5222 88.884 23.5222C88.8865 23.5222 88.889 23.5222 88.8916 23.5222C89.3336 23.5197 89.7424 23.3414 90.0417 23.0192C90.15 22.9033 90.3308 22.8969 90.4467 23.0039C90.5626 23.1121 90.569 23.293 90.462 23.4089C90.0583 23.8419 89.4877 24.0928 88.8941 24.0953C88.8903 24.0953 88.8865 24.0953 88.884 24.0953L88.8852 24.0966Z" fill="black"/>
<path d="M88.9004 27.4583C86.0907 27.4583 83.7969 24.9953 83.7803 21.954L83.7638 18.8656C83.7561 17.4392 84.2618 16.0956 85.1864 15.0793C86.1175 14.0579 87.3619 13.4911 88.6903 13.4835C90.1053 13.4758 91.4363 14.0655 92.4387 15.1442C93.436 16.2153 93.99 17.6429 93.9977 19.1623L94.0117 21.9005C94.0231 24.0592 92.8603 26.0409 91.0478 26.9489C90.9065 27.0202 90.7332 26.9629 90.6632 26.8216C90.5919 26.6802 90.6492 26.507 90.7918 26.4369C92.4094 25.627 93.4487 23.8478 93.4385 21.9043L93.4245 19.1661C93.4169 17.7907 92.9176 16.5018 92.0196 15.5352C91.1268 14.5762 89.941 14.0553 88.6941 14.0579C87.5287 14.0642 86.4334 14.5635 85.6118 15.4664C84.784 16.3745 84.3318 17.5818 84.3382 18.863L84.3547 21.9514C84.3687 24.6769 86.4066 26.8852 88.9017 26.8852C88.9094 26.8852 88.9195 26.8852 88.9259 26.8852C89.0839 26.8852 89.2125 27.0126 89.2125 27.1705C89.2125 27.3284 89.0851 27.4583 88.9272 27.4583C88.9195 27.4583 88.9106 27.4583 88.9017 27.4583H88.9004Z" fill="black"/>
</g>
<path d="M88.9388 39.3123C87.4079 39.3123 85.8528 39.0704 84.3218 38.5597C81.0141 37.4568 78.2057 35.2051 76.4124 32.2211C76.3308 32.0848 76.3754 31.9091 76.5104 31.8276C76.6454 31.7461 76.8225 31.7894 76.904 31.9256C78.626 34.7937 81.3249 36.9562 84.5039 38.0158C91.8568 40.4675 99.8325 36.4812 102.283 29.1302C104.735 21.7791 100.748 13.804 93.3954 11.3524C89.8342 10.1654 86.0234 10.4354 82.6648 12.114C79.3061 13.7926 76.8034 16.6785 75.6163 20.2394C74.7999 22.6872 74.6713 25.3031 75.2431 27.8044C75.2788 27.9585 75.182 28.1126 75.0279 28.1482C74.875 28.1839 74.7197 28.0871 74.684 27.933C74.0879 25.3286 74.2229 22.6057 75.0725 20.0585C76.3079 16.3524 78.9138 13.3494 82.4088 11.602C85.9037 9.85469 89.8699 9.57323 93.5775 10.8099C101.23 13.3608 105.379 21.6619 102.827 29.3136C100.785 35.4356 95.0626 39.3149 88.9376 39.3149L88.9388 39.3123Z" fill="black"/>
<path d="M34.1916 11.1501C34.1203 11.1501 34.0489 11.1233 33.9929 11.0698C33.8783 10.9603 33.8744 10.7782 33.984 10.6648L35.0398 9.56319C35.1494 9.44857 35.3315 9.44475 35.4449 9.55428C35.5595 9.6638 35.5633 9.84592 35.4538 9.95927L34.3979 11.0609C34.3419 11.1195 34.2667 11.1488 34.1903 11.1488L34.1916 11.1501Z" fill="black"/>
<path d="M30.4982 15.0065C30.4269 15.0065 30.3556 14.9798 30.2995 14.9263C30.1849 14.8167 30.1811 14.6346 30.2906 14.5213L31.3465 13.4196C31.456 13.305 31.6381 13.3012 31.7515 13.4107C31.8661 13.5202 31.87 13.7024 31.7604 13.8157L30.7046 14.9174C30.6485 14.9759 30.5734 15.0052 30.4969 15.0052L30.4982 15.0065Z" fill="black"/>
<path d="M31.5342 11.2103C31.4616 11.2103 31.389 11.1823 31.3329 11.1275L30.2618 10.073C30.1484 9.9622 30.1471 9.78008 30.2579 9.66801C30.3688 9.55466 30.5509 9.55339 30.6642 9.66419L31.7354 10.7187C31.8487 10.8295 31.85 11.0116 31.7392 11.1237C31.6832 11.181 31.6093 11.209 31.5342 11.209V11.2103Z" fill="black"/>
<path d="M35.2842 14.8998C35.2116 14.8998 35.139 14.8717 35.0829 14.817L34.0118 13.7625C33.8984 13.6517 33.8971 13.4695 34.0079 13.3575C34.1188 13.2441 34.3009 13.2428 34.4142 13.3536L35.4854 14.4082C35.5987 14.519 35.6 14.7011 35.4892 14.8132C35.4332 14.8705 35.3593 14.8985 35.2842 14.8985V14.8998Z" fill="black"/>
<path d="M200.233 13.0778C200.161 13.0778 200.09 13.051 200.034 12.9976C199.919 12.888 199.915 12.7059 200.025 12.5926L201.081 11.4909C201.19 11.3763 201.373 11.3725 201.486 11.482C201.6 11.5915 201.604 11.7737 201.495 11.887L200.439 12.9886C200.383 13.0472 200.308 13.0765 200.231 13.0765L200.233 13.0778Z" fill="black"/>
<path d="M196.539 16.9342C196.468 16.9342 196.397 16.9075 196.341 16.854C196.226 16.7445 196.222 16.5624 196.332 16.449L197.387 15.3474C197.497 15.2327 197.679 15.2289 197.793 15.3385C197.907 15.448 197.911 15.6301 197.801 15.7434L196.746 16.8451C196.69 16.9037 196.614 16.933 196.538 16.933L196.539 16.9342Z" fill="black"/>
<path d="M197.575 13.1361C197.503 13.1361 197.43 13.1081 197.374 13.0533L196.303 11.9988C196.189 11.888 196.188 11.7059 196.299 11.5938C196.41 11.4804 196.592 11.4792 196.704 11.59L197.775 12.6445C197.889 12.7553 197.89 12.9374 197.779 13.0495C197.723 13.1068 197.649 13.1348 197.574 13.1348L197.575 13.1361Z" fill="black"/>
<path d="M201.325 16.8275C201.253 16.8275 201.18 16.7995 201.124 16.7447L200.053 15.6902C199.939 15.5794 199.938 15.3973 200.049 15.2852C200.16 15.1718 200.342 15.1706 200.454 15.2814L201.525 16.3359C201.638 16.4467 201.64 16.6288 201.529 16.7409C201.473 16.7982 201.399 16.8262 201.324 16.8262L201.325 16.8275Z" fill="black"/>
<path d="M204.837 181.775C204.682 181.775 204.553 181.65 204.551 181.495L204.518 179.969C204.514 179.811 204.64 179.68 204.798 179.676C204.958 179.67 205.087 179.798 205.091 179.956L205.124 181.482C205.128 181.64 205.002 181.771 204.844 181.775C204.841 181.775 204.84 181.775 204.837 181.775Z" fill="black"/>
<path d="M204.951 187.113C204.795 187.113 204.667 186.988 204.664 186.832L204.631 185.307C204.627 185.149 204.753 185.018 204.911 185.014C205.069 185.009 205.2 185.136 205.204 185.294L205.237 186.82C205.241 186.978 205.115 187.109 204.957 187.113C204.954 187.113 204.953 187.113 204.951 187.113Z" fill="black"/>
<path d="M201.496 183.709C201.338 183.709 201.21 183.581 201.209 183.425C201.209 183.267 201.335 183.137 201.493 183.135L202.996 183.124H202.998C203.156 183.124 203.284 183.251 203.285 183.408C203.285 183.566 203.159 183.696 203.001 183.697L201.498 183.709H201.496Z" fill="black"/>
<path d="M206.757 183.666C206.599 183.666 206.472 183.538 206.471 183.382C206.471 183.224 206.597 183.094 206.755 183.093L208.258 183.081C208.404 183.079 208.546 183.207 208.547 183.365C208.547 183.523 208.421 183.653 208.263 183.654L206.76 183.666H206.757Z" fill="black"/>
<path d="M12.1961 39.5473C11.7949 39.5473 11.3937 39.4722 11.009 39.3232C10.171 38.9971 9.50994 38.3565 9.14821 37.5198C8.41076 35.8107 9.17496 33.8073 10.8524 33.0546C11.6599 32.6917 12.5578 32.6688 13.3819 32.9897C14.2199 33.3157 14.881 33.9563 15.2427 34.7931C15.9802 36.5022 15.216 38.5055 13.5385 39.2582C13.1093 39.4505 12.6533 39.5473 12.1974 39.5473H12.1961ZM12.1935 33.3399C11.8165 33.3399 11.4408 33.4202 11.0867 33.5794C9.69334 34.2047 9.06033 35.8705 9.67424 37.2944C9.97355 37.9885 10.5212 38.5208 11.2154 38.7895C11.8942 39.0532 12.6355 39.0341 13.3016 38.736C14.6938 38.1107 15.328 36.4449 14.7141 35.021C14.4148 34.3269 13.8671 33.7946 13.173 33.5259C12.8559 33.4023 12.5247 33.3412 12.1935 33.3412V33.3399Z" fill="black"/>
<path d="M217.902 171.805C217.508 171.805 217.113 171.731 216.735 171.584C215.911 171.265 215.262 170.636 214.908 169.814C214.185 168.137 214.935 166.171 216.581 165.431C217.373 165.075 218.254 165.052 219.064 165.367C219.887 165.687 220.537 166.316 220.891 167.137C221.614 168.814 220.864 170.781 219.217 171.521C218.796 171.711 218.347 171.805 217.9 171.805H217.902ZM216.816 165.954C215.455 166.565 214.835 168.196 215.436 169.588C215.729 170.268 216.265 170.786 216.944 171.051C217.609 171.309 218.333 171.29 218.984 170.999C220.347 170.387 220.966 168.757 220.366 167.365C220.073 166.685 219.537 166.165 218.858 165.902C218.193 165.643 217.468 165.662 216.818 165.955L216.816 165.954Z" fill="black"/>
<path d="M24.0246 219.631C23.5852 219.631 23.1445 219.55 22.7217 219.385C21.8021 219.027 21.0774 218.326 20.6812 217.407C19.8725 215.533 20.7105 213.335 22.551 212.508C23.4362 212.111 24.4207 212.085 25.325 212.437C26.2446 212.795 26.9693 213.496 27.3654 214.415C28.1742 216.289 27.3361 218.487 25.4957 219.314C25.0244 219.525 24.5252 219.632 24.0246 219.632V219.631ZM24.0221 212.764C23.6018 212.764 23.1815 212.853 22.7853 213.032C21.2302 213.729 20.522 215.591 21.2073 217.18C21.5422 217.955 22.1536 218.549 22.9293 218.85C23.6884 219.146 24.5163 219.124 25.2601 218.791C26.8152 218.093 27.5234 216.231 26.8381 214.643C26.5032 213.867 25.8918 213.273 25.1161 212.972C24.7608 212.834 24.3914 212.765 24.0221 212.765V212.764Z" fill="black"/>
<path d="M19.5128 20.5805C19.2415 20.5805 18.9702 20.5296 18.7104 20.429C18.1436 20.2087 17.6978 19.7756 17.4533 19.2114C16.9553 18.0576 17.4724 16.7063 18.6047 16.1969C19.1498 15.9524 19.7573 15.9358 20.3152 16.1523C20.882 16.3727 21.329 16.8057 21.5723 17.3699C22.0703 18.5237 21.5532 19.875 20.4209 20.3844C20.1305 20.5143 19.8223 20.5805 19.5141 20.5805H19.5128ZM19.5115 16.5752C19.2823 16.5752 19.0543 16.6236 18.839 16.7203C17.9908 17.1011 17.6049 18.1162 17.9793 18.9835C18.1614 19.4063 18.4951 19.7298 18.9167 19.8941C19.3294 20.0546 19.7803 20.0431 20.184 19.861C21.0323 19.4802 21.4182 18.4651 21.0437 17.5978C20.8616 17.175 20.5279 16.8515 20.1051 16.6872C19.9115 16.6121 19.7115 16.5752 19.5103 16.5752H19.5115Z" fill="black"/>
<path d="M161.504 31.7331C161.433 31.7331 161.361 31.7063 161.305 31.6528C161.191 31.5433 161.187 31.3612 161.296 31.2478L162.352 30.1462C162.462 30.0316 162.644 30.0278 162.757 30.1373C162.872 30.2468 162.876 30.4289 162.766 30.5423L161.71 31.6439C161.654 31.7025 161.579 31.7318 161.503 31.7318L161.504 31.7331Z" fill="black"/>
<path d="M157.811 35.5885C157.739 35.5885 157.668 35.5618 157.612 35.5083C157.497 35.3988 157.494 35.2167 157.603 35.1033L158.659 34.0017C158.769 33.887 158.951 33.8832 159.064 33.9928C159.179 34.1023 159.182 34.2844 159.073 34.3977L158.017 35.4994C157.961 35.558 157.886 35.5873 157.809 35.5873L157.811 35.5885Z" fill="black"/>
<path d="M158.847 31.7914C158.774 31.7914 158.701 31.7633 158.645 31.7086L157.574 30.6541C157.461 30.5433 157.46 30.3611 157.57 30.2491C157.681 30.1357 157.863 30.1344 157.975 30.2452L159.047 31.2998C159.16 31.4106 159.161 31.5927 159.05 31.7048C158.994 31.7621 158.921 31.7901 158.845 31.7901L158.847 31.7914Z" fill="black"/>
<path d="M162.597 35.4828C162.524 35.4828 162.451 35.4547 162.395 35.4L161.324 34.3455C161.211 34.2347 161.21 34.0525 161.32 33.9405C161.431 33.8271 161.613 33.8258 161.725 33.9366L162.797 34.9912C162.91 35.102 162.911 35.2841 162.8 35.3962C162.744 35.4535 162.671 35.4815 162.595 35.4815L162.597 35.4828Z" fill="black"/>
<path d="M14.3528 206.27C12.9518 206.27 11.8105 205.13 11.8105 203.728C11.8105 202.325 12.9505 201.186 14.3528 201.186C15.7551 201.186 16.895 202.325 16.895 203.728C16.895 205.13 15.7551 206.27 14.3528 206.27ZM14.3528 201.76C13.2676 201.76 12.385 202.643 12.385 203.729C12.385 204.815 13.2676 205.697 14.3528 205.697C15.4379 205.697 16.3219 204.814 16.3219 203.729C16.3219 202.644 15.4392 201.76 14.3528 201.76Z" fill="black"/>
</g>
<defs>
<clipPath id="clip0_931_497">
<rect width="228" height="233.095" fill="white"/>
</clipPath>
</defs>
</svg>
