<svg width="272" height="212" viewBox="0 0 272 212" fill="none" xmlns="http://www.w3.org/2000/svg">
<g clip-path="url(#clip0_931_654)">
<path d="M93.0436 16.2988C93.0304 16.1999 92.9513 16.1341 92.8525 16.1209L88.8868 15.8178C88.3796 14.5134 87.7208 13.2748 86.9303 12.1153L88.9659 8.63017C89.012 8.54452 88.9988 8.43911 88.9329 8.37323L85.7314 5.17139C85.6655 5.09892 85.5601 5.08574 85.4745 5.13845L81.9962 7.20713C79.9673 5.84997 77.6814 4.91445 75.2769 4.46646L74.2756 0.487217C74.2493 0.394983 74.1702 0.329102 74.0714 0.329102H69.5392C69.4404 0.329102 69.3613 0.394983 69.335 0.487217L68.3205 4.49281C66.9898 4.75634 65.692 5.17139 64.4536 5.71821L61.3179 3.01048C61.2389 2.95118 61.1335 2.95118 61.0544 3.01048L57.3456 5.6128C57.2666 5.6655 57.2336 5.76432 57.2666 5.85656L58.7488 9.74356C57.8133 10.7186 56.9833 11.7925 56.2784 12.952L52.148 12.5238C52.0492 12.5238 51.957 12.5699 51.9241 12.6621L50.376 16.9181C50.343 17.0103 50.376 17.1091 50.455 17.1618L53.8806 19.4874C53.7225 20.4493 53.6434 21.4244 53.6434 22.3994C53.6434 22.7617 53.6566 23.1307 53.6829 23.5589L50.0795 25.5749C49.9939 25.621 49.9544 25.7198 49.9807 25.8121L51.1401 30.1866C51.1665 30.2854 51.2521 30.3513 51.3509 30.3447L55.422 30.292C56.0215 31.5306 56.7593 32.7033 57.6157 33.7771L55.8568 37.4336C55.8173 37.5192 55.8371 37.6246 55.9161 37.6839L59.3943 40.6025C59.4734 40.6617 59.5788 40.6617 59.6513 40.6025L62.9121 38.2768C64.1308 38.9686 65.4285 39.5088 66.779 39.9041L67.4509 43.857C67.4707 43.9492 67.5431 44.0217 67.642 44.0349L72.1544 44.417C72.2335 44.4038 72.2928 44.3511 72.3191 44.2786L73.6366 40.5629C75.0464 40.4246 76.4297 40.1281 77.7736 39.6669L80.5338 42.4669C80.5997 42.5328 80.6985 42.546 80.7841 42.5064L84.7103 40.2335C84.7893 40.1874 84.8289 40.0886 84.8091 39.9963L83.7683 36.2213C84.8355 35.2924 85.8038 34.2383 86.6339 33.092L90.5073 33.8035C90.5996 33.8232 90.6918 33.7705 90.7313 33.6849L92.6483 29.5739C92.6878 29.4882 92.6615 29.3894 92.589 29.3235L89.5653 26.8266C89.9079 25.4497 90.0857 24.0464 90.0989 22.63L93.6957 20.9895C93.7814 20.95 93.8341 20.8578 93.8209 20.7655L93.0436 16.2988ZM71.8909 33.5268C65.7579 33.5268 60.7843 28.5527 60.7843 22.4192C60.7843 16.2856 65.7579 11.3115 71.8909 11.3115C78.0239 11.3115 82.9975 16.2856 82.9975 22.4192C82.9975 28.5527 78.0239 33.5268 71.8909 33.5268Z" fill="#F3F3F3" stroke="#263238" stroke-linecap="round" stroke-linejoin="round"/>
<path d="M68.6032 53.3503C68.5835 53.2449 68.4846 53.1724 68.3792 53.179L65.2041 53.3701C64.789 52.3094 64.2554 51.3014 63.6099 50.3593L65.6125 47.8426C65.6784 47.7636 65.6784 47.645 65.6125 47.5659L62.2792 44.2323C62.2001 44.1599 62.0816 44.1599 62.0025 44.2323L59.4597 46.2483C57.7865 45.1349 55.909 44.3707 53.9393 44.0017L53.5507 40.7274C53.5507 40.622 53.4519 40.543 53.3465 40.543H48.6298C48.5244 40.543 48.4321 40.622 48.419 40.7274L48.0369 44.0215C46.9565 44.2323 45.9025 44.5683 44.8946 45.0097L42.6944 42.526C42.6219 42.4404 42.5033 42.4272 42.4111 42.4931L38.5442 45.2008C38.4586 45.2601 38.4257 45.3787 38.4784 45.4709L40.066 48.4026C39.3018 49.1932 38.6299 50.0694 38.0567 51.0049L34.8157 50.2341C34.7103 50.2078 34.6115 50.2671 34.5719 50.3659L32.958 54.7931C32.9185 54.8985 32.958 55.0105 33.0634 55.0567L36.0344 56.539C35.9092 57.3296 35.8433 58.1267 35.8433 58.9239C35.8433 59.2072 35.8433 59.5037 35.8763 59.8462L32.7999 61.0585C32.7011 61.098 32.6484 61.2034 32.6747 61.3088L33.8934 65.8678C33.9198 65.9732 34.0186 66.0457 34.124 66.0259L37.3519 65.545C37.8394 66.553 38.4388 67.5083 39.1371 68.3845L37.3453 71.0922C37.286 71.1844 37.3058 71.303 37.3848 71.3755L41.0014 74.4061C41.0804 74.4719 41.199 74.4719 41.2781 74.4061L43.6035 72.199C44.5916 72.759 45.6456 73.2004 46.7391 73.5232L46.8248 76.7119C46.8248 76.8173 46.9104 76.903 47.0158 76.9095L51.7127 77.2982H51.7325C51.8379 77.3048 51.9301 77.2258 51.9499 77.1204L52.5823 74.0239C53.7285 73.9119 54.855 73.6682 55.9419 73.2992L57.8194 75.8225C57.8787 75.9081 57.9973 75.9279 58.0895 75.8752L62.1738 73.5166C62.266 73.4639 62.2989 73.3519 62.2594 73.2531L61.0144 70.3807C61.8839 69.6231 62.6613 68.7666 63.3398 67.8377L66.3108 68.8259C66.4162 68.8588 66.5216 68.8127 66.5677 68.7139L68.5637 64.4579C68.6032 64.3591 68.5637 64.2471 68.4781 64.1944L65.8101 62.5474C66.0802 61.434 66.2317 60.2876 66.2449 59.1347L69.2686 58.2321C69.374 58.2058 69.4398 58.1004 69.4201 57.995L68.6032 53.3503ZM60.2436 58.9173C60.2436 64.0034 56.1198 68.1275 51.0342 68.121C45.9486 68.121 41.8248 63.9968 41.8314 58.9107C41.8314 53.8247 45.9552 49.7005 51.0408 49.7005V49.7137C56.1198 49.7137 60.237 53.8378 60.2436 58.9107V58.9173Z" fill="#B9FF66" stroke="#263238" stroke-linecap="round" stroke-linejoin="round"/>
<path d="M126.56 212C196.457 212 253.12 200.332 253.12 185.938C253.12 171.544 196.457 159.875 126.56 159.875C56.6629 159.875 0 171.544 0 185.938C0 200.332 56.6629 212 126.56 212Z" fill="#F3F3F3"/>
<path opacity="0.5" d="M126.56 212C196.457 212 253.12 200.332 253.12 185.938C253.12 171.544 196.457 159.875 126.56 159.875C56.6629 159.875 0 171.544 0 185.938C0 200.332 56.6629 212 126.56 212Z" fill="#F3F3F3"/>
<path d="M133.951 186.326H35.7109L52.6805 138.18H116.843L133.951 186.326Z" fill="#263238"/>
<path d="M134.227 186.326H35.4336V190.371H134.227V186.326Z" fill="#263238"/>
<path d="M133.951 186.326H35.7109L52.6805 138.18H116.843L133.951 186.326Z" fill="white" stroke="#263238" stroke-linecap="round" stroke-linejoin="round"/>
<path d="M133.951 186.326H35.7109L52.6805 138.18H116.843L133.951 186.326Z" stroke="#263238" stroke-linecap="round" stroke-linejoin="round"/>
<path d="M56.666 174.435H129.729" stroke="#263238" stroke-linecap="round" stroke-linejoin="round"/>
<path d="M39.9004 174.435H53.4642" stroke="#263238" stroke-linecap="round" stroke-linejoin="round"/>
<path d="M110.939 162.543H125.498" stroke="#263238" stroke-linecap="round" stroke-linejoin="round"/>
<path d="M44.0898 162.543H101.869" stroke="#263238" stroke-linecap="round" stroke-linejoin="round"/>
<path d="M48.2793 150.657H121.276" stroke="#263238" stroke-linecap="round" stroke-linejoin="round"/>
<path d="M91.0273 112.057C91.0866 111.965 91.1328 111.88 91.1393 111.794C91.1064 111.893 91.0669 111.978 91.0273 112.057Z" fill="#B9FF66"/>
<path d="M91.0469 109.976C90.9284 109.383 90.7241 108.632 90.375 107.677C90.6187 108.467 90.8757 109.258 91.0469 109.976Z" fill="#B9FF66"/>
<path d="M73.4318 116.695C73.3857 116.801 72.9311 117.315 72.5293 117.756L72.7269 117.598C73.4186 117.038 73.7743 116.162 73.6689 115.279C73.5965 114.666 73.5043 113.889 73.3989 112.986C73.6162 114.989 73.5108 116.504 73.4252 116.689L73.4318 116.695Z" fill="#B9FF66"/>
<path d="M92.7988 91.5683C92.8515 91.3179 92.9174 91.1137 93.0162 90.9688C92.9108 91.0939 92.8449 91.2982 92.7988 91.5683Z" fill="#B9FF66"/>
<path d="M88.5039 113.856C88.9321 113.579 89.5316 113.237 90.0586 112.888C89.5184 113.145 88.9057 113.329 88.5039 113.856Z" fill="#B9FF66"/>
<path d="M89.6232 121.136C89.4651 120.609 89.2872 120.043 89.1094 119.463C89.2741 120.029 89.4519 120.596 89.6232 121.136Z" fill="#B9FF66"/>
<path d="M72.351 100.911C72.351 100.964 72.351 101.023 72.3575 101.096C72.2521 98.9017 72.2521 97.0241 72.43 95.9436C72.5552 95.186 72.9834 94.4481 73.596 93.7432C71.6197 95.4166 72.3048 99.4617 72.351 100.911Z" fill="#B9FF66"/>
<path d="M93.3334 100.943C92.9908 101.727 91.7919 102.189 90.8828 102.92C91.9368 102.208 92.9908 101.978 93.3334 100.943Z" fill="#B9FF66"/>
<path d="M93.4304 99.7441C93.4436 100.047 93.4436 100.311 93.4238 100.528C93.4502 100.304 93.4568 100.047 93.4304 99.7441Z" fill="#B9FF66"/>
<path d="M82.2656 88.3665C82.8256 88.1359 83.1681 88.0041 83.1945 87.9975C83.0232 87.9778 82.8519 87.9514 82.6806 87.9316L82.2656 88.3599V88.3665Z" fill="#B9FF66"/>
<path d="M94.1422 90.5869C94.0961 90.5869 94.05 90.5869 94.0039 90.5935C94.0961 90.6001 94.1884 90.6133 94.2806 90.633C94.2345 90.6199 94.1884 90.6001 94.1422 90.5869Z" fill="#B9FF66"/>
<path d="M90.8945 124.76L98.3253 126.96C98.3253 126.96 98.3648 126.947 98.3846 126.947C95.8681 126.236 91.303 124.885 90.8945 124.766V124.76Z" fill="#B9FF66"/>
<path d="M117.956 157.049C116.039 157.325 114.162 157.852 112.383 158.61C111.948 158.788 111.527 158.992 111.105 159.203C108.951 160.297 106.988 161.726 104.814 162.78C94.8007 167.642 82.6664 163.676 71.8629 166.364C68.6415 167.168 65.5718 168.552 62.2911 169.013C56.8037 169.79 51.3888 167.946 46.2109 165.857C46.3822 159.111 46.8038 150.981 47.759 148.043C49.1292 144.92 51.8433 143.576 54.4586 142.416C55.6904 141.949 57.166 141.817 58.0751 141.112C65.0909 138.958 69.0236 135.525 71.1712 133.496L91.0985 137.996L98.5161 134.293C101.342 134.886 104.155 134.959 106.724 135.644C112.284 137.35 113.733 140.987 115.163 144.017C115.413 144.656 115.637 145.309 115.835 145.981C116.566 148.675 117.363 153.261 117.963 157.049H117.956Z" fill="#B9FF66"/>
<path d="M90.9933 131.908C90.9933 131.908 90.9802 131.578 91.0526 131.117C91.1844 130.326 91.5928 129.154 92.8378 128.653C92.8378 128.653 92.8444 128.653 92.851 128.653C94.0829 127.981 95.8484 127.553 97.1066 127.309C97.5216 127.19 97.93 127.072 98.3253 126.966L90.8945 124.766L90.8616 124.759C90.8616 124.759 90.44 123.863 89.6231 121.143C89.4518 120.602 89.274 120.036 89.1093 119.469C88.3649 117.091 87.6007 114.587 88.1212 114.133C88.2134 114.054 88.3517 113.955 88.5032 113.856C88.9051 113.322 89.5111 113.145 90.0579 112.888C90.4795 112.604 90.8484 112.321 91.0263 112.057C91.0658 111.978 91.1053 111.886 91.1383 111.794C91.1712 111.504 91.1778 111.155 91.1712 110.839C91.1514 110.602 91.1119 110.318 91.046 109.976C90.8748 109.264 90.6178 108.467 90.3741 107.676C90.3741 107.676 90.3741 107.676 90.3741 107.67C89.2476 104.593 89.4848 103.862 90.8682 102.933C90.8682 102.933 90.8813 102.933 90.8813 102.926C91.7904 102.195 92.9893 101.734 93.3319 100.95C93.3714 100.825 93.4044 100.686 93.4241 100.535C93.4439 100.324 93.4439 100.06 93.4307 99.7508C93.2529 97.8469 92.4294 93.4394 92.7983 91.5683C92.8378 91.2982 92.9103 91.0874 93.0157 90.9688C93.2199 90.6526 93.5822 90.5604 94.0104 90.5999C94.0565 90.5999 94.1026 90.5933 94.1488 90.5933C91.1975 89.5326 87.2516 88.5312 83.1937 88.0107C83.1739 88.0173 82.8248 88.1491 82.2648 88.3797C80.4664 89.1768 76.2174 91.5288 73.5956 93.7556C72.983 94.4605 72.5548 95.1984 72.4296 95.956C72.2517 97.0365 72.2517 98.9075 72.3571 101.108C72.456 102.979 73.1872 111.063 73.398 113.006C73.4968 113.902 73.589 114.686 73.6681 115.299C73.7735 116.182 73.4177 117.058 72.726 117.618L72.5284 117.776C72.2056 118.132 71.9224 118.435 71.9224 118.435C71.9224 118.435 71.9158 118.422 71.9158 118.415C72.1266 119.041 72.199 119.746 72.2517 120.418C72.3506 121.083 72.4428 121.88 72.5152 122.855V122.862C72.8644 125.985 73.0291 129.108 72.4889 132.224C72.4889 132.224 71.9619 132.751 71.1582 133.508L91.0856 138.002C91.0856 138.002 97.9959 135.597 97.9234 135.584L98.5097 134.306C97.212 134.055 93.1211 133.021 90.9999 131.927L90.9933 131.908ZM82.4822 116.241L79.5903 116.103L79.6957 113.81C77.0541 113.019 75.1239 110.569 75.1239 107.67C75.1239 107.327 75.1568 106.991 75.2095 106.662L73.3123 105.917L74.2346 103.572L76.0857 104.297C77.0936 102.669 78.7998 101.53 80.7892 101.299L80.8683 99.5795L83.7602 99.7179L83.668 101.628C86.1581 102.511 87.9367 104.876 87.9367 107.67C87.9367 110.852 85.6179 113.487 82.5744 113.988L82.469 116.241H82.4822Z" fill="#B9FF66"/>
<path d="M71.6992 118.047C71.8705 118.495 72.0747 119.233 72.2526 120.405C72.1999 119.733 72.1208 119.029 71.9166 118.403C71.8968 118.37 71.831 118.245 71.7058 118.047H71.6992Z" fill="#B9FF66"/>
<path d="M72.5166 122.85C72.8328 127.389 72.4902 132.211 72.4902 132.211C73.0304 129.095 72.8591 125.966 72.5166 122.85Z" fill="#B9FF66"/>
<path d="M71.1848 88.4725C71.1848 88.4725 71.1518 88.4857 71.1387 88.4923C71.4417 88.3803 71.7513 88.2815 72.0741 88.209C71.7381 88.288 71.4351 88.3737 71.1848 88.4725Z" fill="white"/>
<path d="M72.0801 88.2084C72.3106 88.1557 72.561 88.1162 72.7981 88.0635C72.5412 88.103 72.3041 88.1557 72.0801 88.2084Z" fill="white"/>
<path d="M63.6289 97.1424C63.787 96.7405 63.9517 96.3452 64.1362 95.9434C63.9253 96.3584 63.7541 96.7603 63.6289 97.1358V97.1424Z" fill="white"/>
<path d="M64.3008 114.271C66.2902 115.418 69.0702 115.932 70.2032 116.479C68.6683 115.622 66.5142 115.26 65.1045 114.667C64.8146 114.548 64.5511 114.416 64.3008 114.271Z" fill="white"/>
<path d="M63.062 113.369C62.568 112.901 62.199 112.374 61.9355 111.814C62.1727 112.368 62.5284 112.875 63.062 113.369Z" fill="white"/>
<path d="M69.0368 101.807C69.0368 101.807 73.6744 88.749 79.8931 87.6883C79.8865 87.6883 79.8799 87.6883 79.8733 87.6883C77.7126 87.6751 74.8338 87.7278 72.8049 88.0638C72.5611 88.11 72.3174 88.1495 72.0868 88.2088C72.0868 88.2088 72.0868 88.2088 72.0802 88.2088C71.7574 88.2878 71.4478 88.3867 71.1448 88.4921C68.7008 89.5001 65.552 93.1104 64.1356 95.9499C63.9578 96.3451 63.7865 96.747 63.6284 97.1489C63.1739 98.4929 62.6205 100.232 62.166 101.985C61.9947 102.775 61.8695 103.474 61.7905 104.027C61.6192 105.186 61.4084 106.438 61.3359 107.67C61.4348 109.383 61.4545 110.688 61.942 111.808C62.2121 112.368 62.5744 112.895 63.0685 113.362C63.1805 113.474 63.3056 113.573 63.4374 113.679C63.4769 113.712 63.5098 113.738 63.5494 113.771C63.6877 113.876 63.8392 113.982 63.9973 114.08C64.0632 114.12 64.1225 114.159 64.1883 114.199C64.2279 114.219 64.2608 114.245 64.3003 114.265C64.5507 114.403 64.8142 114.535 65.104 114.66C66.5138 115.26 68.6679 115.615 70.2028 116.472C70.3543 116.544 70.4795 116.617 70.5651 116.689C70.5651 116.689 70.5717 116.689 70.5783 116.696C70.8879 116.9 71.1646 117.131 71.3885 117.394L69.0434 101.8L69.0368 101.807Z" fill="white"/>
<path d="M63.6286 113.843C63.7472 113.929 63.8658 114.008 63.9909 114.087C63.8328 113.988 63.6879 113.883 63.543 113.777C63.5693 113.797 63.5957 113.823 63.6286 113.843Z" fill="white"/>
<path d="M71.3825 117.4C71.1586 117.137 70.8819 116.906 70.5723 116.702C71.0729 117.137 71.4682 117.684 71.6987 118.04C71.5933 117.763 71.5077 117.592 71.4484 117.499C71.4221 117.466 71.4023 117.427 71.3759 117.4H71.3825Z" fill="white"/>
<path d="M71.4553 117.499C71.4092 117.427 71.3828 117.4 71.3828 117.4C71.4092 117.433 71.4289 117.466 71.4553 117.499Z" fill="white"/>
<path d="M71.4551 117.5C71.5144 117.592 71.6 117.764 71.7054 118.04C71.8306 118.231 71.903 118.363 71.9162 118.396C71.8042 118.067 71.6593 117.764 71.4551 117.5Z" fill="white"/>
<path d="M72.3574 101.095C72.5419 104.929 73.0359 109.732 73.3983 112.993C73.1875 111.056 72.4496 102.966 72.3574 101.095Z" fill="white"/>
<path d="M73.5957 93.7431C76.2175 91.5163 80.4665 89.1644 82.2649 88.3672C80.3084 89.1775 75.7696 91.2396 73.5957 93.7431Z" fill="white"/>
<path d="M79.8934 87.6885C73.6813 88.7492 69.0371 101.807 69.0371 101.807L71.3823 117.401C71.3823 117.401 71.4086 117.434 71.4547 117.5C71.659 117.763 71.8105 118.066 71.9159 118.396L71.9225 118.416C71.9225 118.416 72.2057 118.113 72.5285 117.757C72.9238 117.315 73.3849 116.801 73.431 116.696C73.5101 116.512 73.622 114.996 73.4047 112.994C73.0358 109.732 72.5417 104.93 72.3638 101.095C72.3638 101.029 72.3638 100.964 72.3572 100.911C72.3045 99.4615 71.626 95.4164 73.6023 93.743C75.7762 91.2395 80.315 89.1774 82.2715 88.3671L82.6865 87.9388C81.7577 87.8268 80.8222 87.7412 79.9 87.6885H79.8934Z" fill="white"/>
<path d="M106.283 109.047C106.567 109.284 106.744 109.594 106.823 109.93C106.823 109.93 106.823 109.923 106.823 109.916C107.107 108.513 105.605 108.454 103.721 106.603C104.564 107.531 105.532 108.408 106.283 109.047Z" fill="white"/>
<path d="M102.819 105.509C102.285 104.686 101.976 103.764 101.719 102.617C101.785 103.059 101.851 103.447 101.916 103.75C102.035 104.291 102.371 104.897 102.819 105.509Z" fill="white"/>
<path d="M106.001 116.696L106.086 117.197L106.831 121.742C106.64 120.01 105.375 112.868 105.375 112.868L106.007 116.696H106.001Z" fill="white"/>
<path d="M102.68 125.959C102.68 125.959 102.726 125.959 102.746 125.952C102.719 125.952 102.693 125.952 102.66 125.952L102.673 125.959H102.68Z" fill="white"/>
<path d="M97.1062 91.9642C97.1062 91.9642 96.9745 91.872 96.7637 91.7402C96.9481 91.8588 97.126 91.9906 97.2973 92.1223C97.1787 92.0235 97.1062 91.9642 97.1062 91.9642Z" fill="white"/>
<path d="M96.5675 91.6218C96.0405 91.3056 95.217 90.8642 94.4727 90.6797C95.25 90.9827 95.7045 91.1804 95.7045 91.1804C96.0141 91.3056 96.2974 91.4571 96.5675 91.6218Z" fill="white"/>
<path d="M100.961 98.4998C100.718 97.1756 100.243 96.0359 99.7031 95.0938C100.27 96.194 100.671 97.3733 100.961 98.5262C100.961 98.5196 100.961 98.5064 100.961 98.4998Z" fill="white"/>
<path d="M101.369 127.032C102.706 126.288 104.9 124.753 104.907 124.753L101.422 126.953C101.422 126.953 101.402 126.986 101.369 127.026V127.032Z" fill="white"/>
<path d="M93.0156 90.9622C93.2264 90.7184 93.5822 90.613 94.0104 90.5932C93.5822 90.5537 93.2264 90.6525 93.0156 90.9622Z" fill="white"/>
<path d="M92.7995 91.5684C92.4241 93.4394 93.2541 97.8469 93.432 99.7508C93.3397 97.557 92.5295 93.2813 92.7995 91.5684Z" fill="white"/>
<path d="M93.4243 100.528C93.4045 100.68 93.3716 100.818 93.332 100.943C93.332 100.93 93.3452 100.924 93.3518 100.91C93.3913 100.818 93.4111 100.686 93.4243 100.528Z" fill="white"/>
<path d="M89.8406 104.508C89.9592 103.823 90.3742 103.335 90.8815 102.927C90.8815 102.927 90.8683 102.927 90.8683 102.933C89.4849 103.869 89.2477 104.6 90.3742 107.67C90.3742 107.67 90.3742 107.67 90.3742 107.677C90.0119 106.491 89.6957 105.325 89.834 104.501L89.8406 104.508Z" fill="white"/>
<path d="M95.6976 91.1796C95.6976 91.1796 95.243 90.982 94.4657 90.6789C94.3998 90.6657 94.3405 90.646 94.2812 90.6328C94.7819 90.8173 95.2628 90.9952 95.6976 91.1796Z" fill="white"/>
<path d="M91.0469 109.976C91.1128 110.318 91.1523 110.601 91.172 110.839C91.172 110.76 91.172 110.681 91.172 110.601C91.1391 110.404 91.0996 110.193 91.0469 109.976Z" fill="white"/>
<path d="M106.831 121.742L106.087 117.196L104.078 117.697V117.15L106.008 116.696L105.375 112.868C105.375 112.868 106.535 111.333 106.825 109.93C106.746 109.594 106.568 109.284 106.284 109.047C105.533 108.414 104.565 107.532 103.722 106.603C103.36 106.247 103.07 105.891 102.819 105.509C102.371 104.896 102.035 104.29 101.917 103.75C101.851 103.447 101.785 103.058 101.719 102.617C101.469 101.503 101.271 100.186 100.968 98.5256C100.678 97.3727 100.277 96.1934 99.71 95.0932C98.8009 93.4989 97.7271 92.4843 97.299 92.1154C97.1277 91.9836 96.9498 91.8518 96.7654 91.7333C96.7061 91.6937 96.6402 91.6608 96.5743 91.6147C96.2977 91.4565 96.0144 91.305 95.7114 91.1733C95.2766 90.9888 94.7957 90.8109 94.295 90.6264C94.2028 90.6067 94.1106 90.5935 94.0184 90.5869C93.5968 90.6067 93.2344 90.7121 93.0236 90.9558C92.9248 91.1008 92.859 91.3116 92.8063 91.5554C92.5362 93.2617 93.3398 97.544 93.4387 99.7379C93.465 100.034 93.4584 100.291 93.4321 100.522C93.4189 100.68 93.3925 100.812 93.3596 100.904C93.3596 100.917 93.3464 100.924 93.3398 100.937C92.9973 101.978 91.9499 102.208 90.8893 102.913C90.382 103.322 89.967 103.816 89.8484 104.494C89.7035 105.318 90.0197 106.484 90.3886 107.67C90.7378 108.619 90.942 109.376 91.0605 109.969C91.1132 110.187 91.1528 110.397 91.1857 110.595C91.1791 110.206 91.1528 109.91 91.1528 109.91C91.1528 109.91 96.851 110.938 99.1698 112.157C99.5585 112.361 99.8615 112.572 100.013 112.789C100.916 114.034 101.311 123.271 101.41 126.117C101.429 126.644 101.436 126.947 101.436 126.947L104.921 124.746L104.954 124.727C105.211 124.562 107.022 123.35 106.844 121.736L106.831 121.742ZM99.8483 107.011L98.2739 106.675L96.0671 106.201H100.421L99.8418 107.011H99.8483Z" fill="white"/>
<path d="M76.0136 106.978L75.2165 106.662C75.1638 106.991 75.1309 107.321 75.1309 107.67C75.1309 110.569 77.061 113.019 79.7026 113.81L79.7158 113.586L82.6077 113.724L82.5946 113.994C85.6314 113.494 87.9568 110.858 87.9568 107.676C87.9568 104.89 86.1716 102.518 83.6881 101.635L83.6617 102.248L80.7698 102.109L80.8093 101.306C78.8199 101.536 77.1137 102.676 76.1058 104.303L76.949 104.633L76.0268 106.978H76.0136ZM81.5405 103.269C83.9714 103.269 85.9344 105.239 85.9344 107.663C85.9344 110.088 83.9648 112.058 81.5405 112.058C79.1163 112.058 77.1466 110.088 77.1466 107.663C77.1466 105.239 79.1163 103.269 81.5405 103.269Z" fill="#263238"/>
<path d="M99.8481 107.011L100.428 106.194H99.3738L99.4594 106.603L99.3738 106.194H98.2012L98.2802 106.669L99.8481 107.011Z" fill="#263238"/>
<path d="M98.2791 106.669L98.2001 106.194H96.0723L98.2791 106.669Z" fill="#263238"/>
<path d="M103.754 125.518C103.293 125.775 102.931 125.939 102.746 125.952C103.352 125.933 103.642 125.663 103.754 125.518Z" fill="#263238"/>
<path d="M91.1387 111.794C91.1387 111.794 91.1518 111.754 91.165 111.662C91.1584 111.702 91.1518 111.754 91.1387 111.794Z" fill="#263238"/>
<path d="M91.027 112.058C90.8491 112.321 90.4802 112.604 90.0586 112.888C90.4473 112.703 90.8096 112.479 91.027 112.058Z" fill="#263238"/>
<path d="M99.5255 126.63C97.4175 124.476 92.4702 118.672 92.4702 118.672L91.133 111.794C91.1264 111.88 91.0803 111.965 91.021 112.057C90.797 112.479 90.4413 112.703 90.0526 112.888C89.5256 113.237 88.9261 113.579 88.4979 113.856C88.3332 114.073 88.1949 114.357 88.1159 114.726C88.0961 115.734 88.5506 117.611 89.0974 119.463C89.2753 120.036 89.4531 120.602 89.6112 121.136C90.2502 123.126 90.8497 124.753 90.8497 124.753C90.8497 124.753 90.8629 124.753 90.8826 124.759C91.2911 124.878 95.8562 126.229 98.3727 126.94C98.7745 126.828 99.1632 126.723 99.5123 126.624L99.5255 126.63Z" fill="#263238"/>
<path d="M89.623 121.143C90.4399 123.863 90.8615 124.753 90.8615 124.759C90.8615 124.759 90.262 123.132 89.623 121.143Z" fill="#263238"/>
<path d="M91.1848 111.484C91.198 111.333 91.198 111.122 91.1716 110.832C91.1716 111.155 91.1716 111.504 91.1387 111.787C91.1518 111.748 91.1584 111.702 91.165 111.656C91.1782 111.603 91.1782 111.537 91.1848 111.478V111.484Z" fill="#263238"/>
<path d="M88.5043 113.856C88.3528 113.955 88.2211 114.048 88.1223 114.133C87.6019 114.588 88.366 117.091 89.1104 119.47C88.5636 117.612 88.1025 115.741 88.1289 114.733C88.2079 114.364 88.3397 114.08 88.5109 113.863L88.5043 113.856Z" fill="#263238"/>
<path d="M99.9995 112.796C99.8479 112.585 99.5449 112.374 99.1562 112.163L101.396 126.123C101.297 123.277 100.909 114.041 99.9995 112.796Z" fill="#263238"/>
<path d="M91.1851 111.485C91.218 111.222 91.218 110.932 91.1719 110.596C91.1719 110.675 91.1719 110.754 91.1719 110.833C91.1982 111.123 91.1916 111.334 91.1851 111.485Z" fill="#263238"/>
<path d="M99.4251 127.527C100.519 127.224 100.934 127.112 100.934 127.112C101.401 127.665 101.527 126.941 101.527 126.941L99.1616 112.157C96.8428 110.938 91.1445 109.91 91.1445 109.91C91.1445 109.91 91.1643 110.207 91.1775 110.595C91.2302 110.931 91.2302 111.221 91.1906 111.485C91.1906 111.557 91.1775 111.616 91.1709 111.663C91.1577 111.748 91.1445 111.794 91.1445 111.794L92.4818 118.672C92.4818 118.672 97.3237 125.379 99.4317 127.533L99.4251 127.527Z" fill="#263238"/>
<path d="M91.1858 111.484C91.1792 111.544 91.1858 111.61 91.166 111.662C91.1726 111.616 91.1792 111.557 91.1858 111.484Z" fill="#263238"/>
<path d="M104.07 117.151V117.698L106.08 117.197L106 116.696L104.07 117.151Z" fill="#263238"/>
<path d="M81.5404 112.064C83.9712 112.064 85.9343 110.094 85.9343 107.67C85.9343 105.245 83.9646 103.275 81.5404 103.275C79.1162 103.275 77.1465 105.245 77.1465 107.67C77.1465 110.094 79.1162 112.064 81.5404 112.064ZM81.5404 104.764C83.1477 104.764 84.4455 106.062 84.4455 107.67C84.4455 109.277 83.1477 110.575 81.5404 110.575C79.933 110.575 78.6353 109.277 78.6353 107.67C78.6353 106.062 79.933 104.764 81.5404 104.764Z" fill="white" stroke="#263238" stroke-miterlimit="10"/>
<path d="M81.5399 110.575C83.1472 110.575 84.445 109.278 84.445 107.67C84.445 106.063 83.1472 104.765 81.5399 104.765C79.9325 104.765 78.6348 106.063 78.6348 107.67C78.6348 109.278 79.9325 110.575 81.5399 110.575Z" fill="white" stroke="#263238" stroke-miterlimit="10"/>
<path d="M83.6815 101.629L83.7737 99.7184L80.8818 99.5801L80.8027 101.3C81.0465 101.273 81.2968 101.253 81.5471 101.253C82.2981 101.253 83.0161 101.392 83.6881 101.629H83.6815Z" fill="#263238"/>
<path d="M83.6544 102.241L83.6807 101.628C83.0088 101.391 82.2908 101.253 81.5398 101.253C81.2895 101.253 81.0391 101.273 80.7954 101.299L80.7559 102.103L83.6478 102.241H83.6544Z" fill="#263238"/>
<path d="M79.7031 113.811L79.5977 116.103L82.4896 116.242L82.595 113.988C82.2524 114.048 81.9033 114.081 81.5476 114.081C80.9086 114.081 80.2893 113.982 79.7096 113.811H79.7031Z" fill="#263238"/>
<path d="M79.7085 113.587L79.6953 113.811C80.275 113.982 80.8942 114.081 81.5332 114.081C81.889 114.081 82.2381 114.041 82.5807 113.989L82.5938 113.718L79.7019 113.58L79.7085 113.587Z" fill="#263238"/>
<path d="M76.0937 104.297L74.2426 103.572L73.3203 105.918L75.2175 106.662C75.3559 105.806 75.6589 105.008 76.0937 104.297Z" fill="#263238"/>
<path d="M76.0139 106.978L76.9361 104.633L76.0929 104.304C75.6516 105.015 75.3485 105.812 75.2168 106.669L76.0139 106.985V106.978Z" fill="#263238"/>
<path d="M71.916 118.396L73.4312 116.696C73.4312 116.696 71.31 97.5973 72.5287 95.0938C73.7474 92.5903 81.5668 89.1579 82.4824 88.1367" stroke="#263238" stroke-linecap="round" stroke-linejoin="round"/>
<path d="M46.8902 156.033L46.2051 165.85C46.2051 165.85 53.8796 169.513 60.0982 169.177C66.3103 168.834 72.272 166.363 72.272 166.363C72.272 166.363 72.0942 162.872 70.9479 161.62C69.8017 160.368 68.359 158.728 65.1509 159.031C61.9427 159.334 55.6253 159.815 52.1009 158.379C48.5766 156.942 46.8968 156.046 46.8968 156.046L46.8902 156.033Z" fill="white"/>
<path d="M90.8627 124.754C90.8627 124.754 87.4438 115.477 88.1223 114.133C88.8008 112.789 90.5268 113.804 91.1658 111.669C91.8048 109.535 89.3805 106.59 89.8351 104.508C90.2896 102.426 92.9905 102.275 93.3265 101.379C93.669 100.483 92.7204 95.4955 92.7007 92.7681C92.6809 90.0406 94.005 90.594 94.005 90.594" stroke="#263238" stroke-linecap="round" stroke-linejoin="round"/>
<path d="M82.9236 118.606C82.9236 118.606 88.0092 122.961 89.1884 123.975C90.3675 124.99 98.8852 127.645 100.282 127.335C101.678 127.026 106.132 124.318 106.724 122.948C107.317 121.577 105.367 112.874 105.367 112.874C105.367 112.874 106.388 112.038 106.856 110.509C107.324 108.981 106.276 109.047 104.728 107.65C103.18 106.247 101.777 104.106 101.369 100.838C100.96 97.5702 99.8141 93.782 95.6969 91.1863C91.5796 88.5905 81.0593 87.7802 75.8552 87.8197C70.651 87.8593 67.6602 89.9477 65.2887 93.7491C62.9172 97.5504 60.2427 108.203 61.9291 111.82C63.6221 115.437 68.9382 115.279 70.5653 116.709C72.1991 118.138 72.2452 120.405 72.2452 120.405C72.2452 120.405 73.2004 128.594 72.5218 131.578C72.5218 131.578 68.8394 137.343 61.9225 139.774C55.0055 142.198 50.3547 143.549 48.6551 146.21C46.9556 148.872 46.1914 165.856 46.1914 165.856C46.1914 165.856 55.302 170.277 62.2716 169.012C69.2478 167.747 72.6668 165.362 79.8736 165.369C87.0803 165.369 96.3556 166.871 102.489 163.735C108.622 160.599 114.162 157.041 117.936 157.055C117.936 157.055 116.797 140.064 109.037 136.592C101.283 133.113 98.8786 136.295 91.4874 132.165" stroke="#263238" stroke-linecap="round" stroke-linejoin="round"/>
<path d="M99.7028 106.431L99.5117 104.679" stroke="#263238" stroke-linecap="round" stroke-linejoin="round"/>
<path d="M97.8903 127.032C97.8903 127.032 92.3699 128.225 91.7638 129.45C91.1578 130.675 90.8613 133.139 90.8613 133.139" stroke="#263238" stroke-linecap="round" stroke-linejoin="round"/>
<path d="M46.8906 156.033C46.8906 156.033 55.3161 160.803 63.7679 159.255C70.698 157.983 72.2988 163.702 72.7534 166.153" stroke="#263238" stroke-linecap="round" stroke-linejoin="round"/>
<path d="M48.3919 159.486C48.5447 159.486 48.6686 159.362 48.6686 159.209C48.6686 159.056 48.5447 158.933 48.3919 158.933C48.2391 158.933 48.1152 159.056 48.1152 159.209C48.1152 159.362 48.2391 159.486 48.3919 159.486Z" fill="#263238"/>
<path d="M66.817 161.093C66.817 161.245 66.6919 161.37 66.5404 161.37C66.3888 161.37 66.2637 161.245 66.2637 161.093C66.2637 160.942 66.3888 160.816 66.5404 160.816C66.6919 160.816 66.817 160.942 66.817 161.093Z" fill="#263238"/>
<path d="M71.3834 108.777C71.3834 108.928 71.2583 109.053 71.1068 109.053C70.9552 109.053 70.8301 108.928 70.8301 108.777C70.8301 108.625 70.9552 108.5 71.1068 108.5C71.2583 108.5 71.3834 108.625 71.3834 108.777Z" fill="#263238"/>
<path d="M70.8893 102.544C70.8893 102.696 70.7641 102.821 70.6126 102.821C70.4611 102.821 70.3359 102.696 70.3359 102.544C70.3359 102.393 70.4611 102.268 70.6126 102.268C70.7641 102.268 70.8893 102.393 70.8893 102.544Z" fill="#263238"/>
<path d="M71.3821 112.44C71.5349 112.44 71.6588 112.316 71.6588 112.163C71.6588 112.011 71.5349 111.887 71.3821 111.887C71.2293 111.887 71.1055 112.011 71.1055 112.163C71.1055 112.316 71.2293 112.44 71.3821 112.44Z" fill="#263238"/>
<path d="M71.1061 105.641C71.1061 105.792 70.9809 105.918 70.8294 105.918C70.6779 105.918 70.5527 105.792 70.5527 105.641C70.5527 105.489 70.6779 105.364 70.8294 105.364C70.9809 105.364 71.1061 105.489 71.1061 105.641Z" fill="#263238"/>
<path d="M70.5521 99.8434C70.7049 99.8434 70.8287 99.7196 70.8287 99.5667C70.8287 99.4139 70.7049 99.29 70.5521 99.29C70.3993 99.29 70.2754 99.4139 70.2754 99.5667C70.2754 99.7196 70.3993 99.8434 70.5521 99.8434Z" fill="#263238"/>
<path d="M70.112 164.572C70.112 164.723 69.9868 164.848 69.8353 164.848C69.6838 164.848 69.5586 164.723 69.5586 164.572C69.5586 164.42 69.6838 164.295 69.8353 164.295C69.9868 164.295 70.112 164.42 70.112 164.572Z" fill="#263238"/>
<path d="M68.9049 162.616C68.9049 162.767 68.7798 162.892 68.6282 162.892C68.4767 162.892 68.3516 162.767 68.3516 162.616C68.3516 162.464 68.4767 162.339 68.6282 162.339C68.7798 162.339 68.9049 162.464 68.9049 162.616Z" fill="#263238"/>
<path d="M223.924 94.1515C240.671 94.1515 254.247 80.5744 254.247 63.8262C254.247 47.078 240.671 33.501 223.924 33.501C207.177 33.501 193.602 47.078 193.602 63.8262C193.602 80.5744 207.177 94.1515 223.924 94.1515Z" fill="#263238"/>
<path d="M265.346 85.0071L254.72 114.127L207.79 103.092L201.736 100.278L201.782 100.173L219.793 59.4648L228.126 64.1358L265.346 85.0071Z" fill="white"/>
<path d="M228.127 64.1358L210.307 101.589C206.124 101.774 203.463 101.141 201.783 100.173L219.794 59.4648L228.127 64.1358Z" fill="#B9FF66"/>
<path d="M265.352 85.0071L254.727 114.133L207.79 103.092L201.736 100.278L219.793 59.4648L265.352 85.0071Z" stroke="#263238" stroke-linecap="round" stroke-linejoin="round"/>
<path d="M213.502 78.8867C213.502 78.8867 222.718 95.8775 237.112 98.7038C251.506 101.53 261.44 87.7741 261.44 87.7741L222.79 69.5117L213.502 78.8932V78.8867Z" fill="#B9FF66"/>
<path d="M84.2617 85.6397C84.3539 85.5277 94.0113 74.3081 94.0113 74.3081L88.8401 72.1406L87.8124 74.3081L84.2617 85.6397Z" fill="white"/>
<path d="M117.68 93.4933L111.264 103.955L121.244 96.8137L122.798 95.1271L118.023 91.9121L117.68 93.4933Z" fill="white"/>
<path d="M204.232 95.3114L205.201 92.4521L203.745 98.6252L210.306 101.597C210.306 101.597 222.104 98.8756 233.567 103.23C245.022 107.585 225.075 117.296 225.075 117.296L210.313 122.217L193.949 121.684L196.611 109.311C196.611 109.311 198.686 98.0718 204.232 95.3114Z" fill="#263238"/>
<path d="M252.81 174.573C249.932 181.471 246.533 187.987 239.339 191.169C232.758 194.081 219.003 196.235 208.022 194.107C206.006 193.725 204.089 193.192 202.323 192.493C194.84 189.535 181.639 180.173 173.081 172.294C168.602 168.17 165.4 164.454 164.946 162.267C164.037 157.886 170.789 142.443 178.114 129.096C181.428 123.054 184.853 117.448 187.745 113.488C197.021 100.76 203.773 95.6738 203.773 95.6738C203.773 95.6738 194.372 108.982 200.215 112.955C206.059 116.934 218.232 103.415 230.689 103.092C236.263 102.947 242.949 105.332 248.634 108.007C255.669 111.314 261.177 115.076 261.177 115.076C263.97 134.88 260.485 156.186 252.81 174.573Z" fill="white"/>
<path d="M225.347 119.779C224.583 121.097 223.865 122.441 223.186 123.772C212.725 144.36 206.322 166.997 204.451 190.009" stroke="#263238" stroke-linecap="round" stroke-linejoin="round"/>
<path d="M238.422 107.163C234.693 108.507 231.69 111.05 229.18 114.133" stroke="#263238" stroke-linecap="round" stroke-linejoin="round"/>
<path d="M252.809 174.573C249.93 181.471 246.531 187.986 239.337 191.169C232.756 194.08 219.002 196.235 208.02 194.107C206.327 176.503 221.63 127.949 230.332 117.408C239.265 106.59 248.613 108 248.613 108H248.632C255.668 111.314 261.175 115.075 261.175 115.075C263.968 134.879 260.483 156.185 252.809 174.573Z" fill="#B9FF66"/>
<path d="M147.752 30.82C141.362 26.3598 133.977 25.9118 131.256 29.8186L116.639 52.9562L133.845 65.4869C133.845 65.4869 153.957 46.5789 154.392 45.9596C157.113 42.0528 154.142 35.2802 147.758 30.82H147.752Z" fill="#263238"/>
<path d="M133.871 64.9795C131.842 67.8914 126.335 67.5554 121.579 64.235C116.816 60.9146 114.603 55.8615 116.632 52.9561C118.661 50.0441 124.168 50.3801 128.924 53.7005C133.687 57.021 135.9 62.0741 133.871 64.9795Z" fill="white" stroke="#263238" stroke-linecap="round" stroke-linejoin="round"/>
<path d="M120.453 74.3082L122.258 71.6862L111.586 64.4326L109.662 66.8307" fill="white"/>
<path d="M120.453 74.3082L122.258 71.6862L111.586 64.4326L109.662 66.8307" stroke="#263238" stroke-linecap="round" stroke-linejoin="round"/>
<path d="M117.89 93.1641L110.861 104.245L121.731 96.4647" stroke="#263238" stroke-linecap="round" stroke-linejoin="round"/>
<path d="M92.9037 75.5468L83.9512 86.0022L88.3253 73.2607" stroke="#263238" stroke-linecap="round" stroke-linejoin="round"/>
<path d="M126.481 55.9142C123.055 53.5227 118.905 53.4371 117.449 55.5321L115.539 57.1396L117.337 58.6812C117.864 60.348 119.222 62.1268 121.191 63.5038C122.621 64.4986 124.136 65.1179 125.532 65.355L127.469 67.2129C127.469 67.2129 129.874 64.2877 130.045 64.044C131.507 61.949 129.913 58.3123 126.488 55.9208L126.481 55.9142Z" fill="#263238"/>
<path d="M128.173 66.0534C126.71 68.1485 122.751 67.9047 119.319 65.5132C115.893 63.1217 114.299 59.485 115.762 57.39C117.224 55.295 121.183 55.5387 124.615 57.9302C128.041 60.3217 129.635 63.9584 128.173 66.0534Z" fill="white" stroke="#263238" stroke-linecap="round" stroke-linejoin="round"/>
<path d="M123.977 62.259L118.918 69.5059L115.012 66.7784L119.906 59.7555C120.591 59.6039 121.415 59.7159 122.179 60.1046C123.147 60.5988 123.8 61.4157 123.977 62.2524V62.259Z" fill="#263238"/>
<path d="M119.913 78.8341L122.344 75.6125L107.7 65.4668L105.48 68.8399L89.7161 70.7241L88.2734 73.0629L92.9111 75.5532C97.7793 75.4215 102.562 77.1608 106.719 79.572C110.711 81.891 114.255 84.7832 116.35 88.9799C116.659 89.5992 116.936 90.2382 117.18 90.8905C117.344 91.3319 117.502 92.6429 117.832 92.9328L121.738 96.464L123.451 94.3163L119.913 78.8341Z" fill="white" stroke="#263238" stroke-linecap="round" stroke-linejoin="round"/>
<path d="M108.648 69.3809L104.498 75.2048L113.905 81.9247L118.022 76.0744L108.648 69.3809Z" fill="#B9FF66" stroke="#263238" stroke-linecap="round" stroke-linejoin="round"/>
<path d="M230.175 56.3624C228.633 60.0122 226.486 63.998 223.818 68.0036C215.689 80.2049 205.84 87.9262 201.815 85.2448C201.295 84.9022 175.498 67.7203 175.498 67.7203L200.979 29.4564L202.652 26.9463L230.623 40.7353C230.84 40.8209 231.051 40.9197 231.249 41.0449C233.956 42.8501 233.337 48.8914 230.175 56.3624Z" fill="white"/>
<path d="M230.175 56.3624L227.395 54.9327L213.027 46.322L211.967 38.9762L203.251 33.9824L200.979 29.4564L202.652 26.9463L230.622 40.7353C230.84 40.8209 231.051 40.9197 231.248 41.0449C233.956 42.8501 233.337 48.8914 230.175 56.3624Z" fill="#B9FF66"/>
<path d="M190.564 77.7543C197.863 72.5892 215.439 57.7593 216.928 33.9893" stroke="#263238" stroke-linecap="round" stroke-linejoin="round"/>
<path d="M231.249 41.0449C231.057 40.9132 230.847 40.8209 230.623 40.7353L202.652 26.9463L175.498 67.7203C175.498 67.7203 201.295 84.9022 201.815 85.2448C205.84 87.9262 215.689 80.2049 223.818 67.997C231.947 55.7892 235.273 43.7263 231.249 41.0449Z" stroke="#263238" stroke-linecap="round" stroke-linejoin="round"/>
<path d="M195.801 51.8098C188.304 63.0689 179.214 70.1907 175.505 67.7202C171.796 65.2496 174.859 54.1156 182.356 42.8565C189.853 31.5974 199.003 24.2582 202.711 26.7353C206.42 29.2125 203.298 40.5572 195.801 51.8164V51.8098Z" fill="#263238"/>
<path d="M198.752 39.885C197.651 42.7772 195.958 46.0384 193.778 49.3127C188.053 57.9102 181.11 63.352 178.277 61.4612C177.909 61.2241 159.918 48.8449 159.918 48.8449L178.422 20.5488L178.581 20.6213L198.567 30.1082C198.725 30.1675 198.87 30.2334 199.009 30.3256C200.761 31.4983 200.537 35.2009 198.752 39.885Z" fill="white"/>
<path d="M198.751 39.8848L190.556 35.4971L187.559 30.3188L179.562 26.254L178.58 20.6211L198.567 30.108C198.725 30.1673 198.87 30.2332 199.008 30.3254C200.76 31.4981 200.536 35.2007 198.751 39.8848Z" fill="#B9FF66"/>
<path d="M169.807 55.413C173.917 52.8041 187.83 43.2315 187.982 25.3184" stroke="#263238" stroke-linecap="round" stroke-linejoin="round"/>
<path d="M183.806 60.3209L177.824 56.2561C177.824 56.2561 180.591 53.746 183.101 51.3281L189.102 55.2415L183.806 60.3209Z" fill="#B9FF66"/>
<path d="M198.752 39.885C197.651 42.7772 195.958 46.0384 193.778 49.3127C188.053 57.9102 181.11 63.352 178.277 61.4612C177.909 61.2241 159.918 48.8449 159.918 48.8449L178.422 20.5488L178.581 20.6213L198.567 30.1082C198.725 30.1675 198.87 30.2334 199.009 30.3256C200.761 31.4983 200.537 35.2009 198.752 39.885Z" stroke="#263238" stroke-linecap="round" stroke-linejoin="round"/>
<path d="M174.041 37.9153C168.758 45.8474 162.355 50.8676 159.74 49.1217C157.124 47.3825 159.285 39.536 164.568 31.6039C169.851 23.6717 176.255 18.6516 178.87 20.3974C181.485 22.1367 179.324 29.9832 174.041 37.9153Z" fill="#263238"/>
<path d="M171.932 36.5043C176.163 30.1505 177.894 23.8684 175.798 22.4728C173.703 21.0773 168.575 25.0967 164.344 31.4505C160.113 37.8043 158.382 44.0864 160.478 45.482C162.573 46.8775 167.702 42.8581 171.932 36.5043Z" fill="white" stroke="#263238" stroke-linecap="round" stroke-linejoin="round"/>
<path d="M240.767 91.1212C255.091 91.1212 266.702 79.5085 266.702 65.1836C266.702 50.8587 255.091 39.2461 240.767 39.2461C226.444 39.2461 214.832 50.8587 214.832 65.1836C214.832 79.5085 226.444 91.1212 240.767 91.1212Z" fill="#263238"/>
<path d="M245.734 93.9805C260.058 93.9805 271.669 82.3679 271.669 68.043C271.669 53.7181 260.058 42.1055 245.734 42.1055C231.41 42.1055 219.799 53.7181 219.799 68.043C219.799 82.3679 231.41 93.9805 245.734 93.9805Z" fill="white" stroke="#263238" stroke-linecap="round" stroke-linejoin="round"/>
<path d="M261.77 69.36C263.604 61.5123 258.731 53.663 250.884 51.8281C243.037 49.9933 235.188 54.8676 233.353 62.7153C231.519 70.563 236.392 78.4123 244.239 80.2472C252.086 82.082 259.935 77.2077 261.77 69.36Z" fill="#B9FF66"/>
<path d="M245.734 82.0889C253.491 82.0889 259.779 75.8004 259.779 68.043C259.779 60.2856 253.491 53.9971 245.734 53.9971C237.977 53.9971 231.689 60.2856 231.689 68.043C231.689 75.8004 237.977 82.0889 245.734 82.0889Z" fill="white" stroke="#263238" stroke-linecap="round" stroke-linejoin="round"/>
<path d="M252.124 68.0428C252.124 71.5741 249.259 74.4399 245.728 74.4399C245.082 74.4399 244.463 74.3411 243.87 74.1632C241.255 73.3661 239.338 70.9285 239.338 68.0428C239.338 65.1572 241.248 62.7328 243.87 61.929C244.463 61.7512 245.082 61.6523 245.728 61.6523C249.259 61.6523 252.124 64.5116 252.124 68.0428Z" fill="#263238"/>
<path d="M174.867 145.321L178.029 152.707C178.029 152.707 174.274 163.729 173.081 172.293C168.602 168.169 165.4 164.453 164.946 162.266C164.037 157.885 170.789 142.442 178.114 129.095L181.191 131.15C181.191 131.15 176.724 139.899 174.867 145.321Z" fill="#B9FF66"/>
<path d="M248.402 68.0425C248.402 70.9281 246.492 73.3657 243.87 74.1629C241.255 73.3657 239.338 70.9281 239.338 68.0425C239.338 65.1569 241.248 62.7325 243.87 61.9287C246.485 62.7259 248.402 65.1503 248.402 68.0425Z" fill="white" stroke="#263238" stroke-linecap="round" stroke-linejoin="round"/>
<path d="M261.175 115.076C261.175 115.076 243.145 102.769 230.688 103.085C218.231 103.408 206.057 116.927 200.214 112.955C194.371 108.975 203.771 95.6738 203.771 95.6738C203.771 95.6738 197.019 100.76 187.744 113.488C178.468 126.216 163.62 155.909 164.944 162.273C166.268 168.638 190.926 187.994 202.322 192.5C213.718 197.006 231.551 194.621 239.337 191.176C246.531 187.994 249.924 181.478 252.809 174.58C260.483 156.199 263.968 134.886 261.175 115.083V115.076Z" stroke="#263238" stroke-linecap="round" stroke-linejoin="round"/>
<path d="M169.307 33.9825C167.541 36.7758 164.669 37.6652 164.669 37.6652L148.76 28.3101C146.711 27.1308 145.611 24.6734 146.349 22.4137C147.37 19.2711 151.698 17.2617 154.392 18.8231L170.196 29.1665C170.249 29.1995 170.301 29.2258 170.354 29.2653C170.716 30.3722 170.795 31.6107 169.307 33.989V33.9825Z" fill="#263238"/>
<path d="M157.219 24.7121C157.337 27.9798 158.628 32.5586 156.053 34.1859C154.768 34.9962 150.598 34.1859 148.681 33.8828C143.853 33.112 139.683 30.233 139.511 25.3446C139.34 20.4562 143.161 16.3452 148.049 16.1739C151.692 16.0421 159.426 15.7259 160.895 18.8223C161.395 19.883 157.173 23.467 157.219 24.7121Z" fill="#263238"/>
<path d="M163.702 26.2432C164.209 21.3756 160.674 17.0191 155.807 16.5127C150.94 16.0062 146.583 19.5416 146.077 24.4092C145.571 29.2767 149.106 33.6332 153.973 34.1397C158.84 34.6461 163.196 31.1107 163.702 26.2432Z" fill="white" stroke="#263238" stroke-linecap="round" stroke-linejoin="round"/>
<path d="M155.822 31.492C155.836 31.8873 155.526 32.2167 155.131 32.2298C154.736 32.243 154.406 31.9334 154.393 31.5381C154.38 31.1428 154.689 30.8134 155.085 30.8002C155.48 30.787 155.809 31.0967 155.822 31.492Z" fill="#263238"/>
<path d="M155.395 19.5144C155.408 19.9097 155.098 20.2391 154.703 20.2523C154.308 20.2655 153.978 19.9558 153.965 19.5605C153.952 19.1653 154.262 18.8358 154.657 18.8227C155.052 18.8095 155.382 19.1191 155.395 19.5144Z" fill="#263238"/>
<path d="M161.928 24.6795C161.941 25.0748 161.632 25.4042 161.236 25.4173C160.841 25.4305 160.512 25.1209 160.498 24.7256C160.485 24.3303 160.795 24.0009 161.19 23.9877C161.585 23.9745 161.915 24.2842 161.928 24.6795Z" fill="#263238"/>
<path d="M149.795 25.114C149.808 25.5093 149.499 25.8387 149.103 25.8519C148.708 25.8651 148.379 25.5554 148.366 25.1602C148.352 24.7649 148.662 24.4355 149.057 24.4223C149.453 24.4091 149.782 24.7187 149.795 25.114Z" fill="#263238"/>
<path d="M157.587 25.2329C157.64 26.7219 156.474 27.9802 154.985 28.0329C153.496 28.0856 152.238 26.9195 152.185 25.4306C152.133 23.9417 153.299 22.6833 154.787 22.6306C156.276 22.5779 157.534 23.744 157.587 25.2329Z" fill="#263238"/>
</g>
<defs>
<clipPath id="clip0_931_654">
<rect width="272" height="212" fill="white"/>
</clipPath>
</defs>
</svg>
