<svg width="1351" height="378" viewBox="0 0 1351 378" fill="none" xmlns="http://www.w3.org/2000/svg">
<path d="M421.5 44C421.5 46.8634 420.111 49.7103 417.356 52.5173C414.6 55.326 410.51 58.0593 405.197 60.6783C394.575 65.9154 379.172 70.6456 360.097 74.6232C321.957 82.5768 269.242 87.5 211 87.5C152.758 87.5 100.043 82.5768 61.9025 74.6232C42.828 70.6456 27.4249 65.9154 16.8025 60.6783C11.4904 58.0593 7.39977 55.326 4.64365 52.5173C1.88917 49.7103 0.5 46.8634 0.5 44C0.5 41.1366 1.88917 38.2897 4.64365 35.4827C7.39977 32.674 11.4904 29.9407 16.8025 27.3217C27.4249 22.0846 42.828 17.3544 61.9025 13.3768C100.043 5.42322 152.758 0.5 211 0.5C269.242 0.5 321.957 5.42322 360.097 13.3768C379.172 17.3544 394.575 22.0846 405.197 27.3217C410.51 29.9407 414.6 32.674 417.356 35.4827C420.111 38.2897 421.5 41.1366 421.5 44Z" stroke="#191A23"/>
<path d="M421.5 74.5C421.5 77.3999 420.109 80.2812 417.354 83.1201C414.598 85.9609 410.507 88.7253 405.195 91.3739C394.573 96.6704 379.171 101.454 360.096 105.477C321.956 113.521 269.242 118.5 211 118.5C152.758 118.5 100.044 113.521 61.9036 105.477C42.8293 101.454 27.4266 96.6704 16.8045 91.3739C11.4926 88.7253 7.40198 85.9609 4.64562 83.1201C1.89109 80.2812 0.5 77.3999 0.5 74.5C0.5 71.6001 1.89109 68.7188 4.64562 65.8799C7.40198 63.0391 11.4926 60.2747 16.8045 57.6261C27.4266 52.3296 42.8293 47.5458 61.9036 43.523C100.044 35.4791 152.758 30.5 211 30.5C269.242 30.5 321.956 35.4791 360.096 43.523C379.171 47.5458 394.573 52.3296 405.195 57.6261C410.507 60.2747 414.598 63.0391 417.354 65.8799C420.109 68.7188 421.5 71.6001 421.5 74.5Z" stroke="#191A23"/>
<path d="M1350.5 303C1350.5 305.863 1349.11 308.71 1346.36 311.517C1343.6 314.326 1339.51 317.059 1334.2 319.678C1323.58 324.915 1308.17 329.646 1289.1 333.623C1250.96 341.577 1198.24 346.5 1140 346.5C1081.76 346.5 1029.04 341.577 990.903 333.623C971.828 329.646 956.425 324.915 945.803 319.678C940.49 317.059 936.4 314.326 933.644 311.517C930.889 308.71 929.5 305.863 929.5 303C929.5 300.137 930.889 297.29 933.644 294.483C936.4 291.674 940.49 288.941 945.803 286.322C956.425 281.085 971.828 276.354 990.903 272.377C1029.04 264.423 1081.76 259.5 1140 259.5C1198.24 259.5 1250.96 264.423 1289.1 272.377C1308.17 276.354 1323.58 281.085 1334.2 286.322C1339.51 288.941 1343.6 291.674 1346.36 294.483C1349.11 297.29 1350.5 300.137 1350.5 303Z" stroke="#191A23"/>
<path d="M1350.5 333.5C1350.5 336.4 1349.11 339.281 1346.35 342.12C1343.6 344.961 1339.51 347.725 1334.2 350.374C1323.57 355.67 1308.17 360.454 1289.1 364.477C1250.96 372.521 1198.24 377.5 1140 377.5C1081.76 377.5 1029.04 372.521 990.904 364.477C971.829 360.454 956.427 355.67 945.805 350.374C940.493 347.725 936.402 344.961 933.646 342.12C930.891 339.281 929.5 336.4 929.5 333.5C929.5 330.6 930.891 327.719 933.646 324.88C936.402 322.039 940.493 319.275 945.805 316.626C956.427 311.33 971.829 306.546 990.904 302.523C1029.04 294.479 1081.76 289.5 1140 289.5C1198.24 289.5 1250.96 294.479 1289.1 302.523C1308.17 306.546 1323.57 311.33 1334.2 316.626C1339.51 319.275 1343.6 322.039 1346.35 324.88C1349.11 327.719 1350.5 330.6 1350.5 333.5Z" stroke="#191A23"/>
</svg>
