<svg width="498" height="565" viewBox="0 0 498 565" fill="none" xmlns="http://www.w3.org/2000/svg">
<path d="M497.5 261C497.5 263.863 496.111 266.71 493.356 269.517C490.6 272.326 486.51 275.059 481.197 277.678C470.575 282.915 455.172 287.646 436.097 291.623C397.957 299.577 345.242 304.5 287 304.5C228.758 304.5 176.043 299.577 137.903 291.623C118.828 287.646 103.425 282.915 92.8025 277.678C87.4904 275.059 83.3998 272.326 80.6436 269.517C77.8892 266.71 76.5 263.863 76.5 261C76.5 258.137 77.8892 255.29 80.6436 252.483C83.3998 249.674 87.4904 246.941 92.8025 244.322C103.425 239.085 118.828 234.354 137.903 230.377C176.043 222.423 228.758 217.5 287 217.5C345.242 217.5 397.957 222.423 436.097 230.377C455.172 234.354 470.575 239.085 481.197 244.322C486.51 246.941 490.6 249.674 493.356 252.483C496.111 255.29 497.5 258.137 497.5 261Z" stroke="#B9FF66"/>
<path d="M497.5 291.5C497.5 294.4 496.109 297.281 493.354 300.12C490.598 302.961 486.507 305.725 481.195 308.374C470.573 313.67 455.171 318.454 436.096 322.477C397.956 330.521 345.242 335.5 287 335.5C228.758 335.5 176.044 330.521 137.904 322.477C118.829 318.454 103.427 313.67 92.8045 308.374C87.4926 305.725 83.402 302.961 80.6456 300.12C77.8911 297.281 76.5 294.4 76.5 291.5C76.5 288.6 77.8911 285.719 80.6456 282.88C83.402 280.039 87.4926 277.275 92.8045 274.626C103.427 269.33 118.829 264.546 137.904 260.523C176.044 252.479 228.758 247.5 287 247.5C345.242 247.5 397.956 252.479 436.096 260.523C455.171 264.546 470.573 269.33 481.195 274.626C486.507 277.275 490.598 280.039 493.354 282.88C496.109 285.719 497.5 288.6 497.5 291.5Z" stroke="#B9FF66"/>
<path d="M497.5 323C497.5 325.863 496.111 328.71 493.356 331.517C490.6 334.326 486.51 337.059 481.197 339.678C470.575 344.915 455.172 349.646 436.097 353.623C397.957 361.577 345.242 366.5 287 366.5C228.758 366.5 176.043 361.577 137.903 353.623C118.828 349.646 103.425 344.915 92.8025 339.678C87.4904 337.059 83.3998 334.326 80.6436 331.517C77.8892 328.71 76.5 325.863 76.5 323C76.5 320.137 77.8892 317.29 80.6436 314.483C83.3998 311.674 87.4904 308.941 92.8025 306.322C103.425 301.085 118.828 296.354 137.903 292.377C176.043 284.423 228.758 279.5 287 279.5C345.242 279.5 397.957 284.423 436.097 292.377C455.172 296.354 470.575 301.085 481.197 306.322C486.51 308.941 490.6 311.674 493.356 314.483C496.111 317.29 497.5 320.137 497.5 323Z" stroke="#B9FF66"/>
<path d="M124 0L139.344 83.0931L200.412 24.9233L164.172 101.201L247.637 90.1733L173.656 130.5L247.637 170.827L164.172 159.799L200.412 236.077L139.344 177.907L124 261L108.656 177.907L47.5879 236.077L83.8278 159.799L0.362656 170.827L74.3444 130.5L0.362656 90.1733L83.8278 101.201L47.5879 24.9233L108.656 83.0931L124 0Z" fill="#D9D9D9"/>
<path d="M371.817 322.971L382.74 394.579L382.81 395.037L383.272 395.002L455.229 389.552L406.277 442.899L405.966 443.238L406.278 443.577L455.27 496.681L383.306 491.589L382.845 491.557L382.776 492.013L371.906 563.678L331.123 503.988L330.861 503.604L330.459 503.837L267.919 540.1L289.022 470.755L289.156 470.314L288.726 470.144L221.604 443.699L288.708 416.919L289.136 416.748L289.001 416.308L267.846 347.065L330.415 383.018L330.817 383.249L331.078 382.865L371.817 322.971Z" stroke="#B9FF66"/>
<path d="M391.256 151.448L436.689 111L446.263 171.185L486.561 216.69L426.526 226.193L380.872 266.561L371.518 206.455L331 160.872L391.256 151.448Z" fill="white"/>
<path d="M137.044 344.966L156.64 309.001L176.393 344.966L212.28 364.641L176.393 384.315L156.64 420.281L137.044 384.315L101 364.641L137.044 344.966Z" fill="white"/>
<circle cx="267" cy="246" r="77.5" fill="#B9FF66" stroke="black"/>
<ellipse cx="241" cy="229" rx="13" ry="25" fill="black"/>
<ellipse cx="292.5" cy="229" rx="12.5" ry="25" fill="black"/>
</svg>
