<svg width="455" height="354" viewBox="0 0 455 354" fill="none" xmlns="http://www.w3.org/2000/svg">
<g clip-path="url(#clip0_941_2406)">
<path d="M155.642 27.2161C155.62 27.0511 155.488 26.9411 155.323 26.9191L148.689 26.4131C147.841 24.2349 146.739 22.1667 145.416 20.2305L148.821 14.411C148.898 14.268 148.876 14.092 148.766 13.982L143.411 8.63551C143.301 8.5145 143.124 8.4925 142.981 8.58051L137.163 12.0348C133.769 9.76861 129.945 8.20648 125.923 7.45841L124.248 0.813828C124.204 0.659814 124.071 0.549805 123.906 0.549805H116.324C116.159 0.549805 116.027 0.659814 115.983 0.813828L114.286 7.50241C112.06 7.94245 109.889 8.63551 107.817 9.54859L102.572 5.0272C102.44 4.92819 102.263 4.92819 102.131 5.0272L95.9272 9.37258C95.7949 9.46059 95.7398 9.6256 95.7949 9.77961L98.2744 16.2702C96.7096 17.8983 95.3211 19.6915 94.142 21.6277L87.2327 20.9126C87.0674 20.9126 86.9131 20.9896 86.858 21.1436L84.2684 28.2502C84.2133 28.4042 84.2684 28.5693 84.4007 28.6573L90.1309 32.5406C89.8664 34.1467 89.7342 35.7749 89.7342 37.403C89.7342 38.0081 89.7562 38.6241 89.8003 39.3392L83.7725 42.7055C83.6293 42.7825 83.5632 42.9475 83.6073 43.1015L85.5467 50.4062C85.5908 50.5712 85.734 50.6812 85.8993 50.6702L92.7094 50.5822C93.7122 52.6504 94.9464 54.6085 96.379 56.4017L93.4367 62.5072C93.3706 62.6502 93.4037 62.8263 93.5359 62.9253L99.3543 67.7987C99.4865 67.8977 99.6628 67.8977 99.784 67.7987L105.239 63.9154C107.277 65.0704 109.448 65.9725 111.707 66.6326L112.831 73.2332C112.864 73.3872 112.986 73.5082 113.151 73.5302L120.699 74.1683C120.832 74.1462 120.931 74.0582 120.975 73.9372L123.179 67.7327C125.537 67.5017 127.851 67.0066 130.099 66.2366L134.716 70.912C134.826 71.022 134.992 71.044 135.135 70.978L141.703 67.1826C141.835 67.1056 141.901 66.9406 141.868 66.7866L140.127 60.4831C141.912 58.9319 143.532 57.1718 144.92 55.2576L151.4 56.4457C151.554 56.4787 151.708 56.3907 151.775 56.2477L154.981 49.3831C155.047 49.2401 155.003 49.0751 154.882 48.965L149.824 44.7957C150.397 42.4965 150.695 40.1533 150.717 37.7881L156.733 35.0488C156.877 34.9828 156.965 34.8288 156.943 34.6748L155.642 27.2161ZM120.258 55.9837C109.999 55.9837 101.679 47.6779 101.679 37.436C101.679 27.1941 109.999 18.8884 120.258 18.8884C130.518 18.8884 138.838 27.1941 138.838 37.436C138.838 47.6779 130.518 55.9837 120.258 55.9837Z" fill="#F3F3F3" stroke="#263238" stroke-linecap="round" stroke-linejoin="round"/>
<path d="M114.759 89.0851C114.726 88.9091 114.56 88.7881 114.384 88.7991L109.073 89.1181C108.378 87.3469 107.486 85.6638 106.406 84.0907L109.756 79.8883C109.866 79.7563 109.866 79.5583 109.756 79.4262L104.18 73.8598C104.048 73.7387 103.849 73.7387 103.717 73.8598L99.4635 77.226C96.6646 75.3669 93.524 74.0908 90.2291 73.4747L89.5789 68.0072C89.5789 67.8312 89.4137 67.6992 89.2373 67.6992H81.3473C81.171 67.6992 81.0167 67.8312 80.9947 68.0072L80.3555 73.5077C78.5483 73.8598 76.7852 74.4208 75.0992 75.1579L71.4186 71.0105C71.2974 70.8675 71.099 70.8455 70.9448 70.9555L64.4763 75.4769C64.333 75.5759 64.2779 75.7739 64.3661 75.9279L67.0218 80.8234C65.7435 82.1435 64.6195 83.6066 63.6608 85.1687L58.2391 83.8816C58.0628 83.8376 57.8975 83.9366 57.8314 84.1017L55.1316 91.4943C55.0655 91.6703 55.1316 91.8573 55.3079 91.9343L60.2778 94.4096C60.0684 95.7297 59.9582 97.0608 59.9582 98.3919C59.9582 98.865 59.9582 99.36 60.0133 99.932L54.8671 101.956C54.7019 102.022 54.6137 102.198 54.6578 102.374L56.6964 109.987C56.7405 110.163 56.9058 110.284 57.0821 110.251L62.4817 109.448C63.2972 111.131 64.2999 112.726 65.468 114.189L62.4707 118.711C62.3715 118.865 62.4046 119.063 62.5368 119.184L68.5866 124.244C68.7188 124.354 68.9172 124.354 69.0494 124.244L72.9393 120.559C74.5923 121.494 76.3554 122.231 78.1847 122.77L78.3279 128.095C78.3279 128.271 78.4712 128.414 78.6475 128.425L86.5045 129.074H86.5375C86.7138 129.085 86.8681 128.953 86.9012 128.777L87.9591 123.606C89.8765 123.419 91.7608 123.012 93.5791 122.396L96.7197 126.609C96.8188 126.752 97.0172 126.785 97.1715 126.697L104.004 122.759C104.158 122.671 104.213 122.484 104.147 122.319L102.064 117.523C103.519 116.257 104.819 114.827 105.954 113.276L110.924 114.926C111.1 114.981 111.277 114.904 111.354 114.739L114.693 107.633C114.759 107.468 114.693 107.281 114.549 107.193L110.086 104.442C110.538 102.583 110.792 100.669 110.814 98.7439L115.872 97.2368C116.048 97.1928 116.158 97.0168 116.125 96.8408L114.759 89.0851ZM100.775 98.3809C100.775 106.874 93.8766 113.76 85.3695 113.749C76.8623 113.749 69.964 106.863 69.975 98.3699C69.975 89.8772 76.8733 82.9906 85.3805 82.9906V83.0126C93.8766 83.0126 100.764 89.8992 100.775 98.3699V98.3809Z" fill="#B9FF66" stroke="#263238" stroke-linecap="round" stroke-linejoin="round"/>
<path d="M211.709 354.001C328.632 354.001 423.418 334.516 423.418 310.481C423.418 286.445 328.632 266.961 211.709 266.961C94.7853 266.961 0 286.445 0 310.481C0 334.516 94.7853 354.001 211.709 354.001Z" fill="#F3F3F3"/>
<path opacity="0.5" d="M211.709 354.001C328.632 354.001 423.418 334.516 423.418 310.481C423.418 286.445 328.632 266.961 211.709 266.961C94.7853 266.961 0 286.445 0 310.481C0 334.516 94.7853 354.001 211.709 354.001Z" fill="#F3F3F3"/>
<path d="M224.074 311.129H59.7383L88.1248 230.734H195.456L224.074 311.129Z" fill="#263238"/>
<path d="M224.535 311.13H59.2734V317.884H224.535V311.13Z" fill="#263238"/>
<path d="M224.074 311.129H59.7383L88.1248 230.734H195.456L224.074 311.129Z" fill="white" stroke="#263238" stroke-linecap="round" stroke-linejoin="round"/>
<path d="M224.074 311.129H59.7383L88.1248 230.734H195.456L224.074 311.129Z" stroke="#263238" stroke-linecap="round" stroke-linejoin="round"/>
<path d="M94.791 291.273H217.01" stroke="#263238" stroke-linecap="round" stroke-linejoin="round"/>
<path d="M66.7461 291.273H89.4355" stroke="#263238" stroke-linecap="round" stroke-linejoin="round"/>
<path d="M185.58 271.416H209.933" stroke="#263238" stroke-linecap="round" stroke-linejoin="round"/>
<path d="M73.7539 271.416H170.407" stroke="#263238" stroke-linecap="round" stroke-linejoin="round"/>
<path d="M80.7617 251.569H202.87" stroke="#263238" stroke-linecap="round" stroke-linejoin="round"/>
<path d="M152.27 187.115C152.369 186.961 152.446 186.818 152.457 186.675C152.402 186.84 152.336 186.983 152.27 187.115Z" fill="#B9FF66"/>
<path d="M152.304 183.639C152.105 182.649 151.764 181.395 151.18 179.8C151.587 181.12 152.017 182.44 152.304 183.639Z" fill="#B9FF66"/>
<path d="M122.836 194.86C122.759 195.036 121.998 195.894 121.326 196.631L121.657 196.367C122.814 195.432 123.409 193.968 123.233 192.494C123.111 191.471 122.957 190.173 122.781 188.666C123.144 192.01 122.968 194.541 122.825 194.849L122.836 194.86Z" fill="#B9FF66"/>
<path d="M155.232 152.901C155.321 152.483 155.431 152.142 155.596 151.9C155.42 152.109 155.31 152.45 155.232 152.901Z" fill="#B9FF66"/>
<path d="M148.049 190.119C148.765 189.657 149.768 189.085 150.649 188.502C149.746 188.931 148.721 189.239 148.049 190.119Z" fill="#B9FF66"/>
<path d="M149.922 202.275C149.658 201.395 149.36 200.449 149.062 199.48C149.338 200.427 149.636 201.373 149.922 202.275Z" fill="#B9FF66"/>
<path d="M121.029 168.502C121.029 168.59 121.029 168.689 121.04 168.81C120.864 165.147 120.864 162.012 121.161 160.208C121.371 158.942 122.087 157.71 123.112 156.533C119.806 159.327 120.952 166.082 121.029 168.502Z" fill="#B9FF66"/>
<path d="M156.127 168.557C155.554 169.866 153.548 170.636 152.027 171.857C153.79 170.669 155.554 170.284 156.127 168.557Z" fill="#B9FF66"/>
<path d="M156.29 166.554C156.312 167.06 156.312 167.5 156.279 167.863C156.323 167.489 156.334 167.06 156.29 166.554Z" fill="#B9FF66"/>
<path d="M137.613 147.555C138.55 147.17 139.123 146.95 139.167 146.939C138.881 146.906 138.594 146.862 138.308 146.829L137.613 147.544V147.555Z" fill="#B9FF66"/>
<path d="M157.481 151.263C157.404 151.263 157.327 151.263 157.25 151.274C157.404 151.285 157.559 151.307 157.713 151.34C157.636 151.318 157.559 151.285 157.481 151.263Z" fill="#B9FF66"/>
<path d="M152.047 208.325L164.477 212C164.477 212 164.543 211.978 164.576 211.978C160.367 210.789 152.73 208.534 152.047 208.336V208.325Z" fill="#B9FF66"/>
<path d="M197.315 262.242C194.109 262.704 190.968 263.584 187.993 264.849C187.266 265.146 186.56 265.487 185.855 265.839C182.252 267.665 178.968 270.052 175.331 271.812C158.581 279.931 138.283 273.308 120.211 277.797C114.823 279.139 109.687 281.449 104.2 282.219C95.0203 283.517 85.9622 280.437 77.3008 276.95C77.5873 265.685 78.2925 252.11 79.8904 247.203C82.1825 241.989 86.7226 239.745 91.0973 237.808C93.158 237.027 95.6264 236.807 97.1471 235.63C108.883 232.033 115.462 226.301 119.054 222.913L152.388 230.427L164.797 224.244C169.524 225.234 174.229 225.355 178.527 226.499C187.828 229.349 190.252 235.421 192.643 240.482C193.062 241.549 193.437 242.638 193.767 243.76C194.99 248.259 196.324 255.916 197.326 262.242H197.315Z" fill="#B9FF66"/>
<path d="M152.213 220.26C152.213 220.26 152.191 219.71 152.312 218.94C152.533 217.62 153.216 215.662 155.299 214.826C155.299 214.826 155.31 214.826 155.321 214.826C157.381 213.704 160.335 212.989 162.439 212.582C163.134 212.384 163.817 212.186 164.478 212.01L152.048 208.335L151.993 208.324C151.993 208.324 151.288 206.828 149.921 202.285C149.635 201.383 149.337 200.437 149.062 199.491C147.816 195.519 146.538 191.339 147.409 190.58C147.563 190.448 147.794 190.283 148.048 190.118C148.72 189.227 149.734 188.93 150.648 188.501C151.354 188.028 151.971 187.554 152.268 187.114C152.334 186.982 152.401 186.828 152.456 186.674C152.511 186.19 152.522 185.607 152.511 185.079C152.478 184.683 152.412 184.21 152.301 183.638C152.015 182.45 151.585 181.119 151.177 179.799C151.177 179.799 151.177 179.799 151.177 179.788C149.293 174.65 149.69 173.429 152.004 171.878C152.004 171.878 152.026 171.878 152.026 171.867C153.547 170.646 155.552 169.876 156.125 168.567C156.191 168.358 156.246 168.127 156.28 167.874C156.313 167.522 156.313 167.082 156.291 166.565C155.993 163.385 154.616 156.026 155.233 152.901C155.299 152.45 155.42 152.098 155.596 151.9C155.938 151.372 156.544 151.218 157.26 151.284C157.337 151.284 157.415 151.273 157.492 151.273C152.555 149.502 145.954 147.83 139.166 146.961C139.133 146.972 138.549 147.192 137.612 147.577C134.604 148.908 127.496 152.835 123.11 156.554C122.086 157.731 121.369 158.963 121.16 160.228C120.862 162.032 120.862 165.157 121.039 168.831C121.204 171.955 122.427 185.453 122.78 188.699C122.945 190.195 123.099 191.504 123.232 192.527C123.408 194.001 122.813 195.464 121.656 196.399L121.325 196.663C120.785 197.257 120.311 197.763 120.311 197.763C120.311 197.763 120.3 197.741 120.3 197.73C120.653 198.775 120.774 199.953 120.862 201.075C121.028 202.186 121.182 203.517 121.303 205.145V205.156C121.887 210.371 122.163 215.585 121.259 220.788C121.259 220.788 120.378 221.668 119.033 222.934L152.368 230.436C152.368 230.436 163.927 226.421 163.806 226.399L164.787 224.265C162.616 223.847 155.773 222.12 152.224 220.293L152.213 220.26ZM137.976 194.1L133.138 193.869L133.315 190.041C128.896 188.721 125.667 184.628 125.667 179.788C125.667 179.216 125.722 178.655 125.81 178.105L122.637 176.862L124.179 172.945L127.276 174.155C128.962 171.438 131.816 169.535 135.144 169.15L135.276 166.279L140.114 166.51L139.959 169.7C144.125 171.174 147.1 175.123 147.1 179.788C147.1 185.101 143.221 189.502 138.13 190.338L137.954 194.1H137.976Z" fill="#B9FF66"/>
<path d="M119.938 197.116C120.224 197.864 120.566 199.096 120.863 201.055C120.775 199.932 120.643 198.755 120.301 197.71C120.268 197.655 120.158 197.446 119.949 197.116H119.938Z" fill="#B9FF66"/>
<path d="M121.306 205.136C121.835 212.715 121.262 220.768 121.262 220.768C122.165 215.565 121.879 210.339 121.306 205.136Z" fill="#B9FF66"/>
<path d="M119.077 147.732C119.077 147.732 119.022 147.754 119 147.765C119.507 147.578 120.025 147.413 120.565 147.292C120.003 147.424 119.496 147.567 119.077 147.732Z" fill="white"/>
<path d="M120.574 147.292C120.96 147.204 121.379 147.138 121.775 147.05C121.346 147.116 120.949 147.204 120.574 147.292Z" fill="white"/>
<path d="M106.438 162.209C106.702 161.538 106.977 160.878 107.286 160.207C106.933 160.9 106.647 161.571 106.438 162.198V162.209Z" fill="white"/>
<path d="M107.562 190.812C110.89 192.726 115.541 193.584 117.436 194.497C114.869 193.067 111.265 192.462 108.907 191.472C108.422 191.274 107.981 191.054 107.562 190.812Z" fill="white"/>
<path d="M105.49 189.305C104.663 188.524 104.046 187.644 103.605 186.709C104.002 187.633 104.597 188.48 105.49 189.305Z" fill="white"/>
<path d="M115.483 169.998C115.483 169.998 123.241 148.194 133.644 146.423C133.633 146.423 133.622 146.423 133.611 146.423C129.996 146.401 125.181 146.489 121.787 147.05C121.379 147.127 120.971 147.193 120.586 147.292C120.586 147.292 120.586 147.292 120.575 147.292C120.035 147.424 119.517 147.589 119.01 147.765C114.921 149.448 109.654 155.477 107.285 160.218C106.987 160.878 106.701 161.549 106.436 162.22C105.676 164.465 104.75 167.369 103.99 170.295C103.704 171.615 103.494 172.781 103.362 173.705C103.075 175.641 102.723 177.732 102.602 179.789C102.767 182.649 102.8 184.827 103.615 186.697C104.067 187.633 104.673 188.513 105.5 189.294C105.687 189.481 105.896 189.646 106.117 189.822C106.183 189.877 106.238 189.921 106.304 189.976C106.536 190.152 106.789 190.328 107.053 190.493C107.164 190.559 107.263 190.625 107.373 190.691C107.439 190.724 107.494 190.768 107.56 190.801C107.979 191.032 108.42 191.252 108.905 191.461C111.263 192.462 114.866 193.056 117.434 194.486C117.687 194.607 117.897 194.728 118.04 194.849C118.04 194.849 118.051 194.849 118.062 194.86C118.58 195.201 119.043 195.586 119.417 196.026L115.495 169.987L115.483 169.998Z" fill="white"/>
<path d="M106.438 190.096C106.637 190.239 106.835 190.371 107.044 190.503C106.78 190.338 106.537 190.162 106.295 189.986C106.339 190.019 106.383 190.063 106.438 190.096Z" fill="white"/>
<path d="M119.408 196.036C119.033 195.596 118.571 195.211 118.053 194.87C118.89 195.596 119.551 196.509 119.937 197.103C119.761 196.641 119.618 196.355 119.518 196.201C119.474 196.146 119.441 196.08 119.397 196.036H119.408Z" fill="white"/>
<path d="M119.528 196.2C119.452 196.08 119.408 196.036 119.408 196.036C119.452 196.091 119.485 196.145 119.528 196.2Z" fill="white"/>
<path d="M119.529 196.203C119.628 196.357 119.772 196.643 119.948 197.105C120.157 197.424 120.279 197.644 120.301 197.699C120.113 197.149 119.871 196.643 119.529 196.203Z" fill="white"/>
<path d="M121.039 168.81C121.348 175.212 122.174 183.232 122.78 188.677C122.428 185.443 121.193 171.934 121.039 168.81Z" fill="white"/>
<path d="M123.111 156.533C127.497 152.815 134.605 148.888 137.613 147.557C134.34 148.91 126.748 152.353 123.111 156.533Z" fill="white"/>
<path d="M133.645 146.423C123.253 148.194 115.484 169.998 115.484 169.998L119.407 196.037C119.407 196.037 119.451 196.092 119.529 196.202C119.87 196.642 120.124 197.148 120.3 197.698L120.311 197.731C120.311 197.731 120.785 197.225 121.325 196.631C121.986 195.894 122.757 195.036 122.834 194.86C122.967 194.552 123.154 192.022 122.79 188.678C122.173 183.232 121.347 175.212 121.049 168.81C121.049 168.7 121.049 168.59 121.038 168.502C120.95 166.082 119.815 159.327 123.121 156.533C126.757 152.352 134.35 148.909 137.623 147.556L138.317 146.841C136.763 146.654 135.198 146.511 133.656 146.423H133.645Z" fill="white"/>
<path d="M177.791 182.087C178.264 182.483 178.562 183 178.694 183.561C178.694 183.561 178.694 183.55 178.694 183.539C179.168 181.196 176.656 181.097 173.504 178.006C174.914 179.557 176.534 181.02 177.791 182.087Z" fill="white"/>
<path d="M171.995 176.181C171.102 174.806 170.584 173.266 170.154 171.352C170.264 172.089 170.375 172.738 170.485 173.244C170.683 174.146 171.245 175.158 171.995 176.181Z" fill="white"/>
<path d="M177.318 194.86L177.462 195.696L178.707 203.287C178.387 200.394 176.271 188.469 176.271 188.469L177.329 194.86H177.318Z" fill="white"/>
<path d="M171.761 210.327C171.761 210.327 171.838 210.327 171.871 210.316C171.827 210.316 171.783 210.316 171.729 210.316L171.75 210.327H171.761Z" fill="white"/>
<path d="M162.438 153.563C162.438 153.563 162.218 153.408 161.865 153.188C162.174 153.386 162.471 153.607 162.758 153.827C162.559 153.662 162.438 153.563 162.438 153.563Z" fill="white"/>
<path d="M161.537 152.991C160.656 152.463 159.278 151.726 158.033 151.418C159.334 151.924 160.094 152.254 160.094 152.254C160.612 152.463 161.086 152.716 161.537 152.991Z" fill="white"/>
<path d="M168.888 164.477C168.48 162.265 167.687 160.362 166.783 158.789C167.731 160.626 168.403 162.595 168.888 164.521C168.888 164.51 168.888 164.488 168.888 164.477Z" fill="white"/>
<path d="M169.57 212.121C171.807 210.878 175.477 208.314 175.488 208.314L169.658 211.989C169.658 211.989 169.625 212.044 169.57 212.11V212.121Z" fill="white"/>
<path d="M155.596 151.89C155.948 151.483 156.543 151.307 157.26 151.274C156.543 151.208 155.948 151.373 155.596 151.89Z" fill="white"/>
<path d="M155.236 152.902C154.607 156.027 155.996 163.386 156.293 166.566C156.139 162.902 154.784 155.763 155.236 152.902Z" fill="white"/>
<path d="M156.279 167.863C156.246 168.116 156.191 168.347 156.125 168.556C156.125 168.534 156.147 168.523 156.158 168.501C156.224 168.347 156.257 168.127 156.279 167.863Z" fill="white"/>
<path d="M150.284 174.508C150.483 173.364 151.177 172.55 152.025 171.868C152.025 171.868 152.003 171.868 152.003 171.879C149.689 173.441 149.293 174.662 151.177 179.789C151.177 179.789 151.177 179.789 151.177 179.8C150.571 177.82 150.042 175.873 150.273 174.497L150.284 174.508Z" fill="white"/>
<path d="M160.082 152.253C160.082 152.253 159.322 151.923 158.021 151.417C157.911 151.395 157.812 151.362 157.713 151.34C158.55 151.648 159.355 151.945 160.082 152.253Z" fill="white"/>
<path d="M152.303 183.639C152.413 184.211 152.479 184.684 152.512 185.08C152.512 184.948 152.512 184.816 152.512 184.684C152.457 184.354 152.391 184.002 152.303 183.639Z" fill="white"/>
<path d="M178.707 203.286L177.462 195.696L174.101 196.532V195.619L177.33 194.86L176.272 188.468C176.272 188.468 178.211 185.905 178.696 183.562C178.564 183 178.266 182.483 177.792 182.087C176.536 181.031 174.916 179.557 173.506 178.006C172.9 177.412 172.415 176.818 171.996 176.18C171.247 175.157 170.685 174.145 170.486 173.243C170.376 172.737 170.266 172.088 170.156 171.35C169.737 169.491 169.406 167.291 168.9 164.519C168.415 162.594 167.742 160.625 166.795 158.787C165.274 156.125 163.478 154.431 162.762 153.815C162.475 153.595 162.178 153.375 161.869 153.177C161.77 153.111 161.66 153.056 161.549 152.979C161.087 152.715 160.613 152.462 160.106 152.242C159.379 151.934 158.574 151.637 157.737 151.329C157.582 151.296 157.428 151.274 157.274 151.263C156.569 151.296 155.962 151.472 155.61 151.879C155.445 152.121 155.334 152.473 155.246 152.88C154.794 155.729 156.139 162.88 156.304 166.543C156.348 167.038 156.337 167.467 156.293 167.852C156.271 168.116 156.227 168.336 156.172 168.49C156.172 168.512 156.15 168.523 156.139 168.545C155.566 170.283 153.814 170.668 152.04 171.846C151.191 172.528 150.497 173.353 150.298 174.486C150.056 175.861 150.585 177.808 151.202 179.788C151.786 181.372 152.128 182.637 152.326 183.628C152.414 183.991 152.48 184.343 152.535 184.673C152.524 184.024 152.48 183.529 152.48 183.529C152.48 183.529 162.012 185.245 165.891 187.28C166.541 187.621 167.048 187.973 167.302 188.336C168.811 190.415 169.473 205.838 169.638 210.591C169.671 211.471 169.682 211.977 169.682 211.977L175.511 208.303L175.566 208.27C175.996 207.995 179.027 205.97 178.729 203.275L178.707 203.286ZM167.026 178.688L164.392 178.127L160.701 177.335H167.985L167.015 178.688H167.026Z" fill="white"/>
<path d="M127.154 178.633L125.821 178.105C125.733 178.655 125.678 179.205 125.678 179.788C125.678 184.628 128.906 188.721 133.325 190.041L133.347 189.667L138.185 189.898L138.163 190.349C143.243 189.513 147.133 185.113 147.133 179.799C147.133 175.146 144.147 171.185 139.992 169.711L139.948 170.734L135.111 170.503L135.177 169.161C131.849 169.546 128.995 171.449 127.309 174.167L128.719 174.717L127.176 178.633H127.154ZM136.4 172.439C140.466 172.439 143.75 175.729 143.75 179.777C143.75 183.825 140.455 187.115 136.4 187.115C132.345 187.115 129.05 183.825 129.05 179.777C129.05 175.729 132.345 172.439 136.4 172.439Z" fill="#263238"/>
<path d="M167.024 178.688L167.994 177.324H166.231L166.374 178.006L166.231 177.324H164.27L164.402 178.116L167.024 178.688Z" fill="#263238"/>
<path d="M164.401 178.116L164.268 177.324H160.709L164.401 178.116Z" fill="#263238"/>
<path d="M173.559 209.591C172.788 210.02 172.182 210.295 171.873 210.317C172.887 210.284 173.372 209.833 173.559 209.591Z" fill="#263238"/>
<path d="M152.457 186.675C152.457 186.675 152.479 186.609 152.501 186.455C152.49 186.521 152.479 186.609 152.457 186.675Z" fill="#263238"/>
<path d="M152.268 187.115C151.971 187.555 151.354 188.028 150.648 188.501C151.299 188.193 151.905 187.819 152.268 187.115Z" fill="#263238"/>
<path d="M166.485 211.449C162.959 207.852 154.683 198.16 154.683 198.16L152.446 186.675C152.435 186.818 152.358 186.961 152.259 187.115C151.884 187.819 151.289 188.193 150.639 188.501C149.758 189.084 148.755 189.656 148.039 190.118C147.763 190.481 147.532 190.954 147.399 191.57C147.366 193.253 148.127 196.389 149.041 199.48C149.339 200.437 149.636 201.383 149.901 202.274C150.97 205.596 151.973 208.314 151.973 208.314C151.973 208.314 151.995 208.314 152.028 208.325C152.711 208.523 160.348 210.778 164.557 211.966C165.229 211.779 165.879 211.603 166.463 211.438L166.485 211.449Z" fill="#263238"/>
<path d="M149.922 202.285C151.288 206.829 151.994 208.314 151.994 208.325C151.994 208.325 150.991 205.607 149.922 202.285Z" fill="#263238"/>
<path d="M152.534 186.157C152.556 185.904 152.556 185.552 152.512 185.068C152.512 185.607 152.512 186.19 152.457 186.663C152.479 186.597 152.49 186.52 152.501 186.443C152.523 186.355 152.523 186.245 152.534 186.146V186.157Z" fill="#263238"/>
<path d="M148.05 190.119C147.797 190.284 147.577 190.438 147.411 190.581C146.541 191.34 147.819 195.521 149.064 199.492C148.15 196.39 147.378 193.265 147.422 191.582C147.554 190.966 147.775 190.493 148.061 190.13L148.05 190.119Z" fill="#263238"/>
<path d="M167.278 188.347C167.024 187.995 166.517 187.643 165.867 187.291L169.614 210.602C169.449 205.85 168.798 190.426 167.278 188.347Z" fill="#263238"/>
<path d="M152.534 186.159C152.589 185.719 152.589 185.235 152.512 184.674C152.512 184.806 152.512 184.938 152.512 185.07C152.556 185.554 152.545 185.906 152.534 186.159Z" fill="#263238"/>
<path d="M166.318 212.946C168.148 212.44 168.842 212.253 168.842 212.253C169.624 213.177 169.834 211.967 169.834 211.967L165.878 187.281C161.999 185.245 152.467 183.529 152.467 183.529C152.467 183.529 152.5 184.024 152.522 184.673C152.61 185.234 152.61 185.718 152.544 186.159C152.544 186.28 152.522 186.379 152.511 186.456C152.489 186.599 152.467 186.676 152.467 186.676L154.704 198.161C154.704 198.161 162.803 209.36 166.329 212.957L166.318 212.946Z" fill="#263238"/>
<path d="M152.535 186.158C152.524 186.257 152.535 186.367 152.502 186.455C152.513 186.378 152.524 186.279 152.535 186.158Z" fill="#263238"/>
<path d="M174.088 195.619V196.532L177.449 195.696L177.317 194.86L174.088 195.619Z" fill="#263238"/>
<path d="M136.401 187.125C140.467 187.125 143.751 183.836 143.751 179.788C143.751 175.739 140.456 172.45 136.401 172.45C132.346 172.45 129.051 175.739 129.051 179.788C129.051 183.836 132.346 187.125 136.401 187.125ZM136.401 174.936C139.09 174.936 141.261 177.104 141.261 179.788C141.261 182.472 139.09 184.639 136.401 184.639C133.712 184.639 131.541 182.472 131.541 179.788C131.541 177.104 133.712 174.936 136.401 174.936Z" fill="white" stroke="#263238" stroke-miterlimit="10"/>
<path d="M136.399 184.64C139.087 184.64 141.258 182.473 141.258 179.789C141.258 177.105 139.087 174.938 136.399 174.938C133.71 174.938 131.539 177.105 131.539 179.789C131.539 182.473 133.71 184.64 136.399 184.64Z" fill="white" stroke="#263238" stroke-miterlimit="10"/>
<path d="M139.982 169.701L140.136 166.51L135.298 166.279L135.166 169.151C135.574 169.107 135.992 169.074 136.411 169.074C137.667 169.074 138.869 169.305 139.993 169.701H139.982Z" fill="#263238"/>
<path d="M139.937 170.723L139.981 169.7C138.857 169.304 137.655 169.073 136.399 169.073C135.98 169.073 135.562 169.106 135.154 169.15L135.088 170.492L139.926 170.723H139.937Z" fill="#263238"/>
<path d="M133.327 190.042L133.15 193.87L137.988 194.101L138.164 190.339C137.591 190.438 137.007 190.493 136.412 190.493C135.343 190.493 134.307 190.328 133.338 190.042H133.327Z" fill="#263238"/>
<path d="M133.336 189.668L133.314 190.042C134.284 190.328 135.32 190.493 136.389 190.493C136.984 190.493 137.568 190.427 138.141 190.339L138.163 189.888L133.325 189.657L133.336 189.668Z" fill="#263238"/>
<path d="M127.29 174.156L124.193 172.946L122.65 176.863L125.824 178.106C126.055 176.676 126.562 175.344 127.29 174.156Z" fill="#263238"/>
<path d="M127.156 178.633L128.698 174.717L127.288 174.167C126.55 175.355 126.043 176.686 125.822 178.116L127.156 178.644V178.633Z" fill="#263238"/>
<path d="M120.301 197.699L122.835 194.861C122.835 194.861 119.287 162.969 121.326 158.789C123.364 154.609 136.445 148.877 137.976 147.172" stroke="#263238" stroke-linecap="round" stroke-linejoin="round"/>
<path d="M78.4371 260.546L77.291 276.937C77.291 276.937 90.1289 283.054 100.531 282.493C110.923 281.921 120.896 277.795 120.896 277.795C120.896 277.795 120.598 271.965 118.681 269.875C116.763 267.785 114.35 265.045 108.983 265.551C103.617 266.057 93.0491 266.86 87.1536 264.462C81.2581 262.064 78.4481 260.568 78.4481 260.568L78.4371 260.546Z" fill="white"/>
<path d="M151.995 208.315C151.995 208.315 146.276 192.826 147.411 190.582C148.546 188.337 151.433 190.032 152.502 186.467C153.571 182.903 149.516 177.986 150.276 174.509C151.036 171.033 155.554 170.78 156.116 169.284C156.689 167.788 155.102 159.46 155.069 154.906C155.036 150.351 157.251 151.275 157.251 151.275" stroke="#263238" stroke-linecap="round" stroke-linejoin="round"/>
<path d="M138.715 198.049C138.715 198.049 147.222 205.321 149.195 207.015C151.167 208.709 165.415 213.143 167.752 212.626C170.088 212.109 177.537 207.587 178.529 205.299C179.521 203.011 176.259 188.479 176.259 188.479C176.259 188.479 177.967 187.081 178.749 184.529C179.532 181.977 177.779 182.087 175.19 179.755C172.6 177.412 170.253 173.836 169.57 168.38C168.887 162.923 166.969 156.598 160.082 152.263C153.195 147.929 135.596 146.576 126.891 146.642C118.185 146.708 113.182 150.195 109.215 156.543C105.248 162.89 100.774 180.679 103.595 186.718C106.427 192.758 115.32 192.494 118.042 194.881C120.775 197.268 120.852 201.053 120.852 201.053C120.852 201.053 122.45 214.727 121.315 219.71C121.315 219.71 115.155 229.336 103.584 233.396C92.0138 237.444 84.2339 239.699 81.3909 244.143C78.5478 248.588 77.2695 276.948 77.2695 276.948C77.2695 276.948 92.5097 284.33 104.168 282.218C115.838 280.106 121.557 276.123 133.613 276.134C145.668 276.134 161.184 278.642 171.443 273.406C181.702 268.17 190.97 262.229 197.284 262.251C197.284 262.251 195.378 233.88 182.397 228.082C169.427 222.274 165.404 227.587 153.04 220.689" stroke="#263238" stroke-linecap="round" stroke-linejoin="round"/>
<path d="M166.782 177.72L166.463 174.794" stroke="#263238" stroke-linecap="round" stroke-linejoin="round"/>
<path d="M163.75 212.12C163.75 212.12 154.516 214.111 153.502 216.157C152.488 218.204 151.992 222.318 151.992 222.318" stroke="#263238" stroke-linecap="round" stroke-linejoin="round"/>
<path d="M78.4375 260.546C78.4375 260.546 92.5316 268.511 106.67 265.925C118.262 263.802 120.94 273.351 121.701 277.443" stroke="#263238" stroke-linecap="round" stroke-linejoin="round"/>
<path d="M80.9492 266.312C81.2048 266.312 81.412 266.105 81.412 265.85C81.412 265.595 81.2048 265.388 80.9492 265.388C80.6935 265.388 80.4863 265.595 80.4863 265.85C80.4863 266.105 80.6935 266.312 80.9492 266.312Z" fill="#263238"/>
<path d="M111.771 268.995C111.771 269.248 111.562 269.457 111.309 269.457C111.055 269.457 110.846 269.248 110.846 268.995C110.846 268.742 111.055 268.533 111.309 268.533C111.562 268.533 111.771 268.742 111.771 268.995Z" fill="#263238"/>
<path d="M119.41 181.637C119.41 181.89 119.201 182.099 118.947 182.099C118.694 182.099 118.484 181.89 118.484 181.637C118.484 181.384 118.694 181.175 118.947 181.175C119.201 181.175 119.41 181.384 119.41 181.637Z" fill="#263238"/>
<path d="M118.584 171.23C118.584 171.483 118.374 171.692 118.121 171.692C117.868 171.692 117.658 171.483 117.658 171.23C117.658 170.977 117.868 170.768 118.121 170.768C118.374 170.768 118.584 170.977 118.584 171.23Z" fill="#263238"/>
<path d="M119.408 187.754C119.664 187.754 119.871 187.547 119.871 187.292C119.871 187.037 119.664 186.83 119.408 186.83C119.153 186.83 118.945 187.037 118.945 187.292C118.945 187.547 119.153 187.754 119.408 187.754Z" fill="#263238"/>
<path d="M118.945 176.401C118.945 176.654 118.736 176.863 118.482 176.863C118.229 176.863 118.02 176.654 118.02 176.401C118.02 176.148 118.229 175.938 118.482 175.938C118.736 175.938 118.945 176.148 118.945 176.401Z" fill="#263238"/>
<path d="M118.019 166.72C118.275 166.72 118.482 166.513 118.482 166.258C118.482 166.003 118.275 165.796 118.019 165.796C117.764 165.796 117.557 166.003 117.557 166.258C117.557 166.513 117.764 166.72 118.019 166.72Z" fill="#263238"/>
<path d="M117.283 274.804C117.283 275.057 117.074 275.266 116.82 275.266C116.567 275.266 116.357 275.057 116.357 274.804C116.357 274.551 116.567 274.342 116.82 274.342C117.074 274.342 117.283 274.551 117.283 274.804Z" fill="#263238"/>
<path d="M115.264 271.537C115.264 271.79 115.054 271.999 114.801 271.999C114.547 271.999 114.338 271.79 114.338 271.537C114.338 271.284 114.547 271.075 114.801 271.075C115.054 271.075 115.264 271.284 115.264 271.537Z" fill="#263238"/>
<path d="M374.579 157.215C402.592 157.215 425.302 134.544 425.302 106.578C425.302 78.6116 402.592 55.9404 374.579 55.9404C346.565 55.9404 323.855 78.6116 323.855 106.578C323.855 134.544 346.565 157.215 374.579 157.215Z" fill="#263238"/>
<path d="M443.87 141.946L426.096 190.57L347.592 172.143L337.465 167.446L337.542 167.27L367.67 99.2949L381.609 107.095L443.87 141.946Z" fill="white"/>
<path d="M381.61 107.095L351.802 169.635C344.805 169.943 340.353 168.887 337.543 167.27L367.671 99.2949L381.61 107.095Z" fill="#B9FF66"/>
<path d="M443.881 141.946L426.107 190.581L347.592 172.143L337.465 167.446L367.67 99.2949L443.881 141.946Z" stroke="#263238" stroke-linecap="round" stroke-linejoin="round"/>
<path d="M357.146 131.726C357.146 131.726 372.563 160.097 396.641 164.817C420.719 169.536 437.336 146.566 437.336 146.566L372.684 116.071L357.146 131.737V131.726Z" fill="#B9FF66"/>
<path d="M140.953 143.002C141.107 142.815 157.262 124.08 157.262 124.08L148.612 120.461L146.893 124.08L140.953 143.002Z" fill="white"/>
<path d="M196.854 156.116L186.121 173.585L202.816 161.66L205.416 158.844L197.427 153.476L196.854 156.116Z" fill="white"/>
<path d="M341.639 159.152L343.259 154.378L340.824 164.686L351.799 169.647C351.799 169.647 371.535 165.104 390.709 172.376C409.873 179.647 376.505 195.863 376.505 195.863L351.81 204.08L324.438 203.189L328.889 182.529C328.889 182.529 332.361 163.762 341.639 159.152Z" fill="#263238"/>
<path d="M422.901 291.505C418.085 303.023 412.399 313.903 400.366 319.217C389.357 324.079 366.348 327.677 347.978 324.123C344.606 323.485 341.4 322.594 338.446 321.428C325.928 316.489 303.845 300.856 289.53 287.699C282.037 280.812 276.681 274.608 275.921 270.956C274.4 263.64 285.696 237.854 297.949 215.566C303.492 205.478 309.222 196.116 314.06 189.504C329.576 168.251 340.871 159.758 340.871 159.758C340.871 159.758 325.146 181.98 334.92 188.613C344.695 195.258 365.059 172.684 385.897 172.145C395.22 171.903 406.404 175.885 415.914 180.352C427.683 185.874 436.896 192.156 436.896 192.156C441.568 225.225 435.739 260.802 422.901 291.505Z" fill="white"/>
<path d="M376.96 200.009C375.682 202.209 374.481 204.453 373.346 206.675C355.847 241.053 345.135 278.853 342.006 317.279" stroke="#263238" stroke-linecap="round" stroke-linejoin="round"/>
<path d="M398.832 178.942C392.595 181.187 387.57 185.433 383.371 190.581" stroke="#263238" stroke-linecap="round" stroke-linejoin="round"/>
<path d="M422.897 291.504C418.081 303.022 412.395 313.902 400.362 319.215C389.353 324.078 366.344 327.675 347.975 324.122C345.142 294.727 370.741 213.65 385.298 196.048C400.241 177.985 415.877 180.339 415.877 180.339H415.91C427.679 185.872 436.892 192.154 436.892 192.154C441.564 225.223 435.735 260.8 422.897 291.504Z" fill="#B9FF66"/>
<path d="M247.159 51.4641C236.47 44.0165 224.117 43.2684 219.566 49.792L195.113 88.4274L223.897 109.351C223.897 109.351 257.539 77.7785 258.267 76.7444C262.818 70.2208 257.848 58.9118 247.17 51.4641H247.159Z" fill="#263238"/>
<path d="M223.939 108.504C220.545 113.367 211.333 112.806 203.377 107.261C195.41 101.717 191.707 93.2789 195.101 88.4275C198.495 83.5651 207.707 84.1261 215.664 89.6706C223.631 95.2151 227.333 103.653 223.939 108.504Z" fill="white" stroke="#263238" stroke-linecap="round" stroke-linejoin="round"/>
<path d="M201.493 124.081L204.513 119.703L186.661 107.591L183.443 111.595" fill="white"/>
<path d="M201.493 124.081L204.513 119.703L186.661 107.591L183.443 111.595" stroke="#263238" stroke-linecap="round" stroke-linejoin="round"/>
<path d="M197.207 155.567L185.449 174.071L203.632 161.079" stroke="#263238" stroke-linecap="round" stroke-linejoin="round"/>
<path d="M155.409 126.149L140.434 143.608L147.751 122.332" stroke="#263238" stroke-linecap="round" stroke-linejoin="round"/>
<path d="M211.577 93.3665C205.847 89.3732 198.904 89.2301 196.469 92.7284L193.273 95.4127L196.282 97.9869C197.163 100.77 199.433 103.74 202.728 106.04C205.12 107.701 207.654 108.735 209.99 109.131L213.23 112.233C213.23 112.233 217.252 107.349 217.539 106.942C219.985 103.443 217.318 97.3709 211.588 93.3775L211.577 93.3665Z" fill="#263238"/>
<path d="M214.407 110.297C211.961 113.795 205.338 113.388 199.597 109.395C193.867 105.402 191.2 99.3292 193.646 95.8309C196.093 92.3326 202.716 92.7397 208.457 96.733C214.187 100.726 216.854 106.799 214.407 110.297Z" fill="white" stroke="#263238" stroke-linecap="round" stroke-linejoin="round"/>
<path d="M207.388 103.961L198.925 116.062L192.391 111.508L200.578 99.7805C201.724 99.5274 203.102 99.7145 204.38 100.364C206 101.189 207.091 102.553 207.388 103.95V103.961Z" fill="#263238"/>
<path d="M200.591 131.638L204.658 126.259L180.161 109.317L176.447 114.95L150.077 118.096L147.664 122.001L155.422 126.16C163.565 125.94 171.566 128.844 178.519 132.87C185.197 136.743 191.125 141.572 194.63 148.58C195.148 149.614 195.61 150.681 196.018 151.77C196.294 152.507 196.558 154.696 197.109 155.18L203.644 161.077L206.509 157.491L200.591 131.638Z" fill="white" stroke="#263238" stroke-linecap="round" stroke-linejoin="round"/>
<path d="M181.747 115.854L174.805 125.578L190.541 136.799L197.428 127.03L181.747 115.854Z" fill="#B9FF66" stroke="#263238" stroke-linecap="round" stroke-linejoin="round"/>
<path d="M385.035 94.1144C382.456 100.209 378.864 106.865 374.401 113.553C360.803 133.927 344.329 146.82 337.596 142.343C336.725 141.771 293.572 113.08 293.572 113.08L336.196 49.1865L338.995 44.9951L385.784 68.0201C386.148 68.1631 386.501 68.3282 386.831 68.5372C391.36 71.5514 390.325 81.6393 385.035 94.1144Z" fill="white"/>
<path d="M385.036 94.1144L380.386 91.7272L356.352 77.3489L354.578 65.0829L339.999 56.7441L336.197 49.1865L338.996 44.9951L385.786 68.0201C386.149 68.1631 386.502 68.3282 386.832 68.5372C391.361 71.5514 390.326 81.6393 385.036 94.1144Z" fill="#B9FF66"/>
<path d="M318.775 129.835C330.985 121.21 360.385 96.4473 362.876 56.7559" stroke="#263238" stroke-linecap="round" stroke-linejoin="round"/>
<path d="M386.831 68.5372C386.512 68.3172 386.159 68.1631 385.784 68.0201L338.995 44.9951L293.572 113.08C293.572 113.08 336.725 141.771 337.596 142.343C344.329 146.82 360.803 133.927 374.401 113.542C387.999 93.1573 393.564 73.0146 386.831 68.5372Z" stroke="#263238" stroke-linecap="round" stroke-linejoin="round"/>
<path d="M327.536 86.5124C314.995 105.313 299.788 117.205 293.584 113.08C287.38 108.954 292.504 90.3627 305.045 71.5621C317.585 52.7614 332.891 40.5064 339.095 44.6427C345.299 48.7791 340.076 67.7227 327.536 86.5234V86.5124Z" fill="#263238"/>
<path d="M332.47 66.6003C330.63 71.4298 327.798 76.8752 324.151 82.3427C314.575 96.699 302.96 105.786 298.221 102.628C297.604 102.232 267.51 81.5616 267.51 81.5616L298.464 34.3125L298.728 34.4335L332.162 50.2749C332.426 50.3739 332.669 50.4839 332.9 50.6379C335.831 52.5961 335.457 58.7786 332.47 66.6003Z" fill="white"/>
<path d="M332.471 66.5994L318.762 59.2728L313.748 50.626L300.37 43.8384L298.729 34.4326L332.162 50.274C332.427 50.373 332.669 50.483 332.9 50.637C335.832 52.5952 335.457 58.7777 332.471 66.5994Z" fill="#B9FF66"/>
<path d="M284.053 92.5288C290.929 88.1724 314.202 72.188 314.456 42.2764" stroke="#263238" stroke-linecap="round" stroke-linejoin="round"/>
<path d="M307.469 100.724L297.463 93.9367C297.463 93.9367 302.091 89.7454 306.29 85.708L316.328 92.2426L307.469 100.724Z" fill="#B9FF66"/>
<path d="M332.47 66.6003C330.63 71.4298 327.798 76.8752 324.151 82.3427C314.575 96.699 302.96 105.786 298.221 102.628C297.604 102.232 267.51 81.5616 267.51 81.5616L298.464 34.3125L298.728 34.4335L332.162 50.2749C332.426 50.3739 332.669 50.4839 332.9 50.6379C335.831 52.5961 335.457 58.7786 332.47 66.6003Z" stroke="#263238" stroke-linecap="round" stroke-linejoin="round"/>
<path d="M291.135 63.3108C282.297 76.556 271.586 84.9387 267.211 82.0235C262.837 79.1192 266.451 66.0171 275.289 52.7719C284.127 39.5268 294.838 31.144 299.212 34.0593C303.587 36.9635 299.973 50.0657 291.135 63.3108Z" fill="#263238"/>
<path d="M287.608 60.955C294.685 50.3453 297.58 39.8554 294.075 37.5251C290.57 35.1948 281.991 41.9065 274.914 52.5161C267.837 63.1258 264.941 73.6157 268.447 75.946C271.952 78.2763 280.531 71.5646 287.608 60.955Z" fill="white" stroke="#263238" stroke-linecap="round" stroke-linejoin="round"/>
<path d="M402.755 152.155C426.716 152.155 446.14 132.764 446.14 108.844C446.14 84.9241 426.716 65.5332 402.755 65.5332C378.795 65.5332 359.371 84.9241 359.371 108.844C359.371 132.764 378.795 152.155 402.755 152.155Z" fill="#263238"/>
<path d="M411.064 156.93C435.024 156.93 454.448 137.539 454.448 113.619C454.448 89.6995 435.024 70.3086 411.064 70.3086C387.103 70.3086 367.68 89.6995 367.68 113.619C367.68 137.539 387.103 156.93 411.064 156.93Z" fill="white" stroke="#263238" stroke-linecap="round" stroke-linejoin="round"/>
<path d="M437.887 115.818C440.956 102.714 432.803 89.6074 419.677 86.5435C406.55 83.4796 393.421 91.6188 390.352 104.723C387.283 117.827 395.436 130.934 408.562 133.998C421.689 137.062 434.818 128.923 437.887 115.818Z" fill="#B9FF66"/>
<path d="M411.062 137.073C424.037 137.073 434.556 126.572 434.556 113.619C434.556 100.666 424.037 90.165 411.062 90.165C398.087 90.165 387.568 100.666 387.568 113.619C387.568 126.572 398.087 137.073 411.062 137.073Z" fill="white" stroke="#263238" stroke-linecap="round" stroke-linejoin="round"/>
<path d="M421.752 113.619C421.752 119.516 416.959 124.301 411.052 124.301C409.972 124.301 408.937 124.136 407.945 123.839C403.57 122.508 400.363 118.438 400.363 113.619C400.363 108.801 403.559 104.752 407.945 103.41C408.937 103.113 409.972 102.948 411.052 102.948C416.959 102.948 421.752 107.723 421.752 113.619Z" fill="#263238"/>
<path d="M292.517 242.659L297.806 254.991C297.806 254.991 291.525 273.396 289.53 287.697C282.037 280.81 276.681 274.606 275.921 270.953C274.4 263.638 285.696 237.851 297.949 215.563L303.095 218.996C303.095 218.996 295.624 233.605 292.517 242.659Z" fill="#B9FF66"/>
<path d="M415.526 113.618C415.526 118.436 412.331 122.507 407.945 123.838C403.57 122.507 400.363 118.436 400.363 113.618C400.363 108.8 403.559 104.751 407.945 103.409C412.32 104.74 415.526 108.789 415.526 113.618Z" fill="white" stroke="#263238" stroke-linecap="round" stroke-linejoin="round"/>
<path d="M436.892 192.156C436.892 192.156 406.732 171.606 385.894 172.134C365.056 172.673 344.691 195.247 334.917 188.613C325.143 181.969 340.868 159.758 340.868 159.758C340.868 159.758 329.572 168.251 314.057 189.504C298.541 210.758 273.703 260.34 275.918 270.967C278.133 281.593 319.379 313.914 338.443 321.439C357.507 328.964 387.337 324.981 400.362 319.228C412.396 313.914 418.071 303.034 422.898 291.516C435.735 260.824 441.565 225.236 436.892 192.167V192.156Z" stroke="#263238" stroke-linecap="round" stroke-linejoin="round"/>
<path d="M283.216 56.7447C280.262 61.4092 275.458 62.8943 275.458 62.8943L248.846 47.2729C245.418 45.3037 243.578 41.2004 244.812 37.4271C246.52 32.1796 253.76 28.8243 258.267 31.4315L284.703 48.703C284.791 48.758 284.88 48.802 284.968 48.8681C285.574 50.7162 285.706 52.7844 283.216 56.7557V56.7447Z" fill="#263238"/>
<path d="M262.995 41.2651C263.194 46.7215 265.353 54.3672 261.045 57.0845C258.896 58.4376 251.921 57.0845 248.714 56.5784C240.636 55.2913 233.661 50.4839 233.375 42.3212C233.088 34.1585 239.479 27.2938 247.656 27.0078C253.75 26.7878 266.687 26.2598 269.144 31.4302C269.982 33.2014 262.918 39.1859 262.995 41.2651Z" fill="#263238"/>
<path d="M273.842 43.8212C274.689 35.6933 268.775 28.4188 260.634 27.5731C252.492 26.7274 245.205 32.6308 244.358 40.7587C243.511 48.8866 249.424 56.1611 257.566 57.0068C265.708 57.8525 272.995 51.9491 273.842 43.8212Z" fill="white" stroke="#263238" stroke-linecap="round" stroke-linejoin="round"/>
<path d="M260.66 52.5855C260.682 53.2455 260.164 53.7956 259.502 53.8176C258.841 53.8396 258.29 53.3225 258.268 52.6625C258.246 52.0024 258.764 51.4524 259.425 51.4304C260.086 51.4084 260.637 51.9254 260.66 52.5855Z" fill="#263238"/>
<path d="M259.945 32.5855C259.967 33.2455 259.449 33.7956 258.788 33.8176C258.126 33.8396 257.575 33.3225 257.553 32.6625C257.531 32.0024 258.049 31.4524 258.71 31.4304C259.372 31.4084 259.923 31.9254 259.945 32.5855Z" fill="#263238"/>
<path d="M270.872 41.2105C270.894 41.8705 270.377 42.4206 269.715 42.4426C269.054 42.4646 268.503 41.9475 268.481 41.2875C268.459 40.6274 268.977 40.0774 269.638 40.0554C270.299 40.0334 270.85 40.5504 270.872 41.2105Z" fill="#263238"/>
<path d="M250.577 41.9361C250.6 42.5961 250.082 43.1462 249.42 43.1682C248.759 43.1902 248.208 42.6731 248.186 42.0131C248.164 41.353 248.682 40.803 249.343 40.781C250.004 40.7589 250.555 41.276 250.577 41.9361Z" fill="#263238"/>
<path d="M263.611 42.1344C263.699 44.6206 261.749 46.7218 259.258 46.8098C256.768 46.8978 254.663 44.9506 254.575 42.4644C254.487 39.9782 256.437 37.877 258.928 37.789C261.418 37.701 263.523 39.6482 263.611 42.1344Z" fill="#263238"/>
</g>
<defs>
<clipPath id="clip0_941_2406">
<rect width="455" height="354" fill="white"/>
</clipPath>
</defs>
</svg>
