<svg width="445" height="447" viewBox="0 0 445 447" fill="none" xmlns="http://www.w3.org/2000/svg">
<g clip-path="url(#clip0_935_1827)">
<path d="M287.172 0.542481L418.781 0.56935C431.139 0.56935 441.155 10.589 441.153 22.9413L441.094 320.34C441.092 332.695 431.071 342.708 418.715 342.705L287.107 342.678C274.748 342.676 264.732 332.659 264.734 320.306L264.793 22.9071C264.793 10.5523 274.816 0.540038 287.172 0.542481Z" fill="black"/>
<path d="M444.997 38.9673H433.98V68.1322H444.997V38.9673Z" fill="black"/>
<path d="M439.268 39.5024H433.98V67.6024H439.268V39.5024Z" fill="white"/>
<path d="M439.262 68.1444H433.975C433.677 68.1444 433.436 67.9002 433.436 67.6022L433.44 39.5022C433.44 39.3581 433.497 39.2213 433.599 39.1187C433.702 39.0161 433.838 38.96 433.982 38.96H439.27C439.414 38.96 439.55 39.0186 439.653 39.1187C439.755 39.2189 439.811 39.3581 439.811 39.5022L439.806 67.6022C439.806 67.9002 439.565 68.142 439.267 68.142L439.262 68.1444ZM434.516 67.0623H438.723L438.728 40.0445H434.521L434.516 67.0623Z" fill="black"/>
<path d="M275.421 0.54004L407.029 0.566908C419.387 0.569351 429.403 10.5865 429.401 22.9389L429.342 320.338C429.342 332.693 419.319 342.705 406.963 342.703L275.355 342.676C262.996 342.673 252.98 332.656 252.982 320.304L253.041 22.9047C253.043 10.5499 263.064 0.537597 275.421 0.54004Z" fill="#DFE3E8"/>
<path d="M429.427 46.1758H253.27V292.165H429.427V46.1758Z" fill="white"/>
<path d="M429.402 292.722L253.245 292.688C253.101 292.688 252.964 292.631 252.862 292.529C252.759 292.426 252.703 292.289 252.703 292.145L252.752 46.156C252.752 46.0119 252.808 45.8751 252.911 45.7725C253.013 45.6699 253.15 45.6138 253.294 45.6138L429.451 45.648C429.749 45.648 429.99 45.8898 429.99 46.1878L429.941 292.177C429.941 292.475 429.7 292.717 429.402 292.717V292.722ZM253.784 291.608L428.86 291.642L428.909 46.7349L253.833 46.7007L253.784 291.608Z" fill="black"/>
<path d="M407.186 343.245H407.182L275.203 343.218C262.244 343.215 252.474 332.763 252.477 318.909L252.535 21.1385C252.538 9.87797 263.159 0 275.266 0H275.271L407.25 0.0268689C413.233 0.0268689 418.937 2.31805 423.31 6.47784C427.546 10.5057 429.976 15.8624 429.973 21.1727L429.915 318.943C429.915 325.694 427.553 331.887 423.263 336.383C419.045 340.807 413.335 343.242 407.184 343.242L407.186 343.245ZM275.266 1.08208C263.735 1.08208 253.618 10.4544 253.616 21.1385L253.557 318.909C253.555 332.148 262.861 342.133 275.203 342.136L407.182 342.163H407.186C413.04 342.163 418.471 339.845 422.483 335.638C426.579 331.344 428.834 325.416 428.836 318.943L428.895 21.1727C428.895 16.158 426.589 11.0871 422.566 7.26192C418.393 3.2951 412.955 1.10895 407.247 1.10895L275.268 1.08208H275.264H275.266Z" fill="black"/>
<path d="M347.179 11.6978L309.418 11.6905C309.12 11.6905 308.879 11.4487 308.879 11.1507C308.879 10.8527 309.12 10.6108 309.418 10.6108L347.179 10.6182C347.477 10.6182 347.719 10.86 347.719 11.158C347.719 11.456 347.477 11.6978 347.179 11.6978Z" fill="black"/>
<path d="M353.859 14.4774C352.029 14.4774 350.541 12.9874 350.541 11.1603C350.541 9.33082 352.029 7.84326 353.859 7.84326C354.745 7.84326 355.58 8.18767 356.204 8.81543C356.831 9.44318 357.175 10.2761 357.175 11.1628C357.175 12.0495 356.829 12.8824 356.202 13.5077C355.575 14.133 354.743 14.4799 353.857 14.4799L353.859 14.4774ZM353.857 8.9229C352.622 8.9229 351.619 9.92682 351.619 11.1579C351.619 12.3914 352.622 13.3953 353.857 13.3953C354.455 13.3953 355.016 13.1633 355.438 12.7407C355.86 12.3181 356.092 11.7563 356.092 11.1603C356.092 10.5643 355.86 10.0001 355.438 9.57997C355.016 9.15739 354.452 8.92534 353.855 8.92534L353.857 8.9229Z" fill="black"/>
<mask id="mask0_935_1827" style="mask-type:luminance" maskUnits="userSpaceOnUse" x="253" y="46" width="177" height="247">
<path d="M429.427 46.1753H253.27V292.165H429.427V46.1753Z" fill="white"/>
</mask>
<g mask="url(#mask0_935_1827)">
<path d="M374.425 261.263L338.976 237.359L309.816 320.321C306.83 328.821 307.63 338.193 312.017 346.061L346.714 408.279L338.898 423.534L377.55 398.998L341.777 326.813L374.427 261.263H374.425Z" fill="black"/>
<path d="M356.477 247.443L337.43 214.738L264.67 264.028C257.215 269.077 252.287 277.089 251.135 286.024L240.533 416.567L270.643 376.99L286.493 288.288L356.477 247.44V247.443Z" fill="black"/>
<path d="M270.386 152.253L276.888 133.062L337.485 153.633L323.629 180.07L275.985 163.607C271.308 162.019 268.802 156.936 270.388 152.253H270.386Z" fill="white"/>
<path d="M328.108 181.846C328.049 181.846 327.991 181.836 327.934 181.816C327.651 181.721 327.5 181.413 327.595 181.13L336.796 153.973L277.224 133.748L270.897 152.427C269.409 156.819 271.768 161.606 276.155 163.094L313.551 175.788C313.834 175.883 313.985 176.191 313.89 176.474C313.795 176.758 313.487 176.909 313.204 176.814L275.809 164.12C270.858 162.437 268.194 157.036 269.875 152.08L276.377 132.888C276.473 132.607 276.78 132.453 277.063 132.549L337.66 153.121C337.943 153.216 338.095 153.524 337.999 153.807L328.625 181.477C328.549 181.702 328.339 181.843 328.113 181.843L328.108 181.846Z" fill="black"/>
<path d="M320.036 57.9877L319.626 57.8167C318.433 57.3184 317.054 57.7752 316.395 58.889L315.749 59.9784C316.535 58.5226 315.903 56.6882 314.358 56.0433C313.065 55.5035 311.569 55.9994 310.854 57.206L304.964 67.1402C304.159 68.4983 303.642 70.0054 303.442 71.5711L303.137 73.8305L303.1 73.811L303.403 71.4343C303.607 69.8295 304.144 68.2833 304.979 66.8959L308.453 61.1655C309.31 59.7537 308.709 57.9119 307.187 57.2769L306.967 57.1865C305.73 56.6711 304.3 57.1425 303.615 58.2979L299.379 65.4254C298.688 66.5906 298.21 67.8681 297.961 69.1993C297.988 68.6399 298.054 68.0806 298.164 67.5261L299.477 60.9506C299.801 59.3311 298.608 57.8045 296.961 57.7287L296.724 57.7165C295.385 57.653 294.204 58.5861 293.952 59.9051L292.401 68.0537C292.108 69.6048 292.135 71.1974 292.479 72.7387L295.895 87.9635L291.949 100.97L303.739 108.799L314.861 99.3413C316.583 97.8757 318.055 96.139 319.216 94.1995L325.826 83.154C326.687 81.7129 326.221 79.8443 324.782 78.982L324.545 78.8403C323.105 77.9781 321.239 78.4446 320.378 79.8858L313.955 90.6162L313.282 89.3754C312.987 88.8331 312.833 88.2298 312.821 87.6167L314.378 75.3938C314.614 73.5301 315.239 71.7372 316.208 70.1275L321.261 61.7322C322.078 60.3741 321.5 58.6032 320.036 57.9925V57.9877ZM315.173 60.9481L310.405 68.9868C310.051 69.5828 309.756 70.2105 309.517 70.8578C309.783 70.0762 310.132 69.3214 310.559 68.6106L315.171 60.9481H315.173Z" fill="#B9FF66"/>
<path d="M313.901 91.1025C313.711 91.1025 313.523 90.9999 313.425 90.8191L313.291 90.57C312.554 89.2119 312.269 87.6804 312.464 86.1464L313.845 75.3158C314.094 73.3642 314.733 71.5224 315.748 69.8395L320.802 61.4442C321.109 60.9312 321.18 60.3108 320.994 59.7417C320.809 59.1725 320.384 58.7133 319.833 58.4837L319.423 58.3127C318.486 57.9219 317.383 58.2858 316.863 59.1628L310.876 69.2606C310.105 70.56 309.617 71.9816 309.424 73.4838L308.55 80.3037C308.514 80.5992 308.245 80.8068 307.945 80.7726C307.65 80.7336 307.44 80.4649 307.477 80.1669L308.35 73.3471C308.563 71.6983 309.099 70.1375 309.946 68.711L315.934 58.6132C316.727 57.277 318.405 56.7201 319.838 57.3186L320.248 57.4896C321.089 57.8413 321.736 58.5399 322.022 59.4095C322.307 60.279 322.2 61.2243 321.729 62.0084L316.676 70.4037C315.741 71.9572 315.151 73.6573 314.919 75.4599L313.538 86.2881C313.372 87.5973 313.616 88.9017 314.243 90.0595L314.377 90.3086C314.519 90.57 314.423 90.8998 314.16 91.0414C314.077 91.0854 313.989 91.1074 313.904 91.1074L313.901 91.1025Z" fill="black"/>
<path d="M302.691 77.9488C302.669 77.9488 302.645 77.9488 302.623 77.9439C302.328 77.9048 302.118 77.6361 302.155 77.3381L302.901 71.4978C303.111 69.8491 303.648 68.2907 304.497 66.8617L310.387 56.9276C311.236 55.4987 313.032 54.9027 314.562 55.5426C315.435 55.9066 316.119 56.6271 316.433 57.5211C316.748 58.4151 316.672 59.4044 316.224 60.2373C316.082 60.4987 315.755 60.5964 315.492 60.4572C315.228 60.3155 315.13 59.9858 315.272 59.7244C315.577 59.1601 315.628 58.4909 315.413 57.8827C315.196 57.2671 314.745 56.7908 314.145 56.5417C313.105 56.1093 311.888 56.5099 311.314 57.4821L305.424 67.4162C304.653 68.7181 304.163 70.1373 303.972 71.6395L303.226 77.4798C303.192 77.7534 302.957 77.9512 302.691 77.9512V77.9488Z" fill="black"/>
<path d="M303.739 109.334C303.634 109.334 303.531 109.305 303.441 109.244L291.651 101.415C291.456 101.286 291.366 101.041 291.432 100.814L295.248 87.5361L291.954 72.8486C291.59 71.2267 291.563 69.5779 291.871 67.9438L293.423 59.7952C293.723 58.2222 295.162 57.1059 296.751 57.1669L296.987 57.1792C297.929 57.2231 298.803 57.675 299.383 58.42C299.964 59.165 300.191 60.1225 300.008 61.0483L298.612 68.7254C298.559 69.021 298.278 69.2188 297.985 69.1602C297.693 69.1065 297.497 68.8256 297.551 68.5325L298.947 60.8455C299.071 60.2202 298.92 59.5803 298.534 59.0868C298.146 58.591 297.566 58.2905 296.939 58.2612L296.702 58.249C295.648 58.2026 294.686 58.9525 294.486 59.9979L292.935 68.1441C292.654 69.6292 292.678 71.1314 293.01 72.6092L296.336 87.431C296.355 87.519 296.353 87.6118 296.329 87.6997L292.583 100.729L303.705 108.113L314.516 98.9187C316.197 97.4898 317.625 95.8044 318.757 93.9113L325.367 82.8658C325.708 82.2918 325.808 81.62 325.647 80.9727C325.486 80.3255 325.081 79.7783 324.508 79.4363L324.269 79.2922C323.088 78.5839 321.551 78.9698 320.843 80.152L312.581 93.9577C312.43 94.2142 312.098 94.2973 311.84 94.1434C311.583 93.9895 311.5 93.6573 311.654 93.4008L319.916 79.5951C320.929 77.8999 323.129 77.3479 324.825 78.3616L325.062 78.5057C325.882 78.9967 326.46 79.7783 326.692 80.7065C326.924 81.6347 326.782 82.5971 326.289 83.4178L319.679 94.4634C318.486 96.459 316.983 98.2323 315.212 99.7394L304.09 109.197C303.99 109.283 303.866 109.327 303.741 109.327L303.739 109.334Z" fill="black"/>
<path d="M297.331 75.4942C297.311 75.4942 297.294 75.4942 297.275 75.4917C296.977 75.46 296.762 75.1962 296.792 74.8982L297.316 69.7931C297.529 68.1321 298.065 66.5737 298.912 65.1423L303.15 58.0123C303.968 56.6371 305.698 56.0655 307.174 56.6811L307.393 56.7715C308.265 57.1354 308.931 57.8584 309.223 58.7573C309.516 59.6562 309.402 60.6333 308.914 61.4393L308.65 61.8765C308.494 62.133 308.162 62.2136 307.908 62.0597C307.652 61.9034 307.572 61.5712 307.725 61.3172L307.989 60.88C308.316 60.3426 308.391 59.6904 308.196 59.092C308.001 58.4935 307.557 58.0123 306.979 57.7705L306.759 57.6801C305.773 57.2722 304.624 57.6508 304.08 58.5668L299.844 65.6968C299.073 66.9987 298.585 68.4179 298.392 69.9177L297.87 75.0105C297.841 75.289 297.607 75.4966 297.333 75.4966L297.331 75.4942Z" fill="black"/>
<path d="M279.149 164.677L270.068 161.651C260.164 158.351 255.811 146.758 261.091 137.745L286.338 94.6421L311.516 109.42L279.152 164.677H279.149Z" fill="white"/>
<path d="M279.149 165.217C279.093 165.217 279.035 165.207 278.979 165.19L269.897 162.163C265.022 160.539 261.189 156.846 259.381 152.029C257.573 147.214 258.026 141.907 260.625 137.468L285.872 94.3659C286.02 94.1094 286.352 94.0215 286.611 94.1729L311.789 108.951C311.914 109.024 312.001 109.141 312.038 109.281C312.075 109.42 312.053 109.566 311.982 109.691L288.848 149.188C288.697 149.445 288.368 149.533 288.109 149.381C287.853 149.23 287.765 148.9 287.916 148.641L310.776 109.608L286.53 95.3771L261.557 138.013C259.124 142.168 258.7 147.136 260.391 151.645C262.084 156.154 265.673 159.611 270.236 161.133L279.318 164.159C279.601 164.254 279.754 164.56 279.659 164.843C279.584 165.07 279.374 165.214 279.147 165.214L279.149 165.217Z" fill="black"/>
<path d="M336.456 152.403L368.239 149.921L371.46 152.361L383.511 293.396L272.799 258.434L323.282 206.8L317.939 189.75L336.456 152.403Z" fill="white"/>
<path d="M383.511 293.935C383.457 293.935 383.401 293.928 383.347 293.911L272.635 258.95C272.457 258.893 272.321 258.747 272.274 258.566C272.228 258.383 272.282 258.19 272.411 258.056L322.667 206.655L317.419 189.914C317.329 189.628 317.487 189.325 317.773 189.235C318.058 189.144 318.361 189.306 318.451 189.589L323.797 206.638C323.856 206.829 323.807 207.037 323.668 207.178L273.799 258.183L382.903 292.636L370.94 152.647L368.073 150.475L336.495 152.94C336.202 152.962 335.938 152.739 335.914 152.444C335.89 152.146 336.114 151.887 336.409 151.863L368.193 149.381C368.329 149.374 368.456 149.408 368.561 149.488L371.782 151.929C371.904 152.021 371.982 152.161 371.994 152.314L384.045 293.349C384.06 293.53 383.987 293.703 383.845 293.818C383.748 293.896 383.628 293.938 383.508 293.938L383.511 293.935Z" fill="black"/>
<path d="M413.533 196.299L392.356 216.404L348.324 169.928L369.584 150.402L413.533 196.299Z" fill="white"/>
<path d="M392.355 216.946C392.211 216.946 392.07 216.89 391.962 216.778L363.305 186.528C363.1 186.311 363.11 185.969 363.324 185.764C363.541 185.558 363.883 185.568 364.088 185.783L392.372 215.639L412.766 196.279L371.564 152.788C370.115 151.259 368.082 150.478 365.981 150.639L342.418 152.478C342.126 152.5 341.862 152.278 341.838 151.982C341.813 151.684 342.038 151.423 342.333 151.401L365.896 149.562C368.321 149.373 370.674 150.277 372.347 152.043L413.922 195.927C414.02 196.032 414.074 196.172 414.071 196.313C414.066 196.457 414.008 196.592 413.903 196.692L392.726 216.797C392.621 216.897 392.487 216.946 392.355 216.946Z" fill="black"/>
<path d="M317.746 189.366C314.406 188.682 311.783 185.854 311.505 182.283C311.329 180.021 312.127 177.908 313.549 176.359L317.746 189.366Z" fill="white"/>
<path d="M317.745 189.909C317.709 189.909 317.672 189.904 317.636 189.897C313.998 189.152 311.253 186.037 310.965 182.327C310.784 180.014 311.58 177.705 313.148 175.996C313.351 175.776 313.693 175.761 313.912 175.964C314.132 176.167 314.146 176.509 313.944 176.728C312.578 178.218 311.885 180.229 312.041 182.244C312.292 185.478 314.683 188.189 317.853 188.839C318.146 188.898 318.333 189.186 318.272 189.476C318.221 189.733 317.994 189.909 317.743 189.909H317.745Z" fill="black"/>
<path d="M345.009 192.943C343.75 192.943 342.506 192.659 341.371 192.112C341.103 191.983 340.991 191.66 341.12 191.389C341.249 191.12 341.574 191.008 341.842 191.137C342.999 191.697 344.29 191.939 345.58 191.838C348.513 191.609 351.012 189.657 351.944 186.863C352.039 186.58 352.344 186.426 352.627 186.521C352.91 186.616 353.064 186.921 352.969 187.205C351.9 190.412 349.033 192.654 345.666 192.918C345.449 192.935 345.229 192.943 345.012 192.943H345.009Z" fill="black"/>
<path d="M378.079 224.228C378.026 224.228 377.972 224.221 377.921 224.203L323.123 207.318C322.858 207.235 322.699 206.968 322.753 206.697C322.806 206.426 323.062 206.238 323.331 206.262L376.576 211.15C376.828 211.175 377.03 211.367 377.064 211.619L378.616 223.617C378.64 223.8 378.57 223.981 378.428 224.101C378.331 224.184 378.206 224.228 378.079 224.228ZM328.406 207.813L377.435 222.921L376.047 212.186L328.404 207.813H328.406Z" fill="black"/>
<path d="M405.088 164.579L354.439 116.254C351.387 113.201 347.073 111.447 342.434 111.809C334.014 112.466 327.719 119.833 328.375 128.265C328.873 134.642 333.289 140.876 339.013 142.725L368.122 180.351L405.086 164.579H405.088Z" fill="black"/>
<path d="M345.812 151.672L335.144 169.862L332.219 132.314L344.231 131.376L345.812 151.672Z" fill="#B9FF66"/>
<path d="M335.144 170.402C335.105 170.402 335.064 170.397 335.022 170.388C334.793 170.334 334.625 170.139 334.605 169.904L331.68 132.356C331.667 132.212 331.714 132.07 331.809 131.963C331.902 131.853 332.036 131.787 332.177 131.775L344.189 130.837C344.485 130.812 344.746 131.037 344.77 131.333L346.351 151.626C346.359 151.736 346.334 151.846 346.278 151.941L335.61 170.131C335.513 170.3 335.332 170.397 335.144 170.397V170.402ZM332.8 132.813L335.549 168.104L345.261 151.543L343.736 131.958L332.8 132.81V132.813Z" fill="black"/>
<path d="M344.587 135.937L344.231 131.376L332.219 132.314L333.002 142.378C334.102 142.51 336.284 142.613 338.702 141.601C342.486 140.016 344.155 136.828 344.585 135.937H344.587Z" fill="black"/>
<path d="M337.154 139.107C342.491 138.69 346.444 133.566 345.984 127.662C345.524 121.757 340.825 117.309 335.488 117.726C330.152 118.142 326.199 123.266 326.659 129.171C327.119 135.075 331.818 139.523 337.154 139.107Z" fill="#B9FF66"/>
<path d="M336.458 139.679C333.986 139.679 331.614 138.709 329.709 136.907C327.63 134.938 326.356 132.207 326.122 129.217C325.639 123.025 329.823 117.632 335.448 117.192C338.18 116.982 340.842 117.954 342.936 119.935C345.015 121.904 346.288 124.635 346.523 127.625C347.006 133.817 342.821 139.21 337.197 139.65C336.951 139.669 336.702 139.679 336.455 139.679H336.458ZM336.184 118.245C335.967 118.245 335.75 118.252 335.531 118.269C330.499 118.663 326.761 123.536 327.198 129.132C327.41 131.853 328.564 134.335 330.451 136.12C332.32 137.891 334.689 138.758 337.112 138.57C342.143 138.177 345.881 133.304 345.444 127.708C345.232 124.987 344.078 122.505 342.192 120.719C340.491 119.11 338.378 118.243 336.182 118.243L336.184 118.245Z" fill="black"/>
<path d="M340.886 132.788C340.019 133.716 338.86 134.391 337.516 134.635C334.515 135.18 331.636 133.426 330.662 130.629L340.886 132.788Z" fill="white"/>
<path d="M320.313 194.894C320.217 194.894 320.12 194.87 320.032 194.816C319.778 194.66 319.698 194.328 319.851 194.074L345.891 151.347C346.047 151.091 346.379 151.013 346.633 151.167C346.886 151.323 346.967 151.655 346.813 151.909L320.774 194.635C320.671 194.804 320.493 194.894 320.313 194.894Z" fill="black"/>
<path d="M387.966 153.565L386.838 147.529C386.838 147.529 381.219 146.577 380.38 140.382C380.184 138.946 380.043 135.959 379.953 133.435C379.85 130.565 379.367 127.725 378.523 124.979L377.554 121.835C377.066 120.255 377.91 118.572 379.467 118.018L379.799 117.9C381.378 117.339 383.112 118.142 383.71 119.708L387.556 129.801L391.613 126.489C393.692 124.791 395.259 122.546 396.135 120.008L399.878 109.825C400.5 108.132 402.274 107.16 404.033 107.544L404.333 107.61L405.799 101.952C406.285 100.301 407.981 99.3242 409.652 99.7346C411.292 100.135 412.343 101.74 412.056 103.406L404.997 144.413L406.143 151.486L387.966 153.565Z" fill="#B9FF66"/>
<path d="M387.965 154.105C387.709 154.105 387.482 153.922 387.436 153.663L386.374 147.972C385.042 147.613 380.599 146.005 379.845 140.453C379.642 138.958 379.498 135.822 379.415 133.453C379.313 130.636 378.842 127.837 378.007 125.138L377.039 121.994C376.463 120.131 377.451 118.159 379.288 117.507L379.62 117.39C381.46 116.735 383.522 117.688 384.217 119.515L387.797 128.909L391.274 126.071C393.277 124.434 394.782 122.278 395.627 119.833L399.374 109.639C400.063 107.771 402 106.655 403.945 106.977L405.282 101.816C405.855 99.8666 407.827 98.7259 409.786 99.2071C411.694 99.6736 412.926 101.559 412.594 103.496L405.55 144.415L406.682 151.399C406.707 151.545 406.668 151.694 406.58 151.811C406.489 151.929 406.358 152.007 406.211 152.021L388.033 154.1C388.014 154.103 387.992 154.105 387.972 154.105H387.965ZM380.818 118.264C380.54 118.264 380.257 118.311 379.979 118.409L379.647 118.526C378.359 118.983 377.666 120.365 378.068 121.674L379.037 124.818C379.898 127.61 380.386 130.502 380.491 133.414C380.611 136.775 380.757 139.159 380.913 140.307C381.692 146.039 386.874 146.985 386.928 146.992C387.15 147.031 387.328 147.202 387.37 147.427L388.404 152.967L405.518 151.008L404.462 144.496C404.452 144.437 404.452 144.376 404.462 144.317L411.521 103.311C411.757 101.931 410.879 100.587 409.52 100.255C408.124 99.913 406.719 100.724 406.314 102.102L404.852 107.742C404.779 108.022 404.496 108.196 404.215 108.135L403.915 108.069C402.424 107.742 400.907 108.577 400.38 110.008L396.637 120.192C395.729 122.817 394.109 125.14 391.95 126.904L387.892 130.216C387.758 130.326 387.58 130.365 387.411 130.319C387.243 130.275 387.106 130.15 387.045 129.989L383.2 119.896C382.817 118.89 381.841 118.26 380.813 118.26L380.818 118.264Z" fill="black"/>
<path d="M399.197 133.372L399.541 130.258C399.761 128.277 399.4 126.276 398.504 124.498L393.602 114.754C392.897 113.352 393.446 111.645 394.837 110.92C396.159 110.228 397.792 110.668 398.587 111.931L405.104 122.258C405.631 123.094 405.985 124.024 406.146 124.999L406.676 129.337L399.197 133.372Z" fill="#B9FF66"/>
<path d="M399.827 125.099L400.681 122.085C401.225 120.167 401.199 118.135 400.611 116.232L397.385 105.812C396.921 104.315 397.746 102.72 399.234 102.234C400.652 101.772 402.189 102.475 402.767 103.853L407.489 115.118C407.87 116.029 408.065 117.007 408.062 117.993L408.05 123.311L399.825 125.101L399.827 125.099Z" fill="#B9FF66"/>
<path d="M408.065 118.531C407.768 118.531 407.526 118.286 407.526 117.988C407.529 117.07 407.35 116.173 406.994 115.323L402.273 104.058C401.809 102.949 400.548 102.37 399.406 102.746C398.203 103.137 397.529 104.442 397.903 105.651L400.414 113.64C400.504 113.926 400.345 114.229 400.06 114.32C399.774 114.41 399.472 114.249 399.381 113.965L396.871 105.973C396.322 104.2 397.307 102.292 399.069 101.718C400.741 101.173 402.585 102.016 403.266 103.64L407.987 114.906C408.4 115.89 408.607 116.928 408.605 117.991C408.605 118.289 408.363 118.531 408.065 118.531Z" fill="black"/>
<path d="M398.357 137.114C398.325 137.114 398.291 137.111 398.257 137.104C397.964 137.05 397.772 136.767 397.825 136.474L399.009 130.157C399.211 128.316 398.872 126.43 398.02 124.74L393.118 114.996C392.286 113.34 392.943 111.295 394.585 110.438C396.147 109.625 398.103 110.152 399.043 111.64L404.962 120.47C406.311 122.483 406.653 124.654 407.017 126.955L407.039 127.102C407.085 127.397 406.885 127.673 406.59 127.72C406.294 127.771 406.019 127.566 405.972 127.27L405.948 127.124C405.604 124.945 405.279 122.886 404.064 121.073L398.135 112.228C397.486 111.198 396.149 110.836 395.083 111.396C393.963 111.982 393.511 113.379 394.08 114.51L398.982 124.251C399.926 126.129 400.304 128.225 400.072 130.314L398.884 136.669C398.835 136.928 398.608 137.111 398.355 137.111L398.357 137.114Z" fill="black"/>
<path d="M389.215 134.794C388.995 134.794 388.79 134.659 388.71 134.442L387.048 129.989C386.943 129.708 387.085 129.398 387.365 129.293C387.646 129.188 387.956 129.33 388.061 129.61L389.723 134.063C389.827 134.344 389.686 134.655 389.405 134.76C389.342 134.784 389.278 134.794 389.217 134.794H389.215Z" fill="black"/>
<path d="M392.188 216.311L387.213 152.449L416.31 150.177L420.465 203.512C421.666 218.922 402.951 227.393 392.188 216.311Z" fill="white"/>
<path d="M403.863 221.927C399.427 221.927 395.145 220.132 391.8 216.69C391.593 216.475 391.598 216.133 391.81 215.925C392.025 215.718 392.366 215.723 392.574 215.935C398.332 221.863 405.654 221.59 410.59 219.355C415.524 217.122 420.568 211.797 419.926 203.556L415.812 150.761L387.791 152.95L391.3 197.977C391.324 198.275 391.1 198.534 390.805 198.558C390.512 198.58 390.248 198.361 390.224 198.063L386.674 152.495C386.649 152.197 386.874 151.939 387.169 151.914L416.268 149.642C416.417 149.633 416.554 149.677 416.661 149.772C416.771 149.865 416.837 149.999 416.849 150.141L421.004 203.475C421.578 210.837 417.759 217.303 411.037 220.344C408.685 221.409 406.252 221.929 403.863 221.929V221.927Z" fill="black"/>
</g>
<path d="M0.212891 181.455V319.097C0.212891 387.525 55.6372 442.994 124.006 442.994H198.386C240.937 442.994 275.431 408.47 275.431 365.883V364.874C275.431 324.029 242.347 290.916 201.536 290.916H158.397C128.578 290.916 99.8571 279.668 77.9582 259.414C44.0229 228.031 0.212891 181.455 0.212891 181.455Z" fill="#B9FF66"/>
<path d="M183.995 409.833L182.651 431.912C181.555 431.912 180.975 432.33 180.975 433.426L180.133 440.92C180.133 442.017 181.021 442.909 182.119 442.909H254.601C256.324 442.909 257.722 441.511 257.722 439.784V434.675C257.722 432.95 256.324 431.55 254.601 431.55V426.626C254.601 422.53 251.588 419.059 247.535 418.487L236.209 416.89C234.41 416.636 232.705 415.932 231.248 414.845L223.965 409.833H183.998H183.995Z" fill="white"/>
<path d="M181.987 431.548C180.977 431.548 180.16 432.366 180.155 433.375L180.133 440.918C180.133 442.014 181.021 442.906 182.119 442.906H254.601C256.324 442.906 257.722 441.509 257.722 439.782V434.672C257.722 432.947 256.324 431.548 254.601 431.548H181.99H181.987Z" fill="black"/>
<path d="M254.618 432.088C254.618 432.088 254.596 432.088 254.586 432.088C254.289 432.071 254.062 431.814 254.079 431.516L254.311 427.498C254.545 423.451 251.7 419.941 247.696 419.332L234.09 417.266C234.015 417.259 233.939 417.29 233.895 417.354L226.88 428.033C226.717 428.282 226.383 428.353 226.131 428.187C225.882 428.023 225.814 427.686 225.978 427.437L232.995 416.758C233.268 416.343 233.766 416.123 234.254 416.196L247.862 418.263C252.42 418.954 255.658 422.95 255.392 427.559L255.16 431.577C255.143 431.865 254.906 432.088 254.621 432.088H254.618Z" fill="black"/>
<path d="M221.374 418.827C221.189 418.827 221.008 418.731 220.908 418.558C220.757 418.299 220.845 417.969 221.103 417.818L228.535 413.48C228.794 413.331 229.124 413.416 229.275 413.675C229.424 413.934 229.338 414.264 229.08 414.415L221.647 418.753C221.562 418.802 221.469 418.827 221.377 418.827H221.374Z" fill="black"/>
<path d="M196.054 431.912C193.695 422.371 186.907 418.331 183.393 416.838L182.071 431.584C181.668 431.584 196.054 431.912 196.054 431.912Z" fill="#020202"/>
<path d="M143.465 432.899H120.102C116.269 432.899 112.616 431.277 110.042 428.434L81.4676 396.856L81.0626 396.411C80.1817 395.495 78.7494 395.397 77.7515 396.184L74.1159 399.396C72.9838 400.29 72.8544 401.958 73.8353 403.016L104.867 436.521C108.578 440.527 113.79 442.806 119.248 442.806H143.465C144.78 442.806 145.847 441.739 145.847 440.422V435.281C145.847 433.964 144.78 432.897 143.465 432.897V432.899Z" fill="white"/>
<path d="M97.0988 385.067L81.4707 396.855L110.045 428.434C112.617 431.277 116.272 432.899 120.105 432.899H143.468C143.468 420.407 134.98 417.725 130.58 417.173C128.775 416.946 127.108 416.094 125.864 414.765L97.0988 385.07V385.067Z" fill="white"/>
<path d="M143.465 433.439C143.167 433.439 142.925 433.197 142.925 432.899C142.925 424.245 138.58 419.125 130.36 418.092C129.725 418.011 129.1 417.86 128.5 417.637C128.22 417.532 128.078 417.222 128.183 416.944C128.286 416.663 128.598 416.521 128.878 416.624C129.398 416.817 129.942 416.951 130.496 417.019C136.66 417.791 144.009 421.174 144.009 432.899C144.009 433.197 143.767 433.439 143.47 433.439H143.465Z" fill="black"/>
<path d="M143.465 432.899H120.102C116.269 432.899 112.616 431.277 110.042 428.434L81.4676 396.856L81.0626 396.411C80.1817 395.495 78.7494 395.397 77.7515 396.184L74.1159 399.396C72.9838 400.29 72.8544 401.958 73.8353 403.016L104.867 436.521C108.578 440.527 113.79 442.806 119.248 442.806H143.465C144.78 442.806 145.847 441.739 145.847 440.422V435.281C145.847 433.964 144.78 432.897 143.465 432.897V432.899Z" fill="#020202"/>
<path d="M89.6886 405.937C92.4824 402.994 94.2001 399.017 94.2001 394.635C94.2001 392.363 93.739 390.199 92.9045 388.23L81.4707 396.855L89.6886 405.937Z" fill="#020202"/>
<path d="M117.218 426.47C117.057 426.47 116.896 426.397 116.789 426.258C116.608 426.021 116.652 425.681 116.889 425.5L128.315 416.734C128.552 416.553 128.891 416.597 129.072 416.834C129.252 417.071 129.208 417.41 128.972 417.591L117.545 426.358C117.448 426.433 117.33 426.47 117.216 426.47H117.218Z" fill="black"/>
<path d="M114.239 418.925C114.029 418.925 113.826 418.8 113.741 418.592C113.626 418.316 113.756 417.999 114.029 417.884L120.873 415.004C121.149 414.889 121.466 415.019 121.581 415.292C121.695 415.569 121.566 415.886 121.293 416.001L114.449 418.881C114.38 418.91 114.31 418.922 114.239 418.922V418.925Z" fill="black"/>
<path d="M163.382 325.135L97.0977 385.067L125.863 414.765L198.567 345.624L183.39 329.757L163.382 325.135Z" fill="black"/>
<path d="M94.3813 287.7L94.4521 303.43C94.5204 318.298 106.581 330.314 121.436 330.314H180.42V410.122H228.91L228.759 314.664C228.734 299.766 216.661 287.7 201.775 287.7H94.3789H94.3813Z" fill="black"/>
<path d="M180.423 330.958C180.255 330.958 180.091 330.88 179.986 330.736C179.811 330.494 179.864 330.157 180.106 329.981L193.384 320.345C193.626 320.169 193.962 320.223 194.138 320.465C194.314 320.707 194.26 321.044 194.019 321.22L180.74 330.856C180.645 330.927 180.533 330.958 180.423 330.958Z" fill="white"/>
<path d="M228.913 410.661H180.423C180.125 410.661 179.884 410.419 179.884 410.121V330.853H121.439C106.33 330.853 93.9838 318.552 93.9155 303.433L93.8594 287.338C93.8594 287.04 94.0985 286.796 94.3986 286.796C94.6963 286.796 94.9379 287.038 94.9379 287.336L94.994 303.43C95.0598 317.956 106.923 329.774 121.439 329.774H180.423C180.72 329.774 180.962 330.016 180.962 330.314V409.582H228.371C228.27 346.305 228.22 314.665 228.22 314.664C228.21 308.611 226.231 302.751 222.649 298.166C218.994 293.486 213.311 290.15 206.648 288.77C202.961 288.005 199.096 287.89 195.8 287.878C195.502 287.878 195.26 287.634 195.26 287.336C195.26 287.038 195.502 286.796 195.8 286.796C199.147 286.808 203.081 286.925 206.863 287.709C213.775 289.141 219.682 292.619 223.496 297.499C227.224 302.275 229.284 308.369 229.293 314.664C229.293 314.708 229.445 410.121 229.445 410.121C229.445 410.266 229.388 410.402 229.286 410.505C229.186 410.608 229.047 410.664 228.903 410.664L228.913 410.661Z" fill="white"/>
<path d="M182.896 201.033V219.672H203.863V211.143L204.988 209.548C206.047 208.045 206.613 206.253 206.613 204.416V201.033H182.896Z" fill="#B9FF66"/>
<path d="M164.321 170.087L164.921 174.168C165.273 176.562 166.158 178.844 167.513 180.847L169.323 183.526C170.668 185.517 171.668 187.715 172.273 190.041C172.842 192.232 174.096 195.292 177.026 198.07L185.408 206.011L181.821 181.609L176.238 175.817C174.586 174.105 173.513 171.916 173.169 169.562L173.056 168.8C172.715 166.474 170.553 164.867 168.23 165.209L167.91 165.255C165.587 165.597 163.98 167.759 164.321 170.087Z" fill="#B9FF66"/>
<path d="M178.131 199.66C177.997 199.66 177.865 199.611 177.76 199.511L176.653 198.463C174.23 196.167 172.58 193.38 171.748 190.178C171.16 187.918 170.194 185.783 168.874 183.829L167.063 181.15C165.673 179.091 164.745 176.704 164.384 174.247L163.784 170.165C163.599 168.898 163.916 167.632 164.68 166.604C165.443 165.576 166.561 164.906 167.827 164.721L168.147 164.674C170.762 164.288 173.2 166.106 173.586 168.722L173.698 169.484C173.761 169.921 173.854 170.358 173.971 170.786C174.049 171.074 173.881 171.372 173.593 171.45C173.305 171.528 173.007 171.36 172.929 171.071C172.8 170.602 172.7 170.119 172.629 169.64L172.517 168.878C172.373 167.896 171.856 167.029 171.058 166.438C170.262 165.844 169.284 165.6 168.303 165.744L167.983 165.791C167.002 165.935 166.136 166.452 165.546 167.251C164.955 168.048 164.709 169.027 164.853 170.009L165.453 174.091C165.79 176.389 166.656 178.622 167.959 180.546L169.769 183.226C171.158 185.28 172.175 187.53 172.795 189.909C173.576 192.913 175.123 195.527 177.397 197.681L178.505 198.729C178.722 198.934 178.731 199.276 178.526 199.494C178.419 199.606 178.278 199.662 178.134 199.662L178.131 199.66Z" fill="black"/>
<path d="M203.863 214.821L182.896 216.832V219.672H203.863V214.821Z" fill="black"/>
<path d="M199.499 207.313H179.501L170.588 154.012H208.413L199.499 207.313Z" fill="white"/>
<path d="M199.5 207.853H179.502C179.238 207.853 179.011 207.662 178.97 207.401L170.057 154.1C170.03 153.944 170.074 153.783 170.176 153.661C170.279 153.539 170.43 153.47 170.588 153.47H208.413C208.572 153.47 208.723 153.541 208.825 153.661C208.928 153.783 208.972 153.942 208.945 154.1L206.473 168.886C206.425 169.181 206.146 169.381 205.851 169.33C205.556 169.281 205.358 169.003 205.407 168.707L207.774 154.552H171.223L179.956 206.771H199.039L199.468 204.206C199.517 203.91 199.795 203.71 200.09 203.761C200.386 203.81 200.583 204.089 200.534 204.384L200.029 207.401C199.985 207.662 199.761 207.853 199.497 207.853H199.5Z" fill="black"/>
<path d="M209.96 161.99L211.4 153.377H167.6L169.042 161.99H209.96Z" fill="#DFE3E8"/>
<path d="M209.96 162.532H169.042C168.778 162.532 168.551 162.342 168.51 162.08L167.07 153.468C167.043 153.311 167.087 153.15 167.19 153.028C167.292 152.906 167.444 152.837 167.602 152.837H211.402C211.561 152.837 211.712 152.908 211.815 153.028C211.917 153.15 211.961 153.309 211.934 153.468L210.495 162.08C210.451 162.342 210.226 162.532 209.963 162.532H209.96ZM169.498 161.45H209.502L210.761 153.919H168.237L169.496 161.45H169.498Z" fill="black"/>
<path d="M193.678 163.526H197.177C199.36 163.526 201.456 164.396 203.003 165.942L208.178 171.123C209.103 172.049 209.623 173.304 209.623 174.613V174.96C209.623 176.27 209.103 177.525 208.178 178.451L207.127 179.504L201.029 173.399C199.477 171.848 197.377 170.976 195.183 170.976H193.68C191.733 170.976 190.154 169.396 190.154 167.447V167.054C190.154 165.104 191.733 163.524 193.68 163.524L193.678 163.526Z" fill="#B9FF66"/>
<path d="M207.128 180.046C206.984 180.046 206.847 179.989 206.744 179.887L200.647 173.783C199.188 172.322 197.246 171.518 195.181 171.518H193.678C191.436 171.518 189.613 169.694 189.613 167.449V167.056C189.613 164.811 191.438 162.986 193.678 162.986H197.177C199.522 162.986 201.728 163.9 203.385 165.561L208.56 170.742C209.594 171.777 210.163 173.153 210.163 174.616V174.963C210.163 176.426 209.594 177.801 208.56 178.837L207.508 179.889C207.406 179.992 207.269 180.048 207.125 180.048L207.128 180.046ZM193.678 164.068C192.031 164.068 190.692 165.409 190.692 167.056V167.449C190.692 169.095 192.031 170.436 193.678 170.436H195.181C197.533 170.436 199.747 171.355 201.411 173.018L207.128 178.739L207.799 178.067C208.628 177.237 209.084 176.133 209.084 174.958V174.611C209.084 173.436 208.628 172.332 207.799 171.501L202.623 166.32C201.169 164.865 199.237 164.064 197.18 164.064H193.681L193.678 164.068Z" fill="black"/>
<path d="M206.623 200.18V205.601H203.534C200.535 205.601 198.105 203.168 198.105 200.168V197.581L192.5 191.973C191.234 190.705 190.521 188.986 190.521 187.19V186.827C190.521 185.322 191.741 184.103 193.245 184.103H193.647C194.367 184.103 195.057 184.389 195.567 184.897L203.602 192.906C205.535 194.833 206.623 197.452 206.623 200.183V200.18Z" fill="#B9FF66"/>
<path d="M187.183 170.93H195.157C197.341 170.93 199.437 171.8 200.984 173.346L206.137 178.502C207.077 179.443 207.606 180.72 207.606 182.051V182.33C207.606 183.661 207.077 184.939 206.137 185.879L205.11 186.907L196.609 178.4H187.188C185.212 178.4 183.611 176.797 183.611 174.819V174.511C183.611 172.533 185.214 170.93 187.188 170.93H187.183Z" fill="#B9FF66"/>
<path d="M206.135 186.421C205.996 186.421 205.859 186.367 205.752 186.262C205.542 186.052 205.542 185.708 205.752 185.498C206.596 184.65 207.062 183.527 207.062 182.332V182.054C207.062 180.857 206.596 179.733 205.752 178.888L200.599 173.732C199.144 172.276 197.212 171.475 195.155 171.475H187.181C185.507 171.475 184.143 172.838 184.143 174.516V174.823C184.143 176.499 185.505 177.865 187.181 177.865H189.253C189.55 177.865 189.792 178.106 189.792 178.404C189.792 178.702 189.55 178.944 189.253 178.944H187.181C184.91 178.944 183.062 177.095 183.062 174.823V174.516C183.062 172.244 184.91 170.395 187.181 170.395H195.155C197.5 170.395 199.703 171.309 201.362 172.967L206.516 178.123C207.565 179.174 208.143 180.571 208.143 182.054V182.332C208.143 183.817 207.565 185.212 206.516 186.262C206.411 186.367 206.272 186.421 206.133 186.421H206.135Z" fill="black"/>
<path d="M189.635 178.045H195.156C197.34 178.045 199.436 178.915 200.983 180.461L206.144 185.627C207.078 186.563 207.603 187.833 207.603 189.154V189.457C207.603 190.781 207.078 192.049 206.144 192.984L204.816 194.313L196.24 185.495H189.635C187.688 185.495 186.111 183.917 186.111 181.968V181.57C186.111 179.623 187.69 178.043 189.635 178.043V178.045Z" fill="#B9FF66"/>
<path d="M205.107 194.909C204.968 194.909 204.832 194.856 204.724 194.751C204.514 194.541 204.514 194.196 204.724 193.986L205.761 192.948C206.601 192.108 207.064 190.991 207.064 189.802V189.499C207.064 188.312 206.603 187.193 205.761 186.353L200.601 181.187C199.146 179.731 197.214 178.93 195.157 178.93H189.635C187.991 178.93 186.651 180.268 186.651 181.915V182.313C186.651 183.959 187.991 185.298 189.635 185.298H190.572C190.87 185.298 191.112 185.539 191.112 185.837C191.112 186.135 190.87 186.377 190.572 186.377H189.635C187.395 186.377 185.57 184.553 185.57 182.31V181.912C185.57 179.67 187.393 177.845 189.635 177.845H195.157C197.502 177.845 199.705 178.759 201.364 180.417L206.525 185.583C207.569 186.629 208.143 188.016 208.143 189.494V189.797C208.143 191.275 207.567 192.662 206.525 193.708L205.488 194.746C205.383 194.851 205.244 194.904 205.105 194.904L205.107 194.909Z" fill="black"/>
<path d="M203.864 220.215H182.865C182.568 220.215 182.326 219.973 182.326 219.675V207.313C182.326 207.015 182.568 206.773 182.865 206.773C183.163 206.773 183.405 207.015 183.405 207.313V219.132H203.322V211.143C203.322 211.03 203.356 210.923 203.42 210.83L204.545 209.235C205.545 207.818 206.072 206.15 206.072 204.416L206.082 200.18C206.082 197.613 205.04 195.1 203.22 193.287L195.185 185.278C194.773 184.867 194.226 184.64 193.645 184.64H193.243C192.04 184.64 191.061 185.62 191.061 186.824V187.188C191.061 188.849 191.708 190.412 192.882 191.587L198.486 197.195C198.589 197.295 198.645 197.435 198.645 197.579V200.166C198.645 202.862 200.838 205.058 203.532 205.058C203.83 205.058 204.071 205.3 204.071 205.598C204.071 205.896 203.83 206.138 203.532 206.138C200.241 206.138 197.564 203.458 197.564 200.163V197.801L192.118 192.349C190.739 190.969 189.98 189.135 189.98 187.185V186.821C189.98 185.021 191.444 183.556 193.243 183.556H193.645C194.514 183.556 195.331 183.893 195.949 184.508L203.984 192.518C206.004 194.533 207.163 197.325 207.163 200.178L207.153 204.413C207.153 206.372 206.558 208.253 205.428 209.855L204.403 211.311V219.67C204.403 219.968 204.162 220.21 203.864 220.21V220.215Z" fill="black"/>
<path d="M55.5797 226.402L52.437 220.635C52.437 220.635 56.4532 216.04 52.9664 210.339C52.1588 209.018 50.2556 206.443 48.6257 204.291C46.7713 201.844 45.2512 199.159 44.0995 196.314L42.7795 193.05C42.1158 191.411 40.2785 190.586 38.6144 191.182L38.2582 191.309C36.5722 191.912 35.6742 193.754 36.2379 195.454L39.8686 206.424H34.2664C31.3945 206.424 28.5812 205.622 26.1388 204.113L16.1543 198.204C14.4951 197.222 12.3675 197.616 11.167 199.128L10.962 199.386L5.92347 195.688C4.4058 194.648 2.33913 194.985 1.23138 196.455C0.143141 197.899 0.35542 199.938 1.71937 201.128L35.2765 230.347L39.1049 236.986L55.5821 226.407L55.5797 226.402Z" fill="#B9FF66"/>
<path d="M39.1005 236.981L55.5801 226.402L53.755 223.055L38.0488 235.153L39.1005 236.981Z" fill="black"/>
<path d="M39.0999 237.523C39.056 237.523 39.0145 237.518 38.9731 237.508C38.8291 237.474 38.7071 237.381 38.6339 237.254L34.8519 230.693L1.36309 201.531C-0.20826 200.163 -0.454698 197.789 0.799455 196.125C2.08289 194.421 4.4692 194.03 6.22843 195.236L10.8644 198.639C12.243 197.049 14.6 196.653 16.4276 197.733L26.412 203.641C28.7788 205.107 31.4921 205.879 34.2639 205.879H39.1195L35.723 195.62C35.074 193.656 36.128 191.489 38.0751 190.796L38.4314 190.669C40.3736 189.975 42.5037 190.93 43.2796 192.845L44.5997 196.108C45.7367 198.915 47.2349 201.558 49.0551 203.964C51.2828 206.905 52.7517 208.957 53.4251 210.056C56.558 215.178 53.9204 219.521 53.0786 220.684L56.053 226.14C56.1896 226.39 56.1091 226.702 55.87 226.854L39.3927 237.433C39.3049 237.489 39.2024 237.518 39.0999 237.518V237.523ZM3.9812 195.617C3.10036 195.617 2.23173 196.018 1.65833 196.778C0.743335 197.989 0.923894 199.719 2.06825 200.715L35.6254 229.931C35.6693 229.97 35.7084 230.017 35.7376 230.068L39.2829 236.216L54.8598 226.214L51.9587 220.889C51.8513 220.691 51.8781 220.444 52.027 220.273C52.1783 220.097 55.7309 215.896 52.5003 210.615C51.8562 209.56 50.3654 207.484 48.1913 204.611C46.3125 202.129 44.768 199.403 43.5944 196.509L42.2744 193.246C41.718 191.87 40.1882 191.184 38.7901 191.682L38.4338 191.809C37.0357 192.31 36.2769 193.864 36.7429 195.275L40.3736 206.245C40.4273 206.409 40.4004 206.592 40.298 206.731C40.1955 206.873 40.0345 206.956 39.8612 206.956H34.259C31.2847 206.956 28.3762 206.128 25.8459 204.562L15.8713 198.658C14.4512 197.818 12.6066 198.16 11.5818 199.452L11.3768 199.711C11.1962 199.938 10.8693 199.982 10.635 199.811L5.59647 196.113C5.10115 195.774 4.53752 195.61 3.97632 195.61L3.9812 195.617Z" fill="black"/>
<path d="M41.4969 211.778C41.2725 211.778 41.0626 211.636 40.9845 211.412L39.3546 206.597C39.2595 206.314 39.4107 206.009 39.6938 205.911C39.9768 205.816 40.2818 205.967 40.3794 206.25L42.0093 211.065C42.1045 211.348 41.9532 211.653 41.6702 211.751C41.6116 211.771 41.553 211.78 41.4969 211.78V211.778Z" fill="black"/>
<path d="M26.5096 210.83L23.7646 208.908C22.0201 207.686 20.6659 205.984 19.8704 204.008L15.5053 193.187C14.8782 191.631 13.1165 190.866 11.5525 191.472C10.0641 192.049 9.26624 193.673 9.71764 195.205L13.4118 207.74C13.7095 208.754 14.2097 209.697 14.8782 210.512L18.4821 214.912L26.5121 210.83H26.5096Z" fill="#B9FF66"/>
<path d="M14.8778 211.055C14.7217 211.055 14.5655 210.986 14.4606 210.857C13.7408 209.98 13.2138 208.983 12.8941 207.894L9.19999 195.358C8.67296 193.57 9.62211 191.641 11.3594 190.969C13.1869 190.261 15.2731 191.164 16.0076 192.984L19.3259 201.311C19.4357 201.589 19.3015 201.902 19.0234 202.014C18.7452 202.127 18.4329 201.99 18.3207 201.712L15.0023 193.387C14.4899 192.115 13.0283 191.482 11.7473 191.978C10.5298 192.449 9.86611 193.8 10.2345 195.053L13.9287 207.589C14.2093 208.536 14.668 209.406 15.2951 210.17C15.483 210.4 15.4512 210.742 15.2194 210.932C15.1194 211.016 14.9974 211.055 14.8778 211.055Z" fill="black"/>
<path d="M32.6244 217.264L30.2356 214.914C28.7155 213.422 27.6639 211.519 27.2027 209.438L24.6847 198.043C24.3236 196.404 22.7132 195.361 21.0711 195.698C19.507 196.02 18.4529 197.488 18.6433 199.076L20.2171 212.049C20.3439 213.097 20.6807 214.111 21.2053 215.026L24.0332 219.963L32.6268 217.264H32.6244Z" fill="#B9FF66"/>
<path d="M35.4831 219.89C35.3611 219.89 35.2367 219.848 35.1342 219.763L29.8858 215.327C28.2583 213.73 27.1579 211.741 26.6748 209.555L24.1567 198.16C23.859 196.817 22.5243 195.952 21.1799 196.228C19.9014 196.492 19.023 197.713 19.1791 199.01L20.2405 210.369C20.4577 212.704 21.5825 214.633 22.7732 216.675L22.8513 216.81C23.0026 217.069 22.9147 217.398 22.6561 217.55C22.3975 217.699 22.0681 217.613 21.9168 217.355L21.8387 217.22C20.587 215.071 19.4036 213.041 19.1645 210.469L18.1055 199.125C17.8835 197.288 19.1376 195.544 20.9603 195.168C22.883 194.775 24.7862 196.011 25.2108 197.926L27.7288 209.321C28.168 211.304 29.1635 213.104 30.6129 214.528L35.8296 218.937C36.0565 219.13 36.0858 219.472 35.893 219.699C35.7857 219.826 35.6344 219.89 35.4807 219.89H35.4831Z" fill="black"/>
<path d="M167.647 283.652H154.215V258.188H158.924L167.647 283.652Z" fill="white"/>
<path d="M167.647 284.192H154.215C153.917 284.192 153.676 283.95 153.676 283.652V258.19C153.676 257.892 153.917 257.65 154.215 257.65H158.924C159.156 257.65 159.361 257.797 159.434 258.017L168.157 283.479C168.213 283.645 168.186 283.826 168.086 283.967C167.984 284.109 167.82 284.194 167.647 284.194V284.192ZM154.754 283.11H166.891L158.539 258.73H154.754V283.11Z" fill="black"/>
<path d="M154.214 258.188V283.649H92.4776L86.8608 268.119L84.7746 273.803C83.6717 276.805 81.6953 279.297 79.1943 281.043C76.6933 282.79 73.6751 283.784 70.4811 283.784C65.1937 283.784 60.2893 281.043 57.5175 276.539L34.6914 239.472L55.5777 226.397L67.9728 246.057L73.0114 233.373C76.1004 225.776 82.4859 220.012 90.35 217.708L93.256 216.853C102.687 214.091 112.415 212.464 122.228 212.01L123.568 211.946C133.613 211.475 143.029 216.824 147.782 225.691L158.921 258.188H154.212H154.214Z" fill="white"/>
<path d="M70.4813 284.326C64.9669 284.326 59.9479 281.522 57.0589 276.825L34.2328 239.758C34.0767 239.504 34.1548 239.174 34.4061 239.015L55.2924 225.94C55.5437 225.781 55.8755 225.857 56.0366 226.109L67.8656 244.87L72.5138 233.173C75.6833 225.378 82.1298 219.553 90.2013 217.188L93.1073 216.333C102.572 213.561 112.364 211.924 122.207 211.468L123.546 211.402C133.736 210.93 143.439 216.431 148.263 225.432C148.278 225.459 148.288 225.483 148.297 225.513L159.436 258.009C159.492 258.175 159.465 258.356 159.365 258.498C159.263 258.639 159.099 258.725 158.926 258.725H154.756V283.647C154.756 283.945 154.514 284.187 154.217 284.187H92.4802C92.2533 284.187 92.0508 284.045 91.9727 283.83L86.8585 269.695L85.2847 273.986C84.1672 277.032 82.1688 279.627 79.5068 281.483C76.8472 283.339 73.7289 284.321 70.4862 284.321L70.4813 284.326ZM35.4358 239.648L57.9812 276.258C60.6725 280.633 65.3476 283.246 70.4837 283.246C73.5044 283.246 76.4105 282.333 78.8871 280.601C81.3661 278.869 83.2278 276.456 84.2697 273.618L86.3559 267.934C86.4339 267.721 86.6364 267.579 86.8634 267.579C87.0903 267.579 87.2928 267.724 87.3709 267.936L92.8584 283.11H153.678V258.188C153.678 257.89 153.919 257.648 154.217 257.648H158.17L147.292 225.908C142.656 217.296 133.365 212.024 123.6 212.486L122.26 212.552C112.5 213.004 102.796 214.626 93.4123 217.376L90.5063 218.231C82.752 220.503 76.5593 226.096 73.5166 233.581L68.4781 246.26C68.4024 246.448 68.2292 246.58 68.0267 246.6C67.8193 246.619 67.6289 246.522 67.5191 246.351L55.4095 227.147L35.4333 239.651L35.4358 239.648Z" fill="black"/>
<path d="M207.958 218.585V263.342C207.958 274.578 198.857 283.689 187.628 283.689H154.215V283.652H167.647L158.924 258.19H171.368C175.631 258.19 179.081 254.734 179.081 250.474V218.588H207.956L207.958 218.585Z" fill="white"/>
<path d="M187.628 284.228H154.215C153.917 284.228 153.676 283.986 153.676 283.688C153.676 283.39 153.917 283.11 154.215 283.11H166.893L158.414 258.363C158.358 258.197 158.385 258.016 158.485 257.875C158.587 257.733 158.751 257.648 158.924 257.648H171.368C175.323 257.648 178.542 254.428 178.542 250.471V218.585C178.542 218.287 178.783 218.045 179.081 218.045H207.956C208.253 218.045 208.495 218.287 208.495 218.585V263.341C208.495 274.858 199.133 284.228 187.623 284.228H187.628ZM168.047 283.146H187.628C198.54 283.146 207.419 274.262 207.419 263.341V219.127H179.623V250.474C179.623 255.027 175.921 258.73 171.371 258.73H159.683L168.047 283.149V283.146Z" fill="black"/>
<path d="M167.647 283.652H154.215V258.188H158.924L167.647 283.652Z" fill="white"/>
<path d="M167.647 284.192H154.215C153.917 284.192 153.676 283.95 153.676 283.652V258.19C153.676 257.892 153.917 257.65 154.215 257.65H158.924C159.156 257.65 159.361 257.797 159.434 258.017L168.157 283.479C168.213 283.645 168.186 283.826 168.086 283.967C167.984 284.109 167.82 284.194 167.647 284.194V284.192ZM154.754 283.11H166.891L158.539 258.73H154.754V283.11Z" fill="black"/>
<path d="M70.4813 284.326C64.9694 284.326 59.9503 281.522 57.0589 276.825L34.2328 239.756C34.0767 239.502 34.1548 239.172 34.4061 239.013L55.2924 225.94C55.5437 225.782 55.8755 225.857 56.0366 226.109L67.8656 244.868L72.5163 233.171C75.6882 225.374 82.1347 219.548 90.2013 217.186L93.1073 216.336C96.2134 215.427 99.3927 214.629 102.552 213.967C102.843 213.906 103.131 214.094 103.192 214.384C103.253 214.677 103.065 214.963 102.775 215.024C99.6416 215.681 96.4916 216.47 93.4123 217.372L90.5063 218.222C82.7544 220.491 76.5642 226.087 73.5191 233.574L68.4756 246.253C68.4 246.441 68.2267 246.573 68.0242 246.593C67.8193 246.612 67.6265 246.515 67.5167 246.344L55.4095 227.142L35.4333 239.643L57.9788 276.253C60.6725 280.628 65.3476 283.239 70.4813 283.239C76.6105 283.239 82.1518 279.37 84.2648 273.611L86.351 267.929C86.4291 267.717 86.6316 267.575 86.8585 267.575C87.0854 267.575 87.2879 267.719 87.366 267.931L92.8535 283.098C92.956 283.379 92.8096 283.689 92.529 283.791C92.2509 283.894 91.9385 283.747 91.8361 283.467L86.8536 269.693L85.2774 273.982C83.0082 280.164 77.0595 284.319 70.4789 284.319L70.4813 284.326Z" fill="black"/>
<path d="M75.5056 258.54C75.325 258.54 75.1518 258.449 75.0493 258.288L65.8212 243.654C65.6627 243.4 65.7383 243.068 65.9896 242.909C66.2434 242.75 66.5752 242.826 66.7338 243.078L75.9618 257.712C76.1204 257.966 76.0448 258.298 75.7935 258.457C75.7032 258.513 75.6056 258.54 75.5056 258.54Z" fill="black"/>
<path d="M86.8592 268.661C86.8031 268.661 86.7445 268.652 86.686 268.635C86.4029 268.539 86.2516 268.232 86.3468 267.951L92.3419 250.107C92.437 249.824 92.7445 249.672 93.025 249.768C93.3081 249.863 93.4594 250.171 93.3642 250.452L87.3692 268.295C87.2935 268.522 87.0837 268.664 86.8568 268.664L86.8592 268.661Z" fill="black"/>
<path d="M115.739 213.607C115.129 215.83 113.233 217.586 110.808 217.911L107.955 218.29C104.71 218.722 101.721 216.441 101.289 213.19L100.696 208.712L100.443 206.809L99.957 203.165L114.568 201.218L115.534 208.485L115.902 211.238C116.01 212.054 115.951 212.855 115.741 213.607H115.739Z" fill="#B9FF66"/>
<path d="M107.168 218.881C103.974 218.881 101.187 216.512 100.756 213.261L99.4209 203.236C99.4014 203.094 99.4405 202.95 99.5283 202.835C99.6161 202.721 99.743 202.647 99.887 202.628L114.498 200.681C114.79 200.639 115.066 200.85 115.105 201.145L116.44 211.165C116.557 212.044 116.496 212.914 116.262 213.749C115.574 216.255 113.461 218.099 110.882 218.444L108.029 218.822C107.741 218.861 107.453 218.879 107.17 218.879L107.168 218.881ZM100.563 203.629L101.824 213.119C102.217 216.067 104.935 218.148 107.883 217.753L110.735 217.374C112.885 217.086 114.644 215.552 115.217 213.463C115.217 213.463 115.217 213.463 115.217 213.461C115.413 212.767 115.461 212.044 115.364 211.309L114.1 201.827L100.56 203.629H100.563Z" fill="black"/>
<path d="M115.739 213.607C114.351 214.03 111.991 214.516 109.183 213.986C104.251 213.06 101.438 209.67 100.696 208.715L100.443 206.812L99.957 203.167L114.568 201.221L115.534 208.488L115.902 211.24C116.01 212.056 115.951 212.857 115.741 213.61L115.739 213.607Z" fill="black"/>
<path d="M96.9585 199.494L108.248 195.053L120.441 196.196L117.813 176.47L94.416 179.591L96.9585 199.494Z" fill="black"/>
<path d="M110.393 210.614C116.883 209.748 121.37 203.225 120.414 196.044C119.459 188.864 113.422 183.744 106.932 184.61C100.441 185.476 95.9545 191.999 96.9103 199.18C97.8662 206.36 103.903 211.48 110.393 210.614Z" fill="#B9FF66"/>
<path d="M108.954 211.248C106.182 211.248 103.488 210.236 101.233 208.324C98.5836 206.077 96.861 202.855 96.3803 199.247C95.8996 195.642 96.7195 192.078 98.6885 189.215C100.67 186.335 103.573 184.508 106.865 184.069C113.643 183.167 119.96 188.502 120.956 195.969C121.949 203.434 117.247 210.244 110.471 211.147C109.964 211.216 109.459 211.248 108.954 211.248ZM108.366 185.05C107.917 185.05 107.463 185.08 107.009 185.141C104.022 185.539 101.385 187.205 99.5791 189.828C97.7613 192.469 97.0074 195.764 97.4515 199.103C97.8955 202.442 99.4864 205.424 101.931 207.496C104.359 209.555 107.341 210.471 110.327 210.073C116.513 209.247 120.8 202.984 119.885 196.108C119.036 189.74 114.017 185.048 108.366 185.048V185.05Z" fill="black"/>
<path d="M114.791 203.893C114.193 204.762 113.324 205.456 112.248 205.823C109.85 206.638 107.271 205.551 106.129 203.377L114.791 203.893Z" fill="white"/>
<path d="M195.808 287.878H92.3283C92.0306 287.878 91.7891 287.636 91.7891 287.338V283.821C91.7891 283.523 92.0306 283.281 92.3283 283.281H195.808C196.106 283.281 196.347 283.523 196.347 283.821V287.338C196.347 287.636 196.106 287.878 195.808 287.878ZM92.8675 286.796H195.266V284.358H92.8675V286.796Z" fill="black"/>
<path d="M121.27 287.878C120.972 287.878 120.73 287.636 120.73 287.338V283.821C120.73 283.523 120.972 283.281 121.27 283.281C121.567 283.281 121.809 283.523 121.809 283.821V287.338C121.809 287.636 121.567 287.878 121.27 287.878Z" fill="black"/>
<path d="M136.508 232.701H211.793L196.143 283.923H120.857L136.508 232.701Z" fill="black"/>
<path d="M167.765 262.712C169.704 262.705 171.27 261.125 171.262 259.184C171.255 257.242 169.677 255.675 167.738 255.682C165.799 255.69 164.233 257.269 164.24 259.211C164.247 261.152 165.825 262.72 167.765 262.712Z" fill="white"/>
<path d="M106.668 159.235C106.492 159.235 106.324 159.149 106.221 158.998L92.1034 138.094H7.62127C7.32359 138.094 7.08203 137.852 7.08203 137.554V94.2195C7.08203 93.9215 7.32359 93.6797 7.62127 93.6797H106.668C106.965 93.6797 107.207 93.9215 107.207 94.2195V158.697C107.207 158.934 107.051 159.144 106.824 159.215C106.773 159.23 106.719 159.24 106.665 159.24L106.668 159.235ZM8.16295 137.012H92.3913C92.5694 137.012 92.7378 137.102 92.8378 137.251L106.128 156.931V94.7593H8.16295V137.012Z" fill="#020202"/>
<path d="M43.7623 104.322H24.2912C23.9935 104.322 23.752 104.08 23.752 103.782C23.752 103.484 23.9935 103.243 24.2912 103.243H43.7623C44.06 103.243 44.3015 103.484 44.3015 103.782C44.3015 104.08 44.06 104.322 43.7623 104.322Z" fill="#020202"/>
<path d="M89.0614 104.322H49.0431C48.7455 104.322 48.5039 104.08 48.5039 103.782C48.5039 103.484 48.7455 103.243 49.0431 103.243H89.0614C89.3591 103.243 89.6006 103.484 89.6006 103.782C89.6006 104.08 89.3591 104.322 89.0614 104.322Z" fill="#020202"/>
<path d="M58.4901 115.949H24.2912C23.9935 115.949 23.752 115.707 23.752 115.409C23.752 115.111 23.9935 114.87 24.2912 114.87H58.4925C58.7902 114.87 59.0317 115.111 59.0317 115.409C59.0317 115.707 58.7902 115.949 58.4925 115.949H58.4901Z" fill="#020202"/>
<path d="M89.0613 115.949H69.051C68.7533 115.949 68.5117 115.707 68.5117 115.409C68.5117 115.111 68.7533 114.87 69.051 114.87H89.0613C89.359 114.87 89.6005 115.111 89.6005 115.409C89.6005 115.707 89.359 115.949 89.0613 115.949Z" fill="#020202"/>
<path d="M43.7623 127.578H24.2912C23.9935 127.578 23.752 127.336 23.752 127.038C23.752 126.74 23.9935 126.499 24.2912 126.499H43.7623C44.06 126.499 44.3015 126.74 44.3015 127.038C44.3015 127.336 44.06 127.578 43.7623 127.578Z" fill="#020202"/>
<path d="M89.0614 127.578H49.0431C48.7455 127.578 48.5039 127.336 48.5039 127.038C48.5039 126.74 48.7455 126.499 49.0431 126.499H89.0614C89.3591 126.499 89.6006 126.74 89.6006 127.038C89.6006 127.336 89.3591 127.578 89.0614 127.578Z" fill="#020202"/>
<path d="M239.289 89.2631H137.822C137.525 89.2631 137.283 89.0213 137.283 88.7233V36.0188C137.283 35.7208 137.525 35.479 137.822 35.479H216.822C217.12 35.479 217.361 35.7208 217.361 36.0188V73.2297L239.592 88.2739C239.79 88.4058 239.875 88.6525 239.807 88.8796C239.736 89.1068 239.528 89.2631 239.289 89.2631ZM138.364 88.181H237.528L216.522 73.965C216.373 73.8648 216.285 73.6963 216.285 73.518V36.5586H138.367V88.181H138.364Z" fill="#020202"/>
<path d="M167.682 76.1021H153.195C152.898 76.1021 152.656 75.8603 152.656 75.5623C152.656 75.2643 152.898 75.0225 153.195 75.0225H167.682C167.979 75.0225 168.221 75.2643 168.221 75.5623C168.221 75.8603 167.979 76.1021 167.682 76.1021Z" fill="#020202"/>
<path d="M201.383 76.1021H171.608C171.31 76.1021 171.068 75.8603 171.068 75.5623C171.068 75.2643 171.31 75.0225 171.608 75.0225H201.383C201.68 75.0225 201.922 75.2643 201.922 75.5623C201.922 75.8603 201.68 76.1021 201.383 76.1021Z" fill="#020202"/>
<path d="M178.64 63.7305H153.194C152.896 63.7305 152.654 63.4887 152.654 63.1907C152.654 62.8927 152.896 62.6509 153.194 62.6509H178.64C178.938 62.6509 179.179 62.8927 179.179 63.1907C179.179 63.4887 178.938 63.7305 178.64 63.7305Z" fill="#020202"/>
<path d="M201.383 63.7305H186.496C186.199 63.7305 185.957 63.4887 185.957 63.1907C185.957 62.8927 186.199 62.6509 186.496 62.6509H201.383C201.68 62.6509 201.922 62.8927 201.922 63.1907C201.922 63.4887 201.68 63.7305 201.383 63.7305Z" fill="#020202"/>
<path d="M167.682 51.3609H153.195C152.898 51.3609 152.656 51.1191 152.656 50.8211C152.656 50.5231 152.898 50.2812 153.195 50.2812H167.682C167.979 50.2812 168.221 50.5231 168.221 50.8211C168.221 51.1191 167.979 51.3609 167.682 51.3609Z" fill="#020202"/>
<path d="M201.383 51.3609H171.608C171.31 51.3609 171.068 51.1191 171.068 50.8211C171.068 50.5231 171.31 50.2812 171.608 50.2812H201.383C201.68 50.2812 201.922 50.5231 201.922 50.8211C201.922 51.1191 201.68 51.3609 201.383 51.3609Z" fill="#020202"/>
<path d="M387.745 384.437C387.567 384.437 387.401 384.349 387.301 384.205C387.201 384.059 387.177 383.87 387.24 383.704C387.338 383.445 389.724 377.332 395.324 373.448C400.923 369.564 407.48 369.479 407.758 369.476H407.763C407.941 369.476 408.107 369.564 408.207 369.708C408.309 369.855 408.331 370.043 408.268 370.209C408.17 370.468 405.784 376.582 400.184 380.465C394.584 384.349 388.028 384.437 387.752 384.437H387.748H387.745ZM406.911 370.605C404.979 370.763 400.113 371.442 395.939 374.337C391.756 377.236 389.416 381.557 388.592 383.311C390.522 383.152 395.392 382.473 399.564 379.579C403.739 376.684 406.084 372.361 406.911 370.607V370.605Z" fill="black"/>
<path d="M387.676 407.007C387.378 407.007 387.137 406.765 387.137 406.467V384.102C387.137 383.804 387.378 383.562 387.676 383.562C387.974 383.562 388.215 383.804 388.215 384.102V406.467C388.215 406.765 387.974 407.007 387.676 407.007Z" fill="black"/>
<path d="M357.906 358.911C363.505 368.89 373.563 373.873 373.563 373.873C373.563 373.873 374.546 362.68 368.946 352.702C363.347 342.724 353.289 337.741 353.289 337.741C353.289 337.741 352.306 348.933 357.906 358.911Z" fill="#DFE3E8"/>
<path d="M373.564 374.415C373.481 374.415 373.4 374.395 373.324 374.359C373.222 374.307 363.05 369.185 357.435 359.178C351.818 349.17 352.741 337.807 352.753 337.695C352.767 337.516 352.87 337.358 353.026 337.27C353.182 337.184 353.37 337.177 353.529 337.258C353.631 337.309 363.804 342.431 369.418 352.438C375.035 362.446 374.113 373.809 374.1 373.921C374.086 374.1 373.983 374.258 373.827 374.346C373.744 374.393 373.654 374.415 373.564 374.415ZM353.785 338.625C353.695 341.386 353.797 350.487 358.377 358.648C362.962 366.818 370.67 371.635 373.068 372.991C373.158 370.231 373.056 361.129 368.476 352.969C363.891 344.798 356.183 339.984 353.785 338.625Z" fill="black"/>
<path d="M373.563 404.71C373.265 404.71 373.023 404.469 373.023 404.171V373.875C373.023 373.577 373.265 373.335 373.563 373.335C373.86 373.335 374.102 373.577 374.102 373.875V404.171C374.102 404.469 373.86 404.71 373.563 404.71Z" fill="black"/>
<path d="M401.132 350.428C393.293 364.4 379.204 371.381 379.204 371.381C379.204 371.381 377.828 355.707 385.67 341.733C393.51 327.761 407.598 320.78 407.598 320.78C407.598 320.78 408.974 336.454 401.132 350.428Z" fill="#B9FF66"/>
<path d="M379.204 371.921C379.114 371.921 379.021 371.897 378.938 371.853C378.782 371.765 378.68 371.606 378.665 371.428C378.65 371.269 377.365 355.424 385.197 341.466C393.029 327.509 407.215 320.367 407.357 320.296C407.518 320.218 407.706 320.223 407.862 320.308C408.018 320.396 408.118 320.555 408.135 320.733C408.15 320.892 409.436 336.737 401.603 350.695C393.771 364.652 379.585 371.796 379.443 371.865C379.368 371.901 379.285 371.921 379.204 371.921ZM407.106 321.657C404.131 323.303 392.79 330.147 386.139 341.999C379.483 353.86 379.551 367.109 379.695 370.507C382.669 368.86 394.01 362.016 400.662 350.165C407.318 338.303 407.25 325.054 407.106 321.657Z" fill="black"/>
<path d="M379.205 407.361C378.908 407.361 378.666 407.119 378.666 406.821V371.381C378.666 371.083 378.908 370.841 379.205 370.841C379.503 370.841 379.744 371.083 379.744 371.381V406.821C379.744 407.119 379.503 407.361 379.205 407.361Z" fill="black"/>
<path d="M355.189 402.845H408.035V424.496C408.035 436.917 397.962 447 385.555 447H377.669C365.262 447 355.189 436.917 355.189 424.496V402.845Z" fill="#DFE3E8"/>
<path d="M355.189 424.496C355.189 426.067 355.351 427.598 355.658 429.079C362.939 429.057 370.386 426.062 376.561 417.61C383.069 408.705 389.698 409.672 396.455 411.755C399.978 412.842 404.287 413.392 408.035 413.666V402.845H355.189V424.496Z" fill="black"/>
</g>
<defs>
<clipPath id="clip0_935_1827">
<rect width="445" height="447" fill="white"/>
</clipPath>
</defs>
</svg>
