<svg width="138" height="138" viewBox="0 0 138 138" fill="none" xmlns="http://www.w3.org/2000/svg">
<path d="M69.0976 20.2999L138 0L117.895 69.0976L138 138L69.0976 117.895L0 138L20.2999 69.0976L0 0L69.0976 20.2999Z" fill="#191A23"/>
<path d="M50.527 91.84C45.647 91.84 41.747 90.46 38.827 87.7C35.947 84.9 34.507 80.7 34.507 75.1V64.9C34.507 59.42 35.947 55.26 38.827 52.42C41.747 49.58 45.647 48.16 50.527 48.16C55.447 48.16 59.347 49.58 62.227 52.42C65.147 55.26 66.607 59.42 66.607 64.9V75.1C66.607 80.7 65.147 84.9 62.227 87.7C59.347 90.46 55.447 91.84 50.527 91.84ZM50.527 86.2C53.847 86.2 56.307 85.26 57.907 83.38C59.507 81.46 60.307 78.78 60.307 75.34V64.54C60.307 61.1 59.447 58.46 57.727 56.62C56.007 54.74 53.607 53.8 50.527 53.8C47.407 53.8 45.007 54.76 43.327 56.68C41.647 58.56 40.807 61.18 40.807 64.54V75.34C40.807 78.86 41.607 81.56 43.207 83.44C44.847 85.28 47.287 86.2 50.527 86.2ZM88.5389 91.84C85.4989 91.84 82.8189 91.26 80.4989 90.1C78.1789 88.9 76.3789 87.24 75.0989 85.12C73.8189 83 73.1789 80.54 73.1789 77.74V63.22C73.1789 59.94 73.8189 57.18 75.0989 54.94C76.4189 52.7 78.2589 51.02 80.6189 49.9C82.9789 48.74 85.7189 48.16 88.8389 48.16C91.9189 48.16 94.5789 48.7 96.8189 49.78C99.0589 50.82 100.779 52.32 101.979 54.28C103.179 56.2 103.779 58.46 103.779 61.06H97.4189C97.4189 58.98 96.7189 57.26 95.3189 55.9C93.9589 54.5 91.7989 53.8 88.8389 53.8C85.8389 53.8 83.5189 54.6 81.8789 56.2C80.2789 57.76 79.4789 59.94 79.4789 62.74V67.78H80.4389C81.1189 66.82 82.2189 65.9 83.7389 65.02C85.2989 64.14 87.4989 63.7 90.3389 63.7C92.8189 63.7 95.0989 64.24 97.1789 65.32C99.2589 66.4 100.919 67.94 102.159 69.94C103.439 71.94 104.079 74.36 104.079 77.2V77.92C104.079 80.68 103.419 83.12 102.099 85.24C100.779 87.32 98.9389 88.94 96.5789 90.1C94.2589 91.26 91.5789 91.84 88.5389 91.84ZM88.5989 86.2C91.3989 86.2 93.6189 85.44 95.2589 83.92C96.9389 82.4 97.7789 80.36 97.7789 77.8V77.32C97.7789 75.6 97.3989 74.12 96.6389 72.88C95.8789 71.6 94.7989 70.6 93.3989 69.88C92.0389 69.16 90.4389 68.8 88.5989 68.8C86.7989 68.8 85.1989 69.16 83.7989 69.88C82.4389 70.6 81.3789 71.6 80.6189 72.88C79.8589 74.12 79.4789 75.6 79.4789 77.32V77.8C79.4789 80.36 80.2989 82.4 81.9389 83.92C83.6189 85.44 85.8389 86.2 88.5989 86.2Z" fill="#B9FF66"/>
</svg>
