<svg width="138" height="138" viewBox="0 0 138 138" fill="none" xmlns="http://www.w3.org/2000/svg">
<path d="M69.0976 20.2999L138 0L117.895 69.0976L138 138L69.0976 117.895L0 138L20.2999 69.0976L0 0L69.0976 20.2999Z" fill="#191A23"/>
<path d="M50.7907 91.84C45.9107 91.84 42.0107 90.46 39.0907 87.7C36.2107 84.9 34.7707 80.7 34.7707 75.1V64.9C34.7707 59.42 36.2107 55.26 39.0907 52.42C42.0107 49.58 45.9107 48.16 50.7907 48.16C55.7107 48.16 59.6107 49.58 62.4907 52.42C65.4107 55.26 66.8707 59.42 66.8707 64.9V75.1C66.8707 80.7 65.4107 84.9 62.4907 87.7C59.6107 90.46 55.7107 91.84 50.7907 91.84ZM50.7907 86.2C54.1107 86.2 56.5707 85.26 58.1707 83.38C59.7707 81.46 60.5707 78.78 60.5707 75.34V64.54C60.5707 61.1 59.7107 58.46 57.9907 56.62C56.2707 54.74 53.8707 53.8 50.7907 53.8C47.6707 53.8 45.2707 54.76 43.5907 56.68C41.9107 58.56 41.0707 61.18 41.0707 64.54V75.34C41.0707 78.86 41.8707 81.56 43.4707 83.44C45.1107 85.28 47.5507 86.2 50.7907 86.2ZM88.3826 91.84C85.3026 91.84 82.5626 91.28 80.1626 90.16C77.7626 89.04 75.8826 87.42 74.5226 85.3C73.2026 83.18 72.5426 80.66 72.5426 77.74V76.66H78.8426V77.62C78.8426 80.26 79.7026 82.36 81.4226 83.92C83.1826 85.44 85.5026 86.2 88.3826 86.2C91.2626 86.2 93.5026 85.48 95.1026 84.04C96.7026 82.6 97.5026 80.78 97.5026 78.58V78.04C97.5026 76.48 97.1226 75.22 96.3626 74.26C95.6026 73.3 94.5826 72.6 93.3026 72.16C92.0226 71.68 90.5826 71.44 88.9826 71.44H81.3626V64.18L96.1226 55.48V54.64H73.5626V49H102.963V57.52L88.8626 65.92V66.76H91.4426C93.5626 66.76 95.5626 67.16 97.4426 67.96C99.3226 68.76 100.843 69.98 102.003 71.62C103.203 73.26 103.803 75.34 103.803 77.86V78.58C103.803 81.26 103.163 83.6 101.883 85.6C100.603 87.56 98.8026 89.1 96.4826 90.22C94.1626 91.3 91.4626 91.84 88.3826 91.84Z" fill="#B9FF66"/>
</svg>
