<svg width="138" height="138" viewBox="0 0 138 138" fill="none" xmlns="http://www.w3.org/2000/svg">
<path d="M69.0976 20.2999L138 0L117.895 69.0976L138 138L69.0976 117.895L0 138L20.2999 69.0976L0 0L69.0976 20.2999Z" fill="#191A23"/>
<path d="M51.5251 91.84C46.6451 91.84 42.7451 90.46 39.8251 87.7C36.9451 84.9 35.5051 80.7 35.5051 75.1V64.9C35.5051 59.42 36.9451 55.26 39.8251 52.42C42.7451 49.58 46.6451 48.16 51.5251 48.16C56.4451 48.16 60.3451 49.58 63.2251 52.42C66.1451 55.26 67.6051 59.42 67.6051 64.9V75.1C67.6051 80.7 66.1451 84.9 63.2251 87.7C60.3451 90.46 56.4451 91.84 51.5251 91.84ZM51.5251 86.2C54.8451 86.2 57.3051 85.26 58.9051 83.38C60.5051 81.46 61.3051 78.78 61.3051 75.34V64.54C61.3051 61.1 60.4451 58.46 58.7251 56.62C57.0051 54.74 54.6051 53.8 51.5251 53.8C48.4051 53.8 46.0051 54.76 44.3251 56.68C42.6451 58.56 41.8051 61.18 41.8051 64.54V75.34C41.8051 78.86 42.6051 81.56 44.2051 83.44C45.8451 85.28 48.2851 86.2 51.5251 86.2ZM88.997 91.84C85.837 91.84 83.097 91.26 80.777 90.1C78.457 88.94 76.657 87.3 75.377 85.18C74.137 83.06 73.517 80.6 73.517 77.8V77.14H79.937V77.74C79.937 80.3 80.717 82.36 82.277 83.92C83.877 85.44 86.097 86.2 88.937 86.2C91.857 86.2 94.117 85.4 95.717 83.8C97.317 82.2 98.117 80.04 98.117 77.32V76.78C98.117 74.18 97.317 72.1 95.717 70.54C94.157 68.98 92.157 68.2 89.717 68.2C88.357 68.2 87.217 68.42 86.297 68.86C85.417 69.26 84.697 69.76 84.137 70.36C83.617 70.96 83.177 71.54 82.817 72.1H74.837V49H102.977V54.7H81.137V67.06H82.097C82.497 66.38 83.057 65.74 83.777 65.14C84.537 64.5 85.517 63.98 86.717 63.58C87.917 63.18 89.357 62.98 91.037 62.98C93.517 62.98 95.757 63.52 97.757 64.6C99.797 65.64 101.417 67.2 102.617 69.28C103.817 71.32 104.417 73.8 104.417 76.72V77.38C104.417 80.3 103.797 82.84 102.557 85C101.317 87.16 99.537 88.84 97.217 90.04C94.937 91.24 92.197 91.84 88.997 91.84Z" fill="#B9FF66"/>
</svg>
