<svg width="138" height="138" viewBox="0 0 138 138" fill="none" xmlns="http://www.w3.org/2000/svg">
<path d="M69.0976 20.2999L138 0L117.895 69.0976L138 138L69.0976 117.895L0 138L20.2999 69.0976L0 0L69.0976 20.2999Z" fill="#191A23"/>
<path d="M50.5876 91.84C45.7076 91.84 41.8076 90.46 38.8876 87.7C36.0076 84.9 34.5676 80.7 34.5676 75.1V64.9C34.5676 59.42 36.0076 55.26 38.8876 52.42C41.8076 49.58 45.7076 48.16 50.5876 48.16C55.5076 48.16 59.4076 49.58 62.2876 52.42C65.2076 55.26 66.6676 59.42 66.6676 64.9V75.1C66.6676 80.7 65.2076 84.9 62.2876 87.7C59.4076 90.46 55.5076 91.84 50.5876 91.84ZM50.5876 86.2C53.9076 86.2 56.3676 85.26 57.9676 83.38C59.5676 81.46 60.3676 78.78 60.3676 75.34V64.54C60.3676 61.1 59.5076 58.46 57.7876 56.62C56.0676 54.74 53.6676 53.8 50.5876 53.8C47.4676 53.8 45.0676 54.76 43.3876 56.68C41.7076 58.56 40.8676 61.18 40.8676 64.54V75.34C40.8676 78.86 41.6676 81.56 43.2676 83.44C44.9076 85.28 47.3476 86.2 50.5876 86.2ZM92.9195 91V82.42H71.6795V75.1L87.7595 49H99.2195V76.84H106.299V82.42H99.2195V91H92.9195ZM77.7995 76.84H92.9195V52.96H91.9595L77.7995 76V76.84Z" fill="#B9FF66"/>
</svg>
