<svg width="138" height="138" viewBox="0 0 138 138" fill="none" xmlns="http://www.w3.org/2000/svg">
<path d="M69.0976 20.2999L138 0L117.895 69.0976L138 138L69.0976 117.895L0 138L20.2999 69.0976L0 0L69.0976 20.2999Z" fill="#191A23"/>
<path d="M51.5544 91.84C46.6744 91.84 42.7744 90.46 39.8544 87.7C36.9744 84.9 35.5344 80.7 35.5344 75.1V64.9C35.5344 59.42 36.9744 55.26 39.8544 52.42C42.7744 49.58 46.6744 48.16 51.5544 48.16C56.4744 48.16 60.3744 49.58 63.2544 52.42C66.1744 55.26 67.6344 59.42 67.6344 64.9V75.1C67.6344 80.7 66.1744 84.9 63.2544 87.7C60.3744 90.46 56.4744 91.84 51.5544 91.84ZM51.5544 86.2C54.8744 86.2 57.3344 85.26 58.9344 83.38C60.5344 81.46 61.3344 78.78 61.3344 75.34V64.54C61.3344 61.1 60.4744 58.46 58.7544 56.62C57.0344 54.74 54.6344 53.8 51.5544 53.8C48.4344 53.8 46.0344 54.76 44.3544 56.68C42.6744 58.56 41.8344 61.18 41.8344 64.54V75.34C41.8344 78.86 42.6344 81.56 44.2344 83.44C45.8744 85.28 48.3144 86.2 51.5544 86.2ZM73.7863 91V86.26C73.7863 83.34 74.2863 80.94 75.2863 79.06C76.2863 77.18 77.7063 75.66 79.5463 74.5C81.4263 73.3 83.6863 72.3 86.3262 71.5L89.9863 70.36C91.6263 69.84 93.0263 69.2 94.1863 68.44C95.3863 67.68 96.3063 66.74 96.9463 65.62C97.5863 64.46 97.9063 63.12 97.9063 61.6V61.36C97.9063 59 97.1063 57.16 95.5063 55.84C93.9063 54.48 91.8063 53.8 89.2063 53.8C86.5263 53.8 84.3463 54.52 82.6663 55.96C81.0263 57.4 80.2063 59.52 80.2063 62.32V63.28H73.9663V62.38C73.9663 59.34 74.6263 56.78 75.9463 54.7C77.2663 52.58 79.0863 50.96 81.4063 49.84C83.7263 48.72 86.3263 48.16 89.2063 48.16C92.0863 48.16 94.6463 48.7 96.8863 49.78C99.1663 50.86 100.946 52.38 102.226 54.34C103.546 56.3 104.206 58.6 104.206 61.24V61.78C104.206 64.5 103.666 66.76 102.586 68.56C101.506 70.36 100.006 71.84 98.0863 73C96.2063 74.16 94.0263 75.14 91.5463 75.94L88.0063 77.02C86.1263 77.58 84.6063 78.2 83.4463 78.88C82.3263 79.52 81.4863 80.3 80.9263 81.22C80.4063 82.14 80.1463 83.32 80.1463 84.76V85.36H103.846V91H73.7863Z" fill="#B9FF66"/>
</svg>
