<svg width="138" height="138" viewBox="0 0 138 138" fill="none" xmlns="http://www.w3.org/2000/svg">
<path d="M69.0976 20.2999L138 0L117.895 69.0976L138 138L69.0976 117.895L0 138L20.2999 69.0976L0 0L69.0976 20.2999Z" fill="#191A23"/>
<path d="M55.447 91.84C50.567 91.84 46.667 90.46 43.747 87.7C40.867 84.9 39.427 80.7 39.427 75.1V64.9C39.427 59.42 40.867 55.26 43.747 52.42C46.667 49.58 50.567 48.16 55.447 48.16C60.367 48.16 64.267 49.58 67.147 52.42C70.067 55.26 71.527 59.42 71.527 64.9V75.1C71.527 80.7 70.067 84.9 67.147 87.7C64.267 90.46 60.367 91.84 55.447 91.84ZM55.447 86.2C58.767 86.2 61.227 85.26 62.827 83.38C64.427 81.46 65.227 78.78 65.227 75.34V64.54C65.227 61.1 64.367 58.46 62.647 56.62C60.927 54.74 58.527 53.8 55.447 53.8C52.327 53.8 49.927 54.76 48.247 56.68C46.567 58.56 45.727 61.18 45.727 64.54V75.34C45.727 78.86 46.527 81.56 48.127 83.44C49.767 85.28 52.207 86.2 55.447 86.2ZM90.2188 91V53.44H89.2588L82.3588 67.6H75.6988L84.9988 49H96.5188V91H90.2188Z" fill="#B9FF66"/>
</svg>
