<svg width="475" height="475" viewBox="0 0 475 475" fill="none" xmlns="http://www.w3.org/2000/svg">
<g clip-path="url(#clip0_942_3216)">
<path d="M87.0322 144.919C98.3568 144.919 107.537 135.746 107.537 124.429C107.537 113.113 98.3568 103.939 87.0322 103.939C75.7077 103.939 66.5273 113.113 66.5273 124.429C66.5273 135.746 75.7077 144.919 87.0322 144.919Z" fill="white"/>
<path d="M86.9992 145.5C83.3886 145.5 79.8222 144.563 76.5987 142.728C71.7075 139.943 68.1931 135.422 66.7047 129.997C65.2163 124.572 65.9306 118.89 68.7178 114.002C71.5049 109.115 76.0298 105.603 81.4587 104.116C86.8875 102.628 92.5735 103.342 97.4646 106.127C102.356 108.912 105.87 113.434 107.359 118.859C108.847 124.284 108.133 129.966 105.346 134.853C102.558 139.741 98.0335 143.253 92.6047 144.74C90.7526 145.246 88.8694 145.498 86.9992 145.498V145.5ZM87.0641 104.502C85.2952 104.502 83.5159 104.739 81.7626 105.219C76.6272 106.626 72.3491 109.946 69.7126 114.568C67.0761 119.191 66.4008 124.564 67.8086 129.693C69.2165 134.825 72.5387 139.1 77.1649 141.734C81.7911 144.369 87.1654 145.044 92.3008 143.637C97.4361 142.23 101.714 138.91 104.351 134.287C106.987 129.665 107.663 124.292 106.255 119.163C104.847 114.031 101.525 109.756 96.8984 107.121C93.8515 105.388 90.4773 104.5 87.0615 104.5L87.0641 104.502Z" fill="black"/>
<path d="M87.9767 134.02C87.8183 134.02 87.665 133.955 87.5533 133.833L77.771 123.111C77.558 122.877 77.5736 122.516 77.8074 122.303C78.0412 122.091 78.4022 122.109 78.6152 122.34L87.3611 131.928C87.2182 123.962 88.1793 117.79 90.2937 113.089C90.4236 112.801 90.7613 112.671 91.0496 112.801C91.3379 112.931 91.4678 113.268 91.3379 113.556C89.1638 118.392 88.2521 124.891 88.5456 133.426C88.5534 133.665 88.4105 133.885 88.1897 133.976C88.1196 134.005 88.0468 134.018 87.9741 134.018L87.9767 134.02Z" fill="black"/>
<path d="M321.186 456.4H105.186C95.8787 456.4 89.2835 448.883 90.4576 439.611L143.645 19.7551C144.819 10.4835 153.318 2.96657 162.625 2.96657L367.78 0.570801C391.33 0.570801 394.524 10.4809 393.35 19.7525L340.166 439.611C338.992 448.883 330.493 456.4 321.186 456.4Z" fill="black"/>
<path d="M321.186 456.971H105.186C100.534 456.971 96.3777 455.167 93.4866 451.889C90.5774 448.59 89.2994 444.203 89.8916 439.539L143.079 19.6827C144.287 10.1515 153.056 2.39577 162.625 2.39577L367.775 0C379.028 0 386.761 2.30232 390.764 6.83948C393.587 10.0425 394.621 14.2889 393.92 19.8254L340.735 439.684C339.527 449.218 330.758 456.971 321.186 456.971ZM367.783 1.14208L162.633 3.53784C153.612 3.53784 145.351 10.8445 144.214 19.8254L91.0293 439.684C90.4813 444.019 91.6579 448.083 94.349 451.133C97.0192 454.16 100.869 455.829 105.188 455.829H321.186C330.202 455.829 338.46 448.522 339.6 439.541L392.784 19.6827C393.442 14.4914 392.501 10.5383 389.906 7.59741C386.13 3.31462 378.685 1.14467 367.783 1.14467V1.14208Z" fill="black"/>
<path d="M308.189 456.4H92.1915C82.8845 456.4 76.2894 448.86 77.4635 439.56L130.65 18.3644C131.825 9.06422 140.324 1.52393 149.631 1.52393H365.628C374.935 1.52393 381.53 9.06422 380.356 18.3644L327.172 439.56C325.998 448.86 317.499 456.4 308.192 456.4H308.189Z" fill="#DFE3E8"/>
<path d="M308.189 456.971H92.1913C87.5495 456.971 83.3987 455.167 80.5102 451.891C77.588 448.579 76.3048 444.174 76.8971 439.487L130.082 18.2916C131.289 8.72929 140.059 0.950195 149.631 0.950195H365.628C370.273 0.950195 374.421 2.75416 377.309 6.02984C380.231 9.34186 381.515 13.7466 380.922 18.4343L327.738 439.63C326.53 449.192 317.761 456.971 308.189 456.971ZM149.631 2.09487C140.614 2.09487 132.354 9.42492 131.217 18.4369L78.0322 439.632C77.4815 443.99 78.666 448.076 81.3674 451.139C84.0377 454.165 87.882 455.831 92.1913 455.831H308.189C317.205 455.831 325.465 448.501 326.603 439.489L379.787 18.2916C380.338 13.9335 379.154 9.84801 376.452 6.78517C373.782 3.75866 369.937 2.09227 365.628 2.09227H149.631V2.09487Z" fill="black"/>
<path d="M89.7732 440.138L140.555 37.9688C140.825 35.8222 142.789 34.0806 144.937 34.0806H362.098C364.246 34.0806 365.769 35.8222 365.498 37.9688L314.714 440.138C314.444 442.285 312.48 444.026 310.332 444.026H93.1734C91.0253 444.026 89.5031 442.285 89.7732 440.138Z" fill="white"/>
<path d="M310.331 444.597H93.1727C91.9726 444.597 90.8972 444.128 90.1466 443.276C89.3881 442.417 89.053 441.275 89.2062 440.065L139.988 37.8988C140.294 35.4797 142.513 33.5122 144.936 33.5122H362.098C363.298 33.5122 364.373 33.982 365.124 34.8334C365.882 35.6951 366.217 36.8346 366.064 38.0442L315.282 440.213C314.976 442.633 312.755 444.603 310.334 444.603L310.331 444.597ZM90.3388 440.211C90.2271 441.091 90.4635 441.911 91.0037 442.521C91.5362 443.123 92.3051 443.455 93.1727 443.455H310.334C312.202 443.455 313.911 441.934 314.147 440.068L364.929 37.8988C365.041 37.0189 364.804 36.1987 364.267 35.5887C363.734 34.9865 362.965 34.6543 362.098 34.6543H144.936C143.069 34.6543 141.359 36.1727 141.123 38.0416L90.3388 440.211Z" fill="black"/>
<path d="M254.923 22.9451C251.437 22.9451 248.967 20.1211 249.406 16.6352C249.845 13.1518 253.03 10.3252 256.515 10.3252C260.001 10.3252 262.472 13.1492 262.033 16.6352C261.594 20.1185 258.409 22.9451 254.923 22.9451Z" fill="black"/>
<mask id="mask0_942_3216" style="mask-type:luminance" maskUnits="userSpaceOnUse" x="89" y="34" width="277" height="411">
<path d="M89.7732 440.138L140.555 37.9688C140.825 35.8222 142.789 34.0806 144.937 34.0806H362.098C364.246 34.0806 365.769 35.8222 365.498 37.9688L314.714 440.138C314.444 442.285 312.48 444.026 310.332 444.026H93.1734C91.0253 444.026 89.5031 442.285 89.7732 440.138Z" fill="white"/>
</mask>
<g mask="url(#mask0_942_3216)">
<path d="M345.534 222.552H114.715L115.481 214.184H346.3L345.534 222.552Z" fill="black"/>
<path d="M319.044 423.383H90.3652L91.1263 415.015H319.805L319.044 423.383Z" fill="black"/>
<path d="M284.842 276.079C288.102 269.338 288.055 260.56 286.335 250.746L279.343 256.734L271.124 249.596C273.924 261.149 275.231 271.454 270.041 276.31L284.839 276.079H284.842Z" fill="black"/>
<path d="M242.953 414.836H272.708C277.845 414.836 282.399 410.699 282.911 405.565L295.548 278.875C296.067 273.676 292.246 269.437 287.043 269.437H253.587C248.343 269.437 243.73 273.741 243.361 278.981L234.428 405.671C234.069 410.764 237.859 414.836 242.955 414.836H242.953Z" fill="white"/>
<path d="M272.704 415.407H242.95C240.329 415.407 237.942 414.395 236.23 412.56C234.513 410.717 233.669 408.256 233.853 405.632L242.786 278.942C243.178 273.387 248.023 268.866 253.584 268.866H287.04C289.71 268.866 292.129 269.909 293.846 271.807C295.576 273.717 296.381 276.245 296.111 278.932L283.474 405.622C282.936 411.018 278.102 415.407 272.702 415.407H272.704ZM253.584 270.008C248.61 270.008 244.28 274.052 243.926 279.02L234.993 405.71C234.83 408.017 235.567 410.172 237.066 411.778C238.56 413.38 240.651 414.262 242.95 414.262H272.704C277.536 414.262 281.858 410.335 282.339 405.507L294.976 278.817C295.212 276.458 294.511 274.239 292.999 272.572C291.5 270.919 289.386 270.008 287.04 270.008H253.584Z" fill="black"/>
<path d="M253.729 290.822H282.541C284.684 290.822 286.578 289.085 286.772 286.947C286.967 284.805 285.388 283.071 283.245 283.071H254.433C252.29 283.071 250.397 284.808 250.202 286.947C250.007 289.088 251.586 290.822 253.729 290.822Z" fill="black"/>
<path d="M253.883 310.051H278.162C281.557 310.051 284.557 307.302 284.866 303.909L285.128 301.023C285.437 297.631 282.933 294.882 279.541 294.882H255.262C251.867 294.882 248.867 297.631 248.558 301.023L248.295 303.909C247.986 307.302 250.49 310.051 253.883 310.051Z" fill="black"/>
<path d="M98.5364 414.836H126.086C130.842 414.836 135.086 410.699 135.595 405.565L148.149 278.875C148.664 273.676 145.157 269.437 140.338 269.437H109.36C104.505 269.437 100.204 273.741 99.8273 278.981L90.7022 405.671C90.336 410.764 93.8167 414.836 98.5364 414.836Z" fill="white"/>
<path d="M126.087 415.407H98.5373C96.2203 415.407 94.0825 414.483 92.5188 412.804C90.7811 410.937 89.9343 408.391 90.1343 405.632L99.2594 278.942C99.6594 273.387 104.192 268.866 109.364 268.866H140.342C142.7 268.866 144.867 269.821 146.438 271.552C148.166 273.457 149 276.146 148.724 278.932L136.17 405.622C135.635 411.018 131.113 415.407 126.092 415.407H126.087ZM109.361 270.01C104.777 270.01 100.756 274.054 100.4 279.025L91.2746 405.715C91.098 408.155 91.8382 410.398 93.3552 412.028C94.7007 413.473 96.5398 414.268 98.5373 414.268H126.087C130.539 414.268 134.549 410.34 135.027 405.513L147.581 278.823C147.825 276.359 147.098 273.992 145.586 272.323C144.236 270.833 142.371 270.01 140.339 270.01H109.361Z" fill="black"/>
<path d="M93.2352 413.287C93.2196 413.287 93.204 413.287 93.1884 413.287C92.8741 413.261 92.6403 412.986 92.6637 412.672L97.4873 353.761C97.5133 353.447 97.7886 353.211 98.1029 353.237C98.4173 353.263 98.651 353.538 98.6277 353.852L93.804 412.762C93.7807 413.061 93.5287 413.287 93.2352 413.287Z" fill="black"/>
<path d="M111.145 287.09H136.131C138.274 287.09 140.167 285.353 140.362 283.215L140.523 281.449C140.718 279.308 139.139 277.574 136.996 277.574H112.01C109.867 277.574 107.974 279.311 107.779 281.449L107.618 283.215C107.423 285.356 109.002 287.09 111.145 287.09Z" fill="black"/>
<path d="M110.937 310.694H131.39C134.785 310.694 137.785 307.945 138.094 304.553L138.671 298.215C138.98 294.822 136.476 292.073 133.084 292.073H112.631C109.236 292.073 106.236 294.822 105.927 298.215L105.35 304.553C105.041 307.945 107.545 310.694 110.937 310.694Z" fill="black"/>
<path d="M190.153 269.92L160.422 269.683C155.289 269.642 150.705 273.748 150.151 278.88L136.512 405.557C135.953 410.756 139.735 415.028 144.933 415.07L178.366 415.335C183.608 415.376 188.249 411.104 188.66 405.866L198.598 279.16C198.998 274.067 195.242 269.961 190.151 269.922L190.153 269.92Z" fill="white"/>
<path d="M178.44 415.906C178.414 415.906 178.386 415.906 178.36 415.906L144.927 415.641C142.259 415.62 139.854 414.556 138.152 412.648C136.435 410.725 135.651 408.184 135.939 405.495L149.579 278.818C150.158 273.45 154.977 269.11 160.343 269.11C160.369 269.11 160.395 269.11 160.421 269.11L190.152 269.346C192.771 269.367 195.145 270.395 196.841 272.243C198.545 274.099 199.371 276.57 199.166 279.199L189.228 405.905C188.794 411.433 183.962 415.903 178.44 415.903V415.906ZM160.346 270.255C155.548 270.255 151.236 274.138 150.719 278.942L137.08 405.619C136.825 407.981 137.511 410.208 139.01 411.89C140.493 413.554 142.599 414.481 144.937 414.499L178.37 414.764C178.393 414.764 178.419 414.764 178.443 414.764C183.383 414.764 187.703 410.766 188.09 405.822L198.028 279.116C198.21 276.806 197.49 274.641 196.002 273.021C194.521 271.41 192.443 270.511 190.147 270.493L160.416 270.257C160.392 270.257 160.369 270.257 160.346 270.257V270.255Z" fill="black"/>
<path d="M174.7 384.641L153.657 384.475C149.376 384.442 145.563 387.883 145.142 392.164L144.519 398.476C144.095 402.756 147.223 406.253 151.504 406.286L172.546 406.453C176.827 406.486 180.64 403.044 181.061 398.764L181.684 392.452C182.108 388.172 178.98 384.675 174.7 384.641Z" fill="black"/>
<path d="M181.698 370.28L150.985 370.036C149.374 370.023 147.943 371.318 147.782 372.927L147.514 375.624C147.356 377.233 148.53 378.549 150.14 378.56L180.856 378.804C182.467 378.817 183.898 377.522 184.059 375.912L184.327 373.215C184.485 371.606 183.311 370.29 181.7 370.28H181.698Z" fill="black"/>
<path d="M182.334 361.429L151.353 361.185C149.818 361.172 148.449 362.407 148.299 363.944C148.148 365.48 149.27 366.734 150.805 366.747L181.786 366.991C183.321 367.004 184.69 365.769 184.841 364.232C184.991 362.695 183.869 361.442 182.334 361.429Z" fill="black"/>
<path d="M338.161 269.273L308.43 269.037C303.297 268.995 298.712 273.102 298.159 278.233L284.52 404.91C283.961 410.109 287.743 414.382 292.941 414.423L326.374 414.688C331.615 414.73 336.257 410.457 336.668 405.219L346.606 278.514C347.006 273.421 343.25 269.315 338.159 269.276L338.161 269.273Z" fill="white"/>
<path d="M326.452 415.259C326.423 415.259 326.397 415.259 326.371 415.259L292.938 414.994C290.271 414.974 287.866 413.909 286.164 412.002C284.447 410.078 283.663 407.537 283.951 404.848L297.591 278.171C298.17 272.801 302.988 268.463 308.355 268.463C308.381 268.463 308.407 268.463 308.433 268.463L338.164 268.7C340.78 268.72 343.157 269.751 344.853 271.599C346.557 273.455 347.383 275.926 347.177 278.555L337.239 405.261C336.806 410.789 331.974 415.259 326.452 415.259ZM308.357 269.608C303.56 269.608 299.248 273.491 298.731 278.296L285.091 404.973C284.837 407.335 285.523 409.562 287.021 411.244C288.504 412.908 290.611 413.834 292.951 413.852L326.384 414.117C331.359 414.14 335.715 410.146 336.104 405.175L346.042 278.47C346.224 276.159 345.505 273.995 344.016 272.375C342.536 270.763 340.458 269.865 338.161 269.847L308.43 269.611C308.407 269.611 308.383 269.611 308.36 269.611L308.357 269.608Z" fill="black"/>
<path d="M317.886 415.589C317.862 415.589 317.839 415.589 317.813 415.584C317.499 415.545 317.278 415.259 317.317 414.945L335.723 269.188C335.762 268.876 336.048 268.653 336.362 268.692C336.676 268.731 336.897 269.016 336.858 269.33L318.452 415.088C318.416 415.376 318.169 415.589 317.886 415.589Z" fill="black"/>
<path d="M322.709 383.995L301.667 383.829C297.386 383.795 293.573 387.237 293.152 391.517L292.529 397.83C292.105 402.11 295.233 405.606 299.513 405.64L320.556 405.806C324.837 405.84 328.65 402.398 329.071 398.118L329.694 391.805C330.117 387.525 326.99 384.029 322.709 383.995Z" fill="black"/>
<path d="M329.706 369.633L298.992 369.389C297.382 369.376 295.951 370.672 295.79 372.281L295.522 374.978C295.364 376.587 296.538 377.903 298.148 377.913L328.864 378.157C330.475 378.17 331.906 376.875 332.067 375.266L332.334 372.569C332.493 370.96 331.319 369.644 329.708 369.633H329.706Z" fill="black"/>
<path d="M330.346 360.785L299.365 360.541C297.83 360.528 296.461 361.763 296.31 363.3C296.16 364.836 297.282 366.09 298.817 366.103L329.798 366.347C331.333 366.36 332.702 365.125 332.853 363.588C333.003 362.051 331.881 360.798 330.346 360.785Z" fill="black"/>
<path d="M239.691 273.013C241.224 274.7 241.949 277.221 241.684 279.925L229.262 406.615C228.79 411.443 225.27 415.37 221.418 415.37H197.352C195.788 415.37 194.37 414.734 193.25 413.53C191.741 411.905 190.988 409.46 191.183 406.82L200.609 280.13C200.98 275.16 204.508 271.116 208.477 271.116H235.538C237.13 271.116 238.564 271.772 239.691 273.013ZM237.26 282.934C237.437 280.964 235.985 279.367 234.013 279.367H209.29C207.318 279.367 205.575 280.964 205.396 282.934L204.69 290.728C204.511 292.696 205.963 294.295 207.934 294.295H232.66C234.629 294.295 236.372 292.696 236.551 290.728L237.26 282.934ZM235.102 303.68C235.302 301.456 233.663 299.655 231.436 299.655H207.635C205.409 299.655 203.44 301.456 203.238 303.68L202.996 306.354C202.794 308.578 204.435 310.382 206.661 310.382H230.462C232.689 310.382 234.655 308.578 234.857 306.354L235.102 303.68Z" fill="#B9FF66"/>
<path d="M234.014 279.367C235.986 279.367 237.438 280.963 237.261 282.934L236.552 290.728C236.373 292.696 234.63 294.295 232.661 294.295H207.935C205.964 294.295 204.512 292.696 204.691 290.728L205.397 282.934C205.576 280.963 207.319 279.367 209.291 279.367H234.014Z" fill="black"/>
<path d="M231.438 299.655C233.664 299.655 235.303 301.456 235.103 303.681L234.859 306.354C234.656 308.579 232.69 310.383 230.464 310.383H206.662C204.436 310.383 202.795 308.579 202.997 306.354L203.239 303.681C203.442 301.456 205.41 299.655 207.637 299.655H231.438Z" fill="black"/>
<path d="M242.253 279.983C242.763 274.784 239.747 270.545 235.539 270.545H208.478C204.236 270.545 200.431 274.848 200.041 280.089L190.614 406.779C190.235 411.869 193.23 415.942 197.352 415.942H221.419C225.575 415.942 229.328 411.804 229.832 406.673L242.253 279.983ZM235.539 269.971C237.435 269.971 239.209 270.778 240.539 272.245C242.287 274.171 243.121 277.011 242.822 280.037L230.401 406.727C229.874 412.123 225.842 416.515 221.419 416.515H197.352C195.49 416.515 193.734 415.731 192.412 414.309C190.687 412.45 189.825 409.691 190.043 406.735L199.469 280.045C199.882 274.49 203.924 269.971 208.478 269.971H235.539Z" fill="black"/>
<path d="M241.684 279.925C241.949 277.221 241.225 274.7 239.692 273.013C238.565 271.773 237.131 271.116 235.539 271.116H208.478C204.509 271.116 200.981 275.16 200.61 280.131L191.183 406.821C190.988 409.46 191.742 411.905 193.251 413.53C194.37 414.735 195.789 415.371 197.352 415.371H221.419C225.271 415.371 228.79 411.443 229.263 406.616L241.684 279.925ZM235.539 270.545C239.747 270.545 242.762 274.784 242.253 279.983L229.832 406.673C229.328 411.804 225.575 415.942 221.419 415.942H197.352C193.23 415.942 190.235 411.869 190.614 406.779L200.041 280.089C200.43 274.848 204.236 270.545 208.478 270.545H235.539Z" fill="black"/>
<path d="M198.341 73.9677C196.307 67.2269 197.946 58.4485 201.447 48.6344L207.352 54.6225L216.866 47.4819C211.967 59.0351 208.788 69.3397 213.097 74.1961L198.341 73.9651V73.9677Z" fill="black"/>
<path d="M205.162 213.69H175.407C170.269 213.69 166.466 209.553 166.887 204.419L177.262 77.7287C177.688 72.5297 182.278 68.291 187.481 68.291H220.937C226.181 68.291 230.012 72.5946 229.431 77.8351L215.352 204.525C214.786 209.618 210.256 213.69 205.159 213.69H205.162Z" fill="white"/>
<path d="M205.162 214.262H175.407C172.766 214.262 170.368 213.236 168.654 211.378C166.932 209.509 166.103 207.022 166.319 204.372L176.693 77.6822C177.143 72.1873 181.982 67.7202 187.481 67.7202H220.937C223.628 67.7202 226.057 68.7766 227.776 70.6974C229.509 72.6337 230.298 75.1904 229.997 77.9003L215.919 204.59C215.316 210.015 210.588 214.264 205.157 214.264L205.162 214.262ZM187.481 68.8623C182.564 68.8623 178.236 72.8596 177.834 77.7757L167.459 204.466C167.269 206.794 167.992 208.972 169.495 210.604C170.992 212.227 173.09 213.12 175.407 213.12H205.162C209.939 213.12 214.256 209.236 214.786 204.463L228.865 77.7731C229.13 75.3929 228.441 73.1503 226.927 71.4605C225.428 69.7863 223.301 68.8649 220.94 68.8649H187.483L187.481 68.8623Z" fill="black"/>
<path d="M206.85 186.229H178.038C175.895 186.229 174.316 184.492 174.51 182.353C174.705 180.212 176.599 178.478 178.742 178.478H207.554C209.697 178.478 211.276 180.215 211.081 182.353C210.886 184.495 208.993 186.229 206.85 186.229Z" fill="black"/>
<path d="M203.207 205.46H178.928C175.533 205.46 173.031 202.711 173.34 199.319L173.603 196.432C173.912 193.04 176.912 190.291 180.307 190.291H204.586C207.981 190.291 210.482 193.04 210.173 196.432L209.911 199.319C209.602 202.711 206.602 205.46 203.207 205.46Z" fill="black"/>
<path d="M353.676 213.69H326.127C321.371 213.69 317.877 209.553 318.3 204.419L328.761 77.7287C329.189 72.5297 333.467 68.291 338.286 68.291H369.264C374.119 68.291 377.638 72.5946 377.064 77.8351L363.175 204.525C362.617 209.618 358.396 213.69 353.676 213.69Z" fill="white"/>
<path d="M353.676 214.262H326.127C323.794 214.262 321.643 213.325 320.077 211.624C318.36 209.761 317.503 207.116 317.729 204.372L328.189 77.6822C328.644 72.1899 333.171 67.7202 338.283 67.7202H369.261C371.638 67.7202 373.812 68.6858 375.386 70.4404C377.122 72.3742 377.937 75.0918 377.631 77.8977L363.742 204.588C363.147 210.013 358.726 214.262 353.674 214.262H353.676ZM338.286 68.8623C333.753 68.8623 329.737 72.8596 329.332 77.7757L318.872 204.466C318.672 206.893 319.417 209.221 320.919 210.851C322.267 212.312 324.116 213.12 326.127 213.12H353.676C358.076 213.12 362.084 209.236 362.607 204.463L376.495 77.7731C376.768 75.2891 376.054 72.8933 374.537 71.2036C373.184 69.6955 371.311 68.8649 369.264 68.8649H338.286V68.8623Z" fill="black"/>
<path d="M343.536 214.749C343.513 214.749 343.489 214.75 343.466 214.744C343.152 214.705 342.928 214.42 342.967 214.108L355.207 114.898C355.246 114.584 355.539 114.364 355.843 114.4C356.158 114.439 356.381 114.724 356.342 115.038L344.102 214.249C344.066 214.539 343.819 214.749 343.536 214.749Z" fill="black"/>
<path d="M355.563 181.855H330.577C328.434 181.855 326.855 180.119 327.049 177.98L327.21 176.215C327.405 174.074 329.299 172.34 331.442 172.34H356.428C358.571 172.34 360.15 174.076 359.955 176.215L359.794 177.98C359.599 180.122 357.706 181.855 355.563 181.855Z" fill="black"/>
<path d="M351.482 205.46H331.029C327.634 205.46 325.133 202.711 325.442 199.319L326.018 192.98C326.328 189.588 329.328 186.839 332.723 186.839H353.176C356.571 186.839 359.072 189.588 358.763 192.98L358.186 199.319C357.877 202.711 354.877 205.46 351.482 205.46Z" fill="black"/>
<path d="M310.193 77.4849C314.477 77.4849 317.633 80.9552 317.243 85.2354L316.672 91.548C316.282 95.8282 312.495 99.2985 308.211 99.2985H287.153C282.87 99.2985 279.711 95.8282 280.101 91.548L280.675 85.2354C281.065 80.9552 284.852 77.4849 289.135 77.4849H310.193Z" fill="black"/>
<path d="M313.257 105.18C314.868 105.18 316.055 106.483 315.909 108.092L315.663 110.789C315.517 112.399 314.094 113.704 312.483 113.704H281.744C280.134 113.704 278.946 112.399 279.095 110.789L279.339 108.092C279.484 106.483 280.91 105.18 282.521 105.18H313.257Z" fill="black"/>
<path d="M280.943 116.99C279.405 116.99 278.046 118.236 277.906 119.773C277.769 121.307 278.901 122.553 280.439 122.553H311.443C312.978 122.553 314.337 121.307 314.477 119.773C314.617 118.236 313.485 116.99 311.947 116.99H280.943ZM323.677 71.8263C325.192 73.516 325.88 75.7586 325.615 78.1388L311.534 204.829C311.007 209.602 306.687 213.485 301.913 213.485H272.158C269.841 213.485 267.742 212.592 266.246 210.97C264.742 209.34 264.02 207.16 264.209 204.831L274.584 78.1414C274.987 73.2279 279.314 69.228 284.234 69.228H317.69C320.051 69.228 322.178 70.1521 323.677 71.8263ZM317.243 85.2353C317.633 80.9551 314.477 77.4847 310.193 77.4847H289.135C284.852 77.4847 281.065 80.9551 280.675 85.2353L280.101 91.5478C279.711 95.828 282.87 99.2984 287.153 99.2984H308.212C312.495 99.2984 316.282 95.828 316.672 91.5478L317.243 85.2353ZM315.908 108.092C316.054 106.483 314.866 105.18 313.256 105.18H282.519C280.909 105.18 279.483 106.483 279.337 108.092L279.093 110.789C278.945 112.399 280.132 113.704 281.743 113.704H312.482C314.092 113.704 315.516 112.399 315.661 110.789L315.908 108.092Z" fill="#B9FF66"/>
<path d="M314.477 119.773C314.336 121.307 312.978 122.553 311.443 122.553H280.438C278.901 122.553 277.768 121.307 277.906 119.773C278.046 118.236 279.405 116.99 280.942 116.99H311.946C313.484 116.99 314.617 118.236 314.477 119.773Z" fill="black"/>
<path d="M272.159 214.056C267.021 214.056 263.22 209.919 263.641 204.784L274.016 78.0944C274.442 72.8954 279.032 68.6567 284.234 68.6567H317.691C322.935 68.6567 326.766 72.9629 326.185 78.2009L312.103 204.891C311.54 209.984 307.01 214.056 301.913 214.056H272.159ZM264.21 204.831C264.02 207.159 264.743 209.34 266.247 210.97C267.743 212.592 269.842 213.485 272.159 213.485H301.913C306.688 213.485 311.007 209.602 311.534 204.829L325.616 78.1386C325.881 75.7584 325.192 73.5158 323.678 71.826C322.179 70.1518 320.052 69.2278 317.691 69.2278H284.234C279.315 69.2278 274.987 73.2276 274.585 78.1412L264.21 204.831Z" fill="black"/>
<path d="M263.641 204.785C263.22 209.919 267.02 214.056 272.158 214.056H301.913C307.009 214.056 311.539 209.984 312.103 204.891L326.184 78.2011C326.766 72.9631 322.935 68.657 317.69 68.657H284.234C279.031 68.657 274.441 72.8956 274.015 78.0947L263.641 204.785ZM265.405 211.744C263.682 209.877 262.851 207.388 263.069 204.738L273.444 78.048C273.896 72.5556 278.735 68.0859 284.234 68.0859H317.69C320.381 68.0859 322.81 69.1424 324.53 71.0631C326.265 72.9995 327.052 75.5562 326.753 78.266L312.672 204.953C312.069 210.378 307.344 214.627 301.913 214.627H272.158C269.519 214.627 267.119 213.605 265.405 211.744Z" fill="black"/>
<path d="M251.513 214.796H228.488C224.511 214.796 221.638 210.658 222.049 205.524L232.182 78.8342C232.597 73.6351 236.221 69.3965 240.247 69.3965H266.139C270.197 69.3965 273.09 73.7 272.553 78.9406L259.552 205.631C259.03 210.723 255.456 214.796 251.513 214.796Z" fill="white"/>
<path d="M251.513 215.367H228.489C226.717 215.367 225.107 214.638 223.834 213.259C222.093 211.375 221.236 208.541 221.48 205.48L231.613 78.7903C232.052 73.2954 235.925 68.8257 240.248 68.8257H266.14C267.914 68.8257 269.587 69.5966 270.852 70.9956C272.618 72.9501 273.444 75.8676 273.124 79.0005L260.124 205.691C259.568 211.118 255.786 215.37 251.516 215.37L251.513 215.367ZM240.248 69.9704C236.51 69.9704 233.146 73.9676 232.754 78.8811L222.621 205.571C222.402 208.315 223.151 210.835 224.675 212.483C225.727 213.623 227.047 214.225 228.491 214.225H251.516C255.144 214.225 258.498 210.345 258.986 205.574L271.987 78.8837C272.27 76.1142 271.53 73.4511 270.005 71.7613C268.945 70.5881 267.61 69.9678 266.142 69.9678H240.25L240.248 69.9704Z" fill="black"/>
<path d="M262.854 89.4296H239.198C237.313 89.4296 235.923 87.8333 236.094 85.8632L236.448 81.7881C236.619 79.818 238.287 78.2217 240.173 78.2217H263.828C265.714 78.2217 267.104 79.818 266.932 81.7881L266.579 85.8632C266.408 87.8333 264.74 89.4296 262.854 89.4296Z" fill="black"/>
<path d="M261.625 101.512H238.855C236.725 101.512 235.156 99.7084 235.348 97.484C235.54 95.2595 237.423 93.4556 239.553 93.4556H262.323C264.453 93.4556 266.022 95.2595 265.83 97.484C265.638 99.7084 263.755 101.512 261.625 101.512Z" fill="black"/>
<path d="M154.282 214.153H130.995C126.974 214.153 124.067 210.015 124.483 204.881L134.73 78.1911C135.151 72.9921 138.813 68.7534 142.886 68.7534H169.07C173.174 68.7534 176.098 73.057 175.556 78.2975L162.409 204.988C161.882 210.08 158.266 214.153 154.279 214.153H154.282Z" fill="white"/>
<path d="M154.282 214.724H130.996C129.219 214.724 127.538 213.963 126.263 212.585C124.523 210.7 123.668 207.876 123.912 204.834L134.159 78.1443C134.604 72.6494 138.518 68.1797 142.884 68.1797H169.07C170.878 68.1797 172.577 68.961 173.86 70.3808C175.624 72.3353 176.45 75.2398 176.128 78.3545L162.982 205.045C162.418 210.472 158.597 214.721 154.282 214.721V214.724ZM142.887 69.327C139.102 69.327 135.7 73.3242 135.302 78.2403L125.055 204.93C124.834 207.653 125.582 210.163 127.107 211.811C128.177 212.969 129.523 213.582 130.998 213.582H154.285C157.961 213.582 161.35 209.701 161.846 204.93L174.993 78.2403C175.283 75.45 174.561 72.8648 173.013 71.1517C171.935 69.9577 170.574 69.327 169.075 69.327H142.89H142.887Z" fill="black"/>
<path d="M165.75 88.7865H141.826C139.92 88.7865 138.515 87.1902 138.686 85.2201L139.044 81.145C139.219 79.1749 140.904 77.5786 142.811 77.5786H166.734C168.641 77.5786 170.046 79.1749 169.875 81.145L169.516 85.2201C169.342 87.1902 167.656 88.7865 165.75 88.7865Z" fill="black"/>
<path d="M164.507 100.866H141.48C139.326 100.866 137.739 99.0624 137.934 96.838C138.129 94.6135 140.036 92.8096 142.189 92.8096H165.216C167.369 92.8096 168.956 94.6135 168.762 96.838C168.567 99.0624 166.66 100.866 164.507 100.866Z" fill="black"/>
</g>
<path d="M444.789 197.037C444.617 197.037 444.446 196.959 444.334 196.814C444.142 196.562 444.191 196.204 444.441 196.012L445.76 195.002C447.005 194.052 448.483 192.139 448.496 192.121C448.688 191.872 449.046 191.825 449.298 192.017C449.548 192.209 449.597 192.568 449.402 192.819C449.337 192.902 447.818 194.87 446.454 195.913L445.134 196.923C445.03 197.001 444.908 197.04 444.786 197.04L444.789 197.037Z" fill="black"/>
<path d="M442.544 194.522C442.336 194.522 442.139 194.41 442.035 194.213C441.89 193.933 441.999 193.588 442.279 193.442L443.755 192.676C445.144 191.955 446.929 190.325 446.947 190.309C447.181 190.096 447.542 190.112 447.755 190.343C447.968 190.577 447.952 190.937 447.719 191.15C447.641 191.22 445.804 192.897 444.282 193.689L442.807 194.454C442.723 194.499 442.633 194.519 442.544 194.519V194.522Z" fill="black"/>
<path d="M391.874 167.444C387.829 167.966 365.839 172.413 363.971 197.17C363.927 197.738 364.226 198.283 364.719 198.566L377.434 205.881C377.912 206.156 378.2 206.667 378.182 207.217C378.042 211.744 377.315 232.32 375.392 240.963C373.894 247.701 372.852 253.196 372.353 255.942C372.177 256.911 372.972 257.778 373.953 257.689C377.065 257.404 383.24 256.716 387.31 255.467C392.422 253.897 394.679 250.899 407.036 256.02C409.631 257.095 412.571 256.95 415.054 255.636C421.821 252.059 435.907 245.71 445.619 248.916C446.721 249.279 447.793 248.314 447.541 247.182C446.123 240.828 443.157 228.574 442.84 222.098C442.445 214.007 447.1 187.06 444.934 184.246C442.871 181.567 433.788 175.405 427.65 173.718C425.403 173.1 423.039 173.041 421.143 172.573C416.387 171.403 403.204 165.975 391.874 167.442V167.444Z" fill="black"/>
<path d="M373.811 258.271C373.234 258.271 372.691 258.034 372.296 257.603C371.857 257.126 371.673 256.485 371.79 255.846C372.278 253.157 373.325 247.631 374.834 240.844C376.756 232.2 377.486 211.305 377.611 207.204C377.621 206.867 377.445 206.55 377.149 206.381L364.434 199.067C363.748 198.672 363.343 197.912 363.4 197.131C365.366 171.044 389.1 167.229 391.801 166.881C400.96 165.697 411.296 168.95 417.47 170.891C419.008 171.374 420.335 171.792 421.281 172.026C422.104 172.228 423.031 172.353 424.013 172.485C425.252 172.651 426.53 172.822 427.803 173.173C434.105 174.904 443.222 181.084 445.388 183.903C446.697 185.603 445.996 193.131 444.69 205.325C443.949 212.227 443.251 218.747 443.414 222.077C443.687 227.645 445.96 237.638 447.464 244.252C447.698 245.274 447.911 246.222 448.1 247.065C448.264 247.797 448.03 248.537 447.474 249.038C446.916 249.541 446.157 249.702 445.44 249.466C436.074 246.375 422.548 252.327 415.322 256.15C412.672 257.552 409.571 257.7 406.818 256.557C396.827 252.415 393.664 253.663 390.001 255.106C389.209 255.418 388.391 255.742 387.479 256.02C383.396 257.274 377.286 257.967 374.008 258.265C373.943 258.271 373.878 258.273 373.816 258.273L373.811 258.271ZM391.874 167.444L391.947 168.01C389.341 168.348 366.442 172.028 364.54 197.214C364.514 197.559 364.696 197.896 365.003 198.073L377.717 205.387C378.38 205.769 378.775 206.477 378.754 207.238C378.627 211.357 377.894 232.348 375.951 241.09C374.445 247.86 373.403 253.367 372.917 256.049C372.865 256.334 372.948 256.617 373.141 256.83C373.335 257.043 373.611 257.149 373.899 257.123C377.133 256.827 383.154 256.147 387.139 254.922C388.009 254.655 388.806 254.341 389.578 254.037C393.31 252.565 396.835 251.177 407.251 255.496C409.693 256.508 412.439 256.376 414.784 255.135C422.174 251.226 436.029 245.152 445.796 248.376C446.116 248.482 446.456 248.41 446.703 248.187C446.949 247.963 447.053 247.636 446.981 247.309C446.794 246.468 446.578 245.521 446.344 244.501C444.83 237.848 442.544 227.798 442.266 222.129C442.1 218.711 442.804 212.149 443.549 205.2C444.464 196.671 445.601 186.058 444.479 184.596C442.401 181.897 433.406 175.896 427.497 174.271C426.299 173.941 425.06 173.775 423.86 173.614C422.847 173.477 421.888 173.349 421.005 173.131C420.023 172.89 418.681 172.467 417.125 171.979C411.039 170.063 400.859 166.86 391.947 168.013L391.874 167.447V167.444Z" fill="white"/>
<path d="M370.13 227.754C373.912 233.397 378.289 235.196 387.824 232.738C397.36 230.28 417.582 215.814 427.58 202.037C427.58 202.037 428.268 200.773 430.221 201.004C432.175 201.232 440.217 204.334 446.191 199.052C452.165 193.77 450.739 189.983 450.44 189.266C449.937 188.051 441.022 189.604 438.609 188.529C436.196 187.454 436.224 185.788 438.035 183.322C440.196 180.379 435.377 179.709 431.715 184.929C429.489 188.103 425.741 192.277 422.351 193.993C418.847 195.766 383.227 208.575 381.39 208.004C379.551 207.433 367.984 200.448 367.984 200.448C367.984 200.448 366.01 221.608 370.13 227.754Z" fill="white"/>
<path d="M380.698 234.378C375.838 234.378 372.545 232.387 369.654 228.071C365.469 221.826 367.334 201.266 367.415 200.393C367.433 200.199 367.55 200.025 367.726 199.937C367.903 199.848 368.111 199.856 368.28 199.957C371.48 201.891 380.104 207.005 381.558 207.456C383.566 207.698 417.911 195.597 422.093 193.481C425.436 191.792 429.114 187.641 431.246 184.599C433.384 181.552 435.961 180.34 437.569 180.493C438.268 180.56 438.782 180.882 439.016 181.404C439.213 181.843 439.281 182.587 438.496 183.659C437.538 184.965 437.164 185.941 437.351 186.647C437.491 187.179 437.979 187.623 438.842 188.007C439.909 188.482 442.673 188.373 445.112 188.277C448.793 188.132 450.58 188.106 450.969 189.045C451.567 190.483 452.336 194.382 446.572 199.477C441.304 204.134 434.623 202.579 431.413 201.829C430.862 201.702 430.428 201.6 430.155 201.567C428.644 201.39 428.101 202.275 428.077 202.314C428.067 202.33 428.054 202.353 428.041 202.369C418.144 216.009 397.736 230.77 387.966 233.288C385.19 234.004 382.797 234.375 380.698 234.375V234.378ZM368.477 201.414C368.163 205.512 367.121 222.241 370.604 227.437C373.916 232.379 377.774 234.739 387.681 232.185C397.263 229.714 417.329 215.176 427.101 201.72C427.259 201.463 428.163 200.186 430.288 200.435C430.623 200.474 431.085 200.583 431.67 200.718C434.693 201.421 440.985 202.888 445.813 198.623C450.941 194.089 450.434 190.805 449.938 189.546C449.44 189.253 446.972 189.349 445.159 189.422C442.47 189.528 439.691 189.637 438.377 189.053C437.177 188.518 436.48 187.828 436.244 186.943C435.958 185.868 436.382 184.609 437.574 182.987C437.984 182.429 438.049 182.048 437.974 181.876C437.893 181.697 437.59 181.648 437.462 181.637C436.428 181.539 434.176 182.424 432.187 185.261C429.979 188.409 426.145 192.721 422.612 194.507C420.508 195.571 383.595 209.283 381.223 208.552C379.608 208.051 371.15 203.015 368.482 201.416L368.477 201.414Z" fill="black"/>
<path d="M444.286 200.401L444.148 201.667L443.356 208.979C442.54 215.416 443.174 220.662 443.174 220.662C443.161 222.684 444.395 225.064 445.912 226.401C447.66 227.943 448.574 228.26 450 228.779C455.362 230.728 457.7 230.126 459.648 224.589C461.593 219.053 460.907 215.621 456.328 198.459C456.328 198.459 455.068 194.994 458.619 192.666C461.772 190.597 460.731 185.626 457.824 181.865C453.185 175.864 443.457 199.601 444.291 200.401H444.286Z" fill="white"/>
<path d="M454.441 230.365C453.225 230.365 451.744 230.022 449.807 229.316L449.739 229.29C448.344 228.784 447.336 228.418 445.536 226.83C443.809 225.306 442.606 222.788 442.606 220.694C442.546 220.18 442.001 215.134 442.791 208.907L443.702 200.5C443.614 200.188 443.679 199.666 443.993 198.61C445.03 195.142 450.788 181.263 455.599 180.37C456.311 180.238 457.355 180.329 458.275 181.518C460.379 184.238 461.433 187.431 461.028 189.847C460.792 191.259 460.067 192.401 458.932 193.146C455.82 195.189 456.822 198.145 456.867 198.27C461.571 215.889 462.179 219.123 460.189 224.782C459.191 227.619 458.075 229.202 456.565 229.916C455.937 230.214 455.246 230.365 454.441 230.365ZM444.809 200.165C444.851 200.258 444.869 200.359 444.858 200.463L443.928 209.044C443.128 215.341 443.741 220.546 443.747 220.598C443.749 220.621 443.752 220.644 443.752 220.67C443.741 222.435 444.812 224.667 446.295 225.978C447.931 227.421 448.76 227.723 450.131 228.221L450.199 228.247C453.103 229.303 454.807 229.488 456.077 228.888C457.287 228.317 458.223 226.933 459.111 224.408C460.992 219.058 460.389 215.894 455.778 198.615C455.778 198.615 454.428 194.74 458.306 192.196C459.181 191.623 459.716 190.771 459.903 189.665C460.256 187.553 459.288 184.7 457.373 182.224C456.807 181.492 456.204 181.307 455.412 181.619C451.02 183.361 444.812 198.524 444.812 200.17L444.809 200.165Z" fill="black"/>
<path d="M447.473 189.157C447.473 189.157 439.597 190 437.155 188.074C435.347 186.649 438.722 182.382 438.976 182.047C441.114 179.231 446.101 172.672 446.847 171.74C447.519 170.899 448.803 168.893 450.481 169.04C452.159 169.188 461.445 170.715 462.123 171.013C463.538 171.636 462.941 173.604 461.905 174.686C460.868 175.771 447.473 189.157 447.473 189.157Z" fill="black"/>
<path d="M443.728 189.912C441.252 189.912 438.234 189.652 436.803 188.523C434.894 187.018 437.042 183.628 438.491 181.744C440.172 179.532 445.616 172.366 446.401 171.384C446.479 171.288 446.564 171.174 446.658 171.05C447.437 170.027 448.741 168.314 450.531 168.472C451.938 168.597 461.521 170.126 462.352 170.492C462.965 170.762 463.355 171.244 463.485 171.885C463.71 173.015 463.061 174.305 462.318 175.083C461.29 176.16 448.424 189.017 447.879 189.562C447.788 189.655 447.666 189.712 447.536 189.725C447.388 189.741 445.738 189.912 443.728 189.912ZM450.31 169.606C449.196 169.606 448.182 170.938 447.569 171.743C447.468 171.875 447.377 171.994 447.294 172.098C446.517 173.069 441.081 180.225 439.431 182.395C437.808 184.508 436.605 186.914 437.509 187.628C439.307 189.045 444.936 188.832 447.211 188.612C448.663 187.163 460.529 175.301 461.49 174.297C462.105 173.65 462.482 172.713 462.362 172.111C462.308 171.839 462.157 171.657 461.89 171.54C461.245 171.288 452.245 169.775 450.429 169.614C450.388 169.612 450.349 169.609 450.307 169.609L450.31 169.606Z" fill="white"/>
<path d="M381.842 254.639C381.842 254.639 374.237 317.835 373.299 330.026C372.361 342.218 370.954 384.887 373.299 405.99C374.819 419.661 375.873 428.803 376.427 433.548C376.684 435.749 378.549 437.405 380.764 437.405H396.264C397.056 437.405 397.7 436.771 397.711 435.98C397.781 430.288 398.29 408.606 401.921 390.045C406.145 368.475 410.836 334.714 413.184 321.115C413.966 316.578 414.626 311.53 415.182 306.593L416.938 311.737C418.694 316.882 425.385 351.593 427.26 365.192C428.967 377.56 431.84 427.175 432.346 436.045C432.39 436.81 433.024 437.405 433.79 437.405H453.638C454.381 437.405 455.004 436.844 455.077 436.104C455.999 426.908 461.436 371.341 460.576 346.438C459.638 319.241 447.438 286.887 445.09 277.979C442.744 269.071 439.596 246.476 439.596 246.476C439.596 246.476 392.014 247.192 381.837 254.639H381.842Z" fill="white"/>
<path d="M453.641 437.976H433.794C432.723 437.976 431.838 437.143 431.778 436.076C431.227 426.402 428.388 377.526 426.697 365.27C424.79 351.448 418.149 317.046 416.398 311.922L415.46 309.176C414.909 313.796 414.346 317.752 413.748 321.214C412.933 325.938 411.837 333.081 410.569 341.351C408.195 356.824 405.241 376.078 402.485 390.157C398.888 408.529 398.361 429.88 398.285 435.988C398.272 437.086 397.366 437.979 396.267 437.979H380.768C378.261 437.979 376.152 436.102 375.861 433.615C375.362 429.335 374.292 420.064 372.733 406.052C370.45 385.51 371.697 343.422 372.733 329.982C373.661 317.918 381.204 255.202 381.279 254.571C381.297 254.413 381.381 254.273 381.51 254.179C391.716 246.712 437.648 245.936 439.599 245.907C439.602 245.907 439.604 245.907 439.607 245.907C439.893 245.907 440.134 246.117 440.173 246.4C440.204 246.626 443.345 269.063 445.654 277.836C446.121 279.606 446.981 282.319 448.072 285.75C452.381 299.325 460.405 324.591 461.158 346.42C462.013 371.157 456.724 425.517 455.657 436.164C455.553 437.2 454.691 437.979 453.649 437.979L453.641 437.976ZM415.185 306.022C415.426 306.022 415.647 306.175 415.725 306.409L417.481 311.553C419.242 316.716 425.918 351.256 427.83 365.114C429.528 377.415 432.367 426.329 432.918 436.011C432.944 436.47 433.329 436.831 433.791 436.831H453.639C454.091 436.831 454.465 436.494 454.509 436.045C455.576 425.411 460.857 371.118 460.005 346.454C459.257 324.783 451.264 299.611 446.971 286.09C445.875 282.641 445.012 279.918 444.537 278.119C442.404 270.018 439.581 250.442 439.1 247.052C434.006 247.158 392.119 248.23 382.375 254.953C381.851 259.321 374.762 318.414 373.863 330.065C372.832 343.472 371.585 385.451 373.863 405.92C375.422 419.926 376.489 429.198 376.991 433.475C377.214 435.386 378.835 436.829 380.762 436.829H396.262C396.737 436.829 397.129 436.442 397.137 435.967C397.212 429.836 397.745 408.399 401.361 389.931C404.112 375.876 407.065 356.634 409.436 341.172C410.707 332.897 411.803 325.749 412.618 321.014C413.317 316.963 413.969 312.223 414.611 306.526C414.642 306.261 414.852 306.051 415.117 306.022C415.138 306.022 415.159 306.019 415.18 306.019L415.185 306.022Z" fill="black"/>
<path d="M415.205 306.995C415.185 306.995 415.161 306.995 415.141 306.993C414.826 306.956 414.6 306.673 414.637 306.359C414.956 303.54 415.263 300.535 415.554 297.433C416.128 291.325 420.221 285.999 425.985 283.868L429.411 282.601C429.71 282.492 430.037 282.643 430.146 282.939C430.256 283.235 430.105 283.564 429.809 283.673L426.383 284.94C421.029 286.921 417.224 291.868 416.691 297.539C416.4 300.649 416.089 303.66 415.772 306.489C415.738 306.78 415.491 306.998 415.203 306.998L415.205 306.995Z" fill="black"/>
<path d="M449.282 437.4H436.635C435.739 437.4 434.931 437.937 434.588 438.765C433.466 441.49 431.182 447.86 431.489 453.9C431.572 455.551 432.946 456.843 434.601 456.843H471.712C473.418 456.843 474.714 455.286 474.374 453.614C473.964 451.613 472.553 448.981 468.486 446.617C461.898 442.786 453.617 438.957 451.007 437.771C450.467 437.524 449.879 437.397 449.285 437.397L449.282 437.4Z" fill="white"/>
<path d="M471.711 457.417H434.6C432.634 457.417 431.018 455.886 430.917 453.931C430.6 447.704 433.008 441.098 434.058 438.55C434.486 437.503 435.497 436.829 436.632 436.829H449.279C449.96 436.829 450.619 436.971 451.238 437.252C453.666 438.355 462.111 442.253 468.768 446.124C473.132 448.662 474.53 451.535 474.93 453.5C475.125 454.458 474.883 455.444 474.26 456.205C473.631 456.973 472.701 457.415 471.706 457.415L471.711 457.417ZM436.634 437.971C435.967 437.971 435.369 438.368 435.117 438.983C434.097 441.462 431.756 447.876 432.06 453.874C432.128 455.221 433.245 456.275 434.6 456.275H471.711C472.361 456.275 472.966 455.987 473.379 455.486C473.782 454.993 473.94 454.354 473.813 453.734C473.457 451.997 472.195 449.441 468.194 447.115C461.584 443.274 453.183 439.393 450.765 438.295C450.295 438.082 449.796 437.973 449.279 437.973H436.632L436.634 437.971Z" fill="black"/>
<path d="M450.999 446.266C450.851 446.266 450.703 446.209 450.591 446.095C450.371 445.869 450.373 445.509 450.599 445.288L455.922 440.055C456.145 439.835 456.509 439.837 456.729 440.063C456.95 440.289 456.948 440.65 456.722 440.87L451.399 446.103C451.288 446.212 451.142 446.266 450.999 446.266Z" fill="black"/>
<path d="M454.431 448.411C454.283 448.411 454.135 448.353 454.023 448.239C453.802 448.013 453.805 447.653 454.031 447.432L459.353 442.199C459.577 441.979 459.94 441.981 460.161 442.207C460.382 442.433 460.379 442.794 460.153 443.014L454.831 448.247C454.719 448.356 454.574 448.411 454.431 448.411Z" fill="black"/>
<path d="M393.475 437.4H380.828C379.932 437.4 379.124 437.937 378.781 438.765C377.659 441.49 375.376 447.86 375.682 453.9C375.765 455.551 377.14 456.843 378.794 456.843H415.905C417.612 456.843 418.908 455.286 418.568 453.614C418.157 451.613 416.747 448.981 412.676 446.617C406.089 442.786 397.808 438.957 395.198 437.771C394.657 437.524 394.07 437.397 393.475 437.397V437.4Z" fill="white"/>
<path d="M415.907 457.417H378.796C376.829 457.417 375.214 455.886 375.112 453.931C374.796 447.704 377.203 441.098 378.253 438.55C378.684 437.503 379.695 436.829 380.827 436.829H393.474C394.155 436.829 394.815 436.971 395.433 437.252C397.864 438.355 406.309 442.256 412.964 446.124C417.328 448.662 418.725 451.535 419.125 453.5C419.32 454.458 419.078 455.444 418.455 456.205C417.826 456.973 416.896 457.415 415.904 457.415L415.907 457.417ZM380.83 437.971C380.162 437.971 379.565 438.368 379.313 438.983C378.292 441.462 375.951 447.876 376.255 453.872C376.323 455.219 377.44 456.272 378.796 456.272H415.907C416.556 456.272 417.161 455.984 417.572 455.483C417.974 454.99 418.133 454.352 418.006 453.731C417.65 451.995 416.387 449.436 412.387 447.113C405.782 443.271 397.376 439.391 394.958 438.293C394.487 438.08 393.989 437.971 393.472 437.971H380.824H380.83Z" fill="black"/>
<path d="M393.773 445.809C393.625 445.809 393.477 445.752 393.365 445.638C393.144 445.412 393.147 445.052 393.373 444.831L398.695 439.598C398.918 439.377 399.282 439.38 399.503 439.606C399.724 439.832 399.721 440.193 399.495 440.413L394.173 445.646C394.061 445.755 393.915 445.809 393.773 445.809Z" fill="black"/>
<path d="M397.204 447.954C397.056 447.954 396.908 447.896 396.796 447.782C396.576 447.556 396.578 447.196 396.804 446.975L402.127 441.742C402.35 441.522 402.714 441.524 402.934 441.75C403.155 441.976 403.153 442.337 402.927 442.557L397.604 447.79C397.493 447.899 397.347 447.954 397.204 447.954Z" fill="black"/>
<path d="M408.05 136.201C408.327 136.294 408.621 136.413 408.935 136.567C408.935 136.567 409.637 136.995 410.278 138.168C410.92 139.341 411.987 142.973 413.377 142.757C414.767 142.544 416.476 136.886 416.476 136.886C416.476 136.886 417.011 134.111 421.284 135.178C425.557 136.245 428.869 138.059 430.152 138.807C431.435 139.554 432.609 139.767 433.89 139.661C435.173 139.554 439.339 137.099 438.591 133.148C437.843 129.198 434.209 126.514 431.006 126.529C427.671 126.547 422.887 124.393 422.032 123.967C421.177 123.542 416.149 121.481 413.408 123.007C410.964 124.37 408.909 126.529 407.792 130.267C407.081 132.652 407.629 134.84 407.704 135.559C407.733 135.842 407.785 136.11 408.055 136.201H408.05Z" fill="black"/>
<path d="M430.686 139.203C430.767 139.248 430.814 139.333 430.809 139.424C430.764 140.076 430.619 142.772 431.027 145.205C431.253 146.546 432.115 149.809 431.751 150.481C431.388 151.154 430.042 151.206 429.421 151.154C428.801 151.102 427.764 151.361 427.504 151.878C427.245 152.394 426.468 157.207 426.159 158.346C425.847 159.486 424.813 160.83 422.896 160.623C422.652 160.597 421.935 160.436 421.379 160.306C420.977 160.212 420.574 160.48 420.509 160.89C419.59 166.733 425.499 173.318 426.92 174.818C427.065 174.974 427.014 175.228 426.819 175.314C413.714 181.029 400.233 171.163 396.55 168.098C396.386 167.96 403.433 166.055 406.802 157.959C408.283 154.398 407.787 148.859 407.841 146.658C407.852 146.214 407.602 145.804 407.2 145.62C406.314 145.212 405.025 143.857 404.654 142.523C404.119 140.603 404.332 134.474 409.413 136.93C409.413 136.93 410.114 137.358 410.756 138.531C411.397 139.704 412.465 143.336 413.854 143.12C415.244 142.907 416.953 137.249 416.953 137.249C416.953 137.249 417.488 134.474 421.761 135.541C425.616 136.504 429.892 138.773 430.689 139.206L430.686 139.203Z" fill="white"/>
<path d="M418.27 177.653C408.101 177.653 399.181 171.031 396.183 168.537C396.03 168.41 395.952 168.207 395.98 168.01C396.03 167.67 396.253 167.571 396.7 167.374C401.212 165.399 404.433 162.157 406.272 157.736C407.41 155.001 407.332 150.998 407.282 148.348C407.269 147.671 407.259 147.087 407.269 146.638C407.275 146.419 407.152 146.222 406.96 146.131C405.911 145.649 404.513 144.141 404.103 142.669C403.711 141.259 403.687 137.875 405.404 136.442C406.129 135.837 407.454 135.341 409.664 136.408C409.799 136.486 410.563 136.979 411.259 138.251C411.425 138.557 411.607 138.983 411.815 139.479C412.215 140.426 413.153 142.645 413.768 142.549C414.311 142.448 415.566 139.853 416.4 137.096C416.449 136.891 416.722 135.941 417.722 135.305C418.745 134.654 420.15 134.544 421.899 134.981C425.813 135.959 430.133 138.248 430.959 138.697C431.234 138.848 431.398 139.147 431.377 139.458C431.341 139.98 431.185 142.705 431.59 145.106C431.647 145.441 431.743 145.895 431.85 146.399C432.385 148.932 432.572 150.16 432.255 150.749C431.66 151.852 429.751 151.751 429.374 151.72C428.847 151.676 428.12 151.927 428.018 152.13C427.896 152.408 427.559 154.206 427.314 155.52C427.078 156.781 426.855 157.973 426.714 158.492C426.304 159.997 424.938 161.414 422.839 161.186C422.756 161.178 422.506 161.15 421.254 160.856C421.202 160.843 421.161 160.864 421.14 160.877C421.117 160.893 421.088 160.921 421.078 160.973C420.223 166.398 425.655 172.638 427.34 174.421C427.535 174.629 427.618 174.919 427.561 175.2C427.504 175.48 427.314 175.716 427.052 175.833C424.096 177.123 421.135 177.647 418.272 177.647L418.27 177.653ZM397.609 168.22C402.02 171.724 414.21 179.932 426.249 174.935C424.239 172.75 419.052 166.479 419.945 160.799C420.002 160.449 420.202 160.132 420.499 159.932C420.795 159.732 421.166 159.665 421.512 159.745C422.61 160.002 422.899 160.044 422.958 160.052C424.501 160.218 425.346 159.154 425.608 158.193C425.738 157.718 425.966 156.496 426.187 155.312C426.621 152.997 426.829 151.951 426.992 151.621C427.4 150.806 428.704 150.518 429.468 150.583C430.27 150.65 431.104 150.474 431.247 150.209C431.398 149.794 430.948 147.663 430.73 146.638C430.621 146.116 430.52 145.643 430.463 145.298C430.081 143.032 430.167 140.574 430.224 139.601C429.083 138.991 425.166 136.977 421.621 136.091C420.21 135.738 419.072 135.801 418.335 136.271C417.654 136.704 417.514 137.345 417.514 137.353C417.511 137.371 417.506 137.392 417.498 137.41C416.953 139.214 415.514 143.44 413.94 143.681C412.454 143.91 411.508 141.701 410.758 139.923C410.571 139.476 410.392 139.053 410.251 138.799C409.758 137.895 409.233 137.496 409.129 137.42C407.815 136.792 406.807 136.759 406.137 137.319C404.893 138.357 404.869 141.153 405.204 142.363C405.539 143.569 406.732 144.766 407.438 145.093C408.046 145.373 408.43 145.991 408.412 146.666C408.402 147.1 408.412 147.668 408.425 148.325C408.48 151.068 408.56 155.216 407.329 158.172C405.433 162.728 402.165 166.102 397.609 168.215V168.22Z" fill="black"/>
<path d="M421.021 160.784C420.969 160.784 420.912 160.776 420.86 160.76C419.101 160.241 416.273 159.029 414.27 157.716C414.005 157.542 413.932 157.189 414.106 156.924C414.28 156.659 414.636 156.587 414.899 156.761C416.805 158.014 419.504 159.169 421.185 159.665C421.488 159.753 421.66 160.073 421.572 160.376C421.499 160.625 421.27 160.786 421.024 160.786L421.021 160.784Z" fill="black"/>
<path d="M112.164 441.75C112.164 441.75 110.629 452.649 114.162 457.256L115.229 459.206L97.4023 457.108L98.392 455.208C100.153 451.826 101.036 448.146 100.971 444.468L112.162 441.748L112.164 441.75Z" fill="white"/>
<path d="M115.23 459.777C115.206 459.777 115.186 459.777 115.162 459.772L97.3353 457.675C97.1483 457.654 96.9846 457.54 96.8963 457.373C96.808 457.207 96.808 457.01 96.8963 456.841L97.886 454.941C99.5951 451.658 100.465 448.04 100.403 444.476C100.398 444.208 100.58 443.972 100.839 443.91L112.03 441.19C112.214 441.146 112.409 441.195 112.549 441.322C112.689 441.449 112.757 441.639 112.731 441.826C112.715 441.932 111.268 452.543 114.614 456.904C114.632 456.927 114.648 456.95 114.661 456.976L115.728 458.926C115.83 459.112 115.819 459.343 115.7 459.52C115.593 459.678 115.414 459.772 115.224 459.772L115.23 459.777ZM98.2912 456.639L114.193 458.508L113.679 457.565C110.614 453.514 111.211 445.171 111.497 442.498L101.548 444.917C101.536 448.522 100.624 452.161 98.9016 455.471L98.2938 456.636L98.2912 456.639Z" fill="black"/>
<path d="M114.493 451.224L116.272 453.306C119.794 457.428 124.265 460.631 129.301 462.64L133.172 464.184C133.54 464.332 133.81 464.652 133.896 465.038L133.94 465.236C134.424 467.424 131.813 472.337 123.826 473.866C118.885 474.814 107.37 475.239 93.6033 469.64C92.7331 469.287 92.1929 468.41 92.276 467.476C92.5747 464.068 93.6033 455.948 96.7749 451.985C97.1282 451.544 97.7776 451.492 98.1802 451.886L102.058 455.692C103.799 457.399 106.596 457.368 108.298 455.624L112.643 451.165C113.158 450.638 114.015 450.664 114.493 451.224Z" fill="white"/>
<path d="M116.843 475C111.297 475 103.044 474.097 93.3869 470.17C92.2777 469.718 91.5998 468.615 91.7063 467.426C92.005 464.042 93.0492 455.725 96.3273 451.627C96.6 451.287 97.0052 451.076 97.4364 451.048C97.8598 451.024 98.278 451.178 98.5819 451.476L102.457 455.281C103.19 456 104.156 456.384 105.185 456.379C106.211 456.369 107.169 455.956 107.886 455.222L112.232 450.762C112.588 450.396 113.081 450.194 113.598 450.212C114.11 450.228 114.593 450.461 114.926 450.851L116.705 452.932C120.152 456.966 124.581 460.14 129.511 462.108L133.381 463.652C133.927 463.87 134.327 464.343 134.454 464.914L134.498 465.111C134.737 466.191 134.366 467.579 133.477 468.924C132.443 470.494 129.828 473.295 123.931 474.427C123.019 474.601 120.531 475 116.843 475ZM97.5273 452.19C97.5273 452.19 97.5118 452.19 97.5066 452.19C97.3949 452.198 97.2936 452.25 97.2234 452.34C94.1402 456.195 93.1375 464.244 92.8466 467.525C92.7868 468.21 93.1765 468.849 93.8207 469.108C109.603 475.527 121.497 473.728 123.718 473.303C129.202 472.252 131.589 469.716 132.524 468.296C133.355 467.032 133.514 465.949 133.381 465.358L133.337 465.16C133.293 464.958 133.15 464.792 132.958 464.714L129.087 463.169C123.986 461.132 119.404 457.851 115.835 453.675L114.055 451.593C113.931 451.445 113.754 451.362 113.559 451.354C113.364 451.346 113.185 451.422 113.05 451.559L108.705 456.018C107.775 456.974 106.528 457.506 105.195 457.521C103.858 457.54 102.606 457.031 101.655 456.096L97.7793 452.291C97.691 452.206 97.5897 452.187 97.5273 452.187V452.19Z" fill="black"/>
<path d="M113.021 467.863H113.006C107.086 467.813 101.345 466.557 95.9451 464.13L92.9216 462.77C92.6333 462.64 92.506 462.303 92.6333 462.015C92.7632 461.727 93.1008 461.599 93.3892 461.727L96.4127 463.087C101.667 465.449 107.252 466.669 113.014 466.718H113.019C113.219 466.718 113.401 466.624 113.52 466.464C113.64 466.3 113.673 466.098 113.608 465.905L113.099 464.348C112.899 463.736 113.076 463.087 113.556 462.658C114.04 462.23 114.702 462.131 115.289 462.404L116.801 463.102C121.133 465.106 126.167 465.251 130.609 463.502L131.482 463.159C131.775 463.043 132.108 463.188 132.225 463.481C132.342 463.774 132.196 464.107 131.903 464.224L131.03 464.566C126.3 466.432 120.936 466.277 116.32 464.14L114.808 463.442C114.556 463.325 114.367 463.468 114.317 463.515C114.266 463.562 114.102 463.733 114.188 463.995L114.697 465.552C114.876 466.098 114.782 466.679 114.442 467.141C114.107 467.6 113.588 467.863 113.019 467.863H113.021Z" fill="black"/>
<path d="M33.5628 420.489C33.5628 420.489 26.0585 428.816 26.0247 434.724L25.6896 436.979L12.7695 422.989L14.7982 422.366C18.0919 420.515 21.4816 419.539 23.5753 416.398L33.5602 420.489H33.5628Z" fill="white"/>
<path d="M25.6925 437.55C25.534 437.55 25.3834 437.485 25.2717 437.366L12.3516 423.375C12.2191 423.23 12.1671 423.028 12.2191 422.838C12.271 422.649 12.4165 422.498 12.6035 422.441L14.575 421.836C15.3855 421.382 16.2037 420.98 16.9933 420.59C19.3701 419.42 21.6143 418.314 23.1027 416.079C23.2534 415.853 23.5443 415.765 23.7963 415.866L33.7812 419.957C33.9526 420.027 34.0799 420.178 34.1215 420.359C34.163 420.541 34.1137 420.73 33.989 420.868C33.9163 420.949 26.6302 429.104 26.599 434.721C26.599 434.747 26.599 434.775 26.5938 434.801L26.2587 437.057C26.2276 437.275 26.0717 437.454 25.8613 437.519C25.8068 437.537 25.7496 437.545 25.6925 437.545V437.55ZM13.8088 423.269L25.3002 435.712L25.4535 434.677C25.5106 429.501 30.8668 422.768 32.6071 420.715L23.7833 417.099C22.139 419.329 19.8818 420.442 17.4973 421.618C16.705 422.01 15.8842 422.412 15.0816 422.864C15.0452 422.885 15.0088 422.9 14.9699 422.913L13.8088 423.269Z" fill="black"/>
<path d="M28.6926 432.009L28.2329 434.752C27.3237 440.187 27.7497 445.763 29.4771 450.996L30.8044 455.016C30.9317 455.4 30.859 455.821 30.6122 456.14L30.4875 456.304C29.0978 458.11 23.5625 459.291 17.1466 454.074C13.1776 450.848 5.31486 442.163 0.678268 427.788C0.384747 426.88 0.714634 425.888 1.49649 425.34C4.34858 423.344 11.3489 418.836 16.5128 418.711C17.0869 418.698 17.5544 419.168 17.5103 419.742L17.0791 425.247C16.8843 427.718 18.7389 429.875 21.2117 430.059L27.5289 430.527C28.277 430.581 28.8147 431.266 28.6926 432.006V432.009Z" fill="white"/>
<path d="M26.2374 458.409C24.1308 458.409 20.754 457.744 16.7876 454.518C14.9563 453.03 5.55327 444.756 0.137422 427.964C-0.236623 426.809 0.18158 425.566 1.17384 424.873C4.00774 422.893 11.1717 418.27 16.5045 418.143C16.9512 418.132 17.372 418.309 17.6734 418.625C17.9695 418.937 18.1175 419.36 18.0838 419.788L17.6526 425.293C17.5694 426.337 17.9019 427.347 18.5825 428.141C19.263 428.935 20.2137 429.413 21.2579 429.491L27.5751 429.958C28.092 429.997 28.57 430.251 28.8921 430.659C29.2116 431.066 29.3467 431.593 29.2609 432.102L28.8012 434.845C27.9102 440.169 28.3336 445.693 30.0246 450.816L31.3519 454.837C31.539 455.4 31.4325 456.018 31.0714 456.488L30.9467 456.651C30.2636 457.539 28.9388 458.157 27.3154 458.346C27.0089 458.383 26.6504 458.406 26.2426 458.406L26.2374 458.409ZM16.5408 419.285C16.5408 419.285 16.533 419.285 16.5304 419.285C11.5094 419.404 4.5766 423.887 1.82841 425.81C1.25176 426.215 1.00759 426.939 1.22579 427.614C6.54293 444.099 15.7226 452.179 17.5097 453.633C21.9151 457.215 25.4581 457.414 27.1777 457.215C28.7103 457.035 29.6584 456.449 30.035 455.958L30.1597 455.795C30.2896 455.626 30.3285 455.403 30.261 455.198L28.9336 451.177C27.1855 445.877 26.7465 440.164 27.6686 434.659L28.1284 431.915C28.1622 431.718 28.1102 431.523 27.9881 431.365C27.8661 431.209 27.6868 431.113 27.4894 431.097L21.1722 430.63C19.8215 430.531 18.5955 429.911 17.7123 428.886C16.8318 427.861 16.4032 426.552 16.5097 425.205L16.9408 419.7C16.9512 419.555 16.8811 419.459 16.8395 419.412C16.7616 419.329 16.6551 419.285 16.5408 419.285Z" fill="black"/>
<path d="M30.2211 454.121C30.1302 454.121 30.0367 454.098 29.9483 454.051L29.1093 453.597C24.5637 451.133 21.1817 446.864 19.8284 441.877L19.3842 440.242C19.3089 439.967 19.0699 439.91 18.9972 439.899C18.9244 439.889 18.6803 439.873 18.5296 440.117L17.649 441.532C17.3425 442.025 16.8334 442.332 16.2516 442.368C15.6723 442.407 15.1268 442.171 14.7554 441.724C10.924 437.083 8.14987 431.796 6.51083 426.008L5.5939 422.766C5.50818 422.462 5.68481 422.145 5.98872 422.06C6.29523 421.974 6.60953 422.151 6.69525 422.454L7.61218 425.696C9.20706 431.331 11.9085 436.478 15.6386 440.995C15.771 441.156 15.9658 441.241 16.1762 441.226C16.384 441.213 16.5685 441.101 16.6776 440.925L17.5581 439.51C17.9036 438.957 18.5192 438.672 19.1634 438.768C19.8102 438.864 20.3167 439.313 20.4881 439.941L20.9323 441.576C22.2051 446.261 25.3819 450.277 29.6548 452.592L30.4938 453.046C30.7718 453.197 30.8757 453.545 30.725 453.822C30.6211 454.014 30.4237 454.121 30.2211 454.121Z" fill="black"/>
<path d="M129.87 292.61C129.87 292.61 113.31 296.93 98.1641 293.714V293.701L96.9303 293.363C93.7275 292.483 90.73 291.162 87.8181 289.618C85.8752 288.585 84.2959 286.978 83.2854 285.023C83.2854 285.023 73.8512 299.398 73.7317 324.044C73.5967 351.921 36.0104 378.079 21.9863 415.002C22.9085 420.188 26.2982 424.603 31.0751 426.833L31.2076 426.895C31.2076 426.895 68.9497 411.716 83.7036 388.163C89.8598 378.336 97.4186 360.953 101.123 352.102C102.689 362.339 101.512 371.245 100.081 376.789C97.6887 386.061 91.5456 413.909 97.6784 444.273C97.6784 444.273 104.772 447.645 113.373 444.831C113.373 444.831 137.018 395.776 139.138 365.184C141.257 334.595 129.872 292.608 129.872 292.608L129.87 292.61Z" fill="black"/>
<path d="M106.277 446.534C101.181 446.534 97.6376 444.891 97.4298 444.792C97.2662 444.714 97.1493 444.566 97.1155 444.39C91.1464 414.828 96.8116 387.169 99.526 376.652C100.575 372.584 102.066 364.463 100.838 354.254C96.7804 363.842 89.9022 379.346 84.1876 388.47C69.5038 411.908 31.798 427.274 31.4188 427.427C31.2707 427.487 31.1071 427.482 30.9642 427.414L30.8317 427.352C25.8912 425.045 22.3742 420.466 21.4209 415.103C21.4027 415.002 21.4131 414.898 21.4494 414.8C27.803 398.073 38.7204 383.868 49.2768 370.129C61.519 354.2 73.0832 339.155 73.1559 324.038C73.2754 299.507 82.7096 284.852 82.8031 284.707C82.9148 284.538 83.1044 284.437 83.3122 284.45C83.5148 284.46 83.6967 284.577 83.7902 284.759C84.7565 286.628 86.2422 288.133 88.0839 289.112C91.3568 290.848 94.2167 292.024 97.0817 292.81L98.3156 293.148C98.3415 293.156 98.3675 293.163 98.3909 293.174C113.205 296.281 129.561 292.097 129.725 292.055C130.029 291.975 130.341 292.156 130.421 292.457C130.535 292.878 141.809 334.888 139.705 365.223C137.601 395.571 114.122 444.587 113.885 445.078C113.818 445.218 113.696 445.324 113.547 445.374C110.932 446.23 108.459 446.531 106.274 446.531L106.277 446.534ZM98.1779 443.868C99.4923 444.408 105.687 446.651 112.96 444.364C114.683 440.746 136.549 394.235 138.564 365.148C140.525 336.863 130.764 298.298 129.46 293.298C126.436 294.007 111.599 297.15 98.0454 294.272C97.9961 294.261 97.9493 294.246 97.9052 294.222L96.7778 293.913C93.8296 293.104 90.897 291.899 87.5488 290.121C85.7955 289.189 84.3331 287.829 83.2733 286.155C81.3485 289.524 74.4027 303.123 74.3014 324.046C74.2261 339.547 62.5476 354.739 50.1859 370.827C39.7101 384.457 28.8784 398.551 22.5768 415.057C23.4989 419.952 26.7172 424.131 31.2214 426.272C34.3955 424.954 69.3271 410.034 83.2187 387.862C89.2917 378.168 96.7129 361.161 100.596 351.884C100.695 351.648 100.936 351.505 101.194 351.536C101.448 351.568 101.651 351.765 101.69 352.017C103.433 363.391 101.778 372.509 100.638 376.935C97.9519 387.343 92.3568 414.652 98.1831 443.868H98.1779Z" fill="white"/>
<path d="M175.845 215.406C177.242 216.016 178.863 215.369 179.463 213.963L188.009 193.914L182.944 191.705L174.398 211.754C173.798 213.161 174.445 214.796 175.845 215.406Z" fill="black"/>
<path d="M176.94 216.208C176.491 216.208 176.041 216.115 175.616 215.93C173.932 215.196 173.15 213.223 173.873 211.531L182.421 191.482C182.481 191.342 182.595 191.23 182.735 191.176C182.876 191.119 183.037 191.121 183.174 191.184L188.239 193.392C188.528 193.517 188.66 193.852 188.536 194.14L179.99 214.189C179.639 215.011 178.99 215.645 178.161 215.974C177.766 216.13 177.353 216.208 176.94 216.208ZM183.244 192.458L174.925 211.977C174.449 213.093 174.964 214.396 176.073 214.882C176.608 215.115 177.197 215.126 177.738 214.91C178.281 214.695 178.707 214.279 178.935 213.74L187.26 194.21L183.244 192.458Z" fill="white"/>
<path d="M152.329 157.126C158.513 184.113 185.216 201.029 211.971 194.906C238.725 188.783 255.399 161.941 249.211 134.955C243.027 107.968 216.324 91.0521 189.569 97.1752C162.815 103.298 146.141 130.14 152.329 157.126ZM158.713 155.665C153.344 132.234 167.82 108.931 191.047 103.615C214.275 98.2991 237.458 112.985 242.829 136.413C248.198 159.844 233.722 183.148 210.495 188.463C187.268 193.779 164.085 179.093 158.713 155.665Z" fill="black"/>
<path d="M200.966 196.725C178.007 196.725 157.154 180.746 151.769 157.253C145.522 130.002 162.422 102.8 189.441 96.617C216.461 90.4342 243.522 107.573 249.769 134.825C252.795 148.026 250.543 161.601 243.428 173.053C236.314 184.508 225.186 192.466 212.097 195.461C208.369 196.315 204.642 196.723 200.969 196.723L200.966 196.725ZM200.572 96.5001C196.982 96.5001 193.34 96.8999 189.698 97.7331C163.294 103.776 146.782 130.363 152.886 156.999C158.149 179.963 178.532 195.58 200.969 195.58C204.559 195.58 208.201 195.181 211.842 194.348C224.633 191.42 235.503 183.646 242.457 172.451C249.41 161.256 251.61 147.984 248.654 135.079C243.392 112.115 223.009 96.4975 200.572 96.4975V96.5001ZM200.94 190.119C180.973 190.119 162.837 176.222 158.154 155.792C152.722 132.091 167.419 108.435 190.917 103.057C214.414 97.6786 237.95 112.585 243.381 136.286C248.813 159.987 234.116 183.643 210.619 189.021C207.377 189.764 204.135 190.119 200.94 190.119ZM159.268 155.538C164.559 178.623 187.483 193.143 210.364 187.908C233.246 182.67 247.558 159.628 242.267 136.543C236.976 113.457 214.055 98.9348 191.171 104.173C168.289 109.411 153.977 132.452 159.268 155.538Z" fill="white"/>
<path d="M176.552 224.333C177.183 224.551 179.191 221.929 179.661 221.467C181.511 219.65 185.807 217.509 186.677 213.711C187.805 208.785 185.659 203.497 184.402 203.661C183.147 203.824 181.552 213.174 176.633 213.514C176.633 213.514 175.526 213.384 175.646 208.767C175.664 208.12 174.968 207.671 174.396 207.97C173.606 208.38 172.601 209.26 171.775 211.136C170.721 213.532 170.923 216.296 171.089 217.952C171.201 219.048 170.801 222.336 171.64 222.627L176.552 224.333Z" fill="white"/>
<path d="M176.635 224.919C176.541 224.919 176.453 224.904 176.365 224.872L171.453 223.167C170.528 222.845 170.486 221.42 170.528 219.281C170.538 218.77 170.549 218.285 170.52 218.01C170.312 215.946 170.209 213.275 171.25 210.905C172.167 208.821 173.323 207.881 174.131 207.461C174.578 207.23 175.102 207.251 175.536 207.523C175.978 207.798 176.232 208.268 176.217 208.782C176.136 211.837 176.611 212.714 176.775 212.925C179.599 212.569 181.279 208.616 182.399 205.979C183.162 204.18 183.583 203.188 184.326 203.092C184.742 203.038 185.155 203.233 185.55 203.669C186.859 205.107 188.209 209.556 187.233 213.836C186.547 216.829 183.962 218.799 181.884 220.379C181.186 220.911 180.526 221.415 180.061 221.872C179.96 221.973 179.78 222.181 179.56 222.44C178.134 224.099 177.308 224.916 176.632 224.916L176.635 224.919ZM171.876 222.103L176.645 223.759C177.1 223.554 178.25 222.214 178.695 221.695C178.944 221.405 179.147 221.171 179.263 221.057C179.78 220.548 180.469 220.024 181.196 219.471C183.126 218.002 185.529 216.172 186.121 213.581C187.16 209.042 185.272 204.66 184.511 204.253C184.253 204.543 183.814 205.579 183.453 206.425C182.199 209.374 180.305 213.831 176.674 214.082C176.637 214.085 176.601 214.082 176.567 214.082C175.959 214.012 174.959 213.223 175.076 208.754C175.079 208.603 174.978 208.523 174.933 208.494C174.881 208.463 174.778 208.416 174.663 208.478C174.019 208.813 173.084 209.587 172.302 211.37C171.248 213.768 171.538 216.662 171.663 217.898C171.697 218.243 171.689 218.736 171.676 219.307C171.661 220.107 171.629 221.755 171.879 222.105L171.876 222.103Z" fill="black"/>
<path d="M170.113 220.408L179.098 223.707C178.3 228.075 171.386 261.995 148.431 269.608C145.673 270.742 141.603 271.059 141.54 271.064C141.47 271.072 134.545 271.796 129.516 266.825C129.353 266.664 129.106 266.618 128.893 266.706C128.68 266.794 128.54 267.005 128.542 267.236C128.542 267.355 128.651 279.152 132.47 288.38C133.285 290.344 131.14 293.226 126.732 296.081C115.877 303.112 89.7662 310.095 75.7136 295.266C75.6824 295.232 75.6409 295.198 75.6019 295.172C75.5603 295.146 71.5056 292.405 75.9032 282.249C79.7761 273.312 79.4489 266.89 79.4333 266.623C79.4229 266.436 79.319 266.265 79.1605 266.169C79.0696 266.112 78.9657 266.083 78.8618 266.083C78.7839 266.083 78.7034 266.101 78.6306 266.132C78.4514 266.213 60.5466 273.93 53.9957 260.606C48.6084 249.65 64.1624 226.092 72.4615 219.471C72.568 219.38 83.2153 210.43 98.5199 207.378C105.905 205.906 114.264 207.222 122.061 211.087C126.272 213.176 132.044 217.446 135.618 223.175C139.93 230.089 142.481 236.049 144.218 240.469C144.546 241.297 145.177 241.939 146 242.273C146.837 242.616 147.751 242.598 148.58 242.229C151.787 240.794 154.79 238.961 157.505 236.781C161.637 233.464 165.765 228.104 170.113 220.408Z" fill="#B9FF66"/>
<path d="M75.2977 295.658C75.2977 295.658 70.687 292.854 75.3782 282.023C79.2407 273.107 78.8615 266.657 78.8615 266.657C78.8615 266.657 60.3489 274.828 53.481 260.861C47.8833 249.471 63.588 225.817 72.0897 219.035C72.0897 219.035 82.7785 209.932 98.4053 206.817C106.504 205.202 115.006 206.952 122.316 210.575C127.02 212.909 132.688 217.399 136.101 222.871C140.646 230.157 143.207 236.337 144.75 240.262C145.311 241.684 146.948 242.33 148.345 241.707C151.452 240.316 154.413 238.53 157.146 236.334C161.795 232.602 165.967 226.64 169.853 219.704L179.744 223.336C179.744 223.336 173.656 261.844 148.649 270.137C145.771 271.318 141.605 271.632 141.605 271.632C141.605 271.632 134.394 272.453 129.113 267.233C129.113 267.233 129.178 278.931 132.999 288.159C136.568 296.781 94.3479 315.761 75.2977 295.658ZM75.9029 282.249C71.5053 292.405 75.56 295.146 75.6016 295.172C75.6405 295.198 75.6821 295.232 75.7133 295.266C89.7659 310.094 115.876 303.112 126.731 296.081C131.139 293.225 133.285 290.344 132.469 288.379C128.651 279.152 128.542 267.355 128.542 267.235C128.542 267.004 128.68 266.794 128.893 266.706C129.105 266.618 129.352 266.664 129.516 266.825C134.545 271.796 141.47 271.072 141.54 271.064C141.602 271.059 145.673 270.742 148.431 269.608C171.386 261.995 178.3 228.075 179.098 223.707L170.113 220.408C165.764 228.104 161.637 233.464 157.504 236.781C154.79 238.961 151.787 240.794 148.579 242.229C147.751 242.598 146.836 242.616 146 242.273C145.176 241.938 144.545 241.297 144.218 240.469C142.48 236.049 139.929 230.089 135.618 223.175C132.043 217.446 126.272 213.176 122.061 211.087C114.263 207.222 105.904 205.906 98.5196 207.378C83.2149 210.43 72.5676 219.38 72.4611 219.471C64.162 226.092 48.608 249.65 53.9953 260.606C60.5463 273.93 78.4511 266.213 78.6303 266.132C78.703 266.101 78.7835 266.083 78.8615 266.083C78.9654 266.083 79.0693 266.111 79.1602 266.169C79.3186 266.265 79.4225 266.436 79.4329 266.623C79.4485 266.89 79.7758 273.312 75.9029 282.249Z" fill="black"/>
<path d="M74.929 296.099C74.2978 295.658 70.2872 292.338 74.8537 281.795C77.8356 274.911 78.2513 269.473 78.2954 267.495C74.6069 268.871 59.1672 273.72 52.9695 261.113C47.1173 249.209 63.5155 225.145 71.734 218.588C71.8276 218.508 82.7008 209.366 98.2938 206.257C105.925 204.735 114.547 206.088 122.57 210.064C126.921 212.221 132.888 216.639 136.587 222.57C140.95 229.563 143.527 235.587 145.283 240.052C145.494 240.586 145.904 240.999 146.434 241.217C146.977 241.438 147.572 241.427 148.112 241.186C151.229 239.792 154.148 238.009 156.79 235.888C160.879 232.605 164.988 227.219 169.354 219.424C169.492 219.178 169.786 219.071 170.051 219.167L179.942 222.798C180.199 222.892 180.352 223.154 180.311 223.424C180.295 223.523 178.724 233.246 174.098 243.854C167.949 257.961 159.211 267.236 148.829 270.68C145.94 271.869 141.821 272.191 141.647 272.204C141.379 272.232 134.987 272.899 129.727 268.557C129.875 271.866 130.54 280.725 133.527 287.941C134.586 290.495 132.334 293.812 127.355 297.039C121.074 301.106 109.806 305.145 98.5691 305.145C89.9012 305.145 81.254 302.741 74.929 296.099ZM75.3784 282.023C70.6872 292.854 75.2979 295.658 75.2979 295.658C94.3481 315.761 136.568 296.782 132.999 288.159C129.178 278.932 129.113 267.233 129.113 267.233C134.394 272.453 141.605 271.633 141.605 271.633C141.605 271.633 145.771 271.319 148.65 270.138C173.656 261.845 179.745 223.336 179.745 223.336L169.853 219.704C165.967 226.64 161.796 232.602 157.146 236.335C154.413 238.531 151.452 240.316 148.346 241.708C146.948 242.331 145.312 241.684 144.751 240.262C143.208 236.337 140.647 230.157 136.101 222.871C132.688 217.4 127.02 212.909 122.316 210.576C115.006 206.952 106.505 205.203 98.4055 206.817C82.7787 209.932 72.0899 219.035 72.0899 219.035C63.5882 225.817 47.8835 249.471 53.4812 260.861C60.3491 274.828 78.8617 266.657 78.8617 266.657C78.8617 266.657 79.2409 273.107 75.3784 282.023Z" fill="black"/>
<path d="M79.0983 260.023C78.8619 260.023 78.6385 259.875 78.558 259.638C73.311 244.467 75.7501 232.197 75.776 232.075C75.841 231.767 76.1449 231.569 76.4514 231.632C76.7605 231.696 76.9605 231.998 76.8956 232.306C76.8722 232.426 74.5006 244.405 79.6386 259.265C79.7425 259.563 79.584 259.888 79.2853 259.991C79.223 260.012 79.1606 260.023 79.0983 260.023Z" fill="black"/>
<path d="M128.802 267.887C128.659 267.887 128.514 267.833 128.402 267.724C120.191 259.711 114.484 241.129 114.245 240.342C114.154 240.041 114.323 239.722 114.627 239.629C114.931 239.538 115.248 239.706 115.341 240.01C115.399 240.2 121.201 259.098 129.202 266.906C129.428 267.127 129.433 267.487 129.212 267.713C129.101 267.827 128.952 267.885 128.802 267.885V267.887Z" fill="black"/>
<path d="M107.331 171.935C110.489 171.95 113.399 173.656 114.986 176.386C115.721 177.65 116.388 178.829 116.523 179.161C116.83 179.919 117.508 182.465 119.991 184.921C120.235 185.162 120.272 185.546 120.059 185.819L118.469 187.851C118.36 187.991 118.313 188.171 118.344 188.344C118.534 189.429 119.482 193.362 119.201 194.073C118.607 195.578 115.006 195.986 113.941 196.074C113.741 196.09 113.562 196.204 113.466 196.378C113.121 197.001 112.209 198.789 111.458 203.246C110.318 210.039 116.796 211.095 115.477 211.762C106.271 216.406 89.3168 215.349 90.2987 213.418C91.1065 211.83 100.411 207.718 101.276 196.544C101.816 189.577 92.052 189.004 99.0861 175.74C100.723 172.656 104.26 171.919 107.333 171.932L107.331 171.935Z" fill="white"/>
<path d="M98.171 215.632C94.0825 215.632 90.8356 215.121 89.9888 214.272C89.6693 213.95 89.5914 213.535 89.7836 213.158C90.0278 212.678 90.6771 212.17 91.6616 211.399C94.5942 209.104 100.054 204.832 100.698 196.5C100.88 194.158 99.8179 192.632 98.5866 190.865C96.4125 187.739 93.9448 184.199 98.5736 175.475C100.01 172.765 103.044 171.338 107.33 171.364C110.668 171.379 113.79 173.194 115.476 176.098C116.858 178.478 117.001 178.831 117.047 178.945C117.089 179.049 117.138 179.184 117.195 179.348C117.559 180.36 118.315 182.468 120.385 184.516C120.84 184.965 120.889 185.676 120.499 186.172L118.91 188.204C118.941 188.49 119.021 188.879 119.117 189.341C119.718 192.212 119.959 193.683 119.723 194.286C119.053 195.981 115.837 196.492 113.977 196.648C112.982 198.415 112.361 201.265 112.011 203.344C111.286 207.651 113.837 209.431 115.208 210.389C115.837 210.828 116.25 211.116 116.213 211.614C116.2 211.809 116.102 212.081 115.723 212.273C110.979 214.666 103.779 215.632 98.1632 215.632H98.171ZM90.8927 213.553C92.5032 214.75 106.462 215.385 114.767 211.471C114.697 211.422 114.626 211.373 114.559 211.326C113.094 210.303 110.047 208.172 110.889 203.155C111.418 199.999 112.115 197.626 112.959 196.103C113.148 195.763 113.496 195.539 113.889 195.506C116.442 195.293 118.362 194.633 118.666 193.865C118.801 193.38 118.242 190.714 118.006 189.575C117.907 189.097 117.821 188.697 117.78 188.445C117.723 188.113 117.808 187.768 118.019 187.501L119.608 185.468C119.642 185.424 119.624 185.364 119.59 185.331C117.336 183.101 116.52 180.83 116.128 179.737C116.076 179.592 116.032 179.472 115.995 179.379C115.936 179.231 115.663 178.686 114.494 176.677C113.008 174.12 110.265 172.524 107.33 172.511C103.454 172.488 100.833 173.671 99.5919 176.015C95.2904 184.124 97.4463 187.223 99.5321 190.218C100.774 192.001 102.06 193.847 101.847 196.596C101.163 205.429 95.4462 209.904 92.3733 212.307C91.7421 212.803 91.1395 213.273 90.8979 213.558L90.8927 213.553Z" fill="black"/>
<path d="M112.699 182.675L116.382 178.068C118.273 175.703 117.611 172.223 114.995 170.699C114.27 170.276 113.418 169.835 112.468 169.427C103.007 165.357 92.1706 172.075 92.1602 182.364C92.155 186.576 94.9733 191.459 100.963 195.799C100.963 195.799 105.171 192.481 105.119 188.894C105.119 188.894 102.065 185.273 106.369 183.441C107.192 183.09 108.132 183.116 108.935 183.514C110.231 184.152 111.797 183.802 112.699 182.675Z" fill="black"/>
<path d="M107.078 191.116C105.802 191.116 104.181 190.574 102.979 188.303C102.831 188.022 102.937 187.677 103.218 187.529C103.498 187.381 103.844 187.488 103.992 187.768C105.709 191.012 108.293 189.8 108.584 189.652C108.865 189.51 109.21 189.616 109.356 189.896C109.501 190.177 109.395 190.519 109.117 190.665C109.099 190.675 108.231 191.116 107.08 191.116H107.078Z" fill="black"/>
<path d="M97.0911 172.596C97.0911 172.596 93.8962 161.555 82.2436 163.634C74.968 164.932 68.6144 169.816 65.1233 177.79C58.3697 193.221 64.4843 207.902 53.4786 221.296C50.9928 224.319 53.0188 228.919 56.9333 229.054C64.3285 229.308 74.3108 227.522 81.241 218.007C86.9192 210.21 83.3502 174.364 95.8443 174.904L97.0937 172.596H97.0911Z" fill="black"/>
<path d="M25.3599 363.237C21.8221 363.237 18.9414 360.361 18.9414 356.823C18.9414 353.286 21.8195 350.41 25.3599 350.41C28.9003 350.41 31.7784 353.286 31.7784 356.823C31.7784 360.361 28.9003 363.237 25.3599 363.237ZM25.3599 351.554C22.4533 351.554 20.0869 353.919 20.0869 356.823C20.0869 359.728 22.4533 362.093 25.3599 362.093C28.2665 362.093 30.6329 359.728 30.6329 356.823C30.6329 353.919 28.2665 351.554 25.3599 351.554Z" fill="black"/>
<path d="M112.881 39.9882C109.344 39.9882 106.463 37.1123 106.463 33.5744C106.463 30.0366 109.341 27.1606 112.881 27.1606C116.422 27.1606 119.3 30.0366 119.3 33.5744C119.3 37.1123 116.422 39.9882 112.881 39.9882ZM112.881 28.3053C109.975 28.3053 107.608 30.6699 107.608 33.5744C107.608 36.479 109.975 38.8436 112.881 38.8436C115.788 38.8436 118.154 36.479 118.154 33.5744C118.154 30.6699 115.788 28.3053 112.881 28.3053Z" fill="black"/>
<path d="M32.3711 375.754C29.9918 375.754 28.0566 373.82 28.0566 371.442C28.0566 369.065 29.9918 367.131 32.3711 367.131C34.7505 367.131 36.6856 369.065 36.6856 371.442C36.6856 373.82 34.7505 375.754 32.3711 375.754ZM32.3711 368.278C30.623 368.278 29.2022 369.698 29.2022 371.445C29.2022 373.192 30.623 374.611 32.3711 374.611C34.1193 374.611 35.5401 373.192 35.5401 371.445C35.5401 369.698 34.1193 368.278 32.3711 368.278Z" fill="black"/>
<path d="M457.949 145.057C455.57 145.057 453.635 143.123 453.635 140.745C453.635 138.368 455.57 136.434 457.949 136.434C460.329 136.434 462.264 138.368 462.264 140.745C462.264 143.123 460.329 145.057 457.949 145.057ZM457.949 137.579C456.201 137.579 454.78 138.999 454.78 140.745C454.78 142.492 456.201 143.912 457.949 143.912C459.697 143.912 461.118 142.492 461.118 140.745C461.118 138.999 459.697 137.579 457.949 137.579Z" fill="black"/>
<path d="M452.396 131.492C449.515 131.492 447.17 129.15 447.17 126.269C447.17 123.388 449.513 121.047 452.396 121.047C455.279 121.047 457.622 123.388 457.622 126.269C457.622 129.15 455.279 131.492 452.396 131.492ZM452.396 122.192C450.147 122.192 448.315 124.021 448.315 126.269C448.315 128.517 450.147 130.347 452.396 130.347C454.646 130.347 456.477 128.517 456.477 126.269C456.477 124.021 454.646 122.192 452.396 122.192Z" fill="black"/>
<path d="M15.7199 332.181C15.403 332.181 15.1484 331.924 15.1484 331.61V327.171C15.1484 326.854 15.4056 326.6 15.7199 326.6C16.0342 326.6 16.2914 326.857 16.2914 327.171V331.61C16.2914 331.926 16.0342 332.181 15.7199 332.181Z" fill="black"/>
<path d="M15.7199 342.522C15.403 342.522 15.1484 342.265 15.1484 341.95V337.512C15.1484 337.195 15.4056 336.941 15.7199 336.941C16.0342 336.941 16.2914 337.198 16.2914 337.512V341.95C16.2914 342.267 16.0342 342.522 15.7199 342.522Z" fill="black"/>
<path d="M12.7671 335.132H8.32536C8.00846 335.132 7.75391 334.875 7.75391 334.561C7.75391 334.247 8.01106 333.99 8.32536 333.99H12.7671C13.084 333.99 13.3386 334.247 13.3386 334.561C13.3386 334.875 13.0814 335.132 12.7671 335.132Z" fill="black"/>
<path d="M23.1148 335.132H18.673C18.3561 335.132 18.1016 334.875 18.1016 334.561C18.1016 334.247 18.3587 333.99 18.673 333.99H23.1148C23.4317 333.99 23.6863 334.247 23.6863 334.561C23.6863 334.875 23.4291 335.132 23.1148 335.132Z" fill="black"/>
<path d="M91.0285 40.3384C90.7116 40.3384 90.457 40.0814 90.457 39.7674V35.3288C90.457 35.0122 90.7142 34.7578 91.0285 34.7578C91.3428 34.7578 91.6 35.0148 91.6 35.3288V39.7674C91.6 40.084 91.3428 40.3384 91.0285 40.3384Z" fill="black"/>
<path d="M91.0285 50.6792C90.7116 50.6792 90.457 50.4223 90.457 50.1082V45.6697C90.457 45.353 90.7142 45.0986 91.0285 45.0986C91.3428 45.0986 91.6 45.3556 91.6 45.6697V50.1082C91.6 50.4249 91.3428 50.6792 91.0285 50.6792Z" fill="black"/>
<path d="M88.0777 43.2895H83.6359C83.319 43.2895 83.0645 43.0326 83.0645 42.7185C83.0645 42.4044 83.3216 42.1475 83.6359 42.1475H88.0777C88.3946 42.1475 88.6491 42.4044 88.6491 42.7185C88.6491 43.0326 88.392 43.2895 88.0777 43.2895Z" fill="black"/>
<path d="M98.4234 43.2895H93.9816C93.6647 43.2895 93.4102 43.0326 93.4102 42.7185C93.4102 42.4044 93.6673 42.1475 93.9816 42.1475H98.4234C98.7403 42.1475 98.9948 42.4044 98.9948 42.7185C98.9948 43.0326 98.7377 43.2895 98.4234 43.2895Z" fill="black"/>
<path d="M29.7725 283.596C29.5361 283.596 29.3127 283.448 29.2322 283.212C12.5274 235.001 14.4912 197.816 19.0784 175.109C24.0579 150.469 33.1337 137.047 33.2246 136.914C33.4038 136.655 33.7597 136.587 34.0194 136.766C34.2792 136.945 34.3467 137.301 34.1675 137.561C34.0766 137.693 25.1099 150.967 20.185 175.402C15.6393 197.958 13.7041 234.904 30.3127 282.835C30.4166 283.134 30.2582 283.458 29.9595 283.562C29.8971 283.583 29.8348 283.593 29.7725 283.593V283.596Z" fill="black"/>
<path d="M13.045 265.307C12.7879 265.307 12.5541 265.133 12.4892 264.871C0.418451 215.414 5.59273 179 12.0606 157.16C19.0791 133.457 29.116 121.286 29.2173 121.167C29.4199 120.925 29.7809 120.891 30.0225 121.094C30.2641 121.296 30.2978 121.657 30.0952 121.899C29.9965 122.018 20.0844 134.051 13.1386 157.552C6.72526 179.246 1.60033 215.429 13.6035 264.598C13.6788 264.905 13.4892 265.214 13.1827 265.289C13.136 265.299 13.0918 265.304 13.0476 265.304L13.045 265.307Z" fill="black"/>
<path d="M381.434 117.953H433.2C434.883 117.953 436.413 116.59 436.616 114.908L445.219 43.7232C445.421 42.0412 444.502 39.8843 441.798 39.8843L390.772 40.6785L381.434 117.953Z" fill="black"/>
<path d="M433.199 118.524H381.433C381.269 118.524 381.113 118.454 381.004 118.332C380.895 118.21 380.843 118.047 380.864 117.886L390.202 40.6113C390.236 40.3284 390.475 40.1129 390.76 40.1077L441.786 39.3135C443.394 39.3135 444.329 39.9909 444.836 40.562C445.574 41.3926 445.927 42.6021 445.784 43.7935L437.181 114.979C436.945 116.936 435.157 118.527 433.196 118.527L433.199 118.524ZM382.077 117.38H433.199C434.599 117.38 435.877 116.24 436.046 114.838L444.649 43.6534C444.755 42.7812 444.506 41.9065 443.981 41.3173C443.475 40.7437 442.74 40.4556 441.797 40.4556L391.277 41.242L382.077 117.382V117.38Z" fill="black"/>
<path d="M332.629 117.953H381.384L390.722 40.6787H341.967C340.284 40.6787 338.754 42.0414 338.551 43.7234L329.948 114.908C329.745 116.59 330.946 117.953 332.629 117.953Z" fill="black"/>
<path d="M381.385 118.524H332.63C331.653 118.524 330.777 118.143 330.162 117.447C329.541 116.746 329.263 115.819 329.383 114.838L337.986 43.6532C338.222 41.6961 340.009 40.105 341.968 40.105H390.723C390.887 40.105 391.043 40.1751 391.152 40.2971C391.261 40.4191 391.313 40.5826 391.292 40.7435L381.954 118.018C381.92 118.306 381.676 118.522 381.385 118.522V118.524ZM341.968 41.2497C340.568 41.2497 339.29 42.3891 339.121 43.7908L330.518 114.976C330.437 115.627 330.616 116.237 331.016 116.689C331.411 117.135 331.985 117.382 332.63 117.382H380.879L390.079 41.2497H341.968Z" fill="black"/>
<path d="M380.691 117.158H432.458C434.141 117.158 435.671 115.796 435.873 114.114L444.476 42.9285C444.679 41.2465 443.479 39.8838 441.796 39.8838H390.03L380.691 117.158Z" fill="white"/>
<path d="M432.457 117.73H380.691C380.527 117.73 380.371 117.659 380.262 117.537C380.153 117.415 380.101 117.252 380.122 117.091L389.46 39.8165C389.494 39.5284 389.738 39.313 390.029 39.313H441.795C442.772 39.313 443.647 39.6945 444.262 40.3902C444.883 41.091 445.161 42.0176 445.042 42.9988L436.439 114.184C436.202 116.141 434.415 117.732 432.454 117.732L432.457 117.73ZM381.335 116.587H432.457C433.857 116.587 435.135 115.448 435.304 114.046L443.907 42.8612C443.987 42.2071 443.808 41.5997 443.408 41.1481C443.013 40.7016 442.439 40.4577 441.795 40.4577H390.535L381.335 116.59V116.587Z" fill="black"/>
<path d="M330.756 117.159H380.463L389.983 39.8843H340.276C338.559 39.8843 337.001 41.247 336.793 42.9289L328.021 114.114C327.813 115.796 329.037 117.159 330.754 117.159H330.756Z" fill="white"/>
<path d="M380.462 117.73H330.756C329.753 117.73 328.857 117.34 328.229 116.632C327.61 115.934 327.338 115.015 327.457 114.044L336.229 42.8588C336.471 40.9017 338.286 39.3105 340.279 39.3105H389.985C390.149 39.3105 390.304 39.3806 390.413 39.5026C390.523 39.6246 390.572 39.7881 390.554 39.9517L381.034 117.226C380.997 117.512 380.756 117.727 380.465 117.727L380.462 117.73ZM340.276 40.4552C338.842 40.4552 337.536 41.5973 337.362 42.9989L328.59 114.184C328.512 114.825 328.686 115.427 329.083 115.876C329.491 116.336 330.083 116.588 330.753 116.588H379.953L389.333 40.4552H340.273H340.276Z" fill="black"/>
<path d="M432.699 115.539H380.909C380.691 115.539 380.494 115.417 380.398 115.223C380.301 115.028 380.322 114.797 380.455 114.623L387.855 104.84C387.959 104.702 388.12 104.619 388.291 104.614L427.182 103.207C427.267 103.202 427.356 103.22 427.434 103.257L433.104 105.774C433.314 105.868 433.447 106.078 433.444 106.309L433.275 114.979C433.27 115.29 433.016 115.539 432.704 115.539H432.699ZM382.06 114.395H432.138L432.288 106.665L427.086 104.355L388.601 105.746L382.057 114.395H382.06Z" fill="black"/>
<path d="M441.006 31.7002L442.009 37.9323L432.699 114.968L431.668 108.975L441.006 31.7002Z" fill="white"/>
<path d="M441.006 31.7002L442.009 37.9323L432.699 114.968L431.668 108.975L441.006 31.7002Z" fill="black"/>
<path d="M380.932 114.968C384.662 111.163 389.696 108.975 394.717 108.975H431.667L441.005 31.7002H404.055C399.036 31.7002 394.002 33.8883 390.27 37.6935L380.932 114.968Z" fill="white"/>
<path d="M380.932 115.539C380.849 115.539 380.763 115.521 380.685 115.482C380.465 115.375 380.335 115.142 380.366 114.898L389.704 37.6233C389.72 37.4987 389.777 37.3819 389.865 37.2911C393.707 33.3743 398.881 31.1265 404.058 31.1265H441.008C441.172 31.1265 441.327 31.1965 441.436 31.3185C441.546 31.4405 441.598 31.6041 441.577 31.765L432.239 109.039C432.205 109.328 431.961 109.543 431.67 109.543H394.72C389.847 109.543 384.971 111.664 381.343 115.365C381.233 115.477 381.085 115.536 380.935 115.536L380.932 115.539ZM390.816 37.9556L381.691 113.465C385.379 110.231 390.047 108.404 394.717 108.404H431.158L440.358 32.2711H404.055C399.245 32.2711 394.429 34.3399 390.816 37.9556Z" fill="black"/>
<path d="M386.419 106.893C386.296 106.893 386.174 106.854 386.073 106.776C385.912 106.654 385.826 106.454 385.852 106.252L393.931 39.4091C393.949 39.2637 394.021 39.1287 394.136 39.0353C396.855 36.7979 400.191 35.5649 403.521 35.5649H436.029C436.192 35.5649 436.348 35.635 436.457 35.757C436.566 35.879 436.618 36.0425 436.598 36.2035L428.332 104.601C428.298 104.889 428.054 105.104 427.763 105.104H395.255C392.343 105.104 389.445 105.691 386.639 106.846C386.569 106.875 386.496 106.89 386.421 106.89L386.419 106.893ZM395.037 39.7776L387.102 105.442C389.764 104.461 392.505 103.965 395.253 103.965H427.254L435.382 36.7096H403.521C400.526 36.7096 397.523 37.7972 395.04 39.7776H395.037Z" fill="black"/>
<path d="M381.147 113.751C381.124 113.751 381.101 113.751 381.077 113.745C380.763 113.707 380.54 113.424 380.579 113.11L389.701 37.6209C389.717 37.4963 389.774 37.3795 389.862 37.2886C393.704 33.3718 398.878 31.124 404.055 31.124H441.005C441.169 31.124 441.324 31.1941 441.434 31.3161C441.543 31.4381 441.595 31.6016 441.574 31.7625L432.236 109.037C432.202 109.325 431.958 109.541 431.667 109.541H426.396C426.08 109.541 425.825 109.284 425.825 108.97C425.825 108.655 426.08 108.398 426.396 108.398H431.16L440.361 32.2661H404.058C399.247 32.2661 394.431 34.3348 390.818 37.9505L381.719 113.245C381.683 113.535 381.436 113.748 381.15 113.748L381.147 113.751Z" fill="black"/>
<path d="M380.911 115.539H332.656C332.378 115.539 332.139 115.339 332.093 115.064L331.061 109.07C331.043 108.967 331.054 108.86 331.093 108.764L354.712 48.9946C354.798 48.7765 355.008 48.6338 355.244 48.6338C355.481 48.6338 355.691 48.7791 355.777 48.9972L381.443 114.757C381.511 114.934 381.49 115.131 381.383 115.287C381.277 115.443 381.1 115.536 380.911 115.536V115.539ZM333.139 114.394H380.074L355.242 50.77L332.217 109.034L333.139 114.394Z" fill="black"/>
<path d="M380.911 114.967C378.1 111.162 373.593 108.974 368.575 108.974H331.625L340.963 31.6997H377.913C382.931 31.6997 387.438 33.8878 390.249 37.693L380.911 114.967Z" fill="white"/>
<path d="M380.91 115.539C380.73 115.539 380.559 115.456 380.45 115.308C377.743 111.648 373.416 109.548 368.574 109.548H331.624C331.46 109.548 331.305 109.478 331.196 109.356C331.086 109.234 331.034 109.07 331.055 108.909L340.393 31.6349C340.427 31.3468 340.671 31.1313 340.962 31.1313H377.912C383.12 31.1313 387.785 33.3999 390.708 37.3557C390.793 37.4725 390.832 37.6178 390.817 37.7632L381.479 115.038C381.45 115.271 381.284 115.463 381.055 115.523C381.008 115.536 380.959 115.541 380.91 115.541V115.539ZM332.268 108.403H368.571C373.291 108.403 377.564 110.267 380.502 113.561L389.65 37.8514C386.936 34.3032 382.671 32.2708 377.91 32.2708H341.466L332.266 108.403H332.268Z" fill="black"/>
<path d="M377.512 106.893C377.431 106.893 377.351 106.874 377.273 106.841C374.758 105.691 372.01 105.107 369.109 105.107H336.601C336.437 105.107 336.281 105.037 336.172 104.915C336.063 104.793 336.011 104.629 336.032 104.468L344.297 36.0709C344.334 35.7828 344.575 35.5674 344.866 35.5674H377.374C380.73 35.5674 383.793 36.8159 385.998 39.0819C386.117 39.2065 386.177 39.3778 386.156 39.5491L378.078 106.392C378.055 106.573 377.948 106.732 377.79 106.823C377.704 106.872 377.605 106.895 377.509 106.895L377.512 106.893ZM337.247 103.965H369.109C371.904 103.965 374.566 104.479 377.036 105.491L384.99 39.6866C383.016 37.7659 380.322 36.7095 377.377 36.7095H345.378L337.25 103.965H337.247Z" fill="black"/>
<path d="M381.757 108.533C381.734 108.533 381.71 108.533 381.687 108.528C381.373 108.489 381.149 108.206 381.188 107.892L389.654 37.8491C386.939 34.2983 382.674 32.2685 377.913 32.2685H341.472L332.448 107.742C332.412 108.056 332.129 108.279 331.812 108.243C331.498 108.206 331.274 107.921 331.311 107.607L340.397 31.63C340.43 31.3419 340.675 31.1265 340.966 31.1265H377.915C383.123 31.1265 387.789 33.395 390.711 37.3508C390.797 37.4676 390.836 37.6129 390.82 37.7583L382.329 108.03C382.292 108.32 382.045 108.533 381.76 108.533H381.757Z" fill="black"/>
<path d="M400.416 61.5029H427.623C428.171 61.5029 428.615 61.059 428.615 60.5114V60.2752C428.615 59.7276 428.171 59.2837 427.623 59.2837H400.416C399.868 59.2837 399.424 59.7276 399.424 60.2752V60.5114C399.424 61.059 399.868 61.5029 400.416 61.5029Z" fill="black"/>
<path d="M394.864 56.4312H422.07C422.618 56.4312 423.062 55.9872 423.062 55.4396V55.2034C423.062 54.6558 422.618 54.2119 422.07 54.2119H394.864C394.316 54.2119 393.871 54.6558 393.871 55.2034V55.4396C393.871 55.9872 394.316 56.4312 394.864 56.4312Z" fill="black"/>
<path d="M393.913 66.4165H421.119C421.667 66.4165 422.111 65.9726 422.111 65.425V65.1888C422.111 64.6412 421.667 64.1972 421.119 64.1972H393.913C393.365 64.1972 392.92 64.6412 392.92 65.1888V65.425C392.92 65.9726 393.365 66.4165 393.913 66.4165Z" fill="black"/>
<path d="M399.305 71.1743H426.512C427.06 71.1743 427.504 70.7304 427.504 70.1828V69.9466C427.504 69.399 427.06 68.955 426.512 68.955H399.305C398.757 68.955 398.313 69.399 398.313 69.9466V70.1828C398.313 70.7304 398.757 71.1743 399.305 71.1743Z" fill="black"/>
<path d="M351.878 48.6626H376.807C377.355 48.6626 377.799 48.2187 377.799 47.6711V47.4349C377.799 46.8873 377.355 46.4433 376.807 46.4433H351.878C351.33 46.4433 350.886 46.8873 350.886 47.4349V47.6711C350.886 48.2187 351.33 48.6626 351.878 48.6626Z" fill="black"/>
<path d="M348.118 53.5786H372.576C373.124 53.5786 373.568 53.1347 373.568 52.5871V52.3509C373.568 51.8033 373.124 51.3594 372.576 51.3594H348.118C347.57 51.3594 347.125 51.8033 347.125 52.3509V52.5871C347.125 53.1347 347.57 53.5786 348.118 53.5786Z" fill="black"/>
<path d="M345.577 58.3315L375.639 58.3315C376.187 58.3315 376.631 57.8876 376.631 57.34V57.1038C376.631 56.5562 376.187 56.1123 375.639 56.1123L345.577 56.1123C345.029 56.1123 344.585 56.5562 344.585 57.1038V57.34C344.585 57.8876 345.029 58.3315 345.577 58.3315Z" fill="black"/>
</g>
<defs>
<clipPath id="clip0_942_3216">
<rect width="475" height="475" fill="white"/>
</clipPath>
</defs>
</svg>
